<?xml version="1.0" standalone="no"?>
<!DOCTYPE svg PUBLIC "-//W3C//DTD SVG 1.1//EN" "http://www.w3.org/Graphics/SVG/1.1/DTD/svg11.dtd" >
<svg>
<metadata>
Created by FontForge 20090622 at Wed Jun 10 22:14:31 2015
 By deploy user
&#194;&#169; 2003 Adobe Systems Incorporated. All Rights Reserved.
</metadata>
<defs>
<font id="KeplerStd-Regular" horiz-adv-x="1000" >
  <font-face 
    font-family="Kepler Std"
    font-weight="400"
    font-stretch="normal"
    units-per-em="1000"
    panose-1="2 4 6 3 6 7 10 6 2 4"
    ascent="700"
    descent="-300"
    x-height="430"
    cap-height="634"
    bbox="-176 -332 3778.05 876"
    underline-thickness="58"
    underline-position="-82"
    unicode-range="U+0020-U+FB06"
  />
<missing-glyph horiz-adv-x="500" 
d="M50 95l170 255l-170 255v-510zM420 50l-170 255l-170 -255h340zM450 95v510l-170 -255zM420 650h-340l170 -255zM0 700h500v-700h-500v700z" />
    <glyph glyph-name="f_i" unicode="fi" horiz-adv-x="553" 
d="M26 427h69v18q0 51 11.5 88.5t34.5 65.5q29 35 70 57.5t99 22.5q37 0 64.5 -8.5t45.5 -22.5t27 -32.5t9 -37.5q0 -24 -14.5 -39.5t-40.5 -15.5q-17 0 -26.5 8.5t-8.5 19.5q0 7 2 16.5t2 19.5q0 60 -76 60q-35 0 -60.5 -21.5t-36.5 -66.5q-5 -21 -8.5 -50.5t-3.5 -81.5
h112q68 0 112 4t65 9q-2 -19 -3 -57.5t-1 -101.5v-107q0 -53 0.5 -79t2.5 -42q0 -9 2.5 -14t9 -8t19.5 -4t34 -2l-2 -28q-27 0 -55 1.5t-61 1.5q-39 0 -63.5 -1.5t-48.5 -1.5l1 28q22 1 35 2.5t20.5 4.5t10 8t2.5 12q2 14 3 48.5t1 88.5v80q0 91 -4 110q-1 8 -10 11t-31 3
h-153v-173q0 -54 0.5 -98.5t1.5 -63.5q1 -10 4 -16t11 -9.5t21.5 -5t35.5 -2.5l-2 -28q-26 0 -54.5 1.5t-58.5 1.5q-32 0 -62 -1.5t-57 -1.5v28q21 1 33.5 2t19.5 3.5t9.5 7t3.5 11.5q2 16 3.5 63.5t1.5 109.5v171l-71 5z" />
    <glyph glyph-name="f_l" unicode="fl" horiz-adv-x="554" 
d="M94 427v27q0 56 14 95.5t46 70.5q26 27 62.5 43t83.5 16q34 0 58 -7t40 -18q16 5 36.5 10l40.5 10l-3 -81t-2 -140v-223v-69t0.5 -50t1 -35t0.5 -23q1 -9 3.5 -14t10 -8t20.5 -4t36 -2l-3 -28q-31 0 -66.5 1.5t-63.5 1.5q-32 0 -58 -1.5t-43 -1.5l1 28q21 0 34 2
t19.5 5.5t9 9t3.5 14.5q1 7 2 24t2 41.5t1.5 54.5t0.5 63v281q0 58 -10 80q-9 17 -28.5 32t-55.5 15q-29 0 -52.5 -16.5t-34.5 -51.5q-8 -25 -11.5 -61t-3.5 -91h114l-8 -29l-107 -6q-1 -39 -1 -83v-92q0 -56 0.5 -98t1.5 -61q1 -9 4 -15t10.5 -9.5t21.5 -5.5t37 -3l-3 -28
q-26 0 -53 1.5t-57 1.5q-34 0 -66 -1.5t-57 -1.5l1 28q21 1 33.5 2.5t19.5 4t9.5 7t3.5 10.5q1 8 1.5 26t1.5 41t1.5 50.5t0.5 55.5v170l-72 6l3 29h69z" />
    <glyph glyph-name="T_h" unicode="Th" horiz-adv-x="1045" 
d="M265 458q0 51 0.5 87t-1.5 56q-51 0 -83.5 -2t-52.5 -7t-30.5 -14.5t-16.5 -24.5q-12 -25 -20 -50.5t-16 -55.5l-25 7q3 19 6.5 44t6.5 51.5t5 50.5t4 41q22 -5 81 -7.5t151 -2.5h79q99 0 153 1.5t81 6.5v15.5t-1 12.5q8 0 21 1t27 2.5t27 3.5t21 3q-2 -30 -3 -74
t-1 -107v-132q13 14 30.5 27.5t38 24.5t43.5 18t49 7q27 0 46 -6t31.5 -15t20 -18.5t11.5 -16.5q14 -27 14 -75v-258q0 -8 1.5 -12.5t8 -7.5t19 -4.5t35.5 -2.5l-2 -28q-22 0 -50 1.5t-59 1.5q-34 0 -59 -1.5t-45 -1.5v28q36 2 46 7t11 19q2 15 3.5 51.5t1.5 93.5
q0 47 -0.5 75t-1.5 44t-3 23t-4 13q-7 17 -23 29t-44 12q-34 0 -61 -14.5t-47 -47.5q-7 -11 -9 -22.5t-2 -26.5v-112q0 -38 0.5 -68t1.5 -47q1 -9 3 -14.5t8 -8.5t17.5 -4.5t29.5 -1.5l-1 -28q-19 0 -50.5 1.5t-58.5 1.5q-32 0 -57.5 -1.5t-45.5 -1.5v28q37 2 48 6.5
t12 21.5q1 12 1.5 25t1 31t1 42.5t0.5 58.5v287v50.5t-1 44.5q-21 2 -77 6.5t-147 2.5q-1 -20 -1 -56v-77v-223q0 -78 1 -122t3 -62q2 -14 7 -20.5t19 -8.5q23 -3 38 -4.5t33 -2.5l-2 -28q-24 0 -66 1.5t-92 1.5q-35 0 -71 -1.5t-67 -1.5l-4 28q16 1 29.5 2.5t37.5 4.5
q16 2 23.5 7.5t8.5 19.5q1 13 2 28.5t1.5 37.5t0.5 51.5v69.5v212z" />
    <glyph glyph-name="f_f_i" unicode="ffi" horiz-adv-x="841" 
d="M382 427q0 32 4.5 67t12.5 61q-3 15 -12 29t-22 25.5t-30 18.5t-38 7q-34 0 -60.5 -19t-38.5 -63q-8 -24 -10.5 -58.5t-2.5 -67.5h197zM95 427v19q0 42 11.5 79.5t37.5 66.5q27 32 67.5 53.5t98.5 21.5q48 0 80.5 -17.5t47.5 -37.5q24 29 64 48t94 19q37 0 64.5 -8.5
t46 -23t27.5 -33t9 -38.5q0 -25 -15 -39.5t-41 -14.5q-16 0 -26 7.5t-9 19.5q0 6 1.5 15.5t1.5 19.5q0 29 -18.5 46.5t-55.5 17.5q-35 0 -60.5 -21.5t-35.5 -66.5q-5 -22 -9 -52t-4 -81h111q69 0 112.5 4t65.5 9q-2 -19 -3 -58t-1 -102v-106q0 -53 0.5 -79t1.5 -42
q1 -17 12 -22t52 -6l-1 -28q-27 0 -54.5 1.5t-60.5 1.5q-38 0 -63 -1.5t-48 -1.5l1 28q21 0 34 2t20.5 5t10 8t3.5 12q1 14 2 47.5t1 87.5v82q0 45 -1 72t-2 37q-2 8 -10.5 11t-31.5 3l-152 1q-1 -34 -1 -78.5v-95.5q0 -56 0.5 -99.5t2.5 -62.5q1 -10 3.5 -15.5t10.5 -9
t22 -5t38 -2.5l-2 -28q-26 0 -54 1.5t-58 1.5t-63.5 -1.5t-56.5 -1.5l1 28q19 1 31 2t19 3.5t9.5 6.5t3.5 11q2 17 3 63.5t1 106.5v174h-197q-1 -34 -1 -77v-94q0 -58 0.5 -102.5t2.5 -62.5q1 -9 3.5 -15t10 -9t22 -4.5t38.5 -2.5l-4 -28q-24 0 -50.5 1.5t-56.5 1.5
q-32 0 -66 -1.5t-60 -1.5l1 28q20 1 32.5 2t20 3.5t10 6.5t3.5 11q1 17 2.5 62.5t1.5 111.5v170l-70 6l3 29h68z" />
    <glyph glyph-name="f_f_l" unicode="ffl" horiz-adv-x="841" 
d="M382 427q0 32 3 64t13 64q-3 13 -11 27.5t-21 25.5t-30.5 18.5t-39.5 7.5q-30 0 -57 -18.5t-41 -64.5q-7 -22 -10 -54.5t-3 -69.5h197zM95 427v16q0 43 12 81.5t38 67.5q26 32 66.5 53t99.5 21q48 0 78.5 -17t45.5 -34q26 30 64.5 47t83.5 17q37 0 61.5 -7.5t39.5 -17.5
q17 5 37.5 9.5t40.5 9.5l-3 -80t-2 -142v-222v-119t2 -56q0 -9 2.5 -14.5t9.5 -8.5t20.5 -4t36.5 -2l-3 -28q-31 0 -67 1.5t-66 1.5q-32 0 -55.5 -1.5t-40.5 -1.5v28q21 1 34 2.5t20 5t9.5 9t3.5 14.5q1 7 1.5 24t1.5 41t1.5 54t0.5 63v276q0 64 -10 85q-8 18 -28 33.5
t-55 15.5q-29 0 -53 -17t-35 -50q-8 -25 -11.5 -61.5t-3.5 -92.5h114l-8 -30l-107 -5q-1 -34 -1 -78v-95q0 -57 1 -99t2 -62q1 -10 3.5 -16t9.5 -9.5t21 -5t38 -2.5l-2 -28q-24 0 -53.5 1.5t-61.5 1.5q-31 0 -61.5 -1.5t-53.5 -1.5l1 28q20 1 32 2t18.5 4t9 7t3.5 11
q2 17 3 61.5t1 104.5v177h-197q-1 -35 -1 -77.5v-93.5q0 -57 0.5 -102t1.5 -62q1 -10 3.5 -16t10 -9t21.5 -4.5t38 -2.5l-3 -28q-23 0 -49.5 1.5t-56.5 1.5q-32 0 -66.5 -1.5t-59.5 -1.5l1 28q21 1 33.5 2t19.5 3.5t9.5 6.5t3.5 11q1 8 1.5 26t1 41.5t1 51t0.5 55.5v170
l-72 6l3 29h70z" />
    <glyph glyph-name="f_f" unicode="ff" horiz-adv-x="570" 
d="M94 427v27q0 104 52 159q22 24 50 37.5t63 13.5q52 0 76 -24t24 -51q0 -20 -13.5 -33.5t-33.5 -13.5q-11 0 -17.5 7.5t-6.5 18.5q1 26 -9 45.5t-38 19.5q-23 0 -36 -20t-18 -55q-4 -22 -4 -51.5t2 -79.5h197v18q0 38 5 71t19 60q19 44 56 73.5t90 29.5q27 0 46.5 -7
t32 -18t18.5 -25t6 -27q0 -20 -13.5 -32.5t-33.5 -12.5q-26 0 -26 25q1 28 -9 46.5t-39 18.5q-46 0 -58 -80q-4 -20 -4.5 -51.5t0.5 -88.5h101l-5 -30l-97 -6q0 -32 -0.5 -74.5t-0.5 -93.5q0 -57 0.5 -101t2.5 -64q1 -15 6 -21t18 -7q14 -2 27.5 -3l27.5 -2l-2 -28
q-26 0 -56.5 1.5t-60.5 1.5t-62.5 -1.5t-56.5 -1.5l1 28q19 1 31 2t18.5 3.5t9 6.5t3.5 11q2 17 3 65t1 108v171h-197q-1 -35 -1 -78v-94q0 -57 0.5 -101.5t1.5 -61.5q1 -14 5.5 -20t15.5 -8q12 -2 25 -2.5t27 -1.5l-4 -28q-23 0 -51 1.5t-58 1.5q-32 0 -64 -1.5t-58 -1.5
l1 28q21 1 33.5 2.5t19.5 3.5t9.5 6t3.5 11q1 8 1.5 26t1 41t1 50.5t0.5 55.5v171l-68 6l3 29h65z" />
    <glyph glyph-name=".notdef" horiz-adv-x="500" 
d="M50 95l170 255l-170 255v-510zM420 50l-170 255l-170 -255h340zM450 95v510l-170 -255zM420 650h-340l170 -255zM0 700h500v-700h-500v700z" />
    <glyph glyph-name=".null" horiz-adv-x="0" 
 />
    <glyph glyph-name="nonmarkingreturn" horiz-adv-x="207" 
 />
    <glyph glyph-name="space" unicode=" " horiz-adv-x="207" 
 />
    <glyph glyph-name="numbersign" unicode="#" horiz-adv-x="472" 
d="M251 592q-6 -15 -16.5 -51l-23.5 -84h102q11 39 19 72.5l14 59.5l42 3q-10 -27 -20 -62l-20 -73h56t35 1q-5 -14 -10.5 -33.5t-7.5 -30.5q-14 0 -35.5 0.5t-53.5 0.5l-32 -126q41 1 61.5 1t40.5 1q-5 -12 -10 -31.5t-8 -33.5h-42.5t-57.5 1l-19 -88l-14 -66l-43 -4
q5 17 16 57.5l26 100.5h-102l-23.5 -93t-14.5 -61l-41 -6l15 55l29 105q-23 -1 -42.5 -0.5t-45.5 -0.5q5 14 9 31.5t7 32.5q14 0 33 -0.5t54 -1.5l33 128q-31 1 -56 0.5t-46 -1.5q5 13 9.5 29.5t8.5 33.5q14 -1 41 -1h59q11 39 19 74t14 58zM195 396l-32 -128h103l32 128
h-103z" />
    <glyph glyph-name="dollar" unicode="$" horiz-adv-x="478" 
d="M281 683l-6 -82q31 -2 58 -12.5t42 -22.5l17 38l23 -5q-11 -53 -13.5 -101.5t-2.5 -78.5l-27 2q1 35 -6.5 61.5t-21 45t-32 29.5t-40.5 15l-12 -216q28 -12 48 -21.5l35 -17t26 -14t19 -12.5q26 -17 40 -42.5t14 -64.5q0 -35 -12 -62t-31 -47q-26 -26 -65.5 -43
t-90.5 -19l-2 -85l-39 -9l6 94q-49 2 -92.5 13t-75.5 20q6 35 8.5 77.5t4.5 89.5l26 4q-2 -48 7 -80t26.5 -52.5t42.5 -30t56 -12.5l12 226q-22 10 -47.5 20.5t-40.5 18.5q-48 25 -66 58.5t-18 74.5q0 72 55 119q21 17 56 29.5t80 13.5l3 75zM123 474q0 -42 30 -65.5
t77 -40.5l10 206q-52 -2 -84.5 -27.5t-32.5 -71.5v-1zM364 145q0 24 -8 40t-22 28t-34.5 21.5l-45.5 21.5l-9 -214q22 1 43.5 7t38 18t27 31t10.5 46v1z" />
    <glyph glyph-name="percent" unicode="%" horiz-adv-x="722" 
d="M559 328q-12 0 -24 -5.5t-20 -16.5q-11 -12 -20.5 -42t-10.5 -83q0 -49 8.5 -80t21.5 -45q15 -17 43 -17q16 0 31.5 9t27.5 27t19 46.5t7 67.5q0 21 -3.5 45.5t-12.5 45.5t-25 34.5t-41 13.5h-1zM553 358q37 0 62.5 -14t41 -38t22 -55t6.5 -64q0 -40 -10 -73t-28.5 -56.5
t-44.5 -36.5t-58 -13q-61 0 -100.5 41t-40.5 125q0 45 13 79t34 57.5t47.5 35.5t54.5 12h1zM192 592q-24 0 -42 -19q-11 -12 -21.5 -41.5t-10.5 -84.5q-1 -46 8 -78t23 -46q16 -18 44 -18q14 0 28.5 8t26.5 26t19.5 47.5t7.5 72.5q0 21 -3.5 44.5t-12.5 43t-25 32.5t-41 13
h-1zM124 3l54 76.5l69.5 100.5l76.5 111.5l75 110l65 95.5l46 68q-25 -14 -57 -22t-71 -8q-21 0 -43 4t-36 8q16 -40 16 -89q0 -84 -39 -134t-102 -50q-60 0 -99.5 41t-40.5 126q0 44 12.5 78t34 57t49 35t56.5 12q36 0 65 -16l15 12q17 -20 51 -35.5t79 -15.5q33 0 57 5
t40 12.5t25.5 14.5t13.5 12q10 11 28 42l55 6l-51.5 -74.5l-68 -98.5l-80 -116l-87 -128l-89 -133.5l-86.5 -132.5z" />
    <glyph glyph-name="ampersand" unicode="&#x26;" horiz-adv-x="710" 
d="M135 180q0 -29 9 -54.5t26 -44.5t41 -30.5t53 -11.5q24 0 42 6t31.5 15t22.5 19.5t15 20.5l-77.5 85l-99.5 116q-25 -20 -44 -48t-19 -72v-1zM274 599q-29 0 -52.5 -23.5t-23.5 -78.5q0 -38 18.5 -71t41.5 -61q41 26 67.5 59.5t26.5 75.5t-20 70.5t-57 28.5h-1zM661 -2
q-29 -7 -56.5 -11t-56.5 -4q-16 0 -31.5 5t-33 16t-38 29.5t-46.5 44.5q-26 -38 -67.5 -65t-104.5 -27q-41 0 -73.5 10t-58.5 33q-23 22 -37 53.5t-14 69.5t13.5 65t36.5 47q17 15 40.5 31.5l44.5 30.5q-23 30 -41.5 66.5t-18.5 79.5q0 33 11 62t32 50t51 33t68 12
q35 0 62.5 -11t46 -29t28 -41.5t9.5 -48.5q0 -35 -14.5 -57t-38.5 -39q-16 -12 -37.5 -26t-58.5 -35q36 -44 76 -87.5l73 -77.5l19 39.5l14 30t12 25t12 25.5q28 58 56 90t63 32q25 0 35.5 -12.5t10.5 -28.5q0 -8 -4 -16t-9 -13q-9 -9 -18 -5q-12 5 -21 5q-21 0 -37.5 -15
t-39.5 -54q-14 -23 -30 -53l-38 -71q28 -30 54 -54.5t51.5 -42t51 -26.5t53.5 -8z" />
    <glyph glyph-name="quoteright" unicode="&#x2019;" horiz-adv-x="192" 
d="M30 518q37 7 62 31t24 55q0 7 -6 3q-5 -3 -13.5 -5.5t-15.5 -2.5q-17 0 -31.5 14t-13.5 39q0 23 16.5 39.5t39.5 16.5q31 0 49 -22.5t18 -60.5q0 -31 -12 -54.5t-30 -40t-40 -26t-42 -10.5z" />
    <glyph glyph-name="parenleft" unicode="(" horiz-adv-x="332" 
d="M49 265q0 113 27 200.5t81 153.5q24 32 55.5 57.5t64.5 42.5l14 -26q-16 -9 -34.5 -23.5t-37 -37.5t-34 -56.5t-25.5 -79.5q-11 -57 -15.5 -117t-4.5 -118q0 -67 5 -127t16 -109q10 -47 25.5 -80t33.5 -56t36.5 -37t34.5 -23l-14 -27q-33 17 -65 43t-56 57
q-58 72 -82.5 162.5t-24.5 199.5v1z" />
    <glyph glyph-name="parenright" unicode=")" horiz-adv-x="332" 
d="M286 259q0 -107 -25.5 -196.5t-82.5 -160.5q-24 -32 -55.5 -57.5t-63.5 -42.5l-15 26q15 9 34 23.5t37 37.5t34 56.5t26 79.5q11 49 15.5 109t4.5 126q0 57 -4 118.5t-16 117.5q-10 47 -26 80t-34 56t-37 37t-34 23l15 27q32 -17 63.5 -42.5t56.5 -57.5q57 -71 82 -159.5
t25 -199.5v-1z" />
    <glyph glyph-name="asterisk" unicode="*" horiz-adv-x="407" 
d="M201 555q4 16 4 33.5t-1 34t-1.5 30t1.5 19.5q3 7 9.5 11.5t14 6.5t14.5 2t11 -1t10 -5t11 -10t7.5 -14t-0.5 -16q-3 -6 -10.5 -16l-17 -22.5t-18.5 -27t-15 -30.5zM177 538q-12 12 -27.5 21t-30 16l-26.5 13t-16 12q-5 6 -6 13.5t1 15.5t5 14t6 9t9.5 6t14.5 4.5t16 0.5
t13 -8q4 -5 9.5 -17l12 -27t14.5 -30.5t19 -28.5zM179 507q-17 -5 -32 -14t-28 -18l-23 -16.5t-17 -8.5q-8 -2 -15.5 2t-13.5 10t-10.5 12t-5.5 9q0 4 0.5 11.5t3.5 15.5t8.5 14t14.5 8q7 1 19.5 -0.5l28 -3.5t33 -3t34.5 2zM207 495q-4 -16 -4 -33.5t1.5 -33t2.5 -28.5
t-1 -20q-3 -8 -10 -12.5t-15 -7t-15 -3t-11 0.5t-10 5.5t-11 11t-8 14.5t0 16q2 6 9.5 15.5l17.5 22.5t19.5 27.5t15.5 31.5zM232 514q11 -12 26 -20.5t29.5 -15.5l26.5 -13t17 -11q5 -6 6 -14.5t-1 -16.5t-5 -14t-6 -9q-3 -2 -9.5 -5.5t-14.5 -5t-16 0t-13 8.5
q-5 5 -9.5 17l-10.5 27t-14.5 31t-20.5 28zM230 543q16 4 31.5 13t29 18l24 16.5t17.5 8.5q8 1 15 -2.5t13 -9t9.5 -11.5t4.5 -9q1 -4 0 -11.5t-4 -15.5t-8.5 -14t-14.5 -7q-7 -1 -19.5 0.5l-28 3.5t-33 3t-33.5 -2z" />
    <glyph glyph-name="plus" unicode="+" horiz-adv-x="518" 
d="M234 12v199h-181v51h181v180h53v-180h178v-51h-178v-199h-53z" />
    <glyph glyph-name="comma" unicode="," horiz-adv-x="206" 
d="M31 -83q38 8 65 32.5t27 60.5q0 5 -2.5 5t-4.5 -2q-13 -8 -30 -8q-19 0 -33.5 14.5t-14.5 41.5q1 24 18 42t42 18q33 0 51.5 -25.5t18.5 -64.5q0 -34 -13 -59.5t-32 -43t-42 -26.5t-42 -10z" />
    <glyph glyph-name="hyphen" unicode="-" horiz-adv-x="313" 
d="M47 263q57 -2 112 -2t118 2l-11 -62q-121 3 -231 0z" />
    <glyph glyph-name="period" unicode="." horiz-adv-x="206" 
d="M104 116q27 0 43.5 -19t16.5 -46q0 -29 -17.5 -47t-43.5 -18t-43.5 18t-17.5 47q0 28 17.5 46.5t43.5 18.5h1z" />
    <glyph glyph-name="slash" unicode="/" horiz-adv-x="404" 
d="M366 683l-19.5 -52l-36.5 -99l-45 -124.5l-44 -126.5l-30 -90.5l-32.5 -97l-33 -98.5l-32.5 -94l-48 13q11 28 26 70.5l32.5 93l37 107l39.5 113.5l41 120l41.5 119.5l34.5 100l21 61.5z" />
    <glyph glyph-name="zero" unicode="0" horiz-adv-x="478" 
d="M239 595q-24 0 -40.5 -12.5t-30.5 -38.5q-9 -18 -16.5 -44t-13 -57t-8 -65t-2.5 -68q0 -71 8.5 -132t25.5 -100q13 -28 32.5 -44.5t48.5 -16.5q26 0 43 14t31 43q17 35 25.5 94.5t8.5 138.5q0 85 -9.5 144t-24.5 91q-14 26 -31.5 39.5t-45.5 13.5h-1zM247 625
q81 0 134 -59q37 -43 53.5 -109.5t16.5 -140.5q-1 -115 -27.5 -183.5t-66.5 -103.5q-30 -25 -63 -34t-61 -9q-35 0 -69.5 12.5t-60.5 39.5q-42 44 -59.5 113.5t-16.5 150.5q1 88 24.5 162.5t77.5 119.5q52 41 117 41h1z" />
    <glyph glyph-name="one" unicode="1" horiz-adv-x="478" 
d="M407 -3q-48 0 -91.5 1.5t-70.5 1.5q-36 0 -76 -1.5t-78 -1.5l-4 27l81 8q17 2 24 7t8 17q2 18 3 52.5t1 90.5v198v95.5t-2 61.5q0 16 -12 16q-7 0 -18 -1t-24 -1.5t-25.5 -1.5t-22.5 -1l6 28q25 3 54.5 7t57 8.5t49 9t30.5 7.5l5 -3q0 -28 -2 -80.5t-2 -145.5v-194
q0 -56 0.5 -88.5t2.5 -57.5q1 -12 5 -17.5t18 -7.5l81 -7z" />
    <glyph glyph-name="two" unicode="2" horiz-adv-x="478" 
d="M451 159q-16 -56 -23 -99.5t-9 -64.5q-7 1 -22 1.5l-46.5 1.5t-83 1.5t-130.5 0.5h-59t-48 -2l-2 8l11 27t12 24q46 34 86 71t72 74.5t54 73t32 67.5q9 29 12.5 56.5t3.5 59.5q0 24 -5 48.5t-16.5 44t-30 31.5t-45.5 12q-51 0 -73 -27t-22 -74q0 -11 2.5 -22.5t5.5 -22.5
q3 -15 -9 -29q-15 -13 -34 -13q-22 0 -35 16t-13 45t14 56t38 50q26 23 63 37t81 14q40 0 70.5 -10.5t50.5 -26.5q35 -26 49 -66t14 -84q0 -45 -15.5 -80.5t-44.5 -68.5q-25 -29 -80.5 -80l-147.5 -135q116 2 174.5 4.5t73.5 4.5q19 1 26 22l11 28t12 38z" />
    <glyph glyph-name="three" unicode="3" horiz-adv-x="478" 
d="M242 625q31 0 61.5 -8.5t54.5 -26t39 -43.5t15 -61q0 -39 -16.5 -63.5t-39.5 -41.5q-20 -14 -47 -25l-56 -22v-4q46 -2 87 -16t66 -37q21 -20 31 -44t10 -59q0 -45 -17.5 -78t-43.5 -56q-28 -23 -71.5 -38.5t-97.5 -15.5q-44 0 -78.5 10t-58 26.5t-36 36.5t-12.5 41
q0 22 14 36.5t35 14.5q24 0 32 -33q11 -54 39 -78t70 -24q31 0 53 11.5t36 32.5t20.5 49t6.5 61q0 59 -28.5 96t-97.5 37q-14 0 -28.5 -2t-25.5 -6l-20 23l4 8q22 3 44 9.5t39 16.5q15 6 30 16t27.5 25t20.5 37t8 52q0 22 -5.5 42t-17 35.5t-29 24.5t-40.5 9
q-44 0 -68.5 -22t-24.5 -64q0 -16 5 -34q3 -14 -8 -25q-6 -7 -14 -9t-17 -2q-18 0 -30.5 13t-12.5 40q0 21 12.5 45t37 44t60 33t82.5 13h1z" />
    <glyph glyph-name="four" unicode="4" horiz-adv-x="478" 
d="M8 220l78.5 107.5l79 108l68 94t45.5 66.5q16 5 41.5 14.5t47.5 18.5l6 -4q-1 -31 -2 -74.5t-1.5 -91l-1 -94.5t-0.5 -86v-60q45 1 67.5 5.5t36.5 9.5v-26q-12 -8 -37 -16t-67 -12q0 -43 0.5 -87.5t1.5 -92.5q-25 1 -51.5 -3t-43.5 -9l-6 4q2 23 2.5 70t2.5 116
q-46 0 -88.5 1.5t-77 3.5t-58.5 5t-34 6zM276 218l2 88t1.5 88.5l1 83t1.5 69.5l-114.5 -160t-100.5 -153q8 -3 27 -6t46.5 -5t62 -3.5t73.5 -1.5z" />
    <glyph glyph-name="five" unicode="5" horiz-adv-x="478" 
d="M66 275q6 18 11.5 47.5t10 64.5t8.5 71.5t6.5 68t3.5 55.5t1 33q9 -3 23.5 -5.5t34.5 -4.5t42.5 -3.5t46.5 -1.5q71 0 110 8t59 35l16 -18q-11 -26 -28.5 -49t-39.5 -35q-20 -11 -52.5 -16.5t-70.5 -5.5q-36 0 -65 2.5t-43 4.5q-3 -25 -7 -53.5l-8 -57t-8.5 -54.5
t-8.5 -46q26 21 67 37t84 16q39 0 72.5 -9.5t58.5 -30t39 -53t14 -78.5q0 -34 -9 -66t-29 -59q-27 -38 -74.5 -62t-111.5 -24q-43 0 -76.5 9.5t-57 25t-35.5 35.5t-12 41q0 20 14 35t35 15q23 0 31 -32q11 -54 39 -76.5t67 -22.5q30 0 51.5 13t35 35.5t20 53t6.5 64.5
q0 79 -38 115q-16 15 -34.5 22.5t-44.5 7.5q-52 0 -83.5 -23.5t-45.5 -52.5z" />
    <glyph glyph-name="six" unicode="6" horiz-adv-x="478" 
d="M251 336q-45 0 -72 -25.5t-40 -57.5q-5 -11 -6 -22t-1 -25q0 -21 3.5 -52t14.5 -60q14 -35 37 -56.5t56 -21.5q55 0 83 52q13 26 18.5 56.5t5.5 62.5q0 26 -3.5 47t-11.5 41q-11 27 -32 44t-51 17h-1zM401 591q-8 2 -17.5 3t-18.5 1q-54 0 -96.5 -24.5t-72 -65t-46 -93.5
t-19.5 -111q13 14 29.5 29t36 27t43 20t49.5 8q38 0 67.5 -13.5t50 -37t31.5 -56t11 -70.5q0 -51 -14.5 -89.5t-37.5 -66.5q-25 -29 -64.5 -47.5t-90.5 -18.5q-86 0 -138 48q-35 32 -54.5 86.5t-19.5 124.5q0 101 31 176.5t86 126.5q46 42 99.5 61t105.5 19q15 0 27 -2
t20 -4z" />
    <glyph glyph-name="seven" unicode="7" horiz-adv-x="478" 
d="M34 432q6 19 11 47t8.5 56t5.5 51t1 33q7 -2 18 -3.5t32 -2.5t56.5 -1.5t92.5 -0.5h82h51.5t30 0.5t18.5 0.5l5 -7q-5 -20 -15.5 -50t-24.5 -58l-67.5 -133t-55 -126t-37 -123t-14.5 -124l-7 -5q-17 -1 -33 2t-27 8q-20 9 -20 31q0 10 2 19t6 22q13 50 42.5 108.5
l63 119.5l67 121t56.5 113q-25 3 -63.5 3.5t-85.5 0.5q-45 0 -71.5 -1.5t-42 -6t-22.5 -12t-13 -20.5q-6 -14 -12 -30.5t-12 -38.5z" />
    <glyph glyph-name="eight" unicode="8" horiz-adv-x="478" 
d="M249 17q48 0 78 28.5t30 79.5q0 25 -9 45t-28.5 38t-50 37t-74.5 42q-35 -21 -57.5 -53.5t-22.5 -77.5q0 -26 8 -51t24 -44.5t41 -31.5t60 -12h1zM236 595q-18 0 -35 -6.5t-31 -19.5t-22.5 -32.5t-8.5 -44.5q0 -24 8.5 -44.5t27.5 -36.5q20 -17 48.5 -32.5l54.5 -28.5
q32 23 49.5 51.5t17.5 70.5q0 52 -28 87.5t-80 35.5h-1zM252 626q32 0 61.5 -10.5t52 -29.5t36 -46.5t13.5 -61.5q0 -27 -9.5 -48t-23.5 -35t-32.5 -28.5t-44.5 -31.5q43 -23 70 -44.5t42 -42.5t20.5 -42.5t5.5 -45.5q0 -37 -15 -67.5t-42 -53.5q-29 -25 -69.5 -39
t-82.5 -14q-91 0 -144 41.5t-53 114.5q0 31 10.5 53t25.5 37q16 17 40.5 33l53.5 36q-54 32 -79.5 68t-25.5 85q0 37 9.5 61t25.5 45q23 29 61 47.5t93 18.5h1z" />
    <glyph glyph-name="nine" unicode="9" horiz-adv-x="478" 
d="M234 594q-25 0 -45.5 -12t-34.5 -38q-14 -25 -19.5 -52t-5.5 -61q0 -32 7.5 -60t21.5 -48t34 -31.5t46 -11.5q42 0 65 19t36 44q5 11 7 24.5t2 33.5q0 45 -9 83.5t-24 62.5q-15 22 -33.5 34.5t-46.5 12.5h-1zM85 20q14 -3 28.5 -2.5t29.5 2.5q88 7 141.5 81t63.5 203
q-30 -30 -68.5 -51.5t-81.5 -21.5q-40 0 -71 13.5t-52.5 37.5t-33 57.5t-11.5 72.5q0 44 12 77.5t35 62.5q25 30 65.5 51.5t98.5 21.5q42 0 76.5 -13.5t59.5 -38.5q39 -40 55 -97t16 -126q0 -101 -31.5 -176t-78.5 -117q-43 -40 -93 -57t-98 -17q-18 0 -33.5 1.5t-27.5 5.5z
" />
    <glyph glyph-name="colon" unicode=":" horiz-adv-x="205" 
d="M105 400q26 0 42.5 -18.5t16.5 -45.5q0 -29 -17.5 -46.5t-43.5 -17.5q-25 0 -42.5 17.5t-17.5 46.5q0 28 18 46t43 18h1zM104 114q26 0 42.5 -18.5t16.5 -45.5q0 -29 -17.5 -46.5t-43.5 -17.5q-25 0 -42.5 17.5t-17.5 46.5q0 28 18 46t43 18h1z" />
    <glyph glyph-name="semicolon" unicode=";" horiz-adv-x="206" 
d="M32 -82q37 7 64 31.5t27 60.5q0 8 -7 3q-13 -8 -29 -8q-19 0 -33.5 14.5t-14.5 40.5q0 25 17.5 42.5t41.5 17.5q33 0 51.5 -25t18.5 -64q0 -34 -13 -59t-32 -42.5t-41 -26.5t-41 -10zM104 400q26 0 42.5 -18.5t16.5 -45.5q0 -29 -17.5 -46.5t-43.5 -17.5
q-25 0 -42.5 17.5t-17.5 46.5q0 28 18 46t43 18h1z" />
    <glyph glyph-name="less" unicode="&#x3c;" horiz-adv-x="498" 
d="M71 266l353 189v-60l-300 -157v-2l300 -156v-61l-353 190v57z" />
    <glyph glyph-name="equal" unicode="=" horiz-adv-x="518" 
d="M465 300h-413v51h413v-51zM465 120h-413v51h413v-51z" />
    <glyph glyph-name="greater" unicode="&#x3e;" horiz-adv-x="498" 
d="M424 209l-353 -190v60l299 157v2l-299 157v60l353 -189v-57z" />
    <glyph glyph-name="question" unicode="?" horiz-adv-x="413" 
d="M203 -14q-23 0 -40.5 17.5t-17.5 46.5q0 27 18 45t43 18t42.5 -17.5t17.5 -45.5q0 -29 -17.5 -46.5t-44.5 -17.5h-1zM192 194q-17 18 -33 45t-17 55q0 20 9 36t21 30l24 26l28.5 30l28 29l22.5 23q11 11 17.5 25t6.5 32q0 54 -26.5 77.5t-64.5 23.5q-42 0 -62 -22.5
t-20 -48.5q0 -14 3 -23t7 -18q6 -16 -9 -28q-19 -16 -40 -16q-20 0 -33.5 14t-13.5 40q0 31 16 56t41.5 41.5t55.5 25.5t59 9q76 0 122 -43.5t46 -121.5q0 -38 -15.5 -62t-38.5 -44l-51.5 -47.5t-40.5 -41.5q-20 -20 -25 -40t7 -50z" />
    <glyph glyph-name="at" unicode="@" horiz-adv-x="756" 
d="M551 -55q-28 -31 -57.5 -51t-60.5 -31t-63 -15.5t-65 -4.5q-60 0 -108 19.5t-82 55.5t-52.5 88t-18.5 117q0 82 27 158t78.5 135t126.5 94.5t171 35.5q68 0 118.5 -20.5t83.5 -55t49.5 -80.5t16.5 -97q0 -54 -17.5 -102t-47.5 -84t-71 -57.5t-88 -21.5q-28 0 -41.5 8.5
t-17.5 24t0 38t12 49.5q-14 -23 -33 -44.5t-40.5 -38t-44.5 -26.5t-46 -10q-35 0 -48.5 24t-13.5 60q0 28 9 61.5t25.5 67t40.5 63.5t56 51q25 16 45.5 22.5t43.5 6.5q24 0 39 -11t22 -26l8 24h65q-12 -35 -24 -74.5t-22 -76t-17.5 -67.5t-10.5 -49q-4 -22 0 -32t19 -10
q33 0 62 18t50.5 49t33.5 72t12 86q0 51 -15.5 92t-45.5 70.5t-74.5 45.5t-101.5 16q-71 0 -128.5 -28.5t-96.5 -79.5q-51 -68 -70.5 -137.5t-19.5 -143.5q0 -60 15 -106t40 -72q27 -30 67.5 -47.5t89.5 -17.5q65 0 114.5 23t88.5 68zM293 110q0 -15 6 -26t17 -11
q24 0 48 18.5t44.5 45.5t36.5 58t24 57q7 19 9.5 28t5.5 23q1 24 -10.5 39t-34.5 15q-20 0 -41 -14t-39 -40q-35 -51 -50.5 -101.5t-15.5 -90.5v-1z" />
    <glyph glyph-name="A" unicode="A" horiz-adv-x="624" 
d="M287 557l-41 -123.5l-52 -157.5q11 -1 37 -1.5t55 -0.5t53 0.5t32 1.5l-41.5 140.5zM631 -3q-17 1 -51 2t-72 1q-37 0 -68.5 -1t-66.5 -2l-1 28q23 1 37 3t21 5.5t8 8t-1 12.5q-3 13 -9.5 35l-14.5 47.5l-16.5 53l-15.5 51.5q-12 1 -41 1h-61h-59.5t-38.5 -1l-33 -101
t-16 -57q-4 -16 -3.5 -26.5t9 -17t26.5 -10t48 -4.5v-28q-24 0 -49 1.5t-58 1.5q-22 0 -55 -1.5t-62 -1.5v28q21 1 35.5 4t25 10t19 19t17.5 33q8 20 22 58l31 84l35 96.5l34.5 97l30 84.5l20.5 59q8 22 11.5 35t5.5 24q8 1 19 2t23 3t22.5 4.5t17.5 5.5l28.5 -95.5l35 -111
l37 -116l36 -109.5l32 -91.5t23.5 -63.5q7 -15 16.5 -21t26.5 -8l39 -3v-28z" />
    <glyph glyph-name="B" unicode="B" horiz-adv-x="586" 
d="M207 181q0 -49 0.5 -80t2.5 -56q1 -8 11 -12.5t40 -4.5q61 0 95 14.5t51 39.5q24 38 24 101q0 34 -7 57t-24 41q-17 19 -50.5 30.5t-92.5 11.5q-15 0 -28.5 -0.5t-21.5 -2.5v-139zM207 352q9 -1 22 -1h28q67 0 104 29t37 106q0 50 -19 79q-12 18 -36 29.5t-72 11.5
q-39 0 -49.5 -5t-10.5 -14q-2 -23 -3 -51t-1 -68v-116zM23 25q25 1 41 2.5t25 4.5t13 7t4 11q2 23 3 57.5t1 80.5v265q0 47 -0.5 76.5t-2.5 55.5q-1 10 -17 15t-65 7v28q24 0 55 -1.5t66 -1.5t76 1.5t81 1.5q34 0 59.5 -2.5t44.5 -7t33 -12.5t25 -18q20 -17 29.5 -43
t9.5 -56q0 -29 -7.5 -50.5t-19.5 -37t-26.5 -26t-28.5 -17.5q-17 -8 -33 -12.5t-34 -8.5v-4q42 -5 76 -14t58 -26q25 -17 40.5 -44.5t15.5 -74.5q0 -49 -20.5 -83.5t-58.5 -59.5q-36 -23 -86 -31.5t-103 -8.5q-33 0 -67 1t-67 1q-10 0 -25.5 -0.5l-32 -1l-33 -1t-29.5 -0.5
v28z" />
    <glyph glyph-name="C" unicode="C" horiz-adv-x="616" 
d="M531 420q-3 39 -13.5 74.5t-31 62.5t-51 43t-72.5 16q-47 0 -81 -17t-61 -51q-29 -37 -46.5 -96.5t-17.5 -132.5q0 -61 13.5 -114t38.5 -90q28 -44 68 -64.5t88 -20.5q69 0 116.5 35.5t75.5 115.5l27 -17q-26 -87 -88 -133.5t-162 -46.5q-75 0 -132 24.5t-94 75.5
q-31 40 -47.5 96.5t-16.5 125.5q0 88 28 153.5t73 107.5q38 38 90 59t121 21q61 0 103 -16.5t65 -39.5l19 52l24 -8q-3 -21 -5.5 -47t-3.5 -54.5t-1.5 -56.5t1.5 -53z" />
    <glyph glyph-name="D" unicode="D" horiz-adv-x="679" 
d="M207 226v-74.5t0.5 -49.5t1 -31.5t1.5 -20.5q1 -11 13 -17t53 -6q78 0 122 21t70 56q25 33 40.5 89t15.5 139q0 74 -15.5 125t-41.5 81q-29 33 -71 49t-105 16q-28 0 -43.5 -1.5t-23.5 -4t-10.5 -6.5t-2.5 -9q0 -6 -1 -16t-1.5 -28t-1 -45t-0.5 -66v-201zM110 431
q0 60 -0.5 95t-1.5 51q-1 14 -6.5 18t-19.5 6l-59 6l2 27q9 0 23.5 -0.5t31.5 -1l35 -1t33 -0.5q35 0 75 1.5t85 2.5q41 0 73 -3t56.5 -8.5t43.5 -13t34 -17.5q57 -35 89 -99t32 -158q0 -50 -9 -96t-29.5 -85.5t-53 -71.5t-78.5 -54q-35 -16 -80.5 -24t-95.5 -8
q-37 0 -73.5 1.5t-72.5 1.5q-15 0 -34 -0.5l-37.5 -1t-33.5 -1t-22 -0.5l1 28l48 3q21 2 29 8t9 20q2 16 4 59.5t2 112.5v203z" />
    <glyph glyph-name="E" unicode="E" horiz-adv-x="560" 
d="M23 634q11 0 28 -0.5t37 -1l41 -1t40 -0.5h169q49 0 87 2t54 5q-1 -10 -2 -30.5t-1.5 -45t0 -49.5t1.5 -44l-27 -1q-3 20 -8.5 42.5t-13.5 42.5q-6 13 -12.5 22t-20 14.5t-36 7.5t-58.5 2h-74q-9 0 -12 -3.5t-4 -12.5q-2 -23 -3 -55.5t-1 -74.5v-110q4 0 11.5 -0.5
t16.5 -0.5h17.5h14.5q34 0 54.5 3.5t32.5 13.5t17.5 26t8.5 42h25q-5 -51 -5 -109.5t3 -106.5h-26q-3 28 -7.5 47t-16 30.5t-32 16t-55.5 4.5h-32.5t-26.5 -2v-96q0 -43 1 -86t3 -69q0 -8 2.5 -12.5t12.5 -7.5t29.5 -4t53.5 -1q36 0 59.5 1.5t40 5t27 10t19.5 17.5
q17 19 30.5 51.5t21.5 62.5l24 -4q0 -9 -3 -34t-7.5 -54l-8.5 -55t-6 -36q-24 2 -74 3t-138 1h-125q-18 0 -39.5 -0.5l-42.5 -1t-40 -1t-32 -0.5l1 28l62 6q14 2 20 9.5t7 28.5q2 29 3 65t1 80v211q0 54 -0.5 92t-1.5 60q-1 14 -8 19t-25 7l-51 4v27z" />
    <glyph glyph-name="F" unicode="F" horiz-adv-x="534" 
d="M23 634q24 0 66 -1.5t88 -1.5h143q43 0 73 0.5t50 1.5t33 2.5t23 2.5q-3 -27 -4.5 -53.5t-1.5 -49.5t0.5 -42t0.5 -29l-26 -2q-2 18 -6.5 40.5t-12.5 45.5q-5 14 -12 24t-21.5 16t-38.5 9t-62 3h-85q-8 0 -13.5 -2.5t-6.5 -11.5q-1 -8 -2 -41t-1 -96v-117q4 0 13 -0.5
t20.5 -0.5h23.5h21q32 0 52 3t32 13t17.5 27.5t10.5 46.5l25 -3q-3 -23 -4 -56t-0.5 -65.5t1.5 -60.5t3 -41h-27q-5 30 -9.5 49.5t-15.5 31.5t-31.5 17t-56.5 5h-20.5h-22.5t-20 -0.5t-12 -0.5v-107q0 -59 1 -87.5t2 -42.5q1 -13 6.5 -19.5t19.5 -8.5q12 -1 33.5 -3.5
t40.5 -3.5l-3 -28q-13 0 -30.5 0.5l-36.5 1l-39 1t-38 0.5q-17 0 -36.5 -0.5l-38.5 -1l-36.5 -1t-30.5 -0.5l-1 28l57 5q25 1 28 26q2 16 3 53t1 95v238q0 63 -0.5 94t-1.5 42q-2 22 -21 23l-62 5z" />
    <glyph glyph-name="G" unicode="G" horiz-adv-x="676" 
d="M543 420q-5 94 -48.5 145.5t-124.5 51.5q-46 0 -84 -17t-70 -60q-29 -42 -43.5 -99.5t-14.5 -126.5q0 -63 13.5 -118.5t39.5 -93.5q31 -47 72 -66.5t92 -19.5t78.5 16t30.5 42q3 23 3.5 59t0.5 71q0 21 -1.5 33.5t-7.5 19.5t-17.5 9.5t-30.5 4.5l-51 4l-1 28
q12 0 31 -0.5t40 -1l42 -1t37 -0.5q32 0 66 0.5t53 2.5v-27q-38 -5 -49 -11t-12 -24q-3 -31 -2.5 -57.5t0.5 -49.5q0 -38 2 -61t5 -40q-9 -2 -21.5 -6t-26.5 -8l-27.5 -8l-23.5 -7q-26 -8 -61 -14t-72 -6q-91 0 -151 24.5t-101 76.5q-32 41 -48 98t-16 126q0 100 38.5 175.5
t110.5 117.5q40 25 82.5 35t95.5 10q34 0 62 -5t49 -13t36 -17.5t23 -18.5l22 51l23 -8q-3 -13 -6 -38t-5 -55t-3.5 -62.5t0.5 -60.5h-29z" />
    <glyph glyph-name="H" unicode="H" horiz-adv-x="703" 
d="M109 451q0 43 -0.5 70t-1.5 51q-1 20 -17.5 26.5t-65.5 7.5l1 28q20 0 57 -1.5t73 -1.5q26 0 65 1.5t68 1.5l-1 -28q-45 -1 -60.5 -8t-16.5 -26q-2 -20 -2.5 -49.5t-0.5 -64.5v-111q20 -1 58 -1h81h80.5t70.5 1v113v71t-2 46q-1 16 -18 22t-62 7v28l71.5 -2t57.5 -1
q16 0 36.5 0.5l39.5 1t34.5 1t23.5 0.5v-28q-23 -1 -38.5 -2.5t-24.5 -5.5t-13 -10t-4 -16q-2 -23 -2.5 -51t-0.5 -66v-254q0 -51 0.5 -85.5t2.5 -57.5q1 -9 4.5 -15t12.5 -9.5t24 -5.5t38 -3l-1 -28q-26 1 -64 2t-71 1q-15 0 -32.5 -0.5l-34.5 -1l-32.5 -1t-27.5 -0.5v28
q23 1 38.5 3t24.5 5.5t13 10t4 15.5q1 16 2 45t1 89v119q-29 1 -68.5 1.5t-83.5 0.5t-81 -0.5t-57 -1.5v-119q0 -48 0.5 -79.5t2.5 -54.5q1 -20 18 -26t64 -8v-28q-26 1 -65 2t-78 1q-32 0 -66.5 -1t-60.5 -2v28q48 2 64.5 8t18.5 24q2 19 3 48.5t1 87.5v258z" />
    <glyph glyph-name="I" unicode="I" horiz-adv-x="316" 
d="M109 454v70.5t-1 43.5q0 11 -4 18t-13 11t-25.5 5.5t-42.5 3.5l1 28q21 -1 58.5 -2t72.5 -1q34 0 71.5 1.5t62.5 1.5v-28q-24 -1 -39 -2.5t-23.5 -5.5t-12 -9.5t-4.5 -14.5q-1 -14 -2 -40t-1 -74v-263q0 -53 1 -83.5t2 -53.5q2 -20 17.5 -26.5t62.5 -8.5v-28q-28 1 -66 2
t-71 1q-31 0 -68 -1t-62 -2l1 28q24 1 39.5 3t24.5 5.5t12.5 10t4.5 15.5q1 16 2.5 46t1.5 90v259z" />
    <glyph glyph-name="J" unicode="J" horiz-adv-x="307" 
d="M27 635q18 0 52.5 -2t75.5 -2q15 0 33.5 0.5t36 1.5t33 1.5t26.5 0.5l-1 -28l-40 -4q-19 -2 -24.5 -8t-6.5 -20q-1 -9 -1.5 -37.5t-1 -78.5t-1 -123.5t-0.5 -173.5q0 -63 -6 -115q-5 -44 -20.5 -85.5t-41.5 -70.5q-33 -39 -71.5 -58t-74.5 -19q-32 0 -51 13.5t-19 30.5
q0 16 14.5 30.5t26.5 14.5q8 0 12.5 -3t9.5 -9q14 -17 27.5 -24.5t27.5 -7.5q23 0 39.5 23.5t20.5 83.5q4 52 5.5 117t1.5 150l1 207q0 48 -0.5 81t-1.5 54q0 13 -5 18.5t-19 7.5q-13 2 -30 3.5t-31 2.5z" />
    <glyph glyph-name="K" unicode="K" horiz-adv-x="636" 
d="M108 432v90.5t-1 52.5q0 9 -3.5 14.5t-12 8.5t-23.5 4.5t-39 3.5l1 29q20 -1 56.5 -2t69.5 -1t69 1.5t56 1.5l3 -29q-23 -2 -37 -3t-22 -4t-11 -8t-4 -14q-2 -18 -3.5 -52.5t-1.5 -89.5v-104q25 10 62.5 43t76 72t70 76.5t44.5 57.5q8 10 5.5 13.5t-12.5 5.5l-58 6l6 29
q23 0 52 -1.5t62 -1.5q32 0 61.5 1.5l48.5 2.5l1 -28q-45 -3 -68.5 -10t-43.5 -25l-38.5 -37l-51.5 -50.5l-58 -58l-60 -60.5q18 -26 41.5 -56l48 -61.5l49 -62l46 -56.5l38 -45.5t25.5 -28.5q8 -8 16 -13.5t19.5 -9t27.5 -5.5t40 -3l-6 -28q-27 1 -51 1t-46 -2
q-25 -1 -46 -3t-38 -4q-5 8 -19.5 28.5t-35 47l-44.5 57.5l-46.5 60.5l-42 54.5l-31.5 41q-15 20 -24 26t-20 1v-96q0 -63 1.5 -98.5t2.5 -54.5q1 -9 4 -14t11.5 -8t24.5 -5t43 -4l-2 -28q-28 0 -67 1.5t-74 1.5q-38 0 -73 -1.5t-57 -1.5l1 28q25 2 41.5 4t25.5 5t12.5 8
t4.5 14q1 14 2.5 51t1.5 96v229z" />
    <glyph glyph-name="L" unicode="L" horiz-adv-x="535" 
d="M514 188q-3 -17 -6 -40t-6 -49l-6 -52.5t-5 -50.5q-14 2 -45.5 2.5t-75.5 0.5q-44 1 -97.5 1h-109.5q-17 0 -38.5 -0.5l-42.5 -1t-39 -1t-28 -0.5l1 28l57 6q17 2 23 7t7 17q2 24 4 70.5t2 109.5v213q0 59 -0.5 87t-1.5 44q-1 12 -7 16.5t-21 6.5l-53 3l2 29
q10 0 26.5 -0.5l34.5 -1l36 -1t32 -0.5q26 0 59.5 1t75.5 2l4 -29l-56 -4q-17 -2 -22.5 -7t-6.5 -19q-2 -28 -3 -68t-1 -98v-176q0 -63 0.5 -114.5t2.5 -71.5q0 -4 2.5 -7t9.5 -5.5t21.5 -3.5t38.5 -1q40 0 66.5 1.5t44.5 6t29 12.5t19 20q15 22 26 52.5t19 66.5z" />
    <glyph glyph-name="M" unicode="M" horiz-adv-x="847" 
d="M28 634q76 -3 118 -3q25 0 45.5 0.5t30.5 2.5q6 -16 19 -47.5l31 -73l39 -89.5l42 -96.5l41 -95l36 -83.5l66.5 158.5l61 146l46.5 115t25 65.5q17 -2 34 -2.5t43 -0.5q29 0 59 1.5t51 1.5l3 -28q-15 -1 -34.5 -3t-30.5 -3q-18 -1 -18 -22q-1 -14 -0.5 -45.5t0.5 -82.5
q0 -146 1 -247t4 -138q2 -21 8.5 -26.5t22.5 -7.5l54 -6v-28q-9 1 -24 1.5t-33 1t-38 0.5h-38q-29 0 -64.5 -1l-70.5 -2l2 28q46 3 60.5 9.5t15.5 23.5q1 20 2.5 75t2.5 129.5t2.5 159.5t2.5 165h-1l-76 -192l-65 -166.5l-51.5 -133l-35.5 -91.5l-42 -10q-10 31 -26.5 75
l-37 95l-43 107l-44 111l-42 106t-35.5 93h-2q0 -74 0.5 -144t1.5 -132.5t2.5 -114.5t2.5 -91q0 -19 2 -31.5t7 -20t14 -11.5t25 -5l52 -6v-28q-26 0 -58.5 1.5t-66.5 1.5q-35 0 -64.5 -1.5t-46.5 -1.5v28q12 1 22.5 2t24.5 3q18 3 28 15.5t13 54.5q1 27 2.5 74.5t3 109.5
t2.5 136.5t1 155.5l-3 12q-4 12 -31 14l-53 4z" />
    <glyph glyph-name="N" unicode="N" horiz-adv-x="670" 
d="M18 634q14 0 44.5 -1.5t56.5 -1.5t44 0.5t36 2.5q7 -12 19.5 -30.5l35.5 -52.5l36.5 -54.5l62.5 -91.5l84.5 -122l103.5 -147q1 109 0.5 185t-2 125.5t-3.5 75.5t-3 36q-3 26 -13 34.5t-38 10.5l-52 3l5 28q32 0 64 -1.5t59 -1.5q29 0 58.5 1.5t47.5 1.5l1 -28l-29 -3.5
t-23 -3.5q-12 -3 -18 -11t-9 -25q-2 -14 -4 -43t-3.5 -69.5t-2.5 -91.5t-1 -108v-254q-12 -2 -29.5 -4.5t-28.5 -5.5l-78.5 120.5l-96 142.5l-101 148.5l-94.5 139.5q0 -85 0.5 -163.5t1.5 -141.5t2.5 -106t3.5 -57q3 -19 11 -27t22 -10q13 -2 31 -4l37 -4l-2 -28
q-25 0 -58.5 1.5t-74.5 1.5q-35 0 -62 -1.5t-46 -1.5l1 28q11 0 25.5 2t27.5 4q18 3 24.5 14t8.5 31q2 15 4.5 60.5t5 111.5t4 147.5t1.5 168.5q-2 8 -4 13t-7 10q-9 12 -40 15l-46 4v28z" />
    <glyph glyph-name="O" unicode="O" horiz-adv-x="676" 
d="M337 618q-85 0 -133 -77q-20 -33 -33 -89t-13 -130t14.5 -134.5t37.5 -95.5q26 -41 60 -59t76 -18q38 0 71 16.5t58 57.5q20 35 31.5 93.5t11.5 130.5q0 70 -12 128.5t-34 97.5q-46 79 -134 79h-1zM346 647q69 0 122.5 -25.5t90 -69t55 -102t18.5 -124.5
q0 -86 -21.5 -150t-60.5 -107t-93 -64t-120 -21t-120 21.5t-92.5 62.5t-59.5 102t-21 140q0 69 19 130.5t57 107t94.5 72.5t130.5 27h1z" />
    <glyph glyph-name="P" unicode="P" horiz-adv-x="555" 
d="M109 441v51.5v37t-0.5 26.5t-0.5 19q-1 12 -5 18t-17 7l-65 7l7 28q7 0 19.5 -0.5t28.5 -1.5t33 -1.5t33 -0.5q29 0 66.5 2t87.5 2q37 0 64 -3.5t47 -9.5t34.5 -15t25.5 -19q26 -24 39 -59t13 -77q0 -47 -13.5 -82.5t-38.5 -61.5q-29 -29 -67.5 -43t-83.5 -14
q-22 0 -41.5 2.5t-31.5 7.5l3 29q11 -2 24.5 -4t28.5 -2q24 0 45.5 9.5t35.5 29.5q14 19 23 50t9 73q0 79 -32 116q-19 23 -46 32t-65 9q-19 0 -30 -1t-17 -3.5t-8 -5.5t-2 -7q-2 -23 -3.5 -62.5t-1.5 -99.5v-126v-125q0 -44 1 -70t2 -43q2 -16 8.5 -21t27.5 -7l62 -7
l-1 -28q-33 0 -74.5 1.5t-81.5 1.5q-34 0 -68.5 -1.5t-66.5 -1.5l2 28l43 4q26 2 34 8t9 29q2 32 3.5 81t1.5 103v191z" />
    <glyph glyph-name="Q" unicode="Q" horiz-adv-x="676" 
d="M337 618q-41 0 -74.5 -19t-58.5 -61q-19 -32 -32.5 -88.5t-13.5 -132.5q0 -71 14 -132t37 -96q50 -77 138 -77q38 0 69.5 16t55.5 54q21 35 33.5 94.5t12.5 140.5q0 70 -12.5 127.5t-32.5 94.5q-46 79 -135 79h-1zM696 -120q-23 -19 -58.5 -31t-70.5 -12
q-45 0 -94.5 28.5t-107.5 76.5q-29 23 -50 33.5t-47 15.5q-38 7 -77.5 27t-72 56.5t-53.5 93t-21 137.5q0 71 19.5 133.5t58 109t95.5 73t131 26.5q65 0 117.5 -23t89.5 -65.5t57 -102t20 -132.5q0 -87 -22 -148t-55.5 -100.5t-74.5 -60t-79 -26.5v-3q19 -11 49.5 -24.5
l56.5 -24.5q36 -15 69 -24t62 -11q14 -2 30 -1t27 4z" />
    <glyph glyph-name="R" unicode="R" horiz-adv-x="593" 
d="M206 335h30q79 0 120.5 32.5t41.5 110.5q0 25 -5.5 47t-14.5 36q-12 17 -35 29.5t-69 12.5q-15 0 -28.5 -1.5t-21.5 -3.5q-13 -3 -14 -17q-1 -10 -2.5 -39.5t-1.5 -94.5v-112zM108 423v60.5t-0.5 43.5t-1 30t-0.5 20q-1 11 -6 16t-19 7l-62 6l5 28q17 0 52 -1.5t70 -1.5
q36 0 74 1.5t78 1.5q71 0 108.5 -11t58.5 -32q22 -20 30.5 -47.5t8.5 -55.5q0 -40 -14 -68.5t-38 -47.5t-55 -30t-65 -17v-4q34 -4 63 -13t51 -25t36 -40t20 -57q5 -22 8 -47.5t5 -48.5q3 -35 15.5 -51.5t38.5 -16.5q7 0 15.5 1t13.5 3l-4 -29q-10 -3 -30 -5.5t-38 -2.5
q-60 0 -88.5 27t-33.5 92q-2 20 -3.5 39.5t-3.5 40.5q-4 36 -16 59t-32 36t-48.5 17.5t-64.5 4.5h-30v-101v-51t0.5 -39t1 -30t1.5 -25q1 -9 4 -15t12 -9.5t25 -5.5t43 -4l-2 -28q-27 0 -66.5 1.5t-69.5 1.5q-38 0 -71.5 -1.5t-61.5 -1.5l1 28q49 3 64.5 8.5t16.5 21.5
q1 9 1.5 21.5t1 31.5t1 45t0.5 61v209z" />
    <glyph glyph-name="S" unicode="S" horiz-adv-x="487" 
d="M78 209q-3 -94 36.5 -143.5t116.5 -49.5q25 0 48 7t40 22t27 37.5t10 53.5q0 64 -54 96q-11 7 -30 16.5l-41 21l-44 23t-39 21.5q-51 29 -72.5 68t-21.5 87q0 41 14.5 74t40 56.5t61.5 36t79 12.5t78 -11.5t52 -28.5l17 44l25 -6q-5 -29 -8.5 -58t-5 -54.5t-2 -46.5
t-0.5 -34l-27 -3q0 43 -10.5 74.5t-28.5 52t-42 30.5t-51 10q-50 0 -78.5 -30.5t-28.5 -83.5q0 -34 15.5 -60t53.5 -46l94.5 -50t66.5 -37q39 -22 59 -54t20 -81q0 -48 -18.5 -84t-50 -60t-73.5 -35.5t-89 -11.5q-23 0 -47.5 3.5t-47.5 9t-43.5 12.5t-35.5 14q2 21 3.5 44.5
t2.5 47.5t1.5 46.5t0.5 41.5z" />
    <glyph glyph-name="T" unicode="T" horiz-adv-x="595" 
d="M342 245q0 -78 1.5 -122t3.5 -62q1 -14 6 -20.5t19 -8.5q25 -3 40.5 -4.5t37.5 -2.5l-2 -28q-24 0 -69.5 1.5t-95.5 1.5q-35 0 -72.5 -1.5t-72.5 -1.5l-4 28q16 1 32.5 2.5t41.5 4.5q16 2 23.5 7.5t8.5 19.5q1 13 2 28.5t1.5 37.5t0.5 51.5v69.5v210v88t-1 57
q-51 0 -80.5 -2t-46 -7.5t-24 -14.5t-13.5 -24q-11 -26 -19 -52t-16 -56l-26 7q4 19 7 44.5l6 52t5 51t4 41.5q22 -5 71.5 -7.5t142.5 -2.5h79q56 0 94 0.5t63.5 1.5t42 3t30.5 5q-1 -6 -3 -25t-3.5 -44.5t-2.5 -55t0 -56.5l-27 -10q-5 44 -11 73t-11 43q-3 10 -9.5 17
t-23.5 11.5t-47.5 6t-81.5 0.5q0 -20 -0.5 -57t-0.5 -78v-221z" />
    <glyph glyph-name="U" unicode="U" horiz-adv-x="664" 
d="M364 28q34 0 63 7t51 26.5t35.5 53.5t17.5 89q3 49 4 101.5t0.5 100.5t-2 88.5t-2.5 64.5q-2 29 -13 35t-31 8l-50 5l-3 28q25 0 53.5 -2t53.5 -2q26 0 54.5 1.5t55.5 2.5l5 -28l-38 -4q-22 -2 -28.5 -10t-7.5 -27q-2 -53 -3.5 -110l-3 -110t-3.5 -98.5t-6 -76.5
q-8 -53 -26.5 -87t-50.5 -57q-57 -43 -159 -43q-60 0 -108.5 16t-77.5 49q-11 13 -19.5 28t-13.5 34.5t-8 44.5t-3 58q0 18 -0.5 48t-0.5 66v74v71.5t-0.5 59.5t-0.5 37q-1 16 -5 23t-16 8l-56 6v28q29 0 63.5 -2t65.5 -2q13 0 29 0.5t33 1.5t33.5 1.5t31.5 0.5l2 -28
l-55 -6q-19 -1 -22 -25q-3 -28 -4.5 -76.5t-1.5 -104t1 -111t4 -96.5q3 -50 13 -74t27 -42q20 -21 54 -32.5t68 -11.5h1z" />
    <glyph glyph-name="V" unicode="V" horiz-adv-x="626" 
d="M-14 634q9 0 23 -0.5t31.5 -1l36 -1t36.5 -0.5q30 0 64 1.5t67 1.5l5 -28l-54 -6q-13 -2 -16 -6.5t0 -15.5t12 -38.5l22 -66l29.5 -85.5l34 -96.5l35.5 -99l34 -93.5l53.5 142l49.5 136t39.5 115.5t23.5 80.5q5 23 -15 26q-14 2 -29 3.5t-31 3.5l-5 28q15 0 44.5 -1.5
t61.5 -1.5q26 0 53 1.5t58 1.5l6 -28q-23 0 -38.5 -2.5t-26 -9.5t-18.5 -18.5t-17 -30.5q-17 -37 -41.5 -99.5l-53 -138l-59 -158.5l-57.5 -161q-12 2 -33 1.5t-31 -2.5l-36.5 109.5l-40 115l-40.5 113l-37.5 102l-31.5 82l-22 54.5q-6 13 -12.5 21t-15.5 12.5t-22.5 6.5
t-33.5 3z" />
    <glyph glyph-name="W" unicode="W" horiz-adv-x="915" 
d="M723 634q23 0 51 -1.5t60 -1.5q37 1 58.5 2t45.5 1v-28q-23 -2 -37 -5t-23.5 -9t-16 -17t-13.5 -30l-40 -117.5l-45 -140.5l-46.5 -151l-45.5 -148q-15 2 -33 1.5t-30 -2.5q-11 42 -28 100.5l-37 127l-42.5 144l-44.5 151.5l-50 -176.5l-38 -135.5l-30.5 -110l-26.5 -100
q-12 2 -31 1t-33 -2l-25 91l-29.5 103.5l-31 107l-30.5 102l-27.5 88.5t-21.5 66q-7 19 -13.5 31t-16 18.5t-24 9t-36.5 2.5v28q17 -1 48 -2t71 -1q31 0 63.5 1.5t64.5 1.5l6 -28l-52 -7q-20 -1 -14 -22q12 -49 30 -113l36.5 -128.5l35.5 -124l28 -99.5l48 170l43.5 158
l33 123.5t16.5 67.5q17 -2 38 -1t33 2q4 -20 17.5 -69l34 -118.5l45.5 -156.5l54 -182l47 149.5l39.5 133.5t29 106t16.5 67q4 21 0.5 28t-20.5 9l-59 7z" />
    <glyph glyph-name="X" unicode="X" horiz-adv-x="600" 
d="M13 634q23 -1 59 -2t68 -1q31 0 62.5 1.5t66.5 1.5l6 -28l-48 -6q-20 -3 -11 -20q6 -12 14 -26.5l20 -36l29.5 -52l43.5 -74.5q45 66 72 110.5t41 70.5q8 16 4.5 22t-20.5 8l-45 4l5 28q28 0 56.5 -2t46.5 -2q33 -1 60.5 1.5t52.5 2.5l4 -28q-29 -2 -47 -5t-31 -9
t-23 -16t-23 -25q-17 -21 -49 -65l-86 -124l66 -116l50.5 -85.5l35.5 -59t23 -36.5q12 -17 26 -25.5t39 -10.5l38 -4v-28q-20 0 -55 1.5t-73 1.5q-37 0 -72 -1l-68 -2l-2 28q43 4 52 9.5t2 19.5l-15.5 28.5l-23 41l-35.5 64l-54 98.5l-73 -117t-51 -89q-13 -26 -9 -37
t28 -13l49 -5l6 -28q-22 0 -51.5 1.5t-67.5 1.5t-63 -1t-54 -2l-4 28q19 1 33.5 3.5t26.5 7.5t22 13t21 21q10 13 29 40l42.5 61.5l48.5 72.5l48 73l-61.5 109l-43.5 75l-28.5 47l-16.5 26q-13 18 -32 24t-59 8z" />
    <glyph glyph-name="Y" unicode="Y" horiz-adv-x="556" 
d="M437 -3q-47 1 -85 2t-79 1q-38 0 -72.5 -1.5t-70.5 -1.5l-4 28l35 4t34 4q19 2 27 9.5t9 24.5q1 13 2 36.5t1.5 51l1 54.5t0.5 48q0 14 -3 25.5t-10 24.5q-7 15 -24.5 47.5l-39 69.5l-43.5 73.5l-37 60.5q-10 15 -18 24.5t-18.5 14.5t-24.5 6.5t-35 2.5l-1 28
q7 0 20 -0.5t29 -1t34 -1t35 -0.5q42 0 74 1.5t58 1.5l4 -28l-45 -4q-20 -1 -9 -21q8 -18 24.5 -49l36 -67l39.5 -72.5l36 -65.5q52 93 81.5 151t44.5 93q7 16 5 22t-13 7q-26 5 -56 6l3 28q17 0 47.5 -1.5t56.5 -1.5q23 0 47.5 1.5t50.5 1.5l2 -28q-22 -1 -36.5 -3.5
t-25 -7.5t-19.5 -14t-19 -24q-13 -20 -31 -50.5l-37.5 -64l-38.5 -67.5l-33 -61q-7 -13 -9.5 -24.5t-2.5 -24.5q-1 -22 -1 -51.5t0.5 -59.5t1 -57t2.5 -43q1 -10 6 -15t19 -6q11 -2 28.5 -4t41.5 -4z" />
    <glyph glyph-name="Z" unicode="Z" horiz-adv-x="599" 
d="M312 631h135q28 0 52 1l47 2q-8 -28 -13 -39t-10 -19l-56 -87l-105 -159l-65 -98.5l-52.5 -79l-43 -65t-35.5 -56.5q73 -1 124.5 -0.5t86.5 2.5t56 5.5t33.5 9.5t19.5 14.5t13 19.5q14 25 24 57t19 67l26 -8l-5 -37t-6 -48.5t-5.5 -57t-3.5 -61.5q-20 2 -46 3t-55 2
q-30 1 -61 1h-66h-189h-28.5t-21.5 -0.5l-19.5 -1t-21.5 -1.5l-8 17l54.5 79l67.5 98.5l74 109l73.5 110.5l67 103l53.5 86h-124q-55 0 -88 -3t-52.5 -10t-29 -18.5t-15.5 -27.5q-10 -23 -17 -49.5l-15 -59.5l-25 7q4 25 7.5 53t5 55t1.5 51t-2 41q14 -4 30 -5.5t40 -1.5
q22 -1 55.5 -1h88.5h30z" />
    <glyph glyph-name="bracketleft" unicode="[" horiz-adv-x="333" 
d="M283 -172q-59 1 -109 0.5t-73 -4.5q0 25 0.5 58t1 83t1 122t0.5 175q0 163 -0.5 275t-2.5 158q8 -2 31 -2.5t51.5 -0.5t57 1t48.5 2l-4 -30q-26 -1 -52.5 -3t-35.5 -4q-7 -2 -11 -5.5t-5 -13.5q-2 -14 -4 -38.5t-3 -68t-1.5 -109.5t-0.5 -161q0 -92 0.5 -158.5t1.5 -113
t2 -74t2 -39.5q3 -16 29 -16l82 -2z" />
    <glyph glyph-name="backslash" unicode="\" horiz-adv-x="373" 
d="M86 702l18.5 -62l31.5 -103.5l38.5 -124l39.5 -125.5l31 -99l31 -102l28.5 -94t24.5 -75l-49 -18l-22.5 79l-29 99l-32 108.5l-32.5 108.5l-37.5 122l-37.5 119.5l-31 95t-17 50.5z" />
    <glyph glyph-name="bracketright" unicode="]" horiz-adv-x="333" 
d="M51 693q60 -2 109 -1.5t73 5.5q0 -25 -0.5 -58t-1 -83t-1 -122t-0.5 -175q0 -163 0.5 -275t2.5 -158q-9 2 -32 2.5t-51.5 0.5t-57 -1t-47.5 -2l4 30q26 0 52 2.5t36 4.5q15 2 16 19q2 13 3.5 38t2.5 68.5t1.5 109.5t0.5 161q0 91 -0.5 158.5t-1 114t-2 74t-2.5 39.5
q-2 15 -28 15l-82 2z" />
    <glyph glyph-name="asciicircum" unicode="^" horiz-adv-x="498" 
d="M382 289l-135 288l-130 -288h-62l166 350h55l166 -350h-60z" />
    <glyph glyph-name="underscore" unicode="_" horiz-adv-x="500" 
d="M500 -169h-500v58h500v-58z" />
    <glyph glyph-name="quoteleft" unicode="&#x2018;" horiz-adv-x="192" 
d="M163 688q-37 -7 -62 -31.5t-24 -54.5q0 -9 6 -3q6 3 14 5.5t16 2.5q17 0 31 -14t13 -39q0 -23 -16.5 -39.5t-39.5 -16.5q-31 0 -49 23t-18 60q0 31 12 54.5t30 40t40 25.5t42 11z" />
    <glyph glyph-name="a" unicode="a" horiz-adv-x="479" 
d="M137 124q0 -35 17.5 -60t52.5 -25t57 18.5t35 47.5q3 8 4.5 19t1.5 22v111q-10 -6 -24.5 -12.5l-30.5 -14l-32.5 -15.5t-29.5 -15q-23 -12 -37 -27t-14 -48v-1zM305 328q0 16 -4 31t-13.5 27t-24.5 19t-36 7q-45 0 -65 -20t-20 -52q0 -8 1 -16t3 -14q2 -12 -9 -21
q-15 -10 -34 -10q-17 0 -30.5 10t-13.5 35q0 19 13 40t37 38t58 28t76 11q31 0 54.5 -6t39.5 -14.5t26 -18t15 -17.5q6 -10 10 -24.5t4 -28.5v-253q0 -29 7 -37t17 -8q11 0 22 15t19 46l25 -10q-11 -55 -38 -77t-62 -22q-39 0 -56 21t-21 53q-34 -36 -71 -55t-73 -19
q-58 0 -90 35t-32 89q0 30 13 54t43 36q26 11 56.5 22.5l60 22.5t54 22t39.5 22v39z" />
    <glyph glyph-name="b" unicode="b" horiz-adv-x="526" 
d="M263 16q34 0 58 16t39 44.5t22 66.5t7 82q0 38 -7.5 70t-21.5 55q-14 20 -33.5 31.5t-47.5 11.5q-36 0 -63.5 -19.5t-42.5 -43.5q-3 -5 -5.5 -11.5t-3.5 -19.5t-1.5 -36.5t-0.5 -62.5q0 -42 1 -66t2.5 -37.5t4 -19t5.5 -11.5q14 -26 37.5 -38t49.5 -12h1zM6 664
q18 0 40.5 1t45.5 3t43 4t32 5q0 -26 -2 -78.5t-2 -142.5v-89q40 35 77 54.5t81 19.5q48 0 80 -19t52 -50q17 -26 26 -62t9 -76q0 -116 -58 -182t-170 -66q-35 0 -69 8.5t-53 20.5l-27 -12.5l-32 -15.5l-7 5q0 14 0.5 39.5t0.5 59.5t0.5 74t0.5 84v235q0 58 -1 86.5t-2 47.5
q0 6 -2.5 9.5t-9.5 5.5t-20 2.5t-34 0.5z" />
    <glyph glyph-name="c" unicode="c" horiz-adv-x="452" 
d="M426 121q-19 -62 -63.5 -98.5t-119.5 -36.5q-54 0 -92 16t-66 48q-47 56 -47 157q0 48 15 90.5t44 74.5t71 50.5t96 18.5q69 0 112 -29t43 -79q0 -27 -15.5 -40t-35.5 -13q-7 0 -14 1.5t-11 5.5q-11 9 -8 21q1 8 2.5 15.5t1.5 15.5q0 34 -18 53.5t-60 19.5q-31 0 -54 -15
t-38.5 -41.5t-23 -61.5t-7.5 -75q0 -38 7 -71t21 -57q36 -59 106 -59q51 0 79.5 25t48.5 78z" />
    <glyph glyph-name="d" unicode="d" horiz-adv-x="536" 
d="M136 215q0 -38 8 -74t25 -59q16 -23 38 -34t47 -11q30 0 55 13t43 45q3 5 5 12t3.5 23t2 44.5t0.5 76.5q0 31 -0.5 49.5t-1 30t-2 17t-3.5 9.5q-10 18 -30 35.5t-60 17.5q-33 0 -57.5 -15.5t-40.5 -41.5t-24 -61.5t-8 -75.5v-1zM290 664q15 0 37 1.5l46 3t46.5 4
t37.5 4.5l-3 -89t-2 -136v-231v-65t1 -47t1.5 -34.5t2.5 -25.5q2 -13 7 -17.5t16 -3.5h47l-6 -28q-15 0 -36.5 -1.5t-44.5 -3.5t-44 -4.5t-34 -5.5q0 15 0.5 35t-0.5 36h-3q-32 -32 -66.5 -51t-78.5 -19q-45 0 -79 18t-55 47q-20 28 -31 65.5t-11 81.5q0 49 14 93t42 77.5
t70.5 53t99.5 19.5q34 0 60 -8t39 -18v128t-2 72q-1 8 -3.5 13t-10 7t-22 2.5t-39.5 -0.5z" />
    <glyph glyph-name="e" unicode="e" horiz-adv-x="452" 
d="M241 411q-26 0 -45 -14.5t-31.5 -37.5t-19 -53t-7.5 -60h83q35 0 56 2t33 4q10 2 15 10t5 25q0 20 -4.5 42t-15 40t-27 30t-41.5 12h-1zM418 115q-23 -68 -69 -98.5t-110 -30.5q-58 0 -96 18t-62 50q-21 26 -32 66t-11 85q0 46 13.5 89t39.5 75.5t65.5 52t91.5 19.5
q54 0 88 -19t52.5 -46t24.5 -56.5t6 -51.5q0 -32 -21 -40q-13 -5 -47.5 -8.5t-83.5 -4.5q-26 0 -62.5 -0.5t-68.5 0.5q-2 -41 7.5 -75t23.5 -55q33 -53 100 -53q46 0 75.5 23t49.5 74z" />
    <glyph glyph-name="f" unicode="f" horiz-adv-x="284" 
d="M30 427h64l1 33q1 55 12.5 96.5t39.5 70.5q23 25 52.5 38.5t64.5 13.5q27 0 46 -7t31.5 -18t18.5 -24.5t6 -26.5q0 -20 -14 -32.5t-34 -12.5q-25 0 -25 25q1 26 -9 45.5t-38 19.5q-24 0 -38 -19.5t-19 -54.5q-4 -23 -5 -58.5t1 -88.5h99l-5 -31l-95 -6q-1 -29 -1 -74
v-110q0 -54 0.5 -91.5t1.5 -57.5q0 -14 5.5 -19t17.5 -7q13 -2 28.5 -3.5t29.5 -2.5l-3 -28q-23 0 -56 1.5t-65 1.5q-31 0 -62.5 -1.5t-54.5 -1.5l1 28q20 1 32.5 2.5t19.5 4.5t9.5 7.5t2.5 10.5q2 18 3 57.5t1 96.5v186l-67 7z" />
    <glyph glyph-name="g" unicode="g" horiz-adv-x="472" 
d="M234 411q-41 0 -60 -34.5t-19 -91.5q0 -23 4 -46t13.5 -41t25 -29t37.5 -11t37.5 10t24.5 27.5t13 40t4 48.5q0 23 -3.5 45.5t-12.5 40.5t-24 29.5t-39 11.5h-1zM142 -52q-20 -8 -34 -23.5t-14 -42.5q0 -22 11 -39t30 -29t45 -18t56 -6q42 0 73.5 9.5t52 26t31 38.5
t10.5 47q0 30 -19.5 46.5t-48.5 16.5h-102t-72 1q-30 0 -55.5 8t-45.5 29q-11 12 -18 27.5t-7 36.5q0 18 6 33t15.5 27.5t21 22.5t23.5 17q-20 21 -28.5 48.5t-8.5 53.5q0 40 14.5 71t39.5 51t57 30.5t67 10.5q42 0 67 -10.5t33 -15.5q26 20 48.5 33t45.5 13q19 0 31 -10.5
t12 -19.5q-2 -12 -13.5 -24t-21.5 -17q-8 7 -19 11.5t-28 4.5q-16 0 -33 -7q22 -21 32.5 -51t10.5 -60q0 -40 -15 -70t-40 -49.5t-57 -29.5t-66 -10q-38 0 -65 8.5t-41 19.5q-17 -7 -28.5 -21t-11.5 -33q0 -20 17.5 -31t40.5 -11q42 0 92 1t114 1q23 0 43.5 -6t37.5 -20
q20 -16 30.5 -40t10.5 -50q0 -49 -23 -85.5t-60 -60.5t-83 -36t-92 -12q-88 0 -136 31.5t-48 83.5q0 39 37 64q11 8 29 18t36 16z" />
    <glyph glyph-name="h" unicode="h" horiz-adv-x="540" 
d="M21 666q19 0 42.5 1.5l46 3t40.5 3t27 3.5q-2 -29 -3 -76.5t-1 -110.5v-126q27 28 68 52.5t93 24.5q26 0 45 -6t32 -15t20.5 -18.5t11.5 -16.5q14 -27 14 -75v-258q0 -8 1.5 -12.5t8 -7.5t19 -4.5t35.5 -2.5l-2 -28q-22 0 -50 1.5t-59 1.5q-34 0 -59 -1.5t-45 -1.5l1 28
q18 1 28.5 2.5t16.5 4.5t8.5 7.5t3.5 11.5q2 15 3 51.5t1 93.5q0 47 -0.5 75t-1.5 44t-3 23t-4 13q-8 17 -23.5 29t-43.5 12q-34 0 -61 -15t-47 -47q-7 -12 -9 -23.5t-2 -26.5v-112q0 -38 0.5 -67.5t1.5 -46.5t11 -22.5t47 -6.5l-1 -28q-20 0 -51 1.5t-58 1.5
q-32 0 -57.5 -1.5t-45.5 -1.5v28q37 2 48 6.5t12 21.5q1 12 1.5 24.5t1 30t1 41.5t0.5 58v285q0 58 -0.5 86.5t-2.5 45.5q-1 10 -11.5 13t-48.5 3v26z" />
    <glyph glyph-name="i" unicode="i" horiz-adv-x="266" 
d="M246 -3q-23 0 -51 1.5t-64 1.5q-38 0 -61.5 -1.5t-46.5 -1.5l1 28q22 1 35 2.5t19.5 5t9 8t2.5 11.5q2 15 3 44.5t1 74.5v109q0 78 -3 102q-1 11 -12.5 13.5t-51.5 0.5l2 27q18 1 38 2.5t41 3.5t41 4.5t37 6.5q-1 -18 -2 -58t-1 -97v-115q0 -48 0.5 -74t2.5 -43
q0 -8 2.5 -13t9.5 -8t19 -4.5t31 -2.5zM133 635q25 0 38 -15t13 -39t-16.5 -38.5t-39.5 -14.5q-20 0 -35 13.5t-15 38.5q0 24 15.5 39.5t38.5 15.5h1z" />
    <glyph glyph-name="j" unicode="j" horiz-adv-x="256" 
d="M18 425q20 1 42 2.5t43 3.5t41 4.5t36 5.5l2 -3v-51.5t-0.5 -61.5t-0.5 -82v-114q0 -63 -1 -101t-5 -67q-5 -41 -17.5 -75.5t-35.5 -60.5q-16 -18 -33.5 -31t-35 -21t-32.5 -12t-25 -4q-17 0 -25 10l-8 10t-6 12l6 10q7 -2 16 -3t19 -1q16 0 30.5 5t26 18.5t19 36
t10.5 58.5q2 19 3.5 44t2.5 59t1.5 78t0.5 103q0 82 -1.5 123.5t-2.5 61.5q-1 9 -4.5 12.5t-15.5 3.5h-50v27zM129 635q25 0 38 -14t13 -40q0 -24 -16 -38.5t-39 -14.5q-20 0 -35.5 13.5t-15.5 38.5q0 24 15.5 39.5t38.5 15.5h1z" />
    <glyph glyph-name="k" unicode="k" horiz-adv-x="495" 
d="M20 664q46 1 88.5 4t67.5 8q-1 -34 -2.5 -91.5t-1.5 -119.5v-226q17 2 39 18.5t44 38.5t41.5 45t30.5 40q10 15 -6 16l-45 4l1 26q45 0 96.5 1.5t100.5 4.5l1 -26q-20 -2 -34.5 -4.5t-25.5 -6t-19.5 -8.5t-17.5 -12l-24 -22l-29.5 -28l-31.5 -30.5t-29 -29.5
q16 -25 40.5 -58l49 -65.5t46.5 -59t33 -38.5q11 -11 22 -15t28 -5h31l-2 -27q-19 0 -40.5 -1t-42.5 -2.5t-39.5 -3.5t-31.5 -5q-13 21 -35.5 52.5l-46 63.5l-43.5 59l-28 38q-9 13 -16 15.5t-17 0.5v-88.5t2 -75.5q1 -15 12 -20t51 -6l-2 -28q-26 0 -53.5 1.5t-63.5 1.5
q-41 0 -63.5 -1.5t-40.5 -1.5v28q21 1 33.5 2.5t19 4.5t9 7.5t3.5 11.5q1 14 2.5 56t1.5 102v258v95t-2 59q0 8 -4 11t-17 4l-40 1v27z" />
    <glyph glyph-name="l" unicode="l" horiz-adv-x="256" 
d="M16 664q48 1 89 4.5t71 8.5q-1 -29 -2.5 -79t-1.5 -122v-251q0 -78 0.5 -116t1.5 -56q0 -8 3 -13.5t10.5 -8.5t20.5 -4t33 -2l-3 -28q-26 0 -58.5 1.5t-61.5 1.5q-35 0 -60.5 -1.5t-45.5 -1.5l1 28q21 0 33.5 2t19.5 5.5t9.5 9t2.5 13.5q1 14 3 61.5t2 112.5v250v53.5v38
t-0.5 27t-1.5 21.5q0 6 -2.5 9.5t-9 5.5t-19.5 2.5t-35 0.5z" />
    <glyph glyph-name="m" unicode="m" horiz-adv-x="826" 
d="M94 257q0 81 -3 122q0 5 -2.5 8.5t-9 5t-18.5 2t-32 0.5l2 27q35 0 73.5 3.5t73.5 11.5q1 -6 2 -16.5t1.5 -22.5t1.5 -22.5t1 -16.5q13 14 30 28.5t37.5 26.5t44 19.5t50.5 7.5q42 0 64 -14.5t32 -28.5q7 -9 10.5 -19l6.5 -19l29 26.5t35.5 26.5t44 20t53.5 8
q46 0 71.5 -19t36.5 -38q8 -14 11 -31t3 -34v-267q0 -8 1.5 -13t8.5 -7.5t19.5 -4t35.5 -2.5l-2 -28q-23 0 -51.5 1.5t-61.5 1.5q-32 0 -57 -1.5t-45 -1.5l1 28q35 2 45.5 7t12.5 19q2 18 3 52t1 93q0 46 -0.5 74t-1 43.5t-2 22.5t-4.5 13q-8 19 -25 30t-43 11
q-35 0 -62 -18.5t-43 -46.5q-10 -19 -10 -44v-134q0 -28 0.5 -53.5t1.5 -42.5q1 -15 12.5 -20t49.5 -6l-3 -28q-19 0 -50 1.5t-61 1.5t-55 -1.5t-45 -1.5v28q17 1 28 2t17.5 4t9 9t3.5 15q2 22 2.5 49.5t0.5 73.5v79q0 25 -0.5 40.5t-1 25.5t-2 16t-4.5 12q-17 39 -64 39
q-34 0 -62.5 -18t-45.5 -50q-6 -12 -8.5 -22t-2.5 -25v-131q0 -30 0.5 -53t1.5 -40q1 -15 12 -20t49 -6l-4 -28q-18 0 -49.5 1.5t-58.5 1.5q-28 0 -54.5 -1.5t-49.5 -1.5v28q19 1 31 2t18.5 4t9 9t2.5 15q3 36 3 120v82z" />
    <glyph glyph-name="n" unicode="n" horiz-adv-x="551" 
d="M29 25q19 1 31 2.5t18.5 4.5t9 8.5t3.5 14.5q2 23 2.5 50t0.5 63v89q0 40 -0.5 71t-2.5 51q0 11 -10.5 13.5t-49.5 2.5l2 27q35 0 72.5 3.5t71.5 11.5q1 -7 2 -17.5l2 -21l2 -20.5t1 -16q13 13 29 27.5t35 25.5t41.5 18.5t49.5 7.5q50 0 77 -19t38 -42q13 -25 13 -62
v-266q0 -8 1.5 -13t8.5 -7.5t19.5 -4t35.5 -2.5l-2 -28q-23 0 -51.5 1.5t-61.5 1.5q-34 0 -58.5 -1.5t-42.5 -1.5l1 28q34 2 44.5 7t11.5 19q2 16 3.5 51t1.5 95q0 47 -0.5 75t-1.5 43.5t-3 22.5t-5 13q-9 19 -25 29t-42 10q-36 0 -63 -17t-44 -47q-7 -11 -9 -22.5t-2 -28.5
v-118v-60t2 -45q1 -15 12 -20.5t49 -6.5l-2 -28q-19 0 -51.5 1.5t-59.5 1.5q-30 0 -55.5 -1.5t-48.5 -1.5v28z" />
    <glyph glyph-name="o" unicode="o" horiz-adv-x="513" 
d="M255 411q-30 0 -50.5 -13t-35.5 -36q-14 -23 -21.5 -58t-7.5 -79q0 -45 7.5 -83.5t21.5 -64.5q32 -61 94 -61q58 0 86 53q11 23 18 58t7 81t-7.5 84.5t-20.5 61.5q-14 26 -36 41.5t-54 15.5h-1zM262 441q50 0 89.5 -16.5t67 -46.5t42 -71t14.5 -90q0 -52 -15 -94.5
t-43.5 -73t-69 -47t-92.5 -16.5q-55 0 -95.5 17t-67.5 47t-40.5 71t-13.5 89t14.5 90t43 73.5t70 49.5t95.5 18h1z" />
    <glyph glyph-name="p" unicode="p" horiz-adv-x="535" 
d="M274 18q35 0 59 17t39 45t21.5 64.5t6.5 76.5q0 35 -8 70t-22 57q-13 20 -31.5 31t-45.5 11q-37 0 -64.5 -19.5t-44.5 -49.5q-5 -8 -8 -17t-3 -23q0 -32 -0.5 -56.5t-0.5 -46t0.5 -40.5t0.5 -40q1 -17 10 -30q15 -25 39.5 -37.5t50.5 -12.5h1zM3 -205q23 1 37.5 3t22 5
t10.5 8t4 12q1 12 2 28.5t2 40.5t1.5 56.5t0.5 76.5v221q0 59 -1 89t-2 45q-1 11 -13.5 14t-54.5 1l6 27q36 2 75.5 5.5t74.5 11.5q2 -18 2.5 -40.5t2.5 -39.5q37 37 76 59.5t87 22.5q39 0 68 -15t49 -40q20 -26 32 -64.5t12 -86.5q0 -57 -14.5 -103t-42 -78.5t-68.5 -50
t-95 -17.5q-30 0 -58.5 8.5t-47.5 22.5v-58.5v-49t0.5 -42t2.5 -38.5q1 -9 3.5 -15t11 -9t24 -4.5t42.5 -2.5l-5 -28q-20 0 -50.5 1t-74.5 1q-43 0 -74 -1.5t-53 -3.5z" />
    <glyph glyph-name="q" unicode="q" horiz-adv-x="526" 
d="M266 410q-35 0 -59.5 -17t-40 -45t-22.5 -62.5t-7 -68.5q0 -42 8.5 -78t25.5 -59t40 -34.5t49 -11.5q37 0 58.5 15t34.5 35q3 4 4.5 9t3 16t2 29.5t0.5 50.5q0 63 -0.5 97t-2.5 51q-2 10 -4 17.5t-8 15.5q-12 20 -33.5 30t-47.5 10h-1zM452 -10q0 -60 2 -105.5t4 -65.5
q0 -5 3 -8.5t10.5 -5.5t21.5 -3t37 -2l-4 -28q-65 0 -131 -2t-128 -7l3 29q28 3 45 5.5t26.5 6t13 8t3.5 10.5q2 16 3 45t1 84v96q-32 -29 -68 -45t-77 -16q-38 0 -70 12.5t-54 35.5q-26 26 -40.5 68t-14.5 95q0 52 15 96.5t44.5 77.5t73 51.5t99.5 18.5q38 0 67 -8.5
t46 -19.5l60 23h13q-1 -32 -2.5 -90t-1.5 -136v-220z" />
    <glyph glyph-name="r" unicode="r" horiz-adv-x="374" 
d="M94 256q0 47 -2 77.5t-5 44.5q-3 15 -20 15l-39 1l1 27q15 1 33.5 2t37 3.5t36 5.5t32.5 7l3 -3l2.5 -22.5t2.5 -27.5t1.5 -26.5t0.5 -20.5h3q9 20 20.5 38.5t26 32.5t33 22.5t41.5 8.5q31 0 47 -19t16 -41q0 -16 -5 -26.5t-12.5 -17t-15 -9.5t-13.5 -3q-23 0 -29 16
q-5 16 -11.5 25t-23.5 9q-22 0 -39 -25.5t-26 -57.5q-7 -24 -7 -56v-72v-51t0.5 -35t1.5 -23q0 -8 2.5 -13.5t11 -8.5t25 -5t45.5 -3l-3 -28q-28 0 -61 1.5t-66 1.5t-60 -1.5t-54 -1.5l3 28q38 2 49 6.5t13 17.5q2 16 3 48.5t1 76.5v82z" />
    <glyph glyph-name="s" unicode="s" horiz-adv-x="401" 
d="M308 282q-4 57 -33.5 93t-77.5 36q-34 0 -54 -19.5t-20 -51.5q0 -22 10.5 -35t27.5 -22q12 -6 28.5 -13t35 -14l36.5 -14t32 -14q38 -17 55 -42.5t17 -59.5q0 -37 -16 -63.5t-41.5 -43.5t-57.5 -25t-64 -8q-41 0 -79.5 9.5t-59.5 19.5q0 9 0.5 25t1 36t0.5 42t-1 43l25 4
q2 -16 6 -37.5t12 -41.5q14 -35 42 -52t66 -17q42 0 65 20t23 53q0 18 -8 32t-28 24l-59.5 26.5l-59.5 25.5q-38 16 -59 41.5t-21 67.5q0 32 12 57t32.5 42t48.5 26t60 9q31 0 58.5 -8t38.5 -18l12 34l26 -8q-5 -39 -6.5 -80t0.5 -73z" />
    <glyph glyph-name="t" unicode="t" horiz-adv-x="338" 
d="M315 427l-4 -31l-136 -6q0 -26 -1 -61.5t-1 -93.5q0 -68 1 -108t4 -61q6 -40 46 -40q34 0 53 23.5t29 61.5h12l11 -36q-19 -45 -55 -67t-85 -22q-34 0 -56.5 9.5t-33.5 25.5q-17 21 -17 63q0 30 0.5 70.5l1 83.5t1.5 83t1 69l-69 6l5 31h65v112q27 11 50.5 23.5
t34.5 22.5l9 -3q-1 -10 -2 -27.5t-1.5 -39l-1 -44.5t-0.5 -44h139z" />
    <glyph glyph-name="u" unicode="u" horiz-adv-x="540" 
d="M295 427q25 0 52 1t50 2q22 2 38.5 3t24.5 2l-2.5 -60.5t-1.5 -85.5v-118q0 -46 1 -76t3 -48q1 -7 3 -11t9 -6t21 -2.5t38 -0.5l-3 -27q-18 -1 -40.5 -2.5t-45.5 -3.5t-41.5 -4.5l-32.5 -4.5q-1 20 -1.5 47t-0.5 48q-11 -15 -28.5 -32t-40.5 -30.5t-50.5 -22.5t-58.5 -9
q-44 0 -66 14.5t-30 29.5q-13 22 -13 59q0 19 0.5 45.5l1 55l1 57.5t0.5 55q0 34 -0.5 53t-1.5 30t-13 13.5t-50 2.5l4 27q23 0 47.5 1t45.5 3q41 3 65 6q-3 -20 -5.5 -67.5t-2.5 -134.5q-1 -67 0 -108t6 -59q4 -17 16.5 -26.5t34.5 -9.5q44 0 77.5 27.5t50.5 67.5
q7 17 9 30t2 30v97q0 36 -0.5 59.5t-2.5 38.5q-1 6 -3.5 9t-10 4.5t-20 2.5t-33.5 1z" />
    <glyph glyph-name="v" unicode="v" horiz-adv-x="453" 
d="M-5 430q16 -1 43.5 -2t53.5 -1q30 0 60.5 1.5t52.5 1.5l4 -28l-37 -4q-13 -2 -15.5 -6.5t2.5 -18.5q10 -32 23.5 -71t28 -77l27 -72.5l21.5 -58.5l25.5 66l26.5 72.5l25 72.5t20 66q5 14 1.5 19.5t-15.5 7.5l-44 4v28q25 0 49 -1.5t46 -1.5q26 0 45.5 1.5t34.5 1.5
l-1 -28q-17 -2 -28.5 -4.5t-20 -8.5t-15.5 -15.5t-14 -25.5l-37 -88.5l-37 -93.5l-35 -92t-30 -83q-13 0 -25 -1t-25 -3l-24 65.5l-26.5 72.5l-27.5 73l-26 67.5l-22 56l-16 38.5q-6 13 -11 20.5t-12 12t-17.5 6.5t-27.5 3v28z" />
    <glyph glyph-name="w" unicode="w" horiz-adv-x="701" 
d="M-3 430q16 -1 40.5 -2t59.5 -1q29 0 58.5 1l58.5 2l3 -27l-43 -5q-13 -2 -15 -7t1 -17q8 -28 19 -62l22.5 -70l23 -72.5l21.5 -68.5l24 70l28.5 85.5l29 89.5l26.5 82q14 -1 23.5 -0.5t24.5 2.5q4 -14 12.5 -38.5l19.5 -55l23 -64l24 -66l22.5 -61l17.5 -48.5l27.5 84
t24 77l18.5 65t12 47q4 14 0 20t-19 8l-46 5l2 27q25 0 50.5 -1.5t49.5 -1.5q29 0 48.5 1.5t33.5 1.5l1 -27q-19 -2 -31 -4.5t-20.5 -8.5t-15 -16.5t-13.5 -27.5q-11 -26 -26 -66.5l-32 -88.5l-34.5 -100l-33.5 -100q-27 0 -50 -4q-8 25 -22 64l-30 83.5l-33 90.5l-31 86
l-59 -170l-53 -154q-12 2 -24 3t-25 1q-7 24 -17.5 57l-22 69.5l-24 73.5l-24 70l-21 59.5t-15.5 41.5q-5 12 -10 19.5t-12.5 12t-18.5 6.5t-28 3v27z" />
    <glyph glyph-name="x" unicode="x" horiz-adv-x="468" 
d="M11 430q15 0 43 -1.5t57 -1.5q28 0 54 1t55 2l1 -28l-24 -3q-11 -1 -12 -6t4 -13q14 -26 31.5 -54t31.5 -53l43.5 64t26.5 44q5 9 2 12.5t-14 4.5l-29 4l2 28q18 0 41.5 -1.5t46.5 -1.5t46.5 1.5t39.5 1.5l-2 -28q-35 -2 -53 -8.5t-36 -23.5q-16 -17 -40 -47.5t-57 -77.5
l75.5 -120.5t47.5 -70.5q6 -8 13 -13t16 -8.5t22.5 -5t33.5 -2.5v-28q-16 0 -46 1.5t-65 1.5q-30 0 -59.5 -1t-53.5 -2l-1 28l26 3q11 2 12.5 7.5t-2.5 13.5l-36 61l-43 70l-32.5 -45.5t-22.5 -34t-15 -25.5l-11 -21q-12 -22 11 -25l38 -4l-3 -28q-25 0 -52 1.5t-50 1.5
q-26 0 -46 -1.5t-34 -1.5v28q35 2 53.5 11.5t38.5 32.5l21.5 27l27 34.5l29.5 39l29 39.5l-53 88t-44 69q-8 11 -15 17.5t-16 10.5t-21.5 5.5t-30.5 2.5v28z" />
    <glyph glyph-name="y" unicode="y" horiz-adv-x="446" 
d="M-4 430q20 -1 45 -2t57 -1q29 0 58.5 1.5t50.5 1.5l4 -28l-36 -4q-20 -3 -13 -23l27 -76l30 -80.5l27.5 -72t18.5 -50.5l22.5 66t24 74.5l21.5 71t15 55.5q5 20 -0.5 27t-25.5 9l-36 3l4 28q17 0 40.5 -1.5t45.5 -1.5q20 0 43 1.5t47 1.5l-2 -28q-16 -1 -27 -3t-19 -8
t-14.5 -16.5t-13.5 -27.5q-14 -33 -32.5 -84.5l-39.5 -110l-42 -120l-39 -114.5q-28 -85 -57 -124t-74 -39q-32 0 -49.5 17.5t-17.5 42.5q0 24 13.5 37t30.5 13q22 0 29 -20q5 -14 11 -22t17 -8q13 0 25 19t22.5 45.5t19.5 54.5l15 46q-6 7 -13 20t-13 28l-36 95l-37 96.5
l-33 84t-24 56.5q-11 23 -20.5 30t-29.5 10l-22 2z" />
    <glyph glyph-name="z" unicode="z" horiz-adv-x="451" 
d="M51 271q2 30 6.5 75.5t3.5 90.5q26 -10 109 -10h85q28 0 50 0.5t39.5 1t32 1t29.5 0.5q-2 -15 -9 -30t-16 -29l-21 -32.5l-35.5 -55l-44.5 -67.5l-47 -71l-43 -65.5l-33 -50.5q60 0 99 2t61 5q15 2 26.5 8.5t21.5 21t18 38.5t16 62l26 -7q-3 -16 -5.5 -37l-5 -43.5
t-4 -44.5t-2.5 -39q-13 1 -39.5 2t-61.5 1.5t-76 1t-81 0.5q-44 0 -67.5 -0.5t-37.5 -1.5l-11 19q40 49 81.5 107.5l77 112.5l62 97.5t35.5 62.5q-31 0 -63 -0.5t-61 -3.5q-30 -3 -44 -10.5t-23 -32.5q-8 -19 -12 -37.5t-9 -36.5z" />
    <glyph glyph-name="braceleft" unicode="{" horiz-adv-x="334" 
d="M284 678q-27 -2 -45.5 -8.5t-29 -19.5t-14 -34.5t-0.5 -53.5q5 -45 10.5 -84t4.5 -77q-2 -59 -28 -91t-83 -53q27 -11 47.5 -23.5t35 -29.5t21.5 -41t7 -57q0 -30 -3.5 -64.5t-6.5 -72.5q-3 -37 -2 -61.5t9.5 -40t27 -23t50.5 -9.5v-31q-23 -2 -51.5 4.5t-53.5 25
t-42.5 49t-17.5 76.5q0 19 1 46t2.5 55l3 54.5t1.5 46.5q0 45 -22.5 62.5t-65.5 17.5l-6 31q45 1 69.5 18.5t24.5 63.5q0 19 -1.5 44l-3 49.5t-2.5 47.5t-1 39q0 52 17.5 86t43.5 54.5t54.5 28t51.5 6.5z" />
    <glyph glyph-name="bar" unicode="|" horiz-adv-x="252" 
d="M160 751v-1000h-67v1000h67z" />
    <glyph glyph-name="braceright" unicode="}" horiz-adv-x="334" 
d="M50 -165q28 2 47 8.5t29.5 19.5t14 34.5t0.5 53.5q-5 45 -11 83.5t-5 77.5q2 60 28 91.5t83 52.5q-28 10 -48.5 23t-34.5 30.5t-21 41.5t-7 57q0 29 3 63t7 72q3 37 2 62t-10 40.5t-27.5 22.5t-49.5 9l-1 31q23 2 52 -4.5t54.5 -24.5t43 -49.5t17.5 -77.5q0 -19 -1.5 -45
l-3 -54l-3 -54.5t-1.5 -45.5q0 -45 22.5 -63t65.5 -18l5 -31q-44 -1 -68.5 -18.5t-24.5 -63.5q0 -20 1.5 -44.5l3 -49.5l3 -48t1.5 -39q0 -52 -18 -86t-44 -54t-55 -28t-51 -6z" />
    <glyph glyph-name="asciitilde" unicode="~" horiz-adv-x="520" 
d="M468 319q-2 -53 -11.5 -87.5t-25 -55t-35.5 -28.5t-43 -8q-34 0 -60.5 22.5t-53.5 56.5q-20 26 -37 42.5t-37 16.5q-26 0 -42 -28.5t-22 -101.5l-50 6q2 60 14.5 95t29.5 54t37 24.5t37 5.5q31 0 56.5 -18.5t51.5 -52.5q23 -29 42 -47.5t38 -18.5q10 0 20 4t18 18
t14.5 39.5t9.5 69.5z" />
    <glyph glyph-name="exclamdown" unicode="&#xa1;" horiz-adv-x="219" 
d="M108 440q27 0 43.5 -18t16.5 -46q0 -27 -18 -45t-43 -18t-42.5 18t-17.5 45q0 28 17.5 46t42.5 18h1zM108 -228q-8 0 -18.5 6t-20 16.5t-16.5 25t-7 30.5q0 17 3.5 37.5t9.5 42.5q9 37 15.5 76t11 77t7 74t2.5 66h31q0 -30 2.5 -65.5t7 -74t11 -77.5t15.5 -76
q6 -23 9.5 -43t3.5 -37q0 -14 -6.5 -28t-16 -25t-21.5 -18t-22 -7h-1z" />
    <glyph glyph-name="cent" unicode="&#xa2;" horiz-adv-x="478" 
d="M139 326q0 -36 6.5 -70.5t20.5 -56.5q12 -19 30.5 -32.5t45.5 -18.5q5 83 9 177l8 185q-33 -3 -56 -20t-37.5 -43t-20.5 -57.5t-6 -62.5v-1zM438 215q-19 -43 -63 -72t-101 -34l-3 -82l-39 -10l6 91q-54 2 -92 18.5t-61 42.5q-20 23 -33 59.5t-13 84.5q0 49 16.5 89.5
t46 69.5t70.5 46t89 19l2 76l39 9l-6 -85q62 -3 101.5 -28.5t39.5 -71.5q0 -26 -15 -39t-35 -13q-15 0 -23 8t-6 18q2 8 3.5 16t1.5 19q0 24 -17 41t-53 22q-5 -88 -9 -181.5t-7 -181.5q54 2 88 27t53 80l16 -1z" />
    <glyph glyph-name="sterling" unicode="&#xa3;" horiz-adv-x="478" 
d="M23 335q14 -1 30.5 -1h45.5q-6 53 -6 86t7 62q8 34 26.5 63t48.5 49q21 14 48.5 22.5t61.5 8.5q40 0 68 -10t46 -25.5t26 -34.5t8 -36q0 -29 -14.5 -44t-35.5 -15q-6 0 -12.5 1.5t-11.5 5.5q-11 7 -8 18q2 8 3.5 17.5t1.5 17.5q0 34 -19.5 54.5t-59.5 20.5q-39 0 -63 -29
t-23 -95q0 -29 2.5 -60.5t6.5 -76.5h66.5t43 0.5t30.5 1t28 0.5l-14 -39q-19 0 -52 1t-99 1q0 -34 -5 -70t-19 -66q-13 -26 -33 -48.5t-49 -45.5q82 1 138 2t90.5 2.5t51 3.5t19.5 4q5 2 8.5 5.5t6.5 13.5q6 18 11.5 36.5l9.5 32.5l29 5q-11 -53 -16 -101t-6 -74l-6 -6
q-30 2 -69.5 3.5t-80 2l-79.5 1t-69 0.5q-48 0 -73.5 -1t-46.5 -3l-5 10l21 46q12 8 24.5 19t23 26t17.5 34.5t9 46.5q2 29 1 61t-4 60h-42t-51 -2z" />
    <glyph glyph-name="fraction" unicode="&#x2044;" horiz-adv-x="109" 
d="M288 650l-89.5 -136.5l-108 -167.5l-118 -185.5l-118.5 -190.5l-30 27l112.5 172.5l117.5 183l110.5 174l90.5 145.5z" />
    <glyph glyph-name="yen" unicode="&#xa5;" horiz-adv-x="478" 
d="M-9 617q20 0 47.5 -1t58.5 -1q40 0 65 1t51 1l2 -26l-22 -2t-22 -3q-14 -1 -6 -18q7 -17 19 -40.5l26 -51l28.5 -56.5l28.5 -55l32.5 64l28 57t21 45.5l12.5 28.5q4 8 4.5 13.5t-5.5 9t-19.5 5.5t-37.5 3l3 26q17 0 44 -1t51 -1q19 0 39.5 1t41.5 1l1 -26
q-15 -1 -26.5 -3t-21 -7t-18 -13.5t-17.5 -21.5q-11 -15 -25 -40l-29.5 -54.5l-31 -59.5l-28.5 -56q19 0 34 0.5l29.5 1l29.5 1t35 0.5l-10 -38q-13 0 -47.5 1t-74.5 1v-76q43 0 73 0.5t51 1.5l-10 -39q-16 1 -46.5 2t-69.5 1v-37.5t0.5 -39.5t1 -35.5t1.5 -26.5
q2 -12 6.5 -17t17.5 -6q13 -2 29 -3t38 -3l1 -28q-65 3 -153 3q-23 0 -55 -1t-72 -2l-1 28q18 2 34.5 3.5t30.5 3.5q28 4 29 32q0 7 0.5 22t1 33l1 37.5t0.5 36.5h-63t-54 -2l5 40q23 -1 52.5 -2t61.5 -1v75h-69.5t-57.5 -2l9 39q12 0 39.5 -1t72.5 -2l-26.5 52l-32 60
l-32 56.5t-26.5 43.5q-9 14 -16 22t-16 12.5t-20.5 6t-27.5 1.5z" />
    <glyph glyph-name="florin" unicode="&#x192;" horiz-adv-x="478" 
d="M69 356q21 -1 43 -1.5t42 -0.5q7 46 15 80.5t17.5 61t21 46.5t25.5 36q28 32 60.5 46.5t67.5 14.5q38 0 65.5 -19t27.5 -53q0 -25 -13.5 -38t-32.5 -13q-11 0 -20 6t-7 17q2 6 3 13.5t1 14.5q0 44 -40 44q-23 0 -37.5 -21.5t-25.5 -58.5q-8 -32 -16.5 -79t-14.5 -98
q32 0 60 0.5t61 1.5l-11 -37q-28 1 -55.5 1.5t-59.5 0.5l-24.5 -164.5t-25.5 -144.5q-14 -61 -39 -100t-64 -62q-23 -14 -44 -19.5t-44 -5.5q-34 0 -59 17t-25 42q0 20 14.5 32.5t29.5 12.5q12 0 17.5 -6t9.5 -17q7 -20 18 -34t28 -14q23 0 35.5 23t22.5 75q6 33 12.5 75
l13.5 89l14 98.5t13 102.5h-40t-52 -2z" />
    <glyph glyph-name="section" unicode="&#xa7;" horiz-adv-x="494" 
d="M400 96q0 32 -10.5 61t-33.5 56q-18 21 -44.5 46l-54 49.5l-50.5 45t-33 32.5q-20 23 -33.5 53t-7.5 73q-19 -23 -30.5 -53t-11.5 -68q0 -39 15 -75.5t58 -76.5l80 -73.5t62 -57.5q27 -28 41 -59.5t13 -71.5q22 24 31 53t9 65v1zM274 618q24 0 46 -5t39 -16.5t27.5 -29
t10.5 -41.5q0 -23 -14.5 -35.5t-32.5 -12.5q-8 0 -15.5 2t-15.5 8q-9 9 -6 18q4 7 6.5 15.5t2.5 18.5q0 19 -16.5 33.5t-49.5 14.5q-35 0 -54.5 -20.5t-19.5 -48.5q0 -18 6 -32t18 -29q11 -13 35.5 -34l54.5 -46l60 -52.5t51 -53.5q42 -50 42 -123q0 -63 -20 -110.5
t-47 -80.5q-49 -60 -92 -80t-83 -20q-20 0 -42.5 5t-42.5 17t-33 31t-13 47q0 23 14 37.5t35 14.5q17 0 26 -7t14 -15q8 -14 1 -23q-10 -13 -10 -28q0 -20 17.5 -34t52.5 -14q38 0 60 20t21 51q0 23 -13 43t-35 42q-15 15 -38 35.5l-47 42l-45.5 42t-34.5 34.5
q-23 25 -38 60t-15 78q0 38 9 71.5t23.5 61t31.5 49.5t33 37q24 23 57 42.5t78 19.5h1z" />
    <glyph glyph-name="currency" unicode="&#xa4;" horiz-adv-x="480" 
d="M240 493q23 0 53 -7.5t50 -24.5l56 72l42 -41l-69 -61q21 -23 31.5 -56.5t10.5 -68.5q0 -38 -12.5 -72t-33.5 -55l71 -66l-41 -42l-61 80q-21 -17 -49 -25.5t-57 -8.5q-27 0 -55.5 8t-48.5 22l-56 -74l-37 41l63 62q-22 25 -33 59t-11 69t12.5 68.5t36.5 59.5l-66 60
l39 42l58 -73q21 17 51 24.5t55 7.5h1zM236 453q-29 0 -50.5 -11.5t-36 -31t-22 -46t-7.5 -57.5q0 -72 33 -110.5t83 -38.5q28 0 49.5 11.5t35 31.5t20.5 46.5t7 57.5q0 27 -5.5 53.5t-18.5 47.5t-34.5 34t-52.5 13h-1z" />
    <glyph glyph-name="quotesingle" unicode="'" horiz-adv-x="167" 
d="M107 708q7 0 12 -5.5t8 -13t4.5 -16t1.5 -14.5q0 -16 -5.5 -40t-13 -49t-15.5 -48t-14 -37h-22q-1 25 -3.5 53.5t-6.5 55.5t-8.5 49.5t-8.5 34.5q3 4 11.5 9t19 9.5t21 8t18.5 3.5h1z" />
    <glyph glyph-name="quotedblleft" unicode="&#x201c;" horiz-adv-x="351" 
d="M163 688q-37 -7 -62.5 -31t-24.5 -55q0 -9 6 -3q6 3 14.5 5.5t15.5 1.5q17 0 31 -14t14 -39q0 -23 -17 -39.5t-40 -16.5q-31 0 -49 23t-18 60q0 31 12 54.5t30.5 40t40.5 25.5t42 11zM322 687q-37 -7 -62 -31t-24 -55q0 -9 6 -3q5 3 13.5 5.5t15.5 2.5q17 0 31 -14
t14 -39q0 -23 -16.5 -39.5t-39.5 -16.5q-31 0 -49 23t-18 60q0 31 12 54.5t30 40t40 25.5t42 11z" />
    <glyph glyph-name="guillemotleft" unicode="&#xab;" horiz-adv-x="495" 
d="M449 387q-8 -25 -19 -50t-24 -48t-26 -42.5t-24 -33.5l26.5 -37t27.5 -44t23.5 -46.5t15.5 -43.5l-23 -16q-16 34 -40 64t-49.5 53.5t-51 39t-44.5 21.5l9 20q47 16 94 62.5t79 112.5zM256 388q-8 -26 -19 -51.5t-24 -48t-26 -42l-23 -33.5q12 -16 26 -37t27.5 -44
t23.5 -46.5t15 -44.5l-23 -15q-16 35 -39.5 65t-49.5 53t-51 38t-44 21l9 21q46 16 93 62.5t79 112.5z" />
    <glyph glyph-name="guilsinglleft" unicode="&#x2039;" horiz-adv-x="307" 
d="M258 393q-16 -54 -44 -102.5t-50 -77.5q13 -17 27.5 -38.5t27.5 -45t23.5 -48t15.5 -45.5l-23 -16q-16 36 -40 67t-50 54.5t-52 39.5t-45 22l9 22q23 8 47.5 24.5t47.5 39.5t43.5 52.5t36.5 63.5z" />
    <glyph glyph-name="guilsinglright" unicode="&#x203a;" horiz-adv-x="307" 
d="M48 32q8 26 19.5 52t24.5 50t25.5 44t23.5 34q-12 16 -26.5 38t-27.5 45.5t-23.5 48t-15.5 45.5l23 16q16 -36 40 -67t50 -54.5t51.5 -39.5t45.5 -22l-10 -22q-23 -8 -47 -24.5t-47 -39.5t-43.5 -52.5t-36.5 -63.5z" />
    <glyph glyph-name="endash" unicode="&#x2013;" horiz-adv-x="536" 
d="M62 261q44 0 99 -0.5t113 -0.5t113.5 0.5t100.5 0.5l-14 -58q-42 0 -96.5 0.5t-112 0.5t-114 -0.5t-102.5 -0.5z" />
    <glyph glyph-name="dagger" unicode="&#x2020;" horiz-adv-x="524" 
d="M264 597q7 -15 22.5 -30t26.5 -22q10 -7 2 -15q-17 -21 -28.5 -65t-12.5 -113q57 1 89 11.5t47 27.5q9 9 16 -1q7 -9 20 -22t24 -21q3 -4 3.5 -7.5t-4.5 -7.5q-11 -8 -24 -20t-21 -25q-6 -9 -16 0q-19 19 -48.5 27.5t-85.5 9.5q0 -77 3 -139.5t7.5 -112t10.5 -87.5
t13 -67q3 -15 -5 -19q-10 -4 -21 -12.5t-20 -16.5q-4 -4 -7 0q-9 8 -20.5 16t-20.5 13q-7 5 -4 18q6 29 12 67.5t10.5 88.5t7.5 112t3 139q-56 -1 -85.5 -9.5t-48.5 -27.5q-10 -10 -17 0q-8 13 -20.5 25t-23.5 20q-10 7 0 15t23.5 21t19.5 22q8 11 16 1q16 -17 47.5 -27.5
t88.5 -11.5q-1 69 -12.5 113t-28.5 65q-9 9 2 15q11 7 26 22.5t23 29.5q6 6 11 0z" />
    <glyph glyph-name="daggerdbl" unicode="&#x2021;" horiz-adv-x="523" 
d="M263 598q8 -14 23 -29t25 -22q9 -6 1 -15q-15 -20 -26.5 -59t-12.5 -87q57 2 88 11.5t47 25.5q9 9 16 -2q7 -8 19.5 -20t23.5 -20q10 -8 0 -15q-12 -8 -24.5 -20t-20.5 -23q-6 -9 -15 0q-20 17 -49 25.5t-85 9.5q2 -76 39 -113q-16 -22 -26.5 -49t-12.5 -62q57 2 88 11.5
t47 25.5q8 10 16 -1q7 -9 19.5 -21t23.5 -20q11 -7 0 -15q-12 -8 -24 -20t-20 -23q-7 -9 -16 0q-20 17 -49 25t-85 10q2 -78 14.5 -118.5t25.5 -60.5q6 -8 -2 -14t-22.5 -19t-25.5 -26q-4 -5 -10 2q-9 11 -22.5 23t-24.5 20q-8 4 -4 13q6 10 13 25t13 36.5t10 50.5t5 68
q-56 -2 -85 -10t-49 -25q-9 -9 -15 0q-9 11 -21.5 23t-23.5 20q-9 8 0 15q11 8 23.5 20.5t19.5 20.5q7 11 16 1q16 -16 47 -25.5t88 -11.5q-2 35 -12.5 62.5t-25.5 48.5q37 38 38 113q-56 -1 -85.5 -9.5t-48.5 -25.5q-9 -9 -15 0q-9 11 -21.5 23t-23.5 20q-9 6 0 15
q11 8 23.5 20t19.5 20q7 11 16 2q16 -15 47 -25t88 -12q-1 49 -12 87.5t-27 58.5q-6 9 1 15q11 8 25.5 23t22.5 29q5 7 10 -1z" />
    <glyph glyph-name="periodcentered" unicode="&#xb7;" horiz-adv-x="211" 
d="M107 293q27 0 43.5 -19t16.5 -45q0 -29 -17.5 -47t-43.5 -18q-25 0 -43 18t-18 47q0 28 18 46t43 18h1z" />
    <glyph glyph-name="paragraph" unicode="&#xb6;" horiz-adv-x="540" 
d="M500 531l-66 -8q-7 -1 -11.5 -2.5t-7.5 -7.5t-4 -17.5t-1 -31.5v-315q0 -70 -3 -119t-10 -83.5t-19 -58.5t-30 -43q-22 -23 -50 -32.5t-56 -9.5q-22 0 -43.5 5.5t-38 17.5t-26.5 32t-10 49q0 30 18 50t41 20q21 0 30.5 -9t15.5 -21q4 -7 4 -13.5t-4 -5.5q-8 2 -14 2
q-17 0 -24.5 -12.5t-7.5 -24.5q0 -23 17.5 -40.5t52.5 -17.5q27 0 47 11t32.5 38.5t19 74.5t6.5 118v56q-12 -5 -26 -10t-28 -8.5t-26 -6t-19 -2.5q-39 0 -73.5 16t-61 44.5t-41.5 68.5t-15 89q0 69 27.5 123t84.5 86q23 14 47.5 19.5t60.5 5.5h28.5t30.5 -0.5t27 -0.5h18
q29 0 59 1t49 2v-29z" />
    <glyph glyph-name="bullet" unicode="&#x2022;" horiz-adv-x="318" 
d="M159 332q48 0 76.5 -31.5t28.5 -79.5q0 -24 -8.5 -44.5t-23 -35t-33.5 -22.5t-41 -8q-21 0 -40 8t-33 22.5t-22.5 35t-8.5 44.5t8.5 44.5t22.5 35t33 23t40 8.5h1z" />
    <glyph glyph-name="quotesinglbase" unicode="&#x201a;" horiz-adv-x="195" 
d="M29 -80q37 8 63 31t26 57q0 9 -6 3q-14 -7 -31 -7q-18 0 -32.5 14.5t-14.5 40.5q0 24 18 41t41 17q32 0 50.5 -25t18.5 -64q0 -33 -12.5 -57t-32 -40.5t-42 -25.5t-41.5 -10z" />
    <glyph glyph-name="quotedblbase" unicode="&#x201e;" horiz-adv-x="357" 
d="M191 -78q36 7 62 30t26 57q0 9 -6 3q-14 -7 -30 -7q-18 0 -32.5 14t-14.5 40q0 24 17.5 41t40.5 17q32 0 50.5 -25t18.5 -63q0 -33 -12.5 -57t-31.5 -40t-41 -25t-41 -10zM28 -78q37 7 63 30t26 57q0 9 -6 3q-14 -7 -30 -7q-18 0 -33 14t-14 40q0 24 17.5 41t40.5 17
q32 0 50.5 -25t18.5 -63q0 -33 -12.5 -57t-31.5 -40t-41.5 -25t-41.5 -10z" />
    <glyph glyph-name="quotedblright" unicode="&#x201d;" horiz-adv-x="351" 
d="M189 518q37 7 62 31t24 55q0 7 -6 3q-6 -3 -14 -5.5t-15 -2.5q-18 0 -31.5 14t-13.5 39q0 23 17 39.5t39 16.5q31 0 49 -22.5t18 -60.5q0 -31 -12 -54.5t-30.5 -40t-40.5 -25.5t-41 -11zM30 518q37 7 62 31t24 55q0 7 -6 3q-5 -3 -13.5 -5.5t-15.5 -2.5q-17 0 -31.5 14
t-13.5 39q0 23 16.5 39.5t39.5 16.5q31 0 49 -22.5t18 -60.5q0 -31 -12 -54.5t-30.5 -40t-40.5 -25.5t-41 -11z" />
    <glyph glyph-name="guillemotright" unicode="&#xbb;" horiz-adv-x="495" 
d="M49 38q7 25 18.5 50t24.5 48t26 42.5t24 33.5l-26.5 37t-27.5 44t-23.5 46.5t-15.5 43.5l23 16q16 -35 40 -64.5t49.5 -53t51 -39t44.5 -21.5l-9 -20q-47 -16 -94 -62.5t-79 -112.5zM242 37q7 26 18.5 51.5t24.5 48t25.5 42t23.5 33.5l-26.5 37t-27.5 44t-23.5 46.5
t-14.5 44.5l23 15q16 -35 39.5 -65t49.5 -53t51 -38t44 -21l-9 -21q-46 -16 -93 -62.5t-79 -112.5z" />
    <glyph glyph-name="ellipsis" unicode="&#x2026;" horiz-adv-x="783" 
d="M654 116q27 0 43.5 -19t16.5 -46q0 -29 -17.5 -47t-43.5 -18q-25 0 -43 18t-18 47q0 28 18 46.5t43 18.5h1zM393 116q27 0 43.5 -19t16.5 -46q0 -29 -17.5 -47t-43.5 -18q-25 0 -43 18t-18 47q0 28 18 46.5t43 18.5h1zM131 116q27 0 43.5 -19t16.5 -46q0 -29 -17.5 -47
t-43.5 -18q-25 0 -43 18t-18 47q0 28 18 46.5t43 18.5h1z" />
    <glyph glyph-name="perthousand" unicode="&#x2030;" horiz-adv-x="1035" 
d="M873 328q-26 0 -45 -21q-10 -12 -19.5 -42.5t-10.5 -83.5q0 -49 8.5 -80t22.5 -45q15 -17 42 -17q16 0 31.5 9t27.5 27.5t19 46.5t7 67q0 22 -3.5 46.5t-12.5 45t-25 34t-41 13.5h-1zM867 358q37 0 62.5 -14t41 -37.5t22 -54.5t6.5 -65q0 -40 -10 -73t-28.5 -56.5
t-44.5 -36.5t-58 -13q-61 0 -100.5 41.5t-40.5 124.5q0 45 13 79.5t34 57.5t47.5 35t54.5 12h1zM559 328q-26 0 -44 -21q-11 -12 -20.5 -42.5t-10.5 -83.5q0 -49 8.5 -80t21.5 -45q15 -17 43 -17q16 0 31.5 9t27.5 27t19 46.5t7 67.5q0 21 -3.5 45.5t-12.5 45.5t-25 34.5
t-41 13.5h-1zM553 358q37 0 62.5 -14t41 -38t22 -55t6.5 -64q0 -40 -10 -73t-28.5 -56.5t-44.5 -36.5t-58 -13q-61 0 -100.5 41t-40.5 125q0 45 13 79.5t34 57.5t47.5 35t54.5 12h1zM192 592q-24 0 -42 -19q-11 -12 -21.5 -42t-10.5 -85q-1 -45 8 -77t23 -46q16 -18 44 -18
q14 0 28.5 8t26.5 26t19.5 47.5t7.5 72.5q0 21 -3.5 44.5t-12.5 43t-25 32.5t-41 13h-1zM124 3l54 76.5l69.5 100.5l76.5 111.5l75 110l65 95.5l46 68q-26 -14 -57.5 -22t-71.5 -8q-21 0 -42.5 4t-35.5 8q16 -40 16 -89q0 -85 -39 -134.5t-102 -49.5q-60 0 -99.5 41
t-40.5 126q0 44 12.5 78t34 57t49 35t56.5 12q36 0 65 -16l15 12q17 -20 51 -35.5t79 -15.5q33 0 56.5 5t40 12.5t25.5 14.5t14 12q8 11 28 42l54 6l-51.5 -74.5l-67.5 -98.5l-79.5 -116l-87 -128l-89 -133.5l-86.5 -132.5z" />
    <glyph glyph-name="questiondown" unicode="&#xbf;" horiz-adv-x="413" 
d="M213 445q23 0 40.5 -17.5t17.5 -46.5q0 -27 -18 -45t-43 -18t-42.5 17.5t-17.5 45.5q0 29 17.5 46.5t44.5 17.5h1zM224 237q17 -18 33 -45t17 -55q0 -20 -9 -36t-21 -30l-24 -26l-28.5 -30l-28 -29l-22.5 -23q-11 -11 -17.5 -25t-6.5 -32q0 -54 26.5 -77.5t64.5 -23.5
q43 0 62.5 22.5t19.5 48.5q0 14 -3 23t-7 18q-7 16 9 28q11 9 20.5 12.5t19.5 3.5q20 0 33.5 -14t13.5 -40q0 -32 -16.5 -56.5t-42 -41t-56 -25.5t-57.5 -9q-76 0 -122 43.5t-46 121.5q0 38 15.5 62t38.5 44l51.5 47.5t40.5 41.5q20 20 25 40t-7 50z" />
    <glyph glyph-name="grave" unicode="`" horiz-adv-x="456" 
d="M246 485l-36.5 37.5l-34.5 34.5l-27.5 27.5l-16.5 16.5q-10 10 -16 24t-6 25q1 20 11 29.5t22 9.5q14 0 27.5 -9.5t21.5 -25.5q5 -11 15.5 -32l22 -44.5l22 -45t16.5 -32.5z" />
    <glyph glyph-name="acute" unicode="&#xb4;" horiz-adv-x="456" 
d="M185 501l20.5 32.5l27.5 45.5l26.5 45t18.5 30q12 18 26 26.5t28 8.5t21.5 -9.5t7.5 -24.5q0 -14 -10 -30t-21 -27l-48 -43l-76 -70z" />
    <glyph glyph-name="circumflex" unicode="&#x2c6;" horiz-adv-x="456" 
d="M241 689q9 -25 34.5 -74t73.5 -112l-21 -19l-23 21.5l-27 27l-27 29t-23 28.5q-10 -14 -23 -28.5l-26.5 -28.5t-27 -26.5l-23.5 -22.5l-20 19q49 63 74 110.5t35 69.5z" />
    <glyph glyph-name="tilde" unicode="&#x2dc;" horiz-adv-x="456" 
d="M105 513q1 21 5 42.5t13 38t24 27t36 10.5q14 0 28 -7.5t34 -24.5q17 -16 27.5 -22.5t16.5 -6.5q12 0 21 14t11 49l29 -5q-1 -49 -17 -83.5t-55 -34.5q-16 0 -31 8.5t-36 27.5q-12 11 -20.5 17.5t-20.5 6.5q-14 0 -23.5 -16t-11.5 -45z" />
    <glyph glyph-name="macron" unicode="&#xaf;" horiz-adv-x="456" 
d="M126 595h214l-8 -60h-216z" />
    <glyph glyph-name="breve" unicode="&#x2d8;" horiz-adv-x="456" 
d="M150 648q4 -43 25 -62q7 -6 19 -11.5t34 -5.5q23 0 34.5 4.5t19.5 12.5t15 23t10 39h28q-1 -26 -5 -51.5t-15 -46t-32 -33.5t-56 -13q-37 0 -58 13t-32 34t-13.5 46.5t-2.5 50.5h29z" />
    <glyph glyph-name="dotaccent" unicode="&#x2d9;" horiz-adv-x="398" 
d="M202 635q23 0 36 -15t13 -38q0 -26 -17 -40t-38 -14q-19 0 -34 13t-15 39q0 24 15.5 39.5t38.5 15.5h1z" />
    <glyph glyph-name="dieresis" unicode="&#xa8;" horiz-adv-x="456" 
d="M317 633q22 0 34 -14t12 -36q0 -25 -15.5 -39t-35.5 -14q-17 0 -32 12t-15 38q0 23 14.5 38t36.5 15h1zM147 633q22 0 34 -14t12 -36q0 -26 -16 -39.5t-35 -13.5q-17 0 -32 12t-15 38q0 23 14.5 38t36.5 15h1z" />
    <glyph glyph-name="ring" unicode="&#x2da;" horiz-adv-x="420" 
d="M210 645q-12 0 -20 -6t-12.5 -15.5t-6.5 -20t-2 -19.5q0 -33 12.5 -48.5t29.5 -15.5q14 0 22 7t12.5 17t5.5 21t1 19q0 10 -2 20.5t-6.5 19.5t-12.5 15t-20 6h-1zM214 670q40 0 65.5 -21.5t25.5 -64.5q0 -44 -28.5 -67.5t-68.5 -23.5t-66.5 21.5t-26.5 63.5q0 45 28 68.5
t70 23.5h1z" />
    <glyph glyph-name="cedilla" unicode="&#xb8;" horiz-adv-x="456" 
d="M263 7l-15 -23.5l-20 -31.5q11 -2 23.5 -7t23 -14t17.5 -22t7 -32q0 -38 -25.5 -61.5t-68.5 -23.5q-21 0 -38 6.5t-23 11.5l10 29q9 -5 21.5 -8.5t23.5 -3.5q17 0 28 9t11 26q0 20 -18.5 29.5t-46.5 9.5l-5 11l29.5 43l34.5 52h31z" />
    <glyph glyph-name="hungarumlaut" unicode="&#x2dd;" horiz-adv-x="456" 
d="M282 498l21.5 74t17.5 56q6 20 18.5 33.5t29.5 13.5q12 0 19.5 -10t7.5 -24q0 -23 -21 -54q-11 -17 -28 -40l-43 -61zM144 498l21 74t18 57q6 18 18.5 32t29.5 14q13 0 20 -10t7 -24q0 -13 -5 -24.5t-16 -28.5t-28 -41l-43 -61z" />
    <glyph glyph-name="ogonek" unicode="&#x2db;" horiz-adv-x="456" 
d="M284 11q-54 -44 -74.5 -80.5t-20.5 -63.5q0 -23 12 -33.5t29 -10.5q20 0 35.5 8t28.5 22l13 -23q-7 -10 -17.5 -21.5t-25 -21.5t-33 -16.5t-42.5 -6.5q-31 0 -52.5 20t-21.5 54q0 26 14 51.5t35 48t45 41.5t45 32h30z" />
    <glyph glyph-name="caron" unicode="&#x2c7;" horiz-adv-x="456" 
d="M216 486q-10 25 -35 73.5t-73 112.5l21 18l23.5 -21.5t27 -27l26.5 -29.5t23 -28q10 13 23 28t26.5 29l26.5 27t24 22l20 -18q-49 -63 -74.5 -111t-34.5 -69z" />
    <glyph glyph-name="emdash" unicode="&#x2014;" horiz-adv-x="903" 
d="M62 261q29 0 90 -0.5t138.5 -0.5h163h164t141.5 0.5t95 0.5l-14 -58q-30 0 -91.5 0.5t-139.5 0.5h-163.5h-164t-140.5 -0.5t-93 -0.5z" />
    <glyph glyph-name="AE" unicode="&#xc6;" horiz-adv-x="849" 
d="M398 600h-13l-33.5 -62.5l-36 -69.5l-37 -73l-34.5 -71q33 -2 74.5 -1.5t79.5 0.5v277zM627 631q26 0 47.5 0.5t39.5 1.5t31 2t21 3q-1 -10 -2 -30t-1.5 -43.5t0 -48t1.5 -44.5h-27q-3 18 -8 39t-14 42q-5 14 -12.5 23t-21 14.5t-36 7.5t-58.5 2h-72q-8 0 -11.5 -3
t-4.5 -13q-3 -39 -3 -114v-147h65q34 0 55 3t33 11.5t17 24.5t9 42h26q-5 -49 -5 -106.5t3 -105.5h-27q-3 26 -7 45t-15 31t-32 17.5t-57 5.5l-65 -1v-89v-40t0.5 -40.5t1.5 -36t2 -28.5q1 -8 3.5 -12.5t12 -7.5t28.5 -4t53 -1q36 0 60.5 1.5t41.5 5t28 10t20 16.5
q17 20 28.5 52t18.5 60l25 -3q0 -9 -3 -34l-6.5 -53.5l-7 -54.5t-4.5 -36q-13 2 -32.5 2.5t-48.5 0.5q-29 1 -62.5 1.5t-78.5 0.5h-120q-37 0 -78 -1.5t-69 -1.5l2 27l59 7q14 2 19 10t6 28q3 54 3 131v90q-12 0 -33.5 -0.5t-46 -0.5t-49.5 -0.5t-44 -1.5l-52.5 -105
t-45.5 -105q-10 -25 -2.5 -34t39.5 -13l40 -6l-1 -27q-29 0 -55 1.5t-59 1.5q-27 0 -52.5 -1.5t-52.5 -1.5v27q21 2 35 6t25 12.5t21 23.5t24 40l127 244l123 233q5 9 3.5 13t-12.5 5l-79 5l-3 28h46t51 -1t51 -1.5t46 -0.5h185z" />
    <glyph glyph-name="ordfeminine" unicode="&#xaa;" horiz-adv-x="365" 
d="M221 436q-6 -3 -17 -7l-23 -8.5t-24 -9.5l-21 -9q-16 -7 -25 -15.5t-9 -27.5q0 -23 13.5 -36t34.5 -13q24 0 41 12.5t25 32.5q5 13 5 26v55zM221 484q0 18 -10.5 34.5t-44.5 16.5q-30 0 -42.5 -13t-12.5 -26q0 -5 1 -9.5t3 -9.5q4 -13 -9 -21q-13 -10 -33 -10
q-14 0 -23 8.5t-9 22.5q0 17 11 32t30 26.5t43.5 18t51.5 6.5q25 0 43 -4t30 -10t19 -12t10 -10q5 -6 9 -16.5t4 -21.5q0 -6 -0.5 -24.5t-0.5 -41t-0.5 -45.5t-0.5 -37q0 -17 4.5 -23.5t12.5 -6.5q20 0 33 44l22 -9q-8 -38 -29.5 -56.5t-52.5 -18.5q-30 0 -44 14t-16 33v3
q-26 -23 -53.5 -36t-57.5 -13q-40 0 -62 24t-22 57q0 24 13 39t33 21l35.5 11l45.5 14.5t42 14.5t27 11v23z" />
    <glyph glyph-name="Oslash" unicode="&#xd8;" horiz-adv-x="678" 
d="M336 15q43 0 77 15.5t59 57.5q21 35 34 96t13 144q0 55 -7 99.5t-26 82.5l-67 -102.5l-70 -110l-69.5 -109.5l-65.5 -102q20 -31 51.5 -51t69.5 -20h1zM341 619q-39 0 -72.5 -17.5t-58.5 -55.5q-22 -34 -37 -93t-15 -135q0 -124 38 -194l138.5 214.5l134.5 209.5
q-20 34 -51.5 52.5t-75.5 18.5h-1zM582 641l-20 -29t-25 -33q47 -45 71.5 -110.5t24.5 -139.5q0 -86 -23 -150.5t-63 -107.5t-95 -65t-118 -22q-94 0 -160 46l-24 -35l-24 -35l-34 19l25.5 35.5t25.5 36.5q-47 42 -73 107.5t-26 153.5q0 69 20 129.5t58.5 106.5t95 72.5
t130.5 26.5q93 0 159 -46l22.5 32t18.5 28z" />
    <glyph glyph-name="OE" unicode="&#x152;" horiz-adv-x="975" 
d="M746 631q26 0 49 0.5t42 1.5t32.5 2t21.5 3q-1 -10 -2 -29.5t-1 -43v-48.5t1 -45l-27 -1q-3 19 -7.5 40t-12.5 41q-5 14 -13 23t-22 14.5t-37 7.5t-58 2h-70q-9 0 -12 -3.5t-4 -13.5q-2 -24 -3 -58.5t-1 -77.5v-101q8 -2 30.5 -2h45.5q33 0 53.5 3t32.5 11.5t18 24
t9 40.5h25q-4 -49 -4.5 -106t2.5 -104l-26 1q-3 27 -7.5 45.5t-15.5 30t-31.5 16.5t-54.5 5h-46t-31 -2v-82q0 -47 0.5 -95t2.5 -76q1 -8 3.5 -12.5t12 -7.5t28.5 -4t53 -1q36 0 61 1.5t42.5 5.5t28.5 10.5t20 17.5q16 20 27 51.5t18 59.5l26 -3q0 -9 -3 -34t-6 -53.5
t-6.5 -54.5t-5.5 -36q-10 2 -28 2t-45 1t-64 1.5t-86 0.5h-105h-48.5t-28.5 -2v65q-30 -38 -80 -58.5t-110 -20.5q-51 0 -95.5 13t-76.5 36q-52 39 -82.5 107.5t-30.5 162.5q0 103 36 176.5t93 114.5q32 24 77.5 38.5t93.5 14.5q62 0 106.5 -19t72.5 -54q0 17 0.5 32.5
t-0.5 26.5q13 -1 28 -1.5t39 -0.5h156zM161 309q0 -63 15 -123t48 -102q50 -62 135 -62q82 0 126 58q12 15 19.5 31.5t12.5 42.5t7 65t2 99q0 48 -0.5 79t-2 51t-4 32.5t-6.5 23.5q-8 20 -20.5 40t-31.5 35.5t-45.5 25.5t-60.5 10q-38 0 -66.5 -12t-54.5 -41
q-32 -36 -52.5 -99t-20.5 -153v-1z" />
    <glyph glyph-name="ordmasculine" unicode="&#xba;" horiz-adv-x="376" 
d="M188 534q-20 0 -32.5 -8t-22.5 -22t-15.5 -37t-5.5 -52q0 -25 4 -46t12 -36q21 -37 61 -37q19 0 33 7.5t25 25.5q9 16 13.5 39t4.5 51q0 27 -4.5 47t-10.5 33q-20 35 -61 35h-1zM194 561q68 0 110 -36t42 -107q0 -64 -42.5 -106.5t-120.5 -42.5q-77 0 -114.5 40.5
t-37.5 101.5q0 31 11 58.5t31.5 47.5t50.5 32t69 12h1z" />
    <glyph glyph-name="ae" unicode="&#xe6;" horiz-adv-x="712" 
d="M499 412q-25 0 -44 -15t-31.5 -39t-19 -53t-7.5 -57q20 -2 39 -2h40q38 0 61 2t34 4q18 6 18 32q0 55 -21 91.5t-68 36.5h-1zM677 113q-20 -57 -62 -92t-116 -35q-64 0 -108.5 25t-64.5 71q-14 -15 -31.5 -32t-38 -31t-45 -23.5t-52.5 -9.5q-58 1 -89 36t-31 85
q0 42 15.5 62.5t43.5 32.5l50 19l55 20.5t54 22.5t48 25v39q0 34 -18.5 59t-60.5 25t-63 -19t-21 -53q0 -8 1 -15.5l2 -14.5q3 -13 -8 -22q-14 -9 -34 -9t-31.5 12t-11.5 33t13.5 42t37.5 37.5t57.5 27t72.5 10.5q51 0 84 -18.5t44 -48.5q23 31 59 49t81 18q55 0 88.5 -19.5
t51.5 -46.5t23.5 -56.5t5.5 -49.5q0 -31 -21 -41q-11 -4 -43 -7.5t-70 -4.5q-16 0 -35 -0.5t-39 -0.5h-39.5t-35.5 1q-2 -45 7.5 -78t22.5 -53q33 -53 102 -53q50 0 78 24.5t47 70.5zM137 121q0 -34 18 -58.5t50 -24.5q35 0 58 18.5t35 49.5q4 9 5 19.5t1 21.5l1 110
q-22 -12 -56.5 -27t-61.5 -30q-22 -12 -36 -27.5t-14 -50.5v-1z" />
    <glyph glyph-name="dotlessi" unicode="&#x131;" horiz-adv-x="266" 
d="M245 -3q-23 0 -50.5 1.5t-63.5 1.5q-38 0 -61.5 -1.5t-46.5 -1.5l1 28q21 1 34 2.5t20 5t9.5 8t2.5 11.5q1 14 2.5 46t1.5 80v100q0 81 -3 104q0 11 -12.5 13.5t-52.5 0.5l2 27q18 1 38 2.5t41 3.5t41.5 4.5t37.5 6.5q-1 -18 -2 -56t-1 -95v-123q0 -47 0.5 -72t2.5 -41
q0 -8 2.5 -13t9 -8t18.5 -4.5t31 -2.5z" />
    <glyph glyph-name="oslash" unicode="&#xf8;" horiz-adv-x="516" 
d="M378 222q0 27 -4 54t-13 50l-91.5 -128l-92.5 -133q14 -21 34 -35.5t48 -14.5q29 0 51.5 12.5t37.5 39.5q13 25 21.5 64t8.5 90v1zM139 210q0 -27 5.5 -57t15.5 -51l93.5 130l91.5 131q-14 21 -34.5 34.5t-50.5 13.5q-30 1 -51.5 -12.5t-36.5 -36.5q-14 -22 -23.5 -60.5
t-9.5 -90.5v-1zM449 437l-37 -48q32 -30 49 -74t17 -97q0 -49 -15.5 -91.5t-45 -73.5t-71 -49t-93.5 -18q-71 0 -115 29l-36 -47l-34 19l39 49q-35 30 -52 75t-17 94t16 92t45.5 75t71 50.5t93.5 18.5q36 0 65 -8t53 -22l32 45z" />
    <glyph glyph-name="oe" unicode="&#x153;" horiz-adv-x="786" 
d="M572 412q-24 0 -42 -14.5t-31 -37.5t-20 -52.5t-8 -60.5q20 -2 39.5 -2h40.5q38 0 61 2.5t34 5.5q18 4 18 33q0 25 -5 47.5t-16 40t-28 28t-42 10.5h-1zM752 113q-19 -57 -61.5 -92t-116.5 -35q-60 0 -99 21.5t-61 61.5q-26 -40 -69.5 -61.5t-95.5 -21.5t-91.5 16.5
t-66 45.5t-40 69.5t-13.5 87.5q0 48 16 91t45 75t71 51t93 19q114 0 163 -91q25 42 65 66.5t93 24.5q55 0 88.5 -19.5t51.5 -46.5t23.5 -56.5t5.5 -49.5q0 -31 -22 -41q-5 -2 -16 -4.5t-27 -4t-34.5 -3t-37.5 -1.5q-32 -2 -73 -2t-74 1q-2 -45 7 -77.5t22 -52.5
q33 -52 104 -52q50 0 78 24.5t46 69.5zM261 411q-30 1 -52 -12.5t-36 -36.5q-13 -23 -22 -59.5t-9 -90.5q0 -89 26 -139q14 -28 37.5 -42t50.5 -14q31 0 53.5 12t37.5 40q12 23 20 62t8 91q0 45 -6 79.5t-16 55.5q-26 54 -91 54h-1z" />
    <glyph glyph-name="germandbls" unicode="&#xdf;" horiz-adv-x="576" 
d="M94 427v12q0 45 14.5 91t52.5 84q27 28 67 46.5t95 18.5q46 0 78.5 -11.5t53 -31.5t30 -46.5t9.5 -56.5q0 -12 -2 -23.5t-7 -20.5q-65 -18 -91 -47.5t-26 -60.5q0 -20 8.5 -34t22.5 -27q14 -12 32.5 -26.5l36.5 -28.5q33 -24 52 -52t19 -74q0 -36 -13.5 -64.5t-37 -48
t-54 -29.5t-63.5 -10q-32 0 -58 5.5t-46 12.5q1 26 -0.5 53.5t-3.5 49.5l25 5q10 -48 31.5 -71.5t63.5 -23.5q14 0 27.5 5t24.5 15.5t18 26t7 37.5q0 24 -10 42t-29 34l-31 26t-31 25q-28 23 -45.5 48.5t-17.5 63.5q0 46 31.5 84t88.5 62q7 19 7 45q0 21 -6 41.5t-18.5 37
t-33 27t-49.5 10.5q-72 0 -102.5 -63.5t-30.5 -191.5v-206v-84.5t2 -47.5q0 -8 2.5 -13.5t8.5 -8.5t16.5 -5t28.5 -3l-2 -28q-32 0 -59.5 1.5t-56.5 1.5q-28 0 -55.5 -1.5t-42.5 -1.5v28q20 1 32.5 2.5t19.5 4.5t10 8t3 13q2 17 3 57.5t1 113.5v167l-69 6l2 30h67z" />
    <glyph glyph-name="logicalnot" unicode="&#xac;" horiz-adv-x="520" 
d="M411 300h-356v51h409v-254h-53v203z" />
    <glyph glyph-name="mu" unicode="&#xb5;" horiz-adv-x="540" 
d="M550 73q-17 -50 -47 -68t-62 -18q-43 0 -59 26.5t-15 75.5q-11 -18 -28 -36t-38 -32t-45 -23t-50 -9q-18 0 -33.5 5t-26.5 17q2 -71 7 -139t10 -110l-7 -7q-19 0 -35.5 3.5t-29 8t-20 8.5t-8.5 7q3 41 6 90l5.5 93.5t4.5 77t2 40.5v49.5t0.5 56.5t0.5 59v58q0 34 -1 68.5
t-2 54.5q17 -1 46.5 2t55.5 7q-4 -20 -7 -72.5t-3 -139.5q0 -67 1.5 -103.5t6.5 -53.5t16.5 -26t31.5 -9q48 0 81.5 31.5t50.5 79.5q6 16 7.5 28t1.5 28v84q0 50 -1 89t-2 53q9 0 22 1l27 2t26.5 2.5l21.5 2.5q-2 -22 -3.5 -59.5t-1.5 -86.5v-118q0 -45 1 -75.5t3 -47.5
q2 -20 16 -20q11 0 26 15.5t23 50.5z" />
    <glyph glyph-name="trademark" unicode="&#x2122;" horiz-adv-x="352" 
d="M158 625q13 -1 19.5 -1h11.5h15.5t12.5 1q1 -5 5.5 -15l10 -22l11 -23.5l9.5 -19.5q13 26 22.5 49.5t11.5 30.5q8 -1 13.5 -1h13.5q9 0 15.5 0.5t14.5 0.5l1 -13q-12 -1 -15.5 -2.5t-3.5 -4.5q-1 -4 -1 -25q0 -17 0.5 -34t1.5 -24q1 -5 4 -7t16 -2v-14q-4 0 -13 0.5
t-21 0.5t-22.5 -0.5t-13.5 -0.5v14q12 0 15 2t3 7q1 7 1.5 32.5t0.5 56.5h-1q-16 -38 -27 -67t-17 -42l-15 -2q-3 9 -8.5 23t-12.5 29.5l-13.5 30.5t-10.5 26h-1q-1 -28 -0.5 -50t0.5 -32q1 -5 2.5 -9t9.5 -4l12 -1v-14q-7 0 -14 0.5t-17 0.5q-11 0 -19.5 -0.5t-13.5 -0.5
v14q14 1 18 3.5t5 11.5t2.5 31t1.5 45l-1 3q0 3 -6 3l-14 2zM91 623q23 0 34.5 1t20.5 3q0 -3 -1.5 -16t-0.5 -35l-11 -3q-2 14 -4 20.5t-4 9.5q-2 4 -7.5 5.5t-23.5 1.5v-52q0 -14 0.5 -24t0.5 -15q1 -2 5 -3.5t19 -2.5l-1 -14q-5 0 -17 0.5t-29 0.5q-10 0 -17.5 -0.5
t-15.5 -0.5l-1 14q16 1 20 2.5t4 3.5q1 5 1.5 15t0.5 24v52q-18 0 -24 -1.5t-8 -6.5q-3 -7 -5.5 -14.5t-4.5 -15.5l-11 1q2 17 3 31.5t2 22.5q8 -2 21.5 -3t31.5 -1h22z" />
    <glyph glyph-name="plusminus" unicode="&#xb1;" horiz-adv-x="518" 
d="M233 95v181h-179v51h179v170h54v-170h179v-51h-179v-181h-54zM466 6h-412v51h412v-51z" />
    <glyph glyph-name="divide" unicode="&#xf7;" horiz-adv-x="518" 
d="M465 263v-51h-411v51h411zM260 337q-17 0 -31 14.5t-14 34.5q0 19 14.5 33.5t32.5 14.5q20 0 34 -14.5t14 -33.5q0 -22 -14 -35.5t-35 -13.5h-1zM262 138q20 0 33.5 -13.5t13.5 -35.5q0 -19 -13.5 -33.5t-33.5 -14.5q-18 0 -32.5 14.5t-14.5 33.5q0 20 14.5 34.5
t31.5 14.5h1z" />
    <glyph glyph-name="degree" unicode="&#xb0;" horiz-adv-x="312" 
d="M158 619q-18 0 -29.5 -8.5t-18 -22t-8.5 -28t-2 -26.5q0 -42 16 -64.5t40 -22.5q19 0 30.5 9.5t17.5 23.5t8 29.5t2 27.5q0 10 -2 24t-8 27t-16.5 22t-28.5 9h-1zM164 649q50 0 79.5 -31t29.5 -84q0 -29 -9.5 -51t-25.5 -37t-38 -23t-46 -8q-49 0 -82 28t-33 84
q0 60 36 91t88 31h1z" />
    <glyph glyph-name="registered" unicode="&#xae;" horiz-adv-x="239" 
d="M138 556q0 17 -15 17q-9 0 -10 -3v-31q7 0 12 1q6 0 9.5 4.5t3.5 10.5v1zM70 583q3 0 12 -0.5t14 -0.5q7 0 16 0.5t21 0.5q19 0 26.5 -6t7.5 -17t-7 -16.5t-19 -7.5v-1q12 -1 17 -5t7 -8q4 -8 4 -15q1 -10 9 -10q2 0 3.5 0.5t3.5 0.5l-1 -11l-11.5 -2t-10.5 -1
q-12 0 -16.5 6t-5.5 15q0 3 -0.5 6t-0.5 6q-2 9 -13 11q-3 1 -6 0.5t-7 -0.5v-14t1 -11q0 -4 4 -4l9 -2v-11h-55v11l7 1q7 0 7 4q1 5 1 14.5v19.5v19.5t-1 11.5q0 4 -4 4l-13 1zM123 626q-34 0 -58 -26t-24 -68q0 -38 24.5 -64t60.5 -26t60 26t24 64q0 40 -24 67t-62 27h-1z
M126 645q22 0 41.5 -8.5t33.5 -23.5t22 -35.5t8 -44.5q0 -47 -30 -79t-77 -32q-23 0 -42.5 8.5t-34 23.5t-22.5 35.5t-8 43.5q0 24 8.5 44.5t23 35.5t34 23.5t42.5 8.5h1z" />
    <glyph glyph-name="copyright" unicode="&#xa9;" horiz-adv-x="703" 
d="M506 264q-8 -29 -23 -49t-34.5 -32t-42.5 -17.5t-45 -5.5q-45 0 -78.5 13.5t-54.5 36.5q-17 20 -27 48t-10 65q0 42 14.5 75t40.5 56q21 19 52 30.5t72 11.5q32 0 53 -7t35 -16q7 -4 8 2l8 18l20 -2q-4 -25 -5 -58.5t2 -71.5h-20q-4 21 -10.5 42.5t-17.5 35.5
q-25 31 -69 31q-24 0 -41 -8.5t-29 -23.5q-14 -17 -22 -44t-8 -63q0 -38 7.5 -63.5t21.5 -40.5q13 -16 32.5 -25t43.5 -9q42 0 67.5 22t39.5 60zM351 611q-56 0 -104 -21.5t-83 -60t-55 -91.5t-20 -116q0 -62 20 -115t55.5 -91t84 -59.5t105.5 -21.5q56 0 103.5 21.5
t82.5 59.5t55 91t20 115q0 60 -18.5 113t-52.5 92t-83 61.5t-109 22.5h-1zM353 643q66 0 121.5 -25t95.5 -68t62.5 -102t22.5 -126q0 -68 -23 -126.5t-64 -101.5t-96.5 -67t-119.5 -24q-65 0 -121 24t-96.5 66.5t-63.5 101t-23 127.5q0 67 23 126t64 102t96.5 68t120.5 25h1
z" />
    <glyph glyph-name="Aacute" unicode="&#xc1;" horiz-adv-x="624" 
d="M262 703l30.5 22l41.5 31.5l39.5 31l26.5 20.5q11 8 25 12t25 2q14 -2 22.5 -11.5t6.5 -26.5t-16.5 -29.5t-31.5 -19.5t-56.5 -20.5l-97.5 -33.5zM287 557l-41 -123.5l-52 -157.5q11 -1 37 -1.5t55 -0.5t53 0.5t32 1.5l-41.5 140.5zM631 -3q-17 1 -51 2t-72 1
q-37 0 -68.5 -1t-66.5 -2l-1 28q23 1 37 3t21 5.5t8 8t-1 12.5q-3 13 -9.5 35l-14.5 47.5l-16.5 53l-15.5 51.5q-12 1 -41 1h-61h-59.5t-38.5 -1l-33 -101t-16 -57q-4 -16 -3.5 -26.5t9 -17t26.5 -10t48 -4.5v-28q-24 0 -49 1.5t-58 1.5q-22 0 -55 -1.5t-62 -1.5v28
q21 1 35.5 4t25 10t19 19t17.5 33q8 20 22 58l31 84l35 96.5l34.5 97l30 84.5l20.5 59q8 22 11.5 35t5.5 24q8 1 19 2t23 3t22.5 4.5t17.5 5.5l28.5 -95.5l35 -111l37 -116l36 -109.5l32 -91.5t23.5 -63.5q7 -15 16.5 -21t26.5 -8l39 -3v-28z" />
    <glyph glyph-name="Acircumflex" unicode="&#xc2;" horiz-adv-x="624" 
d="M332 818q5 -9 16 -23.5t27 -31t36.5 -33.5t46.5 -32l-15 -25q-14 5 -31 12t-33.5 15l-31.5 16t-27 16q-26 -15 -60.5 -32t-63.5 -27l-15 25q54 35 83.5 65.5t43.5 50.5zM287 557l-41 -123.5l-52 -157.5q11 -1 37 -1.5t55 -0.5t53 0.5t32 1.5l-41.5 140.5zM631 -3
q-17 1 -51 2t-72 1q-37 0 -68.5 -1t-66.5 -2l-1 28q23 1 37 3t21 5.5t8 8t-1 12.5q-3 13 -9.5 35l-14.5 47.5l-16.5 53l-15.5 51.5q-12 1 -41 1h-61h-59.5t-38.5 -1l-33 -101t-16 -57q-4 -16 -3.5 -26.5t9 -17t26.5 -10t48 -4.5v-28q-24 0 -49 1.5t-58 1.5q-22 0 -55 -1.5
t-62 -1.5v28q21 1 35.5 4t25 10t19 19t17.5 33q8 20 22 58l31 84l35 96.5l34.5 97l30 84.5l20.5 59q8 22 11.5 35t5.5 24q8 1 19 2t23 3t22.5 4.5t17.5 5.5l28.5 -95.5l35 -111l37 -116l36 -109.5l32 -91.5t23.5 -63.5q7 -15 16.5 -21t26.5 -8l39 -3v-28z" />
    <glyph glyph-name="Adieresis" unicode="&#xc4;" horiz-adv-x="624" 
d="M409 792q23 0 36 -14.5t13 -34.5q0 -26 -16.5 -40.5t-35.5 -14.5q-17 0 -32.5 12t-15.5 38q0 24 14 39t36 15h1zM228 792q22 0 35 -14.5t13 -34.5q0 -26 -16.5 -40.5t-35.5 -14.5q-17 0 -32.5 12t-15.5 38q0 24 14 39t37 15h1zM287 557l-41 -123.5l-52 -157.5
q11 -1 37 -1.5t55 -0.5t53 0.5t32 1.5l-41.5 140.5zM631 -3q-17 1 -51 2t-72 1q-37 0 -68.5 -1t-66.5 -2l-1 28q23 1 37 3t21 5.5t8 8t-1 12.5q-3 13 -9.5 35l-14.5 47.5l-16.5 53l-15.5 51.5q-12 1 -41 1h-61h-59.5t-38.5 -1l-33 -101t-16 -57q-4 -16 -3.5 -26.5t9 -17
t26.5 -10t48 -4.5v-28q-24 0 -49 1.5t-58 1.5q-22 0 -55 -1.5t-62 -1.5v28q21 1 35.5 4t25 10t19 19t17.5 33q8 20 22 58l31 84l35 96.5l34.5 97l30 84.5l20.5 59q8 22 11.5 35t5.5 24q8 1 19 2t23 3t22.5 4.5t17.5 5.5l28.5 -95.5l35 -111l37 -116l36 -109.5l32 -91.5
t23.5 -63.5q7 -15 16.5 -21t26.5 -8l39 -3v-28z" />
    <glyph glyph-name="Agrave" unicode="&#xc0;" horiz-adv-x="624" 
d="M351 682q-23 7 -46.5 15l-43.5 15l-34.5 12.5t-20.5 7.5q-14 5 -27.5 17.5t-15.5 29.5t8.5 27.5t25.5 12.5q24 3 48 -14q6 -4 22.5 -18l35.5 -30l36.5 -31.5l25.5 -22.5zM287 557l-41 -123.5l-52 -157.5q11 -1 37 -1.5t55 -0.5t53 0.5t32 1.5l-41.5 140.5zM631 -3
q-17 1 -51 2t-72 1q-37 0 -68.5 -1t-66.5 -2l-1 28q23 1 37 3t21 5.5t8 8t-1 12.5q-3 13 -9.5 35l-14.5 47.5l-16.5 53l-15.5 51.5q-12 1 -41 1h-61h-59.5t-38.5 -1l-33 -101t-16 -57q-4 -16 -3.5 -26.5t9 -17t26.5 -10t48 -4.5v-28q-24 0 -49 1.5t-58 1.5q-22 0 -55 -1.5
t-62 -1.5v28q21 1 35.5 4t25 10t19 19t17.5 33q8 20 22 58l31 84l35 96.5l34.5 97l30 84.5l20.5 59q8 22 11.5 35t5.5 24q8 1 19 2t23 3t22.5 4.5t17.5 5.5l28.5 -95.5l35 -111l37 -116l36 -109.5l32 -91.5t23.5 -63.5q7 -15 16.5 -21t26.5 -8l39 -3v-28z" />
    <glyph glyph-name="Aring" unicode="&#xc5;" horiz-adv-x="624" 
d="M318 823q-13 0 -21 -6t-12.5 -15t-6 -19.5t-1.5 -19.5q0 -32 12.5 -46.5t29.5 -14.5q14 0 22 7t12 16.5t5 20.5t1 19q0 9 -2 19t-6.5 18.5t-12 14.5t-19.5 6h-1zM323 851q41 0 66 -22.5t25 -64.5q0 -45 -28.5 -68t-69.5 -23t-67.5 21t-26.5 63q0 46 28.5 70t71.5 24h1z
M287 557l-41 -123.5l-52 -157.5q11 -1 37 -1.5t55 -0.5t53 0.5t32 1.5l-41.5 140.5zM631 -3q-17 1 -51 2t-72 1q-37 0 -68.5 -1t-66.5 -2l-1 28q23 1 37 3t21 5.5t8 8t-1 12.5q-3 13 -9.5 35l-14.5 47.5l-16.5 53l-15.5 51.5q-12 1 -41 1h-61h-59.5t-38.5 -1l-33 -101
t-16 -57q-4 -16 -3.5 -26.5t9 -17t26.5 -10t48 -4.5v-28q-24 0 -49 1.5t-58 1.5q-22 0 -55 -1.5t-62 -1.5v28q21 1 35.5 4t25 10t19 19t17.5 33q8 20 22 58l31 84l35 96.5l34.5 97l30 84.5l20.5 59q8 22 11.5 35t5.5 24q8 1 19 2t23 3t22.5 4.5t17.5 5.5l28.5 -95.5l35 -111
l37 -116l36 -109.5l32 -91.5t23.5 -63.5q7 -15 16.5 -21t26.5 -8l39 -3v-28z" />
    <glyph glyph-name="Atilde" unicode="&#xc3;" horiz-adv-x="624" 
d="M190 685q1 22 6 43t15 37.5t25.5 27t36.5 10.5q15 0 29.5 -7t34.5 -24q31 -27 46 -27q26 0 33 62l30 -6q-1 -24 -5.5 -45t-13.5 -37t-23 -25.5t-33 -9.5q-16 0 -32 8.5t-38 27.5q-14 11 -23 17t-20 6q-14 0 -23.5 -17.5t-12.5 -43.5zM287 557l-41 -123.5l-52 -157.5
q11 -1 37 -1.5t55 -0.5t53 0.5t32 1.5l-41.5 140.5zM631 -3q-17 1 -51 2t-72 1q-37 0 -68.5 -1t-66.5 -2l-1 28q23 1 37 3t21 5.5t8 8t-1 12.5q-3 13 -9.5 35l-14.5 47.5l-16.5 53l-15.5 51.5q-12 1 -41 1h-61h-59.5t-38.5 -1l-33 -101t-16 -57q-4 -16 -3.5 -26.5t9 -17
t26.5 -10t48 -4.5v-28q-24 0 -49 1.5t-58 1.5q-22 0 -55 -1.5t-62 -1.5v28q21 1 35.5 4t25 10t19 19t17.5 33q8 20 22 58l31 84l35 96.5l34.5 97l30 84.5l20.5 59q8 22 11.5 35t5.5 24q8 1 19 2t23 3t22.5 4.5t17.5 5.5l28.5 -95.5l35 -111l37 -116l36 -109.5l32 -91.5
t23.5 -63.5q7 -15 16.5 -21t26.5 -8l39 -3v-28z" />
    <glyph glyph-name="Ccedilla" unicode="&#xc7;" horiz-adv-x="612" 
d="M367 -15l-10.5 -16.5l-10.5 -16.5q11 -3 23 -7.5t22.5 -13t17 -21.5t6.5 -32q0 -38 -25 -60.5t-67 -22.5q-20 0 -37 6.5t-22 11.5l9 28q9 -5 21 -8.5t23 -3.5q17 0 28 8.5t11 25.5q0 20 -18.5 29.5t-45.5 9.5l-5 11q11 14 22.5 32l25.5 39h-10q-72 2 -127 27t-90 74
q-31 40 -47.5 96t-16.5 123q0 90 27.5 155t72.5 108q38 37 91.5 58.5t122.5 21.5q60 0 102 -15.5t65 -38.5l19 49l24 -7q-3 -21 -5.5 -46.5t-3.5 -53t-1.5 -55t1.5 -52.5l-27 -4q-3 38 -13 72.5t-30 61t-50.5 42.5t-73.5 16q-48 0 -82 -16.5t-61 -51.5q-30 -38 -47.5 -97.5
t-17.5 -132.5q0 -61 13 -114t38 -90q28 -44 68.5 -64.5t89.5 -20.5q70 0 117 34.5t76 112.5l26 -17q-25 -77 -77.5 -122t-140.5 -52z" />
    <glyph glyph-name="Eacute" unicode="&#xc9;" horiz-adv-x="560" 
d="M229 705l30.5 22l41.5 31.5l39.5 31l26.5 20.5q11 8 25 12t25 2q14 -2 22.5 -11.5t6.5 -26.5t-16.5 -29.5t-31.5 -19.5t-56.5 -20.5l-97.5 -33.5zM23 634q11 0 28 -0.5t37 -0.5q20 -1 41 -1.5t40 -0.5h169q49 0 87 2t54 5q-1 -10 -2 -30.5t-1.5 -45t0 -49.5t1.5 -44
l-27 -1q-3 20 -8.5 42.5t-13.5 42.5q-6 13 -12.5 22t-20 14.5t-36 7.5t-58.5 2h-74q-9 0 -12 -3.5t-4 -12.5q-2 -23 -3 -55.5t-1 -74.5v-110q4 0 11.5 -0.5t16.5 -0.5h17.5h14.5q34 0 54.5 3.5t32.5 13.5t17.5 26t8.5 42h25q-5 -51 -5 -109.5t3 -106.5h-26q-3 28 -7.5 47
t-16 30.5t-32 16t-55.5 4.5h-32.5t-26.5 -2v-96q0 -43 1 -86t3 -69q0 -8 2.5 -12.5t12.5 -7.5t29.5 -4t53.5 -1q36 0 59.5 1.5t40 5t27 10t19.5 17.5q17 19 30.5 51.5t21.5 62.5l24 -4q0 -9 -3 -34t-7.5 -54l-8.5 -55t-6 -36q-24 2 -74 3t-138 1h-125q-18 0 -39.5 -0.5
t-42.5 -0.5q-21 -1 -40 -1.5t-32 -0.5l1 28l62 6q14 2 20 9.5t7 28.5q2 29 3 65t1 80v211q0 54 -0.5 92t-1.5 60q-1 14 -8 19t-25 7l-51 4v27z" />
    <glyph glyph-name="Ecircumflex" unicode="&#xca;" horiz-adv-x="560" 
d="M293 827q5 -9 16 -23.5t27 -31t36.5 -33.5t46.5 -32l-15 -25q-14 5 -31 12t-33.5 15l-31.5 16t-27 16q-26 -15 -60.5 -32t-63.5 -27l-15 25q54 35 83.5 65.5t43.5 50.5zM23 634q11 0 28 -0.5t37 -0.5q20 -1 41 -1.5t40 -0.5h169q49 0 87 2t54 5q-1 -10 -2 -30.5t-1.5 -45
t0 -49.5t1.5 -44l-27 -1q-3 20 -8.5 42.5t-13.5 42.5q-6 13 -12.5 22t-20 14.5t-36 7.5t-58.5 2h-74q-9 0 -12 -3.5t-4 -12.5q-2 -23 -3 -55.5t-1 -74.5v-110q4 0 11.5 -0.5t16.5 -0.5h17.5h14.5q34 0 54.5 3.5t32.5 13.5t17.5 26t8.5 42h25q-5 -51 -5 -109.5t3 -106.5h-26
q-3 28 -7.5 47t-16 30.5t-32 16t-55.5 4.5h-32.5t-26.5 -2v-96q0 -43 1 -86t3 -69q0 -8 2.5 -12.5t12.5 -7.5t29.5 -4t53.5 -1q36 0 59.5 1.5t40 5t27 10t19.5 17.5q17 19 30.5 51.5t21.5 62.5l24 -4q0 -9 -3 -34t-7.5 -54l-8.5 -55t-6 -36q-24 2 -74 3t-138 1h-125
q-18 0 -39.5 -0.5t-42.5 -0.5q-21 -1 -40 -1.5t-32 -0.5l1 28l62 6q14 2 20 9.5t7 28.5q2 29 3 65t1 80v211q0 54 -0.5 92t-1.5 60q-1 14 -8 19t-25 7l-51 4v27z" />
    <glyph glyph-name="Edieresis" unicode="&#xcb;" horiz-adv-x="560" 
d="M372 796q23 0 36 -14.5t13 -34.5q0 -26 -16.5 -40.5t-35.5 -14.5q-17 0 -32.5 12t-15.5 38q0 24 14 39t36 15h1zM191 796q22 0 35 -14.5t13 -34.5q0 -26 -16.5 -40.5t-35.5 -14.5q-17 0 -32.5 12t-15.5 38q0 24 14 39t37 15h1zM23 634q11 0 28 -0.5t37 -0.5
q20 -1 41 -1.5t40 -0.5h169q49 0 87 2t54 5q-1 -10 -2 -30.5t-1.5 -45t0 -49.5t1.5 -44l-27 -1q-3 20 -8.5 42.5t-13.5 42.5q-6 13 -12.5 22t-20 14.5t-36 7.5t-58.5 2h-74q-9 0 -12 -3.5t-4 -12.5q-2 -23 -3 -55.5t-1 -74.5v-110q4 0 11.5 -0.5t16.5 -0.5h17.5h14.5
q34 0 54.5 3.5t32.5 13.5t17.5 26t8.5 42h25q-5 -51 -5 -109.5t3 -106.5h-26q-3 28 -7.5 47t-16 30.5t-32 16t-55.5 4.5h-32.5t-26.5 -2v-96q0 -43 1 -86t3 -69q0 -8 2.5 -12.5t12.5 -7.5t29.5 -4t53.5 -1q36 0 59.5 1.5t40 5t27 10t19.5 17.5q17 19 30.5 51.5t21.5 62.5
l24 -4q0 -9 -3 -34t-7.5 -54l-8.5 -55t-6 -36q-24 2 -74 3t-138 1h-125q-18 0 -39.5 -0.5t-42.5 -0.5q-21 -1 -40 -1.5t-32 -0.5l1 28l62 6q14 2 20 9.5t7 28.5q2 29 3 65t1 80v211q0 54 -0.5 92t-1.5 60q-1 14 -8 19t-25 7l-51 4v27z" />
    <glyph glyph-name="Egrave" unicode="&#xc8;" horiz-adv-x="560" 
d="M319 684q-23 7 -46.5 15l-43.5 15l-34.5 12.5t-20.5 7.5q-14 5 -27.5 17.5t-15.5 29.5t8.5 27.5t25.5 12.5q24 3 48 -14q6 -4 22.5 -18l35.5 -30l36.5 -31.5l25.5 -22.5zM23 634q11 0 28 -0.5t37 -0.5q20 -1 41 -1.5t40 -0.5h169q49 0 87 2t54 5q-1 -10 -2 -30.5
t-1.5 -45t0 -49.5t1.5 -44l-27 -1q-3 20 -8.5 42.5t-13.5 42.5q-6 13 -12.5 22t-20 14.5t-36 7.5t-58.5 2h-74q-9 0 -12 -3.5t-4 -12.5q-2 -23 -3 -55.5t-1 -74.5v-110q4 0 11.5 -0.5t16.5 -0.5h17.5h14.5q34 0 54.5 3.5t32.5 13.5t17.5 26t8.5 42h25q-5 -51 -5 -109.5
t3 -106.5h-26q-3 28 -7.5 47t-16 30.5t-32 16t-55.5 4.5h-32.5t-26.5 -2v-96q0 -43 1 -86t3 -69q0 -8 2.5 -12.5t12.5 -7.5t29.5 -4t53.5 -1q36 0 59.5 1.5t40 5t27 10t19.5 17.5q17 19 30.5 51.5t21.5 62.5l24 -4q0 -9 -3 -34t-7.5 -54l-8.5 -55t-6 -36q-24 2 -74 3t-138 1
h-125q-18 0 -39.5 -0.5t-42.5 -0.5q-21 -1 -40 -1.5t-32 -0.5l1 28l62 6q14 2 20 9.5t7 28.5q2 29 3 65t1 80v211q0 54 -0.5 92t-1.5 60q-1 14 -8 19t-25 7l-51 4v27z" />
    <glyph glyph-name="Iacute" unicode="&#xcd;" horiz-adv-x="316" 
d="M102 701l30.5 22l41.5 31.5l39.5 31l26.5 20.5q11 8 25 12t25 2q14 -2 22.5 -11.5t6.5 -26.5t-16.5 -29.5t-31.5 -19.5t-56.5 -20.5l-97.5 -33.5zM109 454v70.5t-1 43.5q0 11 -4 18t-13 11t-25.5 5.5t-42.5 3.5l1 28q21 -1 58.5 -2t72.5 -1q34 0 71.5 1.5t62.5 1.5v-28
q-24 -1 -39 -2.5t-23.5 -5.5t-12 -9.5t-4.5 -14.5q-1 -14 -2 -40t-1 -74v-263q0 -53 1 -83.5t2 -53.5q2 -20 17.5 -26.5t62.5 -8.5v-28q-28 1 -66 2t-71 1q-31 0 -68 -1t-62 -2l1 28q24 1 39.5 3t24.5 5.5t12.5 10t4.5 15.5q1 16 2.5 46t1.5 90v259z" />
    <glyph glyph-name="Icircumflex" unicode="&#xce;" horiz-adv-x="316" 
d="M170 823q5 -9 16 -23.5t27 -31t36.5 -33.5t46.5 -32l-15 -25q-14 5 -31 12t-33.5 15l-31.5 16t-27 16q-26 -15 -60.5 -32t-63.5 -27l-15 25q54 35 83.5 65.5t43.5 50.5zM109 454v70.5t-1 43.5q0 11 -4 18t-13 11t-25.5 5.5t-42.5 3.5l1 28q21 -1 58.5 -2t72.5 -1
q34 0 71.5 1.5t62.5 1.5v-28q-24 -1 -39 -2.5t-23.5 -5.5t-12 -9.5t-4.5 -14.5q-1 -14 -2 -40t-1 -74v-263q0 -53 1 -83.5t2 -53.5q2 -20 17.5 -26.5t62.5 -8.5v-28q-28 1 -66 2t-71 1q-31 0 -68 -1t-62 -2l1 28q24 1 39.5 3t24.5 5.5t12.5 10t4.5 15.5q1 16 2.5 46t1.5 90
v259z" />
    <glyph glyph-name="Idieresis" unicode="&#xcf;" horiz-adv-x="316" 
d="M249 792q23 0 36 -14.5t13 -34.5q0 -26 -16.5 -40.5t-35.5 -14.5q-17 0 -32.5 12t-15.5 38q0 24 14 39t36 15h1zM68 792q22 0 35 -14.5t13 -34.5q0 -26 -16.5 -40.5t-35.5 -14.5q-17 0 -32.5 12t-15.5 38q0 24 14 39t37 15h1zM109 454v70.5t-1 43.5q0 11 -4 18t-13 11
t-25.5 5.5t-42.5 3.5l1 28q21 -1 58.5 -2t72.5 -1q34 0 71.5 1.5t62.5 1.5v-28q-24 -1 -39 -2.5t-23.5 -5.5t-12 -9.5t-4.5 -14.5q-1 -14 -2 -40t-1 -74v-263q0 -53 1 -83.5t2 -53.5q2 -20 17.5 -26.5t62.5 -8.5v-28q-28 1 -66 2t-71 1q-31 0 -68 -1t-62 -2l1 28
q24 1 39.5 3t24.5 5.5t12.5 10t4.5 15.5q1 16 2.5 46t1.5 90v259z" />
    <glyph glyph-name="Igrave" unicode="&#xcc;" horiz-adv-x="316" 
d="M191 681q-23 7 -46.5 15l-43.5 15l-34.5 12.5t-20.5 7.5q-14 5 -27.5 17.5t-15.5 29.5t8.5 27.5t25.5 12.5q24 3 48 -14q6 -4 22.5 -18l35.5 -30l36.5 -31.5l25.5 -22.5zM109 454v70.5t-1 43.5q0 11 -4 18t-13 11t-25.5 5.5t-42.5 3.5l1 28q21 -1 58.5 -2t72.5 -1
q34 0 71.5 1.5t62.5 1.5v-28q-24 -1 -39 -2.5t-23.5 -5.5t-12 -9.5t-4.5 -14.5q-1 -14 -2 -40t-1 -74v-263q0 -53 1 -83.5t2 -53.5q2 -20 17.5 -26.5t62.5 -8.5v-28q-28 1 -66 2t-71 1q-31 0 -68 -1t-62 -2l1 28q24 1 39.5 3t24.5 5.5t12.5 10t4.5 15.5q1 16 2.5 46t1.5 90
v259z" />
    <glyph glyph-name="Ntilde" unicode="&#xd1;" horiz-adv-x="670" 
d="M221 688q1 22 6 43t15 37.5t25.5 27t36.5 10.5q15 0 29.5 -7t34.5 -24q31 -27 46 -27q26 0 33 62l30 -6q-1 -24 -5.5 -45t-13.5 -37t-23 -25.5t-33 -9.5q-16 0 -32 8.5t-38 27.5q-14 11 -23 17t-20 6q-14 0 -23.5 -17.5t-12.5 -43.5zM18 634q14 0 44.5 -1.5t56.5 -1.5
t44 0.5t36 2.5q7 -12 19.5 -30.5l35.5 -52.5l36.5 -54.5l62.5 -91.5l84.5 -122l103.5 -147q1 109 0.5 185t-2 125.5t-3.5 75.5t-3 36q-3 26 -13 34.5t-38 10.5l-52 3l5 28q32 0 64 -1.5t59 -1.5q29 0 58.5 1.5t47.5 1.5l1 -28l-29 -3.5t-23 -3.5q-12 -3 -18 -11t-9 -25
q-2 -14 -4 -43t-3.5 -69.5t-2.5 -91.5t-1 -108v-254q-12 -2 -29.5 -4.5t-28.5 -5.5l-78.5 120.5l-96 142.5l-101 148.5l-94.5 139.5q0 -85 0.5 -163.5t1.5 -141.5t2.5 -106t3.5 -57q3 -19 11 -27t22 -10q13 -2 31 -4l37 -4l-2 -28q-25 0 -58.5 1.5t-74.5 1.5q-35 0 -62 -1.5
t-46 -1.5l1 28q11 0 25.5 2t27.5 4q18 3 24.5 14t8.5 31q2 15 4.5 60.5t5 111.5t4 147.5t1.5 168.5q-2 8 -4 13t-7 10q-9 12 -40 15l-46 4v28z" />
    <glyph glyph-name="Oacute" unicode="&#xd3;" horiz-adv-x="676" 
d="M270 711l30.5 22l41.5 31.5l39.5 31l26.5 20.5q11 8 25 12t25 2q14 -2 22.5 -11.5t6.5 -26.5t-16.5 -29.5t-31.5 -19.5t-56.5 -20.5l-97.5 -33.5zM337 618q-85 0 -133 -77q-20 -33 -33 -89t-13 -130t14.5 -134.5t37.5 -95.5q26 -41 60 -59t76 -18q38 0 71 16.5t58 57.5
q20 35 31.5 93.5t11.5 130.5q0 70 -12 128.5t-34 97.5q-46 79 -134 79h-1zM346 647q69 0 122.5 -25.5t90 -69t55 -102t18.5 -124.5q0 -86 -21.5 -150t-60.5 -107t-93 -64t-120 -21t-120 21.5t-92.5 62.5t-59.5 102t-21 140q0 69 19 130.5t57 107t94.5 72.5t130.5 27h1z" />
    <glyph glyph-name="Ocircumflex" unicode="&#xd4;" horiz-adv-x="676" 
d="M351 828q5 -9 16 -23.5t27 -31t36.5 -33.5t46.5 -32l-15 -25q-14 5 -31 12t-33.5 15l-31.5 16t-27 16q-26 -15 -60.5 -32t-63.5 -27l-15 25q54 35 83.5 65.5t43.5 50.5zM337 618q-85 0 -133 -77q-20 -33 -33 -89t-13 -130t14.5 -134.5t37.5 -95.5q26 -41 60 -59t76 -18
q38 0 71 16.5t58 57.5q20 35 31.5 93.5t11.5 130.5q0 70 -12 128.5t-34 97.5q-46 79 -134 79h-1zM346 647q69 0 122.5 -25.5t90 -69t55 -102t18.5 -124.5q0 -86 -21.5 -150t-60.5 -107t-93 -64t-120 -21t-120 21.5t-92.5 62.5t-59.5 102t-21 140q0 69 19 130.5t57 107
t94.5 72.5t130.5 27h1z" />
    <glyph glyph-name="Odieresis" unicode="&#xd6;" horiz-adv-x="676" 
d="M428 799q23 0 36 -14.5t13 -34.5q0 -26 -16.5 -40.5t-35.5 -14.5q-17 0 -32.5 12t-15.5 38q0 24 14 39t36 15h1zM247 799q22 0 35 -14.5t13 -34.5q0 -26 -16.5 -40.5t-35.5 -14.5q-17 0 -32.5 12t-15.5 38q0 24 14 39t37 15h1zM337 618q-85 0 -133 -77q-20 -33 -33 -89
t-13 -130t14.5 -134.5t37.5 -95.5q26 -41 60 -59t76 -18q38 0 71 16.5t58 57.5q20 35 31.5 93.5t11.5 130.5q0 70 -12 128.5t-34 97.5q-46 79 -134 79h-1zM346 647q69 0 122.5 -25.5t90 -69t55 -102t18.5 -124.5q0 -86 -21.5 -150t-60.5 -107t-93 -64t-120 -21t-120 21.5
t-92.5 62.5t-59.5 102t-21 140q0 69 19 130.5t57 107t94.5 72.5t130.5 27h1z" />
    <glyph glyph-name="Ograve" unicode="&#xd2;" horiz-adv-x="676" 
d="M375 688q-23 7 -46.5 15l-43.5 15l-34.5 12.5t-20.5 7.5q-14 5 -27.5 17.5t-15.5 29.5t8.5 27.5t25.5 12.5q24 3 48 -14q6 -4 22.5 -18l35.5 -30l36.5 -31.5l25.5 -22.5zM337 618q-85 0 -133 -77q-20 -33 -33 -89t-13 -130t14.5 -134.5t37.5 -95.5q26 -41 60 -59t76 -18
q38 0 71 16.5t58 57.5q20 35 31.5 93.5t11.5 130.5q0 70 -12 128.5t-34 97.5q-46 79 -134 79h-1zM346 647q69 0 122.5 -25.5t90 -69t55 -102t18.5 -124.5q0 -86 -21.5 -150t-60.5 -107t-93 -64t-120 -21t-120 21.5t-92.5 62.5t-59.5 102t-21 140q0 69 19 130.5t57 107
t94.5 72.5t130.5 27h1z" />
    <glyph glyph-name="Otilde" unicode="&#xd5;" horiz-adv-x="676" 
d="M207 693q1 22 6 43t15 37.5t25.5 27t36.5 10.5q15 0 29.5 -7t34.5 -24q31 -27 46 -27q26 0 33 62l30 -6q-1 -24 -5.5 -45t-13.5 -37t-23 -25.5t-33 -9.5q-16 0 -32 8.5t-38 27.5q-14 11 -23 17t-20 6q-14 0 -23.5 -17.5t-12.5 -43.5zM337 618q-85 0 -133 -77
q-20 -33 -33 -89t-13 -130t14.5 -134.5t37.5 -95.5q26 -41 60 -59t76 -18q38 0 71 16.5t58 57.5q20 35 31.5 93.5t11.5 130.5q0 70 -12 128.5t-34 97.5q-46 79 -134 79h-1zM346 647q69 0 122.5 -25.5t90 -69t55 -102t18.5 -124.5q0 -86 -21.5 -150t-60.5 -107t-93 -64
t-120 -21t-120 21.5t-92.5 62.5t-59.5 102t-21 140q0 69 19 130.5t57 107t94.5 72.5t130.5 27h1z" />
    <glyph glyph-name="Uacute" unicode="&#xda;" horiz-adv-x="664" 
d="M283 705l30.5 22l41.5 31.5l39.5 31l26.5 20.5q11 8 25 12t25 2q14 -2 22.5 -11.5t6.5 -26.5t-16.5 -29.5t-31.5 -19.5t-56.5 -20.5l-97.5 -33.5zM364 28q34 0 63 7t51 26.5t35.5 53.5t17.5 89q3 49 4 101.5t0.5 100.5t-2 88.5t-2.5 64.5q-2 29 -13 35t-31 8l-50 5l-3 28
q25 0 53.5 -2t53.5 -2q26 0 54.5 1.5t55.5 2.5l5 -28l-38 -4q-22 -2 -28.5 -10t-7.5 -27q-2 -53 -3.5 -110l-3 -110t-3.5 -98.5t-6 -76.5q-8 -53 -26.5 -87t-50.5 -57q-57 -43 -159 -43q-60 0 -108.5 16t-77.5 49q-11 13 -19.5 28t-13.5 34.5t-8 44.5t-3 58q0 18 -0.5 48
t-0.5 66v74v71.5t-0.5 59.5t-0.5 37q-1 16 -5 23t-16 8l-56 6v28q29 0 63.5 -2t65.5 -2q13 0 29 0.5t33 1.5t33.5 1.5t31.5 0.5l2 -28l-55 -6q-19 -1 -22 -25q-3 -28 -4.5 -76.5t-1.5 -104t1 -111t4 -96.5q3 -50 13 -74t27 -42q20 -21 54 -32.5t68 -11.5h1z" />
    <glyph glyph-name="Ucircumflex" unicode="&#xdb;" horiz-adv-x="664" 
d="M362 826q5 -9 16 -23.5t27 -31t36.5 -33.5t46.5 -32l-15 -25q-14 5 -31 12t-33.5 15l-31.5 16t-27 16q-26 -15 -60.5 -32t-63.5 -27l-15 25q54 35 83.5 65.5t43.5 50.5zM364 28q34 0 63 7t51 26.5t35.5 53.5t17.5 89q3 49 4 101.5t0.5 100.5t-2 88.5t-2.5 64.5
q-2 29 -13 35t-31 8l-50 5l-3 28q25 0 53.5 -2t53.5 -2q26 0 54.5 1.5t55.5 2.5l5 -28l-38 -4q-22 -2 -28.5 -10t-7.5 -27q-2 -53 -3.5 -110l-3 -110t-3.5 -98.5t-6 -76.5q-8 -53 -26.5 -87t-50.5 -57q-57 -43 -159 -43q-60 0 -108.5 16t-77.5 49q-11 13 -19.5 28
t-13.5 34.5t-8 44.5t-3 58q0 18 -0.5 48t-0.5 66v74v71.5t-0.5 59.5t-0.5 37q-1 16 -5 23t-16 8l-56 6v28q29 0 63.5 -2t65.5 -2q13 0 29 0.5t33 1.5t33.5 1.5t31.5 0.5l2 -28l-55 -6q-19 -1 -22 -25q-3 -28 -4.5 -76.5t-1.5 -104t1 -111t4 -96.5q3 -50 13 -74t27 -42
q20 -21 54 -32.5t68 -11.5h1z" />
    <glyph glyph-name="Udieresis" unicode="&#xdc;" horiz-adv-x="664" 
d="M443 794q23 0 36 -14.5t13 -34.5q0 -26 -16.5 -40.5t-35.5 -14.5q-17 0 -32.5 12t-15.5 38q0 24 14 39t36 15h1zM262 794q22 0 35 -14.5t13 -34.5q0 -26 -16.5 -40.5t-35.5 -14.5q-17 0 -32.5 12t-15.5 38q0 24 14 39t37 15h1zM364 28q34 0 63 7t51 26.5t35.5 53.5
t17.5 89q3 49 4 101.5t0.5 100.5t-2 88.5t-2.5 64.5q-2 29 -13 35t-31 8l-50 5l-3 28q25 0 53.5 -2t53.5 -2q26 0 54.5 1.5t55.5 2.5l5 -28l-38 -4q-22 -2 -28.5 -10t-7.5 -27q-2 -53 -3.5 -110l-3 -110t-3.5 -98.5t-6 -76.5q-8 -53 -26.5 -87t-50.5 -57q-57 -43 -159 -43
q-60 0 -108.5 16t-77.5 49q-11 13 -19.5 28t-13.5 34.5t-8 44.5t-3 58q0 18 -0.5 48t-0.5 66v74v71.5t-0.5 59.5t-0.5 37q-1 16 -5 23t-16 8l-56 6v28q29 0 63.5 -2t65.5 -2q13 0 29 0.5t33 1.5t33.5 1.5t31.5 0.5l2 -28l-55 -6q-19 -1 -22 -25q-3 -28 -4.5 -76.5t-1.5 -104
t1 -111t4 -96.5q3 -50 13 -74t27 -42q20 -21 54 -32.5t68 -11.5h1z" />
    <glyph glyph-name="Ugrave" unicode="&#xd9;" horiz-adv-x="664" 
d="M388 683q-23 7 -46.5 15l-43.5 15l-34.5 12.5t-20.5 7.5q-14 5 -27.5 17.5t-15.5 29.5t8.5 27.5t25.5 12.5q24 3 48 -14q6 -4 22.5 -18l35.5 -30l36.5 -31.5l25.5 -22.5zM364 28q34 0 63 7t51 26.5t35.5 53.5t17.5 89q3 49 4 101.5t0.5 100.5t-2 88.5t-2.5 64.5
q-2 29 -13 35t-31 8l-50 5l-3 28q25 0 53.5 -2t53.5 -2q26 0 54.5 1.5t55.5 2.5l5 -28l-38 -4q-22 -2 -28.5 -10t-7.5 -27q-2 -53 -3.5 -110l-3 -110t-3.5 -98.5t-6 -76.5q-8 -53 -26.5 -87t-50.5 -57q-57 -43 -159 -43q-60 0 -108.5 16t-77.5 49q-11 13 -19.5 28
t-13.5 34.5t-8 44.5t-3 58q0 18 -0.5 48t-0.5 66v74v71.5t-0.5 59.5t-0.5 37q-1 16 -5 23t-16 8l-56 6v28q29 0 63.5 -2t65.5 -2q13 0 29 0.5t33 1.5t33.5 1.5t31.5 0.5l2 -28l-55 -6q-19 -1 -22 -25q-3 -28 -4.5 -76.5t-1.5 -104t1 -111t4 -96.5q3 -50 13 -74t27 -42
q20 -21 54 -32.5t68 -11.5h1z" />
    <glyph glyph-name="Ydieresis" unicode="&#x178;" horiz-adv-x="556" 
d="M388 795q23 0 36 -14.5t13 -34.5q0 -26 -16.5 -40.5t-35.5 -14.5q-17 0 -32.5 12t-15.5 38q0 24 14 39t36 15h1zM207 795q22 0 35 -14.5t13 -34.5q0 -26 -16.5 -40.5t-35.5 -14.5q-17 0 -32.5 12t-15.5 38q0 24 14 39t37 15h1zM437 -3q-47 1 -85 2t-79 1
q-38 0 -72.5 -1.5t-70.5 -1.5l-4 28l35 4t34 4q19 2 27 9.5t9 24.5q1 13 2 36.5t1.5 51l1 54.5t0.5 48q0 14 -3 25.5t-10 24.5q-7 15 -24.5 47.5l-39 69.5l-43.5 73.5l-37 60.5q-10 15 -18 24.5t-18.5 14.5t-24.5 6.5t-35 2.5l-1 28q7 0 20 -0.5t29 -1t34 -1t35 -0.5
q42 0 74 1.5t58 1.5l4 -28l-45 -4q-20 -1 -9 -21q8 -18 24.5 -49l36 -67l39.5 -72.5l36 -65.5q52 93 81.5 151t44.5 93q7 16 5 22t-13 7q-26 5 -56 6l3 28q17 0 47.5 -1.5t56.5 -1.5q23 0 47.5 1.5t50.5 1.5l2 -28q-22 -1 -36.5 -3.5t-25 -7.5t-19.5 -14t-19 -24
q-13 -20 -31 -50.5l-37.5 -64l-38.5 -67.5l-33 -61q-7 -13 -9.5 -24.5t-2.5 -24.5q-1 -22 -1 -51.5t0.5 -59.5t1 -57t2.5 -43q1 -10 6 -15t19 -6q11 -2 28.5 -4t41.5 -4z" />
    <glyph glyph-name="aacute" unicode="&#xe1;" horiz-adv-x="479" 
d="M192 501l20.5 32.5l27.5 45.5l26.5 45t18.5 30q12 18 26 26.5t28 8.5t21.5 -9.5t7.5 -24.5q0 -14 -10 -30t-21 -27l-48 -43l-76 -70zM137 124q0 -35 17.5 -60t52.5 -25t57 18.5t35 47.5q3 8 4.5 19t1.5 22v111q-10 -6 -24.5 -12.5l-30.5 -14l-32.5 -15.5t-29.5 -15
q-23 -12 -37 -27t-14 -48v-1zM305 328q0 16 -4 31t-13.5 27t-24.5 19t-36 7q-45 0 -65 -20t-20 -52q0 -8 1 -16t3 -14q2 -12 -9 -21q-15 -10 -34 -10q-17 0 -30.5 10t-13.5 35q0 19 13 40t37 38t58 28t76 11q31 0 54.5 -6t39.5 -14.5t26 -18t15 -17.5q6 -10 10 -24.5
t4 -28.5v-253q0 -29 7 -37t17 -8q11 0 22 15t19 46l25 -10q-11 -55 -38 -77t-62 -22q-39 0 -56 21t-21 53q-34 -36 -71 -55t-73 -19q-58 0 -90 35t-32 89q0 30 13 54t43 36q26 11 56.5 22.5l60 22.5t54 22t39.5 22v39z" />
    <glyph glyph-name="acircumflex" unicode="&#xe2;" horiz-adv-x="479" 
d="M253 689q9 -25 34.5 -74t73.5 -112l-21 -19l-23 21.5l-27 27l-27 29t-23 28.5q-10 -14 -23 -28.5l-26.5 -28.5t-27 -26.5l-23.5 -22.5l-20 19q49 63 74 110.5t35 69.5zM137 124q0 -35 17.5 -60t52.5 -25t57 18.5t35 47.5q3 8 4.5 19t1.5 22v111q-10 -6 -24.5 -12.5
l-30.5 -14l-32.5 -15.5t-29.5 -15q-23 -12 -37 -27t-14 -48v-1zM305 328q0 16 -4 31t-13.5 27t-24.5 19t-36 7q-45 0 -65 -20t-20 -52q0 -8 1 -16t3 -14q2 -12 -9 -21q-15 -10 -34 -10q-17 0 -30.5 10t-13.5 35q0 19 13 40t37 38t58 28t76 11q31 0 54.5 -6t39.5 -14.5
t26 -18t15 -17.5q6 -10 10 -24.5t4 -28.5v-253q0 -29 7 -37t17 -8q11 0 22 15t19 46l25 -10q-11 -55 -38 -77t-62 -22q-39 0 -56 21t-21 53q-34 -36 -71 -55t-73 -19q-58 0 -90 35t-32 89q0 30 13 54t43 36q26 11 56.5 22.5l60 22.5t54 22t39.5 22v39z" />
    <glyph glyph-name="adieresis" unicode="&#xe4;" horiz-adv-x="479" 
d="M329 633q22 0 34 -14t12 -36q0 -25 -15.5 -39t-35.5 -14q-17 0 -32 12t-15 38q0 23 14.5 38t36.5 15h1zM159 633q22 0 34 -14t12 -36q0 -26 -16 -39.5t-35 -13.5q-17 0 -32 12t-15 38q0 23 14.5 38t36.5 15h1zM137 124q0 -35 17.5 -60t52.5 -25t57 18.5t35 47.5
q3 8 4.5 19t1.5 22v111q-10 -6 -24.5 -12.5l-30.5 -14l-32.5 -15.5t-29.5 -15q-23 -12 -37 -27t-14 -48v-1zM305 328q0 16 -4 31t-13.5 27t-24.5 19t-36 7q-45 0 -65 -20t-20 -52q0 -8 1 -16t3 -14q2 -12 -9 -21q-15 -10 -34 -10q-17 0 -30.5 10t-13.5 35q0 19 13 40t37 38
t58 28t76 11q31 0 54.5 -6t39.5 -14.5t26 -18t15 -17.5q6 -10 10 -24.5t4 -28.5v-253q0 -29 7 -37t17 -8q11 0 22 15t19 46l25 -10q-11 -55 -38 -77t-62 -22q-39 0 -56 21t-21 53q-34 -36 -71 -55t-73 -19q-58 0 -90 35t-32 89q0 30 13 54t43 36q26 11 56.5 22.5l60 22.5
t54 22t39.5 22v39z" />
    <glyph glyph-name="agrave" unicode="&#xe0;" horiz-adv-x="479" 
d="M258 485l-36.5 37.5l-34.5 34.5l-27.5 27.5l-16.5 16.5q-10 10 -16 24t-6 25q1 20 11 29.5t22 9.5q14 0 27.5 -9.5t21.5 -25.5q5 -11 15.5 -32l22 -44.5l22 -45t16.5 -32.5zM137 124q0 -35 17.5 -60t52.5 -25t57 18.5t35 47.5q3 8 4.5 19t1.5 22v111q-10 -6 -24.5 -12.5
l-30.5 -14l-32.5 -15.5t-29.5 -15q-23 -12 -37 -27t-14 -48v-1zM305 328q0 16 -4 31t-13.5 27t-24.5 19t-36 7q-45 0 -65 -20t-20 -52q0 -8 1 -16t3 -14q2 -12 -9 -21q-15 -10 -34 -10q-17 0 -30.5 10t-13.5 35q0 19 13 40t37 38t58 28t76 11q31 0 54.5 -6t39.5 -14.5
t26 -18t15 -17.5q6 -10 10 -24.5t4 -28.5v-253q0 -29 7 -37t17 -8q11 0 22 15t19 46l25 -10q-11 -55 -38 -77t-62 -22q-39 0 -56 21t-21 53q-34 -36 -71 -55t-73 -19q-58 0 -90 35t-32 89q0 30 13 54t43 36q26 11 56.5 22.5l60 22.5t54 22t39.5 22v39z" />
    <glyph glyph-name="aring" unicode="&#xe5;" horiz-adv-x="479" 
d="M240 650q-12 0 -20 -6t-12.5 -15.5t-6.5 -20t-2 -19.5q0 -33 12.5 -48.5t29.5 -15.5q14 0 22 7t12.5 17t5.5 21t1 19q0 10 -2 20.5t-6.5 19.5t-12.5 15t-20 6h-1zM244 675q40 0 65.5 -21.5t25.5 -64.5q0 -44 -28.5 -67.5t-68.5 -23.5t-66.5 21.5t-26.5 63.5q0 45 28 68.5
t70 23.5h1zM137 124q0 -35 17.5 -60t52.5 -25t57 18.5t35 47.5q3 8 4.5 19t1.5 22v111q-10 -6 -24.5 -12.5l-30.5 -14l-32.5 -15.5t-29.5 -15q-23 -12 -37 -27t-14 -48v-1zM305 328q0 16 -4 31t-13.5 27t-24.5 19t-36 7q-45 0 -65 -20t-20 -52q0 -8 1 -16t3 -14
q2 -12 -9 -21q-15 -10 -34 -10q-17 0 -30.5 10t-13.5 35q0 19 13 40t37 38t58 28t76 11q31 0 54.5 -6t39.5 -14.5t26 -18t15 -17.5q6 -10 10 -24.5t4 -28.5v-253q0 -29 7 -37t17 -8q11 0 22 15t19 46l25 -10q-11 -55 -38 -77t-62 -22q-39 0 -56 21t-21 53q-34 -36 -71 -55
t-73 -19q-58 0 -90 35t-32 89q0 30 13 54t43 36q26 11 56.5 22.5l60 22.5t54 22t39.5 22v39z" />
    <glyph glyph-name="atilde" unicode="&#xe3;" horiz-adv-x="479" 
d="M117 513q1 21 5 42.5t13 38t24 27t36 10.5q14 0 28 -7.5t34 -24.5q17 -16 27.5 -22.5t16.5 -6.5q12 0 21 14t11 49l29 -5q-1 -49 -17 -83.5t-55 -34.5q-16 0 -31 8.5t-36 27.5q-12 11 -20.5 17.5t-20.5 6.5q-14 0 -23.5 -16t-11.5 -45zM137 124q0 -35 17.5 -60t52.5 -25
t57 18.5t35 47.5q3 8 4.5 19t1.5 22v111q-10 -6 -24.5 -12.5l-30.5 -14l-32.5 -15.5t-29.5 -15q-23 -12 -37 -27t-14 -48v-1zM305 328q0 16 -4 31t-13.5 27t-24.5 19t-36 7q-45 0 -65 -20t-20 -52q0 -8 1 -16t3 -14q2 -12 -9 -21q-15 -10 -34 -10q-17 0 -30.5 10t-13.5 35
q0 19 13 40t37 38t58 28t76 11q31 0 54.5 -6t39.5 -14.5t26 -18t15 -17.5q6 -10 10 -24.5t4 -28.5v-253q0 -29 7 -37t17 -8q11 0 22 15t19 46l25 -10q-11 -55 -38 -77t-62 -22q-39 0 -56 21t-21 53q-34 -36 -71 -55t-73 -19q-58 0 -90 35t-32 89q0 30 13 54t43 36
q26 11 56.5 22.5l60 22.5t54 22t39.5 22v39z" />
    <glyph glyph-name="ccedilla" unicode="&#xe7;" horiz-adv-x="451" 
d="M270 -12l-10.5 -17l-11.5 -18q11 -2 23.5 -7t23 -13.5t17.5 -22t7 -32.5q0 -38 -25.5 -61.5t-69.5 -23.5q-20 0 -37 6.5t-24 11.5l11 29q9 -5 21 -8.5t24 -3.5q17 0 28 9t11 26q0 20 -18.5 29.5t-46.5 9.5l-5 11l23 34.5l26 39.5q-48 1 -86 15t-67 48q-23 27 -35 67.5
t-12 88.5q0 49 15 91.5t44 74.5t71.5 50.5t96.5 18.5q68 0 111.5 -29.5t43.5 -79.5q0 -27 -16 -39.5t-36 -12.5q-15 0 -26 8q-4 2 -6.5 7.5t-0.5 11.5q1 8 2.5 16t1.5 16q0 34 -18 53.5t-60 19.5q-31 0 -54 -15.5t-38.5 -41.5t-23 -61.5t-7.5 -75.5q0 -38 7 -70.5t21 -56.5
q36 -59 106 -59q51 0 80 25t50 78l25 -14q-17 -54 -53.5 -90t-102.5 -43z" />
    <glyph glyph-name="eacute" unicode="&#xe9;" horiz-adv-x="452" 
d="M192 501l20.5 32.5l27.5 45.5l26.5 45t18.5 30q12 18 26 26.5t28 8.5t21.5 -9.5t7.5 -24.5q0 -14 -10 -30t-21 -27l-48 -43l-76 -70zM241 411q-26 0 -45 -14.5t-31.5 -37.5t-19 -53t-7.5 -60h83q35 0 56 2t33 4q10 2 15 10t5 25q0 20 -4.5 42t-15 40t-27 30t-41.5 12h-1z
M418 115q-23 -68 -69 -98.5t-110 -30.5q-58 0 -96 18t-62 50q-21 26 -32 66t-11 85q0 46 13.5 89t39.5 75.5t65.5 52t91.5 19.5q54 0 88 -19t52.5 -46t24.5 -56.5t6 -51.5q0 -32 -21 -40q-13 -5 -47.5 -8.5t-83.5 -4.5q-26 0 -62.5 -0.5t-68.5 0.5q-2 -41 7.5 -75t23.5 -55
q33 -53 100 -53q46 0 75.5 23t49.5 74z" />
    <glyph glyph-name="ecircumflex" unicode="&#xea;" horiz-adv-x="452" 
d="M253 689q9 -25 34.5 -74t73.5 -112l-21 -19l-23 21.5l-27 27l-27 29t-23 28.5q-10 -14 -23 -28.5l-26.5 -28.5t-27 -26.5l-23.5 -22.5l-20 19q49 63 74 110.5t35 69.5zM241 411q-26 0 -45 -14.5t-31.5 -37.5t-19 -53t-7.5 -60h83q35 0 56 2t33 4q10 2 15 10t5 25
q0 20 -4.5 42t-15 40t-27 30t-41.5 12h-1zM418 115q-23 -68 -69 -98.5t-110 -30.5q-58 0 -96 18t-62 50q-21 26 -32 66t-11 85q0 46 13.5 89t39.5 75.5t65.5 52t91.5 19.5q54 0 88 -19t52.5 -46t24.5 -56.5t6 -51.5q0 -32 -21 -40q-13 -5 -47.5 -8.5t-83.5 -4.5
q-26 0 -62.5 -0.5t-68.5 0.5q-2 -41 7.5 -75t23.5 -55q33 -53 100 -53q46 0 75.5 23t49.5 74z" />
    <glyph glyph-name="edieresis" unicode="&#xeb;" horiz-adv-x="452" 
d="M325 633q22 0 34 -14t12 -36q0 -25 -15.5 -39t-35.5 -14q-17 0 -32 12t-15 38q0 23 14.5 38t36.5 15h1zM155 633q22 0 34 -14t12 -36q0 -26 -16 -39.5t-35 -13.5q-17 0 -32 12t-15 38q0 23 14.5 38t36.5 15h1zM241 411q-26 0 -45 -14.5t-31.5 -37.5t-19 -53t-7.5 -60h83
q35 0 56 2t33 4q10 2 15 10t5 25q0 20 -4.5 42t-15 40t-27 30t-41.5 12h-1zM418 115q-23 -68 -69 -98.5t-110 -30.5q-58 0 -96 18t-62 50q-21 26 -32 66t-11 85q0 46 13.5 89t39.5 75.5t65.5 52t91.5 19.5q54 0 88 -19t52.5 -46t24.5 -56.5t6 -51.5q0 -32 -21 -40
q-13 -5 -47.5 -8.5t-83.5 -4.5q-26 0 -62.5 -0.5t-68.5 0.5q-2 -41 7.5 -75t23.5 -55q33 -53 100 -53q46 0 75.5 23t49.5 74z" />
    <glyph glyph-name="egrave" unicode="&#xe8;" horiz-adv-x="452" 
d="M256 485l-36.5 37.5l-34.5 34.5l-27.5 27.5l-16.5 16.5q-10 10 -16 24t-6 25q1 20 11 29.5t22 9.5q14 0 27.5 -9.5t21.5 -25.5q5 -11 15.5 -32l22 -44.5l22 -45t16.5 -32.5zM241 411q-26 0 -45 -14.5t-31.5 -37.5t-19 -53t-7.5 -60h83q35 0 56 2t33 4q10 2 15 10t5 25
q0 20 -4.5 42t-15 40t-27 30t-41.5 12h-1zM418 115q-23 -68 -69 -98.5t-110 -30.5q-58 0 -96 18t-62 50q-21 26 -32 66t-11 85q0 46 13.5 89t39.5 75.5t65.5 52t91.5 19.5q54 0 88 -19t52.5 -46t24.5 -56.5t6 -51.5q0 -32 -21 -40q-13 -5 -47.5 -8.5t-83.5 -4.5
q-26 0 -62.5 -0.5t-68.5 0.5q-2 -41 7.5 -75t23.5 -55q33 -53 100 -53q46 0 75.5 23t49.5 74z" />
    <glyph glyph-name="iacute" unicode="&#xed;" horiz-adv-x="266" 
d="M88 501l20.5 32.5l27.5 45.5l26.5 45t18.5 30q12 18 26 26.5t28 8.5t21.5 -9.5t7.5 -24.5q0 -14 -10 -30t-21 -27l-48 -43l-76 -70zM245 -3q-23 0 -50.5 1.5t-63.5 1.5q-38 0 -61.5 -1.5t-46.5 -1.5l1 28q21 1 34 2.5t20 5t9.5 8t2.5 11.5q1 14 2.5 46t1.5 80v100
q0 81 -3 104q0 11 -12.5 13.5t-52.5 0.5l2 27q18 1 38 2.5t41 3.5t41.5 4.5t37.5 6.5q-1 -18 -2 -56t-1 -95v-123q0 -47 0.5 -72t2.5 -41q0 -8 2.5 -13t9 -8t18.5 -4.5t31 -2.5z" />
    <glyph glyph-name="icircumflex" unicode="&#xee;" horiz-adv-x="266" 
d="M144 689q9 -25 34.5 -74t73.5 -112l-21 -19l-23 21.5l-27 27l-27 29t-23 28.5q-10 -14 -23 -28.5l-26.5 -28.5t-27 -26.5l-23.5 -22.5l-20 19q49 63 74 110.5t35 69.5zM245 -3q-23 0 -50.5 1.5t-63.5 1.5q-38 0 -61.5 -1.5t-46.5 -1.5l1 28q21 1 34 2.5t20 5t9.5 8
t2.5 11.5q1 14 2.5 46t1.5 80v100q0 81 -3 104q0 11 -12.5 13.5t-52.5 0.5l2 27q18 1 38 2.5t41 3.5t41.5 4.5t37.5 6.5q-1 -18 -2 -56t-1 -95v-123q0 -47 0.5 -72t2.5 -41q0 -8 2.5 -13t9 -8t18.5 -4.5t31 -2.5z" />
    <glyph glyph-name="idieresis" unicode="&#xef;" horiz-adv-x="266" 
d="M222 633q22 0 34 -14t12 -36q0 -25 -15.5 -39t-35.5 -14q-17 0 -32 12t-15 38q0 23 14.5 38t36.5 15h1zM52 633q22 0 34 -14t12 -36q0 -26 -16 -39.5t-35 -13.5q-17 0 -32 12t-15 38q0 23 14.5 38t36.5 15h1zM245 -3q-23 0 -50.5 1.5t-63.5 1.5q-38 0 -61.5 -1.5
t-46.5 -1.5l1 28q21 1 34 2.5t20 5t9.5 8t2.5 11.5q1 14 2.5 46t1.5 80v100q0 81 -3 104q0 11 -12.5 13.5t-52.5 0.5l2 27q18 1 38 2.5t41 3.5t41.5 4.5t37.5 6.5q-1 -18 -2 -56t-1 -95v-123q0 -47 0.5 -72t2.5 -41q0 -8 2.5 -13t9 -8t18.5 -4.5t31 -2.5z" />
    <glyph glyph-name="igrave" unicode="&#xec;" horiz-adv-x="266" 
d="M149 485l-36.5 37.5l-34.5 34.5l-27.5 27.5l-16.5 16.5q-10 10 -16 24t-6 25q1 20 11 29.5t22 9.5q14 0 27.5 -9.5t21.5 -25.5q5 -11 15.5 -32l22 -44.5l22 -45t16.5 -32.5zM245 -3q-23 0 -50.5 1.5t-63.5 1.5q-38 0 -61.5 -1.5t-46.5 -1.5l1 28q21 1 34 2.5t20 5t9.5 8
t2.5 11.5q1 14 2.5 46t1.5 80v100q0 81 -3 104q0 11 -12.5 13.5t-52.5 0.5l2 27q18 1 38 2.5t41 3.5t41.5 4.5t37.5 6.5q-1 -18 -2 -56t-1 -95v-123q0 -47 0.5 -72t2.5 -41q0 -8 2.5 -13t9 -8t18.5 -4.5t31 -2.5z" />
    <glyph glyph-name="ntilde" unicode="&#xf1;" horiz-adv-x="551" 
d="M153 513q1 21 5 42.5t13 38t24 27t36 10.5q14 0 28 -7.5t34 -24.5q17 -16 27.5 -22.5t16.5 -6.5q12 0 21 14t11 49l29 -5q-1 -49 -17 -83.5t-55 -34.5q-16 0 -31 8.5t-36 27.5q-12 11 -20.5 17.5t-20.5 6.5q-14 0 -23.5 -16t-11.5 -45zM29 25q19 1 31 2.5t18.5 4.5t9 8.5
t3.5 14.5q2 23 2.5 50t0.5 63v89q0 40 -0.5 71t-2.5 51q0 11 -10.5 13.5t-49.5 2.5l2 27q35 0 72.5 3.5t71.5 11.5q1 -7 2 -17.5l2 -21l2 -20.5t1 -16q13 13 29 27.5t35 25.5t41.5 18.5t49.5 7.5q50 0 77 -19t38 -42q13 -25 13 -62v-266q0 -8 1.5 -13t8.5 -7.5t19.5 -4
t35.5 -2.5l-2 -28q-23 0 -51.5 1.5t-61.5 1.5q-34 0 -58.5 -1.5t-42.5 -1.5l1 28q34 2 44.5 7t11.5 19q2 16 3.5 51t1.5 95q0 47 -0.5 75t-1.5 43.5t-3 22.5t-5 13q-9 19 -25 29t-42 10q-36 0 -63 -17t-44 -47q-7 -11 -9 -22.5t-2 -28.5v-118v-60t2 -45q1 -15 12 -20.5
t49 -6.5l-2 -28q-19 0 -51.5 1.5t-59.5 1.5q-30 0 -55.5 -1.5t-48.5 -1.5v28z" />
    <glyph glyph-name="oacute" unicode="&#xf3;" horiz-adv-x="513" 
d="M212 501l20.5 32.5l27.5 45.5l26.5 45t18.5 30q12 18 26 26.5t28 8.5t21.5 -9.5t7.5 -24.5q0 -14 -10 -30t-21 -27l-48 -43l-76 -70zM255 411q-30 0 -50.5 -13t-35.5 -36q-14 -23 -21.5 -58t-7.5 -79q0 -45 7.5 -83.5t21.5 -64.5q32 -61 94 -61q58 0 86 53q11 23 18 58
t7 81t-7.5 84.5t-20.5 61.5q-14 26 -36 41.5t-54 15.5h-1zM262 441q50 0 89.5 -16.5t67 -46.5t42 -71t14.5 -90q0 -52 -15 -94.5t-43.5 -73t-69 -47t-92.5 -16.5q-55 0 -95.5 17t-67.5 47t-40.5 71t-13.5 89t14.5 90t43 73.5t70 49.5t95.5 18h1z" />
    <glyph glyph-name="ocircumflex" unicode="&#xf4;" horiz-adv-x="513" 
d="M278 689q9 -25 34.5 -74t73.5 -112l-21 -19l-23 21.5l-27 27l-27 29t-23 28.5q-10 -14 -23 -28.5l-26.5 -28.5t-27 -26.5l-23.5 -22.5l-20 19q49 63 74 110.5t35 69.5zM255 411q-30 0 -50.5 -13t-35.5 -36q-14 -23 -21.5 -58t-7.5 -79q0 -45 7.5 -83.5t21.5 -64.5
q32 -61 94 -61q58 0 86 53q11 23 18 58t7 81t-7.5 84.5t-20.5 61.5q-14 26 -36 41.5t-54 15.5h-1zM262 441q50 0 89.5 -16.5t67 -46.5t42 -71t14.5 -90q0 -52 -15 -94.5t-43.5 -73t-69 -47t-92.5 -16.5q-55 0 -95.5 17t-67.5 47t-40.5 71t-13.5 89t14.5 90t43 73.5t70 49.5
t95.5 18h1z" />
    <glyph glyph-name="odieresis" unicode="&#xf6;" horiz-adv-x="513" 
d="M344 633q22 0 34 -14t12 -36q0 -25 -15.5 -39t-35.5 -14q-17 0 -32 12t-15 38q0 23 14.5 38t36.5 15h1zM174 633q22 0 34 -14t12 -36q0 -26 -16 -39.5t-35 -13.5q-17 0 -32 12t-15 38q0 23 14.5 38t36.5 15h1zM255 411q-30 0 -50.5 -13t-35.5 -36q-14 -23 -21.5 -58
t-7.5 -79q0 -45 7.5 -83.5t21.5 -64.5q32 -61 94 -61q58 0 86 53q11 23 18 58t7 81t-7.5 84.5t-20.5 61.5q-14 26 -36 41.5t-54 15.5h-1zM262 441q50 0 89.5 -16.5t67 -46.5t42 -71t14.5 -90q0 -52 -15 -94.5t-43.5 -73t-69 -47t-92.5 -16.5q-55 0 -95.5 17t-67.5 47
t-40.5 71t-13.5 89t14.5 90t43 73.5t70 49.5t95.5 18h1z" />
    <glyph glyph-name="ograve" unicode="&#xf2;" horiz-adv-x="513" 
d="M278 485l-36.5 37.5l-34.5 34.5l-27.5 27.5l-16.5 16.5q-10 10 -16 24t-6 25q1 20 11 29.5t22 9.5q14 0 27.5 -9.5t21.5 -25.5q5 -11 15.5 -32l22 -44.5l22 -45t16.5 -32.5zM255 411q-30 0 -50.5 -13t-35.5 -36q-14 -23 -21.5 -58t-7.5 -79q0 -45 7.5 -83.5t21.5 -64.5
q32 -61 94 -61q58 0 86 53q11 23 18 58t7 81t-7.5 84.5t-20.5 61.5q-14 26 -36 41.5t-54 15.5h-1zM262 441q50 0 89.5 -16.5t67 -46.5t42 -71t14.5 -90q0 -52 -15 -94.5t-43.5 -73t-69 -47t-92.5 -16.5q-55 0 -95.5 17t-67.5 47t-40.5 71t-13.5 89t14.5 90t43 73.5t70 49.5
t95.5 18h1z" />
    <glyph glyph-name="otilde" unicode="&#xf5;" horiz-adv-x="513" 
d="M133 513q1 21 5 42.5t13 38t24 27t36 10.5q14 0 28 -7.5t34 -24.5q17 -16 27.5 -22.5t16.5 -6.5q12 0 21 14t11 49l29 -5q-1 -49 -17 -83.5t-55 -34.5q-16 0 -31 8.5t-36 27.5q-12 11 -20.5 17.5t-20.5 6.5q-14 0 -23.5 -16t-11.5 -45zM255 411q-30 0 -50.5 -13
t-35.5 -36q-14 -23 -21.5 -58t-7.5 -79q0 -45 7.5 -83.5t21.5 -64.5q32 -61 94 -61q58 0 86 53q11 23 18 58t7 81t-7.5 84.5t-20.5 61.5q-14 26 -36 41.5t-54 15.5h-1zM262 441q50 0 89.5 -16.5t67 -46.5t42 -71t14.5 -90q0 -52 -15 -94.5t-43.5 -73t-69 -47t-92.5 -16.5
q-55 0 -95.5 17t-67.5 47t-40.5 71t-13.5 89t14.5 90t43 73.5t70 49.5t95.5 18h1z" />
    <glyph glyph-name="uacute" unicode="&#xfa;" horiz-adv-x="540" 
d="M221 501l20.5 32.5l27.5 45.5l26.5 45t18.5 30q12 18 26 26.5t28 8.5t21.5 -9.5t7.5 -24.5q0 -14 -10 -30t-21 -27l-48 -43l-76 -70zM295 427q25 0 52 1t50 2q22 2 38.5 3t24.5 2l-2.5 -60.5t-1.5 -85.5v-118q0 -46 1 -76t3 -48q1 -7 3 -11t9 -6t21 -2.5t38 -0.5l-3 -27
q-18 -1 -40.5 -2.5t-45.5 -3.5t-41.5 -4.5l-32.5 -4.5q-1 20 -1.5 47t-0.5 48q-11 -15 -28.5 -32t-40.5 -30.5t-50.5 -22.5t-58.5 -9q-44 0 -66 14.5t-30 29.5q-13 22 -13 59q0 19 0.5 45.5l1 55l1 57.5t0.5 55q0 34 -0.5 53t-1.5 30t-13 13.5t-50 2.5l4 27q23 0 47.5 1
t45.5 3q41 3 65 6q-3 -20 -5.5 -67.5t-2.5 -134.5q-1 -67 0 -108t6 -59q4 -17 16.5 -26.5t34.5 -9.5q44 0 77.5 27.5t50.5 67.5q7 17 9 30t2 30v97q0 36 -0.5 59.5t-2.5 38.5q-1 6 -3.5 9t-10 4.5t-20 2.5t-33.5 1z" />
    <glyph glyph-name="ucircumflex" unicode="&#xfb;" horiz-adv-x="540" 
d="M279 689q9 -25 34.5 -74t73.5 -112l-21 -19l-23 21.5l-27 27l-27 29t-23 28.5q-10 -14 -23 -28.5l-26.5 -28.5t-27 -26.5l-23.5 -22.5l-20 19q49 63 74 110.5t35 69.5zM295 427q25 0 52 1t50 2q22 2 38.5 3t24.5 2l-2.5 -60.5t-1.5 -85.5v-118q0 -46 1 -76t3 -48
q1 -7 3 -11t9 -6t21 -2.5t38 -0.5l-3 -27q-18 -1 -40.5 -2.5t-45.5 -3.5t-41.5 -4.5l-32.5 -4.5q-1 20 -1.5 47t-0.5 48q-11 -15 -28.5 -32t-40.5 -30.5t-50.5 -22.5t-58.5 -9q-44 0 -66 14.5t-30 29.5q-13 22 -13 59q0 19 0.5 45.5l1 55l1 57.5t0.5 55q0 34 -0.5 53
t-1.5 30t-13 13.5t-50 2.5l4 27q23 0 47.5 1t45.5 3q41 3 65 6q-3 -20 -5.5 -67.5t-2.5 -134.5q-1 -67 0 -108t6 -59q4 -17 16.5 -26.5t34.5 -9.5q44 0 77.5 27.5t50.5 67.5q7 17 9 30t2 30v97q0 36 -0.5 59.5t-2.5 38.5q-1 6 -3.5 9t-10 4.5t-20 2.5t-33.5 1z" />
    <glyph glyph-name="udieresis" unicode="&#xfc;" horiz-adv-x="540" 
d="M356 633q22 0 34 -14t12 -36q0 -25 -15.5 -39t-35.5 -14q-17 0 -32 12t-15 38q0 23 14.5 38t36.5 15h1zM186 633q22 0 34 -14t12 -36q0 -26 -16 -39.5t-35 -13.5q-17 0 -32 12t-15 38q0 23 14.5 38t36.5 15h1zM295 427q25 0 52 1t50 2q22 2 38.5 3t24.5 2l-2.5 -60.5
t-1.5 -85.5v-118q0 -46 1 -76t3 -48q1 -7 3 -11t9 -6t21 -2.5t38 -0.5l-3 -27q-18 -1 -40.5 -2.5t-45.5 -3.5t-41.5 -4.5l-32.5 -4.5q-1 20 -1.5 47t-0.5 48q-11 -15 -28.5 -32t-40.5 -30.5t-50.5 -22.5t-58.5 -9q-44 0 -66 14.5t-30 29.5q-13 22 -13 59q0 19 0.5 45.5l1 55
l1 57.5t0.5 55q0 34 -0.5 53t-1.5 30t-13 13.5t-50 2.5l4 27q23 0 47.5 1t45.5 3q41 3 65 6q-3 -20 -5.5 -67.5t-2.5 -134.5q-1 -67 0 -108t6 -59q4 -17 16.5 -26.5t34.5 -9.5q44 0 77.5 27.5t50.5 67.5q7 17 9 30t2 30v97q0 36 -0.5 59.5t-2.5 38.5q-1 6 -3.5 9t-10 4.5
t-20 2.5t-33.5 1z" />
    <glyph glyph-name="ugrave" unicode="&#xf9;" horiz-adv-x="540" 
d="M286 485l-36.5 37.5l-34.5 34.5l-27.5 27.5l-16.5 16.5q-10 10 -16 24t-6 25q1 20 11 29.5t22 9.5q14 0 27.5 -9.5t21.5 -25.5q5 -11 15.5 -32l22 -44.5l22 -45t16.5 -32.5zM295 427q25 0 52 1t50 2q22 2 38.5 3t24.5 2l-2.5 -60.5t-1.5 -85.5v-118q0 -46 1 -76t3 -48
q1 -7 3 -11t9 -6t21 -2.5t38 -0.5l-3 -27q-18 -1 -40.5 -2.5t-45.5 -3.5t-41.5 -4.5l-32.5 -4.5q-1 20 -1.5 47t-0.5 48q-11 -15 -28.5 -32t-40.5 -30.5t-50.5 -22.5t-58.5 -9q-44 0 -66 14.5t-30 29.5q-13 22 -13 59q0 19 0.5 45.5l1 55l1 57.5t0.5 55q0 34 -0.5 53
t-1.5 30t-13 13.5t-50 2.5l4 27q23 0 47.5 1t45.5 3q41 3 65 6q-3 -20 -5.5 -67.5t-2.5 -134.5q-1 -67 0 -108t6 -59q4 -17 16.5 -26.5t34.5 -9.5q44 0 77.5 27.5t50.5 67.5q7 17 9 30t2 30v97q0 36 -0.5 59.5t-2.5 38.5q-1 6 -3.5 9t-10 4.5t-20 2.5t-33.5 1z" />
    <glyph glyph-name="ydieresis" unicode="&#xff;" horiz-adv-x="446" 
d="M333 633q22 0 34 -14t12 -36q0 -25 -15.5 -39t-35.5 -14q-17 0 -32 12t-15 38q0 23 14.5 38t36.5 15h1zM163 633q22 0 34 -14t12 -36q0 -26 -16 -39.5t-35 -13.5q-17 0 -32 12t-15 38q0 23 14.5 38t36.5 15h1zM-4 430q20 -1 45 -2t57 -1q29 0 58.5 1.5t50.5 1.5l4 -28
l-36 -4q-20 -3 -13 -23l27 -76l30 -80.5l27.5 -72t18.5 -50.5l22.5 66t24 74.5l21.5 71t15 55.5q5 20 -0.5 27t-25.5 9l-36 3l4 28q17 0 40.5 -1.5t45.5 -1.5q20 0 43 1.5t47 1.5l-2 -28q-16 -1 -27 -3t-19 -8t-14.5 -16.5t-13.5 -27.5q-14 -33 -32.5 -84.5l-39.5 -110
l-42 -120l-39 -114.5q-28 -85 -57 -124t-74 -39q-32 0 -49.5 17.5t-17.5 42.5q0 24 13.5 37t30.5 13q22 0 29 -20q5 -14 11 -22t17 -8q13 0 25 19t22.5 45.5t19.5 54.5l15 46q-6 7 -13 20t-13 28l-36 95l-37 96.5l-33 84t-24 56.5q-11 23 -20.5 30t-29.5 10l-22 2z" />
    <glyph glyph-name="lessequal" unicode="&#x2264;" horiz-adv-x="496" 
d="M424 56v-51h-353v51h353zM71 322l353 174v-59l-300 -143v-3l300 -141v-61l-353 175v58z" />
    <glyph glyph-name="greaterequal" unicode="&#x2265;" horiz-adv-x="496" 
d="M425 56v-51h-354v51h354zM425 263l-354 -174v59l300 143v3l-300 141v61l354 -175v-58z" />
    <glyph glyph-name="notequal" unicode="&#x2260;" horiz-adv-x="518" 
d="M288 351q14 28 25.5 53.5t22.5 47.5l21.5 -11l21.5 -11l-37 -79h124v-51h-148l-61 -129h209v-51h-233l-24.5 -53.5t-22.5 -47.5q-11 5 -22 11t-22 11l37 79h-126v51h151l60 129h-211v51h235z" />
    <glyph glyph-name="approxequal" unicode="&#x2248;" horiz-adv-x="522" 
d="M462 196q-15 -54 -41.5 -78t-72.5 -24q-25 0 -51 11t-59 29q-48 25 -72 25t-41.5 -13t-30.5 -48l-41 20q17 53 48 73t68 20q15 0 30 -4t29 -10t26 -12.5l20 -10.5q23 -12 42.5 -19.5t34.5 -7.5q10 0 19.5 2t18.5 9t16.5 20.5t13.5 35.5zM462 362q-15 -54 -41 -77.5
t-73 -23.5q-26 0 -53.5 11.5t-56.5 27.5q-23 12 -41 19t-31 7q-24 0 -41.5 -13.5t-30.5 -47.5l-41 19q17 53 48 73t68 20q14 0 29 -4t29 -9.5t26 -12l21 -11.5q22 -11 42 -18.5t34 -7.5q11 0 21 2.5t18.5 9.5t16 20t13.5 34z" />
    <glyph glyph-name="infinity" unicode="&#x221e;" horiz-adv-x="691" 
d="M504 143q39 0 62 25.5t23 65.5q0 42 -22 67t-61 25q-20 0 -38 -8.5t-33.5 -21.5t-30 -29l-27.5 -31l29.5 -34.5t29.5 -29.5t31 -21t36 -8h1zM192 143q20 0 37 7.5t32 19.5t29 27.5t27 31.5l-28 34t-29.5 31t-32.5 23t-38 9q-40 0 -63.5 -26.5t-23.5 -66.5q0 -42 25.5 -66
t63.5 -24h1zM503 95q-27 0 -48.5 8t-39.5 21.5t-34.5 31.5l-34.5 38l-32.5 -36t-36 -32t-42.5 -22.5t-52 -8.5q-28 0 -52 9t-41.5 27t-27.5 43.5t-10 58.5q0 28 10.5 53.5t29 44.5t44 30.5t55.5 11.5t52.5 -9t40.5 -24t33 -33t32 -36q16 19 33 37t36.5 32.5t42.5 23.5t51 9
q27 0 50.5 -10.5t41 -29t27 -44t9.5 -55.5q0 -28 -11 -53.5t-29.5 -44.5t-43.5 -30t-52 -11h-1z" />
    <glyph glyph-name="lozenge" unicode="&#x25ca;" horiz-adv-x="527" 
d="M261 594h-2q-6 -14 -16 -33.5l-21 -43l-23 -48.5l-24 -49l-59 -119l144 -290h2l150 284zM285 -43h-52l-180 339l180 348h57l185 -343z" />
    <glyph glyph-name="integral" unicode="&#x222b;" horiz-adv-x="345" 
d="M329 733q0 -17 -10.5 -26.5t-30.5 -9.5q-14 0 -20.5 6t-11.5 13.5t-11 13.5t-20 6q-17 0 -27.5 -30t-8.5 -85q2 -47 6 -110l8.5 -130.5t8.5 -134.5t5 -122q2 -70 -5.5 -130t-25 -103.5t-46 -68t-69.5 -24.5q-27 0 -43 12t-16 33q0 18 11.5 29.5t32.5 11.5q15 0 22 -5.5
t12 -12.5t11.5 -12.5t18.5 -5.5q22 0 29 38.5t5 104.5q-2 46 -5 101t-7 112t-7.5 113t-5.5 104q-9 184 27.5 271t114.5 87q26 0 42 -13t16 -32v-1z" />
    <glyph glyph-name="partialdiff" unicode="&#x2202;" horiz-adv-x="483" 
d="M215 14q23 0 43.5 19t37 52.5t28 79.5t17.5 100q-9 14 -32 29.5t-55 15.5q-30 0 -52.5 -12.5t-38 -35t-23.5 -53t-8 -65.5q0 -37 8 -62t20 -40t26.5 -21.5t27.5 -6.5h1zM58 569q-1 5 0 14.5t4 19.5t7 19t9 14q8 8 37.5 18.5t76.5 10.5q43 0 86 -21t77.5 -64t56 -108
t21.5 -152q0 -79 -16 -140.5t-45.5 -104t-71.5 -64.5t-94 -22q-84 0 -125 46.5t-41 120.5q0 39 13 73.5t38 60.5t60.5 41t80.5 15t73 -15.5t40 -30.5h2q2 16 3.5 45t1.5 48q0 117 -38 174.5t-110 57.5q-42 0 -78.5 -17.5t-59.5 -43.5z" />
    <glyph glyph-name="product" unicode="&#x220f;" horiz-adv-x="657" 
d="M114 461v71.5t-1 52.5q0 10 -3 16.5t-10.5 10.5t-22.5 5.5t-39 1.5v28q20 0 51.5 -1.5t67.5 -1.5h338q17 0 35.5 0.5l36 1t31.5 1t22 0.5v-28q-23 0 -37.5 -2t-22 -5.5t-10.5 -10t-3 -16.5q-2 -24 -2.5 -53t-0.5 -67v-359q0 -52 0.5 -87.5t2.5 -59.5q1 -9 3.5 -15
t10 -9.5t21.5 -5.5t38 -3l-2 -28q-27 1 -60 2t-66 1q-32 0 -63.5 -1t-55.5 -2l1 28q23 1 36.5 3t21 5.5t10.5 10t3 15.5t0.5 19.5t1 26t1 37.5t0.5 52v484q0 19 -4.5 24t-20.5 7q-14 2 -35.5 2h-59.5h-54.5t-36.5 -2q-17 -2 -22 -7.5t-5 -24.5v-483q0 -48 0.5 -80t2.5 -55
q0 -11 3 -17t11 -9.5t22 -5t37 -2.5v-28q-27 1 -59.5 2t-73.5 1q-32 0 -62 -1t-56 -2v28q24 0 38.5 2t22.5 5.5t10.5 10t3.5 15.5q2 19 3 52t1 95v355z" />
    <glyph glyph-name="radical" unicode="&#x221a;" horiz-adv-x="537" 
d="M325 -148h-24l-181 433l-67 -32l-10 30l133 62l100 -253q4 -10 9 -24.5l10.5 -31l11 -32t8.5 -27.5h2q1 8 3.5 22l5.5 30.5l6 33.5t6 29l134 687h43z" />
    <glyph glyph-name="summation" unicode="&#x2211;" horiz-adv-x="526" 
d="M34 645q26 0 68 -1.5t81 -1.5h124q50 0 86.5 2t50.5 4q-1 -10 -1.5 -30.5t-1 -44t0 -47.5t1.5 -41l-28 -1q-3 17 -9 39t-13 42q-5 12 -11.5 20.5t-19.5 14t-33.5 8t-52.5 2.5h-108q-20 0 -14 -14l147 -297l-33.5 -57.5l-48.5 -84l-51.5 -91l-43.5 -77.5q-4 -6 -2.5 -9
t12.5 -5q8 -2 17.5 -2.5t24 -1.5t36 -1h53.5q47 0 75.5 1t45 3.5t24.5 7t15 10.5q11 9 23.5 34t23.5 61l27 -7q-1 -11 -6.5 -37l-12 -55.5t-13.5 -56t-11 -36.5q-16 1 -30.5 2t-33.5 1.5t-45 1t-65 0.5h-79q-52 0 -100 -1.5t-74 -1.5v21l45.5 73l56 93l54 91.5l39.5 67.5
l-190 380v22z" />
    <glyph glyph-name="Delta" unicode="&#x2206;" horiz-adv-x="558" 
d="M256 556l-29.5 -88.5l-42 -125.5l-45.5 -138l-40 -126q-2 -9 -0.5 -18.5t15.5 -13.5q13 -3 45.5 -4.5t90.5 -1.5q59 0 89.5 1t44.5 3q12 2 17.5 6.5t0.5 21.5l-22 75.5l-27.5 92l-29.5 97.5l-28.5 92.5l-23.5 77zM524 -3q-17 0 -68.5 2t-126.5 1h-119.5h-83h-55h-36.5v27
q10 26 26 71.5l35 99l39.5 111.5l39 109.5l33 92.5l21.5 61q5 14 8.5 29t5.5 27q7 0 18.5 2l23.5 4t23 5t16 5l44 -148l52 -164l54 -162.5l50 -143.5v-29z" />
    <glyph glyph-name="Omega" unicode="&#x2126;" horiz-adv-x="699" 
d="M261 69q-35 14 -69.5 37t-62 57.5t-44.5 82.5t-17 112q0 69 21 123t59 91t91 56.5t117 19.5q62 0 113 -19t87 -55.5t56 -89.5t20 -121q0 -67 -18 -114.5t-46 -81.5t-63 -57t-69 -41v-5h85q30 0 48.5 2.5t31 11.5t21 26t17.5 46l27 -4q-1 -12 -5 -33t-10 -44t-12.5 -43
t-10.5 -29q-10 0 -17 0.5t-15.5 1t-20.5 1t-33 0.5h-168l-5 6q5 12 10.5 33.5t8.5 34.5q28 17 52.5 41.5t43 59t29 80t10.5 103.5q0 126 -45 193.5t-127 67.5q-38 0 -70 -16.5t-55 -49.5t-36 -83.5t-13 -117.5q0 -107 36 -174t94 -104q3 -12 7.5 -34t7.5 -34l-3 -6h-163
q-21 0 -34.5 -0.5t-23.5 -1t-18 -1t-18 -0.5q-4 10 -8.5 30l-9 42t-7.5 42.5t-4 31.5l29 6q10 -30 19 -47t22 -25.5t33 -10.5t52 -2h73v5z" />
    <glyph glyph-name="pi" unicode="&#x3c0;" horiz-adv-x="480" 
d="M154 378v-38.5v-70t-0.5 -80t-0.5 -66.5q-1 -45 -8.5 -72.5t-19 -41.5t-25.5 -18.5t-26 -4.5q-20 0 -33.5 10.5t-13.5 32.5q0 14 5.5 21.5t13.5 5.5q5 -1 11 -2t14 -1q9 0 17 3t13 12t8.5 25t3.5 43q0 28 0.5 61t0.5 66t-0.5 63t-1.5 52q-43 0 -65.5 -6t-39.5 -11
q-1 4 -3.5 12.5t-4.5 13.5q22 16 60.5 28t86.5 12h200q7 0 23 1t34 2t33.5 2.5t20.5 1.5l-7 -59l-38 2t-36 1v-309q0 -23 3.5 -32t15.5 -9q11 0 26 15t23 50l24 -19q-17 -51 -45.5 -69.5t-59.5 -18.5q-40 0 -58 19.5t-18 77.5v295h-133z" />
    <glyph glyph-name="uni00A0" unicode="&#xa0;" horiz-adv-x="207" 
 />
    <glyph glyph-name="quotedbl" unicode="&#x22;" horiz-adv-x="306" 
d="M105 708q7 0 12 -5.5t8 -13t4.5 -16t1.5 -14.5q0 -16 -5 -40t-12.5 -49l-15 -48t-13.5 -37h-23q-1 25 -3.5 53.5t-6 55.5t-8 49.5t-8.5 34.5q3 4 11.5 9t18 9.5t20 8t18.5 3.5h1zM245 708q7 0 12 -5.5t8 -13t4.5 -16t1.5 -14.5q0 -16 -5 -40t-12.5 -49t-15.5 -48l-13 -37
h-23q-1 25 -3.5 53.5t-6 55.5t-8 49.5t-8.5 34.5q3 4 11.5 9t18 9.5t20 8t18.5 3.5h1z" />
    <glyph glyph-name="exclam" unicode="!" horiz-adv-x="220" 
d="M110 -14q-23 0 -40.5 18t-17.5 46q0 27 18 45t43 18t42.5 -18t17.5 -45q0 -28 -17 -46t-45 -18h-1zM111 656q11 0 22.5 -7.5t20.5 -18.5t14.5 -24.5t5.5 -26.5q0 -17 -3.5 -37.5t-9.5 -43.5q-9 -37 -15.5 -76.5t-11 -77.5t-7 -74t-2.5 -66h-31q0 30 -2.5 65.5t-7 74
t-11 77.5t-15.5 77q-6 23 -9.5 43t-3.5 38q0 16 7 30.5t17.5 24.5t21.5 16t19 6h1z" />
    <glyph glyph-name="Lslash" unicode="&#x141;" horiz-adv-x="545" 
d="M47 634q9 0 24.5 -0.5t33.5 -1l36 -1t30 -0.5q26 0 59.5 1.5t71.5 1.5l3 -28l-55 -4q-15 -2 -21 -7t-7 -18q-2 -27 -3 -60t-1 -89v-77l61 36.5l54 33.5l22 -28l-25 -14l-34.5 -20l-39 -22.5l-38.5 -21.5v-103v-49.5t0.5 -48t1 -40t1.5 -27.5q0 -5 2.5 -8t9.5 -4.5
t21.5 -2.5t38.5 -1q40 0 66.5 1.5t44.5 5.5t29 11.5t19 19.5q15 22 26 51.5t19 64.5l27 -2q-3 -17 -5.5 -39.5t-5 -47.5l-5 -51t-5.5 -50q-14 2 -46 2.5t-77 2.5q-45 0 -99 0.5t-109 0.5q-16 0 -37 -0.5l-41 -1t-37.5 -1t-26.5 -0.5v26l54 6q17 2 23.5 7t7.5 17
q2 23 3.5 61.5t1.5 83.5v64l-36 -22l-38 -23l-21 28q18 11 43 25l52 30v149q0 59 -0.5 87.5t-1.5 44.5q0 11 -5.5 15.5t-21.5 5.5l-45 3z" />
    <glyph glyph-name="lslash" unicode="&#x142;" horiz-adv-x="268" 
d="M31 673q48 0 87.5 4t70.5 8q-1 -28 -2.5 -77.5t-1.5 -122.5v-68l32 22.5l28 19.5l21 -29q-5 -3 -15 -9.5l-22 -14l-23.5 -15l-20.5 -13.5v-155v-67.5t0.5 -48t1 -32.5t0.5 -22q1 -9 3.5 -14t9.5 -8t19.5 -4t32.5 -2l-3 -28q-27 1 -57 2t-64 1q-35 0 -61.5 -1.5
t-43.5 -1.5v28q22 1 35 2.5t20 5t9.5 9t3.5 13.5q1 14 3 61.5t2 112.5v99l-26 -18l-29 -20l-22 30l39.5 23.5t37.5 23.5v123v54v37.5t-0.5 26t-1.5 19.5q0 6 -2 10t-8.5 6t-19 2.5t-34.5 0.5z" />
    <glyph glyph-name="Eth" unicode="&#xd0;" horiz-adv-x="693" 
d="M378 309q-17 0 -62 1.5t-97 1.5v-87v-74t0.5 -49.5t1 -31.5t1.5 -21q1 -11 13 -16.5t53 -5.5q78 0 122.5 21t69.5 55t41 90t16 138q0 75 -16 127t-42 81q-28 31 -70 47.5t-113 16.5q-24 0 -38.5 -1.5t-22 -4t-10 -6t-2.5 -7.5q-1 -6 -1.5 -16.5t-1 -28.5t-1 -44.5
t-0.5 -65.5v-82q54 0 93.5 1t71.5 3zM31 351q15 -1 39 -2t51 -1v86q0 59 -0.5 93t-1.5 50q0 23 -23 24l-61 7l2 27q8 0 22.5 -0.5t32 -1.5t35.5 -1.5t34 -0.5q37 1 76 2.5t81 1.5q81 0 129.5 -10.5t78.5 -29.5q58 -35 90.5 -99.5t32.5 -159.5q0 -50 -9 -96t-29.5 -85.5
t-53 -71.5t-78.5 -54q-35 -16 -81 -24t-98 -8q-18 0 -35.5 0.5t-35.5 0.5q-18 1 -37 1.5t-37 0.5q-15 0 -33.5 -0.5l-36.5 -1t-33 -1t-22 -0.5v28l46 4q22 2 30 8t9 19q1 16 3.5 61.5t2.5 111.5v84q-25 0 -48 -0.5t-47 -2.5z" />
    <glyph glyph-name="onehalf" unicode="&#xbd;" horiz-adv-x="777" 
d="M731 134q-14 -49 -19 -75.5t-6 -38.5q-6 0 -16.5 0.5t-32.5 1t-57.5 1t-90.5 0.5h-46t-37 -2l-2 6q3 8 7.5 19t9.5 20q65 37 109 77t59 75q6 16 9 30t3 33q0 27 -13 50.5t-48 23.5q-34 0 -47.5 -19t-13.5 -48q0 -5 1 -13t3 -13q2 -11 -8 -17q-8 -8 -24 -8q-38 0 -38 43
q0 17 11 36t29 33t44 23t58 9q28 0 50.5 -6.5t36.5 -15.5q21 -15 31.5 -37.5t10.5 -48.5q0 -48 -39 -84q-17 -16 -56.5 -44.5t-95.5 -65.5l113 3t46 3q8 0 11.5 3t6.5 8q2 6 8 20t10 26zM597 646l-88 -133.5l-106.5 -164.5l-117 -183.5l-118.5 -190.5l-30 26l111.5 171.5
l117.5 181.5l109.5 172l89.5 143zM270 275q-38 0 -65.5 1t-48.5 1q-27 0 -52.5 -1t-51.5 -1l-3 25l52 4q13 2 17.5 6.5t5.5 12.5q1 14 2 35t1 53v85q0 30 -0.5 50.5t-1.5 35.5q-2 9 -9 8q-8 -2 -26 -5l-36 -6l5 29q15 2 35.5 5.5t41 7.5t38 8t25.5 7l4 -2q0 -15 -1.5 -46.5
t-1.5 -87.5v-89q0 -32 0.5 -51.5t2.5 -37.5q0 -15 17 -17l49 -5z" />
    <glyph glyph-name="Thorn" unicode="&#xde;" horiz-adv-x="564" 
d="M207 183q12 -8 32.5 -13t46.5 -5q68 0 99 44q14 20 22.5 50.5t8.5 71.5q0 38 -8 67.5t-25 47.5q-18 20 -45.5 28.5t-69.5 8.5q-20 0 -31.5 -1.5t-17.5 -3.5t-8 -5t-2 -7q-1 -11 -1.5 -29t-0.5 -44v-210zM110 444v83t-1 46q0 20 -16 26t-65 8l4 28q19 -1 51.5 -2t70.5 -1
q36 0 69 1.5t62 1.5l1 -28q-25 0 -39.5 -2t-22 -5.5t-10 -9t-3.5 -12.5q-1 -13 -1.5 -29.5t-0.5 -39.5q22 2 45.5 3.5t61.5 1.5q61 0 99.5 -13.5t59.5 -34.5q49 -47 49 -133q0 -48 -15.5 -83t-41.5 -61q-30 -29 -76 -43t-97 -14q-26 0 -49 3.5t-38 7.5v-40.5t2 -42.5
q0 -10 2.5 -16t11 -9.5t26 -5.5t48.5 -4l-1 -28q-32 0 -70 1.5t-74 1.5q-29 0 -64.5 -1t-64.5 -2l2 28q26 2 41.5 4t23.5 5.5t11 10.5t4 18q2 26 3.5 60.5t1.5 83.5v237z" />
    <glyph glyph-name="onequarter" unicode="&#xbc;" horiz-adv-x="777" 
d="M570 145q1 19 1.5 43l1 48t0.5 46.5v39.5l-74.5 -87.5l-65.5 -79.5q11 -3 47 -6.5t90 -3.5zM380 145l57 62l55 61.5l47 53.5t33 39q16 3 36 8.5t35 10.5l5 -3q-1 -15 -1.5 -39.5t-1 -52l-1 -56t-0.5 -50.5v-33q29 2 46.5 6.5t26.5 9.5v-22q-9 -8 -28 -15t-45 -11
q0 -19 0.5 -42.5t1.5 -47.5q-23 0 -43 -2.5t-34 -7.5l-4 3q2 17 2.5 40t1.5 55q-29 0 -58.5 1t-54.5 3t-43.5 4t-25.5 5zM617 646l-88 -133.5l-106.5 -164.5l-116.5 -183.5l-118 -190.5l-30 26l111.5 171.5l117 181.5l109 172l88.5 143zM286 275q-38 0 -65.5 1t-48.5 1
q-27 0 -52.5 -1t-51.5 -1l-3 25l52 4q13 2 17.5 6.5t5.5 11.5q1 14 2 35.5t1 53.5v85q0 30 -0.5 50.5t-1.5 35.5q-2 9 -9 8q-8 -2 -26 -5l-36 -6l5 29q15 2 35.5 5.5t41 7.5t38 8t25.5 7l4 -2q0 -15 -1.5 -46.5t-1.5 -87.5v-89q0 -33 0.5 -52.5t2.5 -37.5q0 -14 17 -16
l49 -5z" />
    <glyph glyph-name="brokenbar" unicode="&#xa6;" horiz-adv-x="252" 
d="M93 175h67v-350h-67v350zM160 675v-350h-67v350h67z" />
    <glyph glyph-name="thorn" unicode="&#xfe;" horiz-adv-x="527" 
d="M268 17q36 0 60 20t37.5 50.5t19 67.5t5.5 71q0 39 -8 72.5t-20 52.5q-14 19 -33.5 30t-45.5 11q-36 0 -64 -19t-45 -56q-5 -10 -7 -20.5t-2 -26.5q-2 -53 -2 -93t1 -77q2 -24 11 -37q16 -22 39.5 -34t52.5 -12h1zM-5 -208q23 1 37.5 3t22.5 5t11 7.5t3 12.5q2 23 4 70
t2 130v465q0 59 -0.5 88.5t-2.5 46.5q0 5 -2.5 8.5t-10 5t-21.5 2t-36 -0.5l5 27q13 0 35.5 1.5t46 3.5t45 4.5t34.5 5.5q0 -11 -0.5 -32.5t-1 -58t-1 -91t-0.5 -130.5q37 33 77 54.5t84 21.5q41 0 68 -12.5t47 -35.5t34 -64t14 -92q0 -56 -14.5 -102t-42 -79t-68.5 -51.5
t-95 -18.5q-28 0 -58 8t-48 24q0 -63 0.5 -107t2.5 -85q1 -10 3.5 -16t11 -9t24 -4.5t41.5 -2.5l-5 -27q-20 0 -51.5 1t-75.5 1q-45 0 -75 -1.5l-50 -2.5z" />
    <glyph glyph-name="threequarters" unicode="&#xbe;" horiz-adv-x="777" 
d="M589 145q1 19 1.5 43l1 48t0.5 46.5v39.5l-74.5 -88l-65.5 -79q10 -3 46.5 -6.5t90.5 -3.5zM398 145l57.5 62l55.5 61l47 53.5l33 39.5q16 3 36 9t35 11l5 -4q-1 -15 -1.5 -39.5t-1 -52l-1 -56t-0.5 -50.5v-33q29 2 46.5 6.5t26.5 9.5v-22q-9 -8 -28 -15t-45 -11
q0 -19 0.5 -42.5t1.5 -47.5q-23 0 -43 -2.5t-34 -7.5l-4 3q2 17 2.5 40t1.5 55q-29 0 -58.5 1t-54.5 3t-44 4t-26 5zM643 645l-89 -133.5l-106 -164l-116.5 -183l-118.5 -190.5l-30 27l73.5 111.5l77.5 119l77.5 121l74.5 117l67.5 107l56.5 91.5zM194 635q20 0 42 -4.5
t40 -14.5t30 -26t12 -40q0 -22 -11.5 -36t-26.5 -22q-14 -8 -28 -13t-33 -10v-3q32 -2 57 -9t40 -20q26 -20 26 -58q0 -26 -13 -45.5t-29 -31.5q-17 -12 -48.5 -22.5t-74.5 -10.5q-28 0 -53 6t-43.5 16.5t-29 25t-10.5 31.5q0 14 11 25.5t28 11.5q12 0 17 -6.5t10 -20.5
q17 -63 76 -63q38 0 56 21.5t18 56.5q0 30 -17.5 52t-64.5 22q-11 0 -22.5 -1.5t-19.5 -4.5l-15 19l3 8l31.5 4.5t30.5 7.5q19 7 37.5 21t18.5 47q0 24 -15.5 42t-45.5 18q-35 0 -49.5 -16.5t-14.5 -39.5q0 -5 0.5 -11.5t1.5 -11.5q1 -7 -6.5 -12t-18.5 -5q-17 0 -27 9
t-10 27q0 13 9 28.5t26.5 28.5t43.5 21.5t60 8.5h1z" />
    <glyph glyph-name="minus" unicode="&#x2212;" horiz-adv-x="518" 
d="M466 262v-51h-413v51h413z" />
    <glyph glyph-name="eth" unicode="&#xf0;" horiz-adv-x="512" 
d="M263 411q-60 1 -91 -52q-14 -25 -22 -61.5t-8 -80.5q0 -83 23 -138q14 -32 38 -47.5t53 -15.5q30 0 50.5 13.5t36.5 45.5q12 24 20 70t8 106q0 64 -10 98q-12 28 -37.5 44.5t-60.5 17.5zM109 673q53 2 111.5 -16.5t107.5 -53.5l59.5 33l48.5 26l15 -34l-40 -20l-56 -29
q57 -55 85.5 -136t28.5 -176q0 -140 -59.5 -210.5t-162.5 -70.5q-49 0 -87.5 15.5t-65.5 44t-41.5 68.5t-14.5 90q0 51 16.5 94.5t46 75t70 49.5t88.5 18q29 0 52.5 -6.5t46.5 -23.5q-6 38 -21 73.5t-41 64.5l-75.5 -38.5l-70.5 -38.5l-16 35l77 37.5l60 30.5
q-35 33 -77.5 50.5t-90.5 19.5z" />
    <glyph glyph-name="multiply" unicode="&#xd7;" horiz-adv-x="518" 
d="M294 230l166 -168l-37 -39l-164 171l-164 -171l-37 39l166 168l-166 167l37 39l164 -169l164 171l37 -40z" />
    <glyph glyph-name="Scaron" unicode="&#x160;" horiz-adv-x="487" 
d="M235 687q-10 19 -42.5 54t-83.5 66l15 25q14 -5 31 -12t33.5 -15t32 -16.5l27.5 -15.5q25 15 59.5 32t63.5 27l15 -25q-56 -35 -84.5 -66t-42.5 -51zM78 209q-3 -94 36.5 -143.5t116.5 -49.5q25 0 48 7t40 22t27 37.5t10 53.5q0 64 -54 96q-11 7 -30 16.5l-41 21l-44 23
t-39 21.5q-51 29 -72.5 68t-21.5 87q0 41 14.5 74t40 56.5t61.5 36t79 12.5t78 -11.5t52 -28.5l17 44l25 -6q-5 -29 -8.5 -58t-5 -54.5t-2 -46.5t-0.5 -34l-27 -3q0 43 -10.5 74.5t-28.5 52t-42 30.5t-51 10q-50 0 -78.5 -30.5t-28.5 -83.5q0 -34 15.5 -60t53.5 -46
l94.5 -50t66.5 -37q39 -22 59 -54t20 -81q0 -48 -18.5 -84t-50 -60t-73.5 -35.5t-89 -11.5q-23 0 -47.5 3.5t-47.5 9t-43.5 12.5t-35.5 14q2 21 3.5 44.5t2.5 47.5t1.5 46.5t0.5 41.5z" />
    <glyph glyph-name="Yacute" unicode="&#xdd;" horiz-adv-x="556" 
d="M230 705l30.5 22l41.5 31.5l39.5 31l26.5 20.5q11 8 25 12t25 2q14 -2 22.5 -11.5t6.5 -26.5t-16.5 -29.5t-31.5 -19.5t-56.5 -20.5l-97.5 -33.5zM437 -3q-47 1 -85 2t-79 1q-38 0 -72.5 -1.5t-70.5 -1.5l-4 28l35 4t34 4q19 2 27 9.5t9 24.5q1 13 2 36.5t1.5 51l1 54.5
t0.5 48q0 14 -3 25.5t-10 24.5q-7 15 -24.5 47.5l-39 69.5l-43.5 73.5l-37 60.5q-10 15 -18 24.5t-18.5 14.5t-24.5 6.5t-35 2.5l-1 28q7 0 20 -0.5t29 -1t34 -1t35 -0.5q42 0 74 1.5t58 1.5l4 -28l-45 -4q-20 -1 -9 -21q8 -18 24.5 -49l36 -67l39.5 -72.5l36 -65.5
q52 93 81.5 151t44.5 93q7 16 5 22t-13 7q-26 5 -56 6l3 28q17 0 47.5 -1.5t56.5 -1.5q23 0 47.5 1.5t50.5 1.5l2 -28q-22 -1 -36.5 -3.5t-25 -7.5t-19.5 -14t-19 -24q-13 -20 -31 -50.5l-37.5 -64l-38.5 -67.5l-33 -61q-7 -13 -9.5 -24.5t-2.5 -24.5q-1 -22 -1 -51.5
t0.5 -59.5t1 -57t2.5 -43q1 -10 6 -15t19 -6q11 -2 28.5 -4t41.5 -4z" />
    <glyph glyph-name="Zcaron" unicode="&#x17d;" horiz-adv-x="599" 
d="M292 681q-10 19 -42.5 54t-83.5 66l15 25q14 -5 31 -12t33.5 -15t32 -16.5l27.5 -15.5q25 15 59.5 32t63.5 27l15 -25q-56 -35 -84.5 -66t-42.5 -51zM312 631h135q28 0 52 1l47 2q-8 -28 -13 -39t-10 -19l-56 -87l-105 -159l-65 -98.5l-52.5 -79l-43 -65t-35.5 -56.5
q73 -1 124.5 -0.5t86.5 2.5t56 5.5t33.5 9.5t19.5 14.5t13 19.5q14 25 24 57t19 67l26 -8l-5 -37t-6 -48.5t-5.5 -57t-3.5 -61.5q-20 2 -46 3t-55 2q-30 1 -61 1h-66h-189h-28.5t-21.5 -0.5l-19.5 -1t-21.5 -1.5l-8 17l54.5 79l67.5 98.5l74 109l73.5 110.5l67 103l53.5 86
h-124q-55 0 -88 -3t-52.5 -10t-29 -18.5t-15.5 -27.5q-10 -23 -17 -49.5l-15 -59.5l-25 7q4 25 7.5 53t5 55t1.5 51t-2 41q14 -4 30 -5.5t40 -1.5q22 -1 55.5 -1h88.5h30z" />
    <glyph glyph-name="scaron" unicode="&#x161;" horiz-adv-x="401" 
d="M193 486q-10 25 -35 73.5t-73 112.5l21 18l23.5 -21.5t27 -27l26.5 -29.5t23 -28q10 13 23 28t26.5 29l26.5 27t24 22l20 -18q-49 -63 -74.5 -111t-34.5 -69zM308 282q-4 57 -33.5 93t-77.5 36q-34 0 -54 -19.5t-20 -51.5q0 -22 10.5 -35t27.5 -22q12 -6 28.5 -13t35 -14
l36.5 -14t32 -14q38 -17 55 -42.5t17 -59.5q0 -37 -16 -63.5t-41.5 -43.5t-57.5 -25t-64 -8q-41 0 -79.5 9.5t-59.5 19.5q0 9 0.5 25t1 36t0.5 42t-1 43l25 4q2 -16 6 -37.5t12 -41.5q14 -35 42 -52t66 -17q42 0 65 20t23 53q0 18 -8 32t-28 24l-59.5 26.5l-59.5 25.5
q-38 16 -59 41.5t-21 67.5q0 32 12 57t32.5 42t48.5 26t60 9q31 0 58.5 -8t38.5 -18l12 34l26 -8q-5 -39 -6.5 -80t0.5 -73z" />
    <glyph glyph-name="yacute" unicode="&#xfd;" horiz-adv-x="446" 
d="M201 501l20.5 32.5l27.5 45.5l26.5 45t18.5 30q12 18 26 26.5t28 8.5t21.5 -9.5t7.5 -24.5q0 -14 -10 -30t-21 -27l-48 -43l-76 -70zM-4 430q20 -1 45 -2t57 -1q29 0 58.5 1.5t50.5 1.5l4 -28l-36 -4q-20 -3 -13 -23l27 -76l30 -80.5l27.5 -72t18.5 -50.5l22.5 66
t24 74.5l21.5 71t15 55.5q5 20 -0.5 27t-25.5 9l-36 3l4 28q17 0 40.5 -1.5t45.5 -1.5q20 0 43 1.5t47 1.5l-2 -28q-16 -1 -27 -3t-19 -8t-14.5 -16.5t-13.5 -27.5q-14 -33 -32.5 -84.5l-39.5 -110l-42 -120l-39 -114.5q-28 -85 -57 -124t-74 -39q-32 0 -49.5 17.5
t-17.5 42.5q0 24 13.5 37t30.5 13q22 0 29 -20q5 -14 11 -22t17 -8q13 0 25 19t22.5 45.5t19.5 54.5l15 46q-6 7 -13 20t-13 28l-36 95l-37 96.5l-33 84t-24 56.5q-11 23 -20.5 30t-29.5 10l-22 2z" />
    <glyph glyph-name="zcaron" unicode="&#x17e;" horiz-adv-x="451" 
d="M227 486q-10 25 -35 73.5t-73 112.5l21 18l23.5 -21.5t27 -27l26.5 -29.5t23 -28q10 13 23 28t26.5 29l26.5 27t24 22l20 -18q-49 -63 -74.5 -111t-34.5 -69zM51 271q2 30 6.5 75.5t3.5 90.5q7 -2 16.5 -4t23.5 -4q14 -1 31 -1.5t38 -0.5h85q28 0 50 0.5t39.5 1t32 1
t29.5 0.5q-2 -15 -9 -30t-16 -29l-21 -32.5l-35.5 -55l-44.5 -67.5l-47 -71l-43 -65.5l-33 -50.5q60 0 99 2t61 5q15 2 26.5 8.5t21.5 21t18 38.5t16 62l26 -7q-3 -16 -5.5 -37l-5 -43.5t-4 -44.5t-2.5 -39q-13 2 -39.5 2.5t-61.5 1.5t-75.5 1h-81.5q-44 0 -67.5 -0.5
t-37.5 -1.5l-11 19q40 49 81.5 107.5l77 112.5l62 97.5t35.5 62.5q-31 0 -63 -0.5t-61 -3.5q-30 -3 -44 -10.5t-23 -32.5q-8 -19 -12 -37.5t-9 -36.5z" />
    <glyph glyph-name="twodotenleader" unicode="&#x2025;" horiz-adv-x="543" 
d="M410 116q27 0 43.5 -19t16.5 -46q0 -29 -17.5 -47t-43.5 -18t-43.5 18t-17.5 47q0 28 18 46.5t43 18.5h1zM136 116q27 0 43.5 -19t16.5 -46q0 -29 -17.5 -47t-43.5 -18t-43.5 18t-17.5 47q0 28 18 46.5t43 18.5h1z" />
    <glyph glyph-name="onedotenleader" unicode="&#x2024;" horiz-adv-x="415" 
d="M209 116q27 0 43.5 -19t16.5 -46q0 -29 -17.5 -47t-43.5 -18t-43.5 18t-17.5 47q0 28 18 46.5t43 18.5h1z" />
    <glyph glyph-name="colonmonetary" unicode="&#x20a1;" horiz-adv-x="481" 
d="M322 590q-22 5 -47 2l-22 -271.5t-20 -269.5q11 -5 24.5 -7.5t22.5 -1.5l22 271.5t20 276.5zM354 614q17 -4 34.5 -11.5t31.5 -19.5t23 -29t9 -38q0 -30 -13.5 -41.5t-27.5 -11.5q-11 0 -19 6q-10 8 -7 18l4 16t2 18q0 20 -8.5 36.5t-32.5 25.5q-11 -131 -21 -269.5
t-18 -271.5q44 6 74.5 32.5t47.5 81.5l24 -12q-8 -33 -23.5 -57t-35.5 -40.5t-43 -26t-47 -13.5l-6 -86l-32 -9l8 91q-25 -2 -48 3q-2 -22 -3 -42t-3 -43l-33 -9l10 100q-49 12 -81.5 42t-52.5 69.5t-28.5 85t-8.5 90.5q0 53 13 106t39.5 96.5t68 74.5t98.5 41l4 76l33 6
l-8 -79q13 1 26 0.5t21 -2.5l4 75l33 6zM131 303q0 -36 4 -72t13 -68.5t23 -58t34 -39.5q11 126 21.5 260.5l19.5 259.5q-36 -11 -58.5 -43t-35 -73t-17 -85.5t-4.5 -79.5v-1z" />
    <glyph glyph-name="figuredash" unicode="&#x2012;" horiz-adv-x="313" 
d="M47 346q57 -2 112 -2t118 2l-11 -62q-121 3 -231 0z" />
    <glyph glyph-name="oneeighth" unicode="&#x215b;" horiz-adv-x="777" 
d="M583 42q13 0 26 3t24 9.5t18 17.5t7 26q0 25 -27.5 43t-93.5 41q-20 -8 -33.5 -23.5t-13.5 -40.5q0 -27 22.5 -51.5t69.5 -24.5h1zM572 355q-26 0 -45 -14.5t-19 -38.5q0 -14 6 -24t20 -19q15 -9 35.5 -16.5l41.5 -15.5q39 23 39 61q0 34 -22.5 50.5t-54.5 16.5h-1z
M585 382q20 0 41.5 -5t39 -15.5t28.5 -27t11 -40.5q0 -16 -6.5 -27.5t-16.5 -19.5q-9 -8 -20.5 -15l-25.5 -16q28 -11 46 -22t27.5 -22.5t13 -24t3.5 -26.5q0 -24 -11.5 -42t-29.5 -31q-20 -14 -51 -23t-65 -9q-65 0 -103.5 25.5t-38.5 68.5q0 17 7.5 29.5t19.5 21.5
q11 8 22.5 15t32.5 18q-35 16 -49.5 36t-14.5 48q0 18 7 33.5t19 28.5q15 17 43 29.5t70 12.5h1zM604 646l-88 -133.5l-106.5 -164.5l-116.5 -183.5l-118 -190.5l-30 27l73.5 111.5l77.5 119l77.5 121l74.5 117l67.5 107l56.5 91.5zM276 275q-38 0 -65.5 1t-48.5 1
q-27 0 -52.5 -1t-51.5 -1l-3 25l52 4q13 2 17.5 6.5t5.5 12.5q1 14 2 35.5t1 53.5v84q0 30 -0.5 50.5t-1.5 35.5q-2 9 -9 8q-8 -2 -26 -5l-36 -6l5 29q15 2 35.5 5.5t41 7.5t38 8t25.5 7l4 -2q0 -15 -1.5 -46.5t-1.5 -87.5v-89q0 -33 0.5 -52t2.5 -38q0 -14 17 -16l49 -5z
" />
    <glyph glyph-name="threeeighths" unicode="&#x215c;" horiz-adv-x="777" 
d="M594 42q13 0 26 3t24 9.5t18 17.5t7 26q0 25 -27 43t-93 41q-20 -8 -33.5 -24t-13.5 -41q0 -13 5.5 -26.5t16.5 -24t28.5 -17.5t40.5 -7h1zM584 355q-26 0 -45 -14.5t-19 -38.5q0 -14 6 -24t20 -19q15 -9 35.5 -17t40.5 -15q39 22 39 61q0 34 -22 50.5t-54 16.5h-1z
M597 382q20 0 41 -5t38.5 -15.5t28.5 -27t11 -40.5q0 -17 -6.5 -28t-16.5 -19q-9 -8 -20.5 -15l-25.5 -16q28 -11 46 -22t27.5 -22.5t13 -24t3.5 -26.5q0 -24 -11.5 -42t-29.5 -31q-20 -14 -51 -23t-64 -9q-65 0 -103.5 25.5t-38.5 68.5q0 17 7.5 29.5t19.5 21.5
q11 8 22.5 15t32.5 18q-35 16 -49.5 35.5t-14.5 47.5q0 19 7 35t19 29q15 17 43 29t70 12h1zM621 645l-88 -133.5l-106.5 -164l-116.5 -183l-118 -190.5l-30 27l73.5 111.5l77.5 119l77.5 121l74.5 117l67.5 107l56.5 91.5zM188 635q20 0 42 -4.5t40 -14.5t30 -26t12 -40
q0 -22 -11.5 -36t-26.5 -22q-14 -8 -28 -13t-33 -10v-3q32 -2 57 -9t40 -20q26 -20 26 -58q0 -26 -13 -45.5t-29 -31.5q-17 -12 -48.5 -22.5t-74.5 -10.5q-28 0 -53 6t-43.5 16.5t-29 25t-10.5 31.5q0 14 11 25.5t28 11.5q12 0 17 -6.5t10 -20.5q17 -63 76 -63q38 0 56 22
t18 57q0 29 -17.5 51t-64.5 22q-11 0 -22.5 -1.5t-19.5 -4.5l-15 19l3 8l31.5 4.5t30.5 7.5q19 7 37.5 21t18.5 47q0 24 -15.5 42t-45.5 18q-35 0 -49.5 -16.5t-14.5 -39.5q0 -5 0.5 -11.5t1.5 -11.5q1 -7 -6.5 -12t-18.5 -5q-17 0 -27 9t-10 27q0 13 9 28.5t26.5 28.5
t43.5 21.5t60 8.5h1z" />
    <glyph glyph-name="fiveeighths" unicode="&#x215d;" horiz-adv-x="777" 
d="M594 42q13 0 26 3t24 9.5t18 17.5t7 26q0 25 -27 43t-93 41q-20 -8 -33.5 -24t-13.5 -41q0 -13 5.5 -26.5t16.5 -24t28.5 -17.5t40.5 -7h1zM584 355q-26 0 -45 -14.5t-19 -38.5q0 -14 6 -24t20 -19q15 -9 35.5 -17t40.5 -15q39 22 39 61q0 34 -22 50.5t-54 16.5h-1z
M597 382q20 0 41 -5t38.5 -15.5t28.5 -27t11 -40.5q0 -17 -6.5 -28t-16.5 -19q-9 -8 -20.5 -15l-25.5 -16q28 -12 46 -23t27.5 -22.5t13 -23.5t3.5 -26q0 -24 -11.5 -42t-29.5 -31q-20 -14 -51 -23t-64 -9q-65 0 -103.5 25.5t-38.5 68.5q0 17 7.5 29.5t19.5 21.5
q11 8 22.5 15t32.5 17q-35 17 -49.5 36.5t-14.5 47.5q0 18 7 34t19 29q15 17 43 29.5t70 12.5h1zM622 645l-88 -133.5l-106 -164l-116.5 -183l-118.5 -190.5l-30 27l111.5 170l117 181l109 172.5l89.5 143.5zM60 435q6 17 12 46.5t10 60t6 56t1 35.5q14 -5 44.5 -9t66.5 -4
q51 0 77 6t41 26l14 -13q-8 -24 -23 -40.5t-29 -23.5q-28 -14 -86 -14q-24 0 -47 1.5t-32 3.5l-4.5 -23.5l-5 -27.5t-5.5 -28t-6 -24q17 12 45 22.5t63 10.5q28 0 52.5 -5.5t43 -18.5t29 -33t10.5 -48q0 -20 -7.5 -40t-21.5 -36q-18 -19 -52.5 -32.5t-83.5 -13.5
q-57 0 -94 21.5t-37 55.5q0 14 11 25t29 11q11 0 16 -7t10 -21q9 -31 26 -45.5t46 -14.5q39 0 57 25.5t18 63.5q0 20 -6 36.5t-20 27.5q-11 8 -23.5 12t-31.5 4q-38 0 -60.5 -14.5t-33.5 -32.5z" />
    <glyph glyph-name="seveneighths" unicode="&#x215e;" horiz-adv-x="777" 
d="M576 42q13 0 26 3t24 9.5t18 17.5t7 27q0 24 -27 42t-93 41q-20 -8 -33.5 -23.5t-13.5 -40.5q0 -14 5.5 -27.5t16.5 -24t28.5 -17.5t40.5 -7h1zM565 355q-26 0 -45 -14t-19 -39q0 -14 6 -24t20 -19q15 -9 35.5 -16.5l41.5 -15.5q39 23 39 61q0 34 -22.5 50.5t-54.5 16.5
h-1zM578 382q20 0 41.5 -5t39 -15.5t28.5 -27t11 -40.5q0 -16 -6.5 -27.5t-16.5 -19.5q-9 -8 -20.5 -15l-25.5 -16q28 -11 46 -22t27.5 -22.5t13 -24t3.5 -26.5q0 -24 -11.5 -42t-29.5 -31q-20 -14 -51 -23t-64 -9q-65 0 -103.5 25.5t-38.5 68.5q0 17 7.5 29.5t19.5 21.5
q11 8 22.5 15t31.5 18q-35 16 -49.5 36t-14.5 48q0 18 7 34t19 29q15 17 43 29t70 12h1zM582 645l-88 -133l-106.5 -164l-116.5 -183.5l-118 -190.5l-30 27l73.5 111.5l77.5 119l77.5 121l74.5 117l67.5 107l56.5 91.5zM55 500q5 16 9 37t6.5 40t3.5 34.5t1 21.5
q5 -2 12.5 -3t23 -2t40.5 -1h66h58.5h36.5t22 0.5t14 0.5l3 -5q-4 -16 -10.5 -32t-16.5 -30q-54 -79 -87.5 -148.5t-32.5 -138.5l-7 -5q-14 1 -27.5 3.5t-21.5 5.5q-6 3 -10.5 9t-4.5 13q0 8 1.5 14t4.5 13q9 28 28 59t42 62l46 61.5t39 56.5q-15 2 -41.5 2.5t-60.5 0.5
q-29 0 -46 -1t-26.5 -3t-14 -6.5t-7.5 -11.5q-5 -11 -10 -23.5t-9 -26.5z" />
    <glyph glyph-name="onethird" unicode="&#x2153;" horiz-adv-x="777" 
d="M587 382q21 0 43 -4.5t40 -14.5t29.5 -26t11.5 -40q0 -23 -11.5 -36.5t-26.5 -22.5q-14 -8 -28 -13t-33 -10v-3q32 -2 57 -9t40 -20q26 -20 26 -58q0 -26 -13 -45t-29 -31q-17 -12 -48.5 -22.5t-74.5 -10.5q-28 0 -53 6t-43.5 16.5t-29 24.5t-10.5 31q0 14 11 25.5
t28 11.5q12 0 17 -6t10 -20q17 -63 76 -63q38 0 56 21.5t18 56.5q0 29 -17.5 51t-64.5 22q-24 0 -42 -5l-15 18l3 8l31.5 4.5t30.5 7.5q19 7 37.5 21.5t18.5 46.5q0 24 -15 42.5t-46 18.5q-35 0 -49.5 -16.5t-14.5 -40.5q0 -5 0.5 -11t1.5 -11q1 -8 -6.5 -13t-18.5 -5
q-17 0 -27 9.5t-10 26.5q0 14 9 29.5t26.5 28.5t43.5 21.5t60 8.5h1zM602 646l-88 -134l-106.5 -164.5l-117 -183l-118.5 -190.5l-29 27l111.5 170l117 181l109 172.5l88.5 143.5zM274 275q-38 0 -65.5 1t-48.5 1q-27 0 -52.5 -1t-51.5 -1l-3 25l52 4q13 2 17.5 6.5
t5.5 12.5q1 14 2 35.5t1 53.5v84q0 30 -0.5 50.5t-1.5 35.5q-2 9 -9 8q-8 -2 -26 -5l-36 -6l5 29q15 2 35.5 5.5t41 7.5t38 8t25.5 7l4 -2q0 -15 -1.5 -46.5t-1.5 -87.5v-89q0 -33 0.5 -52t2.5 -38q0 -14 17 -16l49 -5z" />
    <glyph glyph-name="twothirds" unicode="&#x2154;" horiz-adv-x="777" 
d="M597 382q20 0 42 -4.5t40 -14.5t30 -26t12 -40q0 -23 -11.5 -37t-26.5 -22q-14 -8 -28 -13t-33 -10v-3q32 -2 57 -9t40 -20q26 -20 26 -58q0 -26 -13 -45t-29 -31q-17 -12 -48.5 -22.5t-74.5 -10.5q-28 0 -53 6t-43.5 16.5t-29 24.5t-10.5 31q0 14 11 25.5t28 11.5
q12 0 17 -6t10 -20q17 -63 76 -63q38 0 56 21.5t18 56.5q0 29 -17.5 51t-64.5 22q-24 0 -42 -5l-15 18l3 8l31.5 4.5t30.5 7.5q19 7 37.5 21.5t18.5 46.5q0 24 -15 42.5t-46 18.5q-35 0 -49.5 -16.5t-14.5 -39.5q0 -6 0.5 -12t1.5 -11q1 -8 -6.5 -13t-18.5 -5q-17 0 -27 9.5
t-10 26.5q0 13 9 28.5t26.5 29t43.5 22t60 8.5h1zM630 645l-88 -133l-106.5 -164l-116.5 -183.5l-118 -190.5l-30 27l111.5 170.5l117 181.5l109 172l89.5 143zM335 389q-14 -50 -19 -76.5t-7 -38.5q-5 0 -16 0.5t-32.5 1t-57.5 1t-91 0.5h-45.5t-36.5 -2l-2 6q3 8 7.5 19
l8.5 20q65 38 109.5 77.5t58.5 74.5q6 16 9 30.5t3 33.5q0 13 -3 26t-10 23.5t-18.5 17t-29.5 6.5q-34 0 -47.5 -18.5t-13.5 -47.5q0 -5 0.5 -13.5t2.5 -13.5q3 -10 -7 -17q-4 -3 -10.5 -5.5t-13.5 -2.5q-38 0 -38 43q0 18 11 36.5t29 32.5t44 23t58 9q28 0 50 -6t37 -16
q21 -14 31.5 -36.5t10.5 -48.5q0 -49 -39 -84q-17 -16 -56.5 -44.5l-95.5 -66.5l113 3t46 3q8 0 11.5 3t6.5 8q3 6 8.5 20.5t9.5 26.5z" />
    <glyph glyph-name="uni2014.alt" unicode="&#xf6de;" horiz-adv-x="728" 
d="M62 261q29 0 77.5 -0.5t107.5 -0.5h122.5h122.5t108.5 0.5t79.5 0.5l-14 -58q-28 0 -76 0.5t-106.5 0.5h-122.5h-123t-109 -0.5t-81 -0.5z" />
    <glyph glyph-name="R_p" unicode="&#xf6dd;" horiz-adv-x="1020" 
d="M774 19q34 0 56 18.5t35 47t18 63.5t5 68q0 40 -8 70.5t-19 47.5t-26.5 26t-38.5 9q-35 0 -61.5 -22t-43.5 -60q-4 -10 -5.5 -18t-2.5 -24q-2 -83 0 -147q1 -11 3 -19t7 -16q30 -44 80 -44h1zM37 614h22.5t28 -0.5t28 -0.5h24.5q25 0 45.5 0.5t40.5 1.5q20 0 41 0.5
t47 0.5q54 0 88.5 -11t54.5 -29.5t27.5 -43.5t7.5 -52q0 -44 -17 -71t-35 -41q-17 -14 -45.5 -26.5t-67.5 -18.5v-4q41 -6 70.5 -17t49 -26t31 -34.5t16.5 -43.5q6 -26 9 -57l5 -53q3 -36 17.5 -50t37.5 -14q19 0 32 4v205q0 57 -1 87.5t-3 46.5q-1 9 -13.5 12.5t-54.5 1.5
l6 25q10 0 30.5 1.5t43 3.5t44 4.5t35.5 5.5v-21t0.5 -24t1 -22.5t0.5 -16.5q36 37 73 58.5t81 21.5q36 0 61 -12.5t41 -32.5q20 -23 31.5 -60.5t11.5 -86.5q0 -52 -13.5 -95.5t-39.5 -75t-64 -49t-87 -17.5q-26 0 -53 8t-44 24q0 -58 -0.5 -102.5t2.5 -88.5q1 -9 3.5 -15
t10.5 -9t23.5 -4.5t42.5 -2.5l-4 -26q-24 0 -55.5 1.5t-73.5 0.5q-43 0 -72.5 -1.5t-51.5 -2.5l5 26q24 1 39 2.5t23 4.5t10.5 8t3.5 12q2 19 4.5 61t2.5 115q-8 -2 -17.5 -3.5t-19.5 -3.5q-10 -1 -20.5 -1.5t-21.5 -0.5q-48 0 -79 26t-33 77q-1 27 -3.5 52t-6.5 53
q-4 34 -18 54.5t-35.5 31.5t-49.5 14.5t-60 3.5h-24v-78q0 -70 1 -108.5t3 -57.5q0 -10 2.5 -15.5t10.5 -9t24.5 -5.5t44.5 -4l-2 -27q-29 0 -65 1.5t-63 1.5q-32 0 -65 -1.5t-64 -1.5l1 27q25 2 40 4t23 5t10.5 8t3.5 14q1 8 1.5 21t1 34t1 52t0.5 75v157q0 76 -0.5 114.5
t-2.5 52.5q-1 11 -8 16.5t-27 7.5l-47 3zM207 331h22q33 0 57 5t42 13q11 5 22 14.5t20 23.5t15 34.5t6 47.5q0 29 -6 49t-15 32q-11 14 -32.5 25t-65.5 11q-21 0 -31.5 -1t-16.5 -3q-12 -3 -13 -15q-1 -8 -2.5 -38.5t-1.5 -100.5v-97z" />
    <glyph glyph-name="Q.alt" unicode="&#xe02c;" horiz-adv-x="677" 
d="M337 618q-40 0 -74 -19t-59 -60q-19 -33 -32.5 -89.5t-13.5 -131.5q0 -72 14.5 -132.5t36.5 -95.5q50 -77 138 -77q38 0 69.5 15.5t55.5 53.5q21 35 33.5 94.5t12.5 140.5q0 70 -12.5 127.5t-32.5 93.5q-46 80 -135 80h-1zM1153 -217q-20 -27 -48.5 -48t-63 -36
t-73.5 -23t-79 -8q-42 0 -83 11t-83 31t-85.5 49t-90.5 65l-75 56.5l-74 52.5q-40 27 -72 40t-58 18q-38 8 -78 27.5t-72.5 56.5t-53 93t-20.5 137q0 72 19.5 134t58 108.5t95.5 73t131 26.5q65 0 117.5 -23t89.5 -65.5t57 -102t20 -132.5q0 -87 -22 -148t-56 -100.5
t-75 -59.5t-80 -26v-3q17 -5 42 -16.5t55 -27l63 -34l65 -37.5q43 -27 88 -50t89.5 -40t86.5 -26.5t81 -9.5q56 0 95.5 13.5t76.5 47.5z" />
    <glyph glyph-name="longs" unicode="&#x17f;" horiz-adv-x="264" 
d="M30 426h64l1 33q0 56 12 97t40 71q23 25 52.5 38.5t64.5 13.5q54 0 78.5 -24.5t24.5 -51.5q0 -20 -14 -32.5t-34 -12.5q-25 0 -25 25q1 26 -9 45.5t-39 19.5q-44 0 -55 -73q-5 -29 -6 -72.5t-1 -85.5v-46t-0.5 -46.5t-0.5 -53.5v-65q0 -54 0.5 -91.5t1.5 -57.5
q1 -14 6 -19.5t17 -7.5q11 -2 22.5 -3l23.5 -2l-3 -28q-23 0 -50 1.5t-59 1.5q-31 0 -62.5 -1.5t-54.5 -1.5l1 28q20 1 32.5 2.5t19.5 4.5t9.5 7.5t2.5 10.5q2 18 3 57.5t1 96.5v186l-67 6z" />
    <glyph glyph-name="c_t" unicode="&#xe042;" horiz-adv-x="785" 
d="M759 395l-136 -6q-1 -26 -2 -61t-1 -93q0 -68 1 -108t5 -61q6 -40 45 -40q35 0 54 23.5t29 61.5h12l10 -35q-18 -45 -54.5 -67.5t-85.5 -22.5q-34 0 -56 9.5t-34 25.5q-8 12 -12 26.5t-4 36.5v70.5t1 83l2 82.5t1 69l-70 6l6 31h65v80q0 19 -8 27t-32 13.5t-46 5.5
q-30 0 -49 -5.5t-29.5 -16.5t-14.5 -27t-4 -37q0 -26 12 -48q55 -28 55 -86q0 -26 -15.5 -38.5t-35.5 -12.5q-15 0 -25 7q-4 3 -6.5 8t-0.5 11q1 8 2.5 15.5t1.5 15.5q0 34 -18.5 54t-60.5 20q-31 0 -54 -15.5t-38.5 -41.5t-23 -61.5t-7.5 -75.5q0 -38 7.5 -70.5t21.5 -56.5
q35 -59 105 -59q51 0 80 25.5t49 77.5l25 -14q-19 -62 -63 -98.5t-120 -36.5q-56 0 -93.5 16t-64.5 48q-23 27 -35 67.5t-12 88.5q0 49 15 91.5t44 74.5t71 50.5t96 18.5q18 0 33 -2t29 -6q-11 17 -11 40q0 14 5.5 33.5t22 37.5t47 31t80.5 13q6 0 18 -0.5t24.5 -1.5
t23.5 -2t15 -2q8 1 19 3.5t21.5 5.5t20 6l15.5 5l3 -4q0 -10 -1 -30.5t-2 -45t-1.5 -50.5t-0.5 -46h138z" />
    <glyph glyph-name="s_t" unicode="&#xfb06;" horiz-adv-x="728" 
d="M702 395l-136 -6q-1 -26 -2 -61t-1 -93q0 -68 1 -108t5 -61q6 -40 45 -40q35 0 54 23.5t29 61.5h12l10 -35q-18 -45 -54.5 -67.5t-85.5 -22.5q-34 0 -56 9.5t-34 25.5q-8 11 -12 25.5t-4 37.5v70.5t1 83l2 82.5t1 69l-70 6l5 31h66v81q0 19 -8 27t-31 13.5t-46 5.5
q-30 0 -49.5 -5.5t-31 -16.5t-15.5 -26.5t-4 -35.5q0 -25 11 -43q11 -3 18.5 -6.5l11.5 -5.5q-2 -28 -2.5 -57.5t1.5 -58.5l-27 -6q-5 57 -31 88t-78 31q-34 0 -54.5 -19.5t-20.5 -51.5q0 -22 10.5 -35t27.5 -21q12 -6 29 -13l36 -14.5l37.5 -15l32.5 -13.5q38 -17 55 -42.5
t17 -59.5q0 -37 -16 -63.5t-42 -43.5t-58 -25t-65 -8q-40 0 -78 9.5t-60 18.5q0 9 0.5 25t1 36t0.5 42t-1 43l25 4q2 -16 6 -37t13 -41q14 -35 41.5 -52t65.5 -17q42 0 65.5 20t23.5 53q0 18 -9 32t-29 24q-12 6 -27.5 13t-32 13.5l-32.5 13t-29 12.5q-38 16 -58.5 42
t-20.5 67q0 32 12.5 57t34 42t50.5 26t61 9t59 -6q-12 16 -12 40q0 14 6.5 33.5t24 37t48 30t79.5 12.5q17 0 43 -2t37 -5q7 1 17.5 4l21.5 6t20.5 6l15.5 5l3 -3q-1 -10 -2 -31t-1.5 -45.5l-1 -50.5t-0.5 -46h138z" />
    <glyph glyph-name="space_uni0326" unicode="&#xf6c3;" horiz-adv-x="400" 
d="M140 -219q36 6 61.5 25.5t25.5 51.5q0 5 -2.5 5t-4.5 -2q-5 -4 -14 -6t-17 -2q-18 0 -32.5 13.5t-13.5 38.5q0 23 17 39.5t41 16.5q32 0 50 -24.5t18 -60.5q0 -31 -12 -53t-30.5 -36.5t-40 -22.5t-40.5 -9z" />
    <glyph glyph-name="zero.slash" unicode="&#xf638;" horiz-adv-x="478" 
d="M167 71q13 -23 31.5 -38.5t43.5 -15.5q51 0 80 57q17 34 26 91.5t9 141.5q0 67 -7 116t-18 81zM313 547q-13 20 -30 34t-41 14q-49 0 -78 -53q-19 -34 -30 -97.5t-11 -134.5q0 -59 6 -107.5t20 -86.5zM365 581q25 -24 41.5 -55t26.5 -66.5t14 -72.5t4 -71
q-1 -116 -28 -184.5t-67 -102.5q-29 -25 -62 -34t-60 -9q-24 0 -48.5 6t-44.5 19l-23 -57l-32 13l26 64q-25 24 -41.5 56.5t-26 68.5t-13.5 73.5t-4 70.5q1 89 26 165.5t79 120.5q51 39 114 39q53 0 92 -24l21 51l29 -14z" />
    <glyph glyph-name="one.fitted" unicode="&#xf6dc;" horiz-adv-x="394" 
d="M361 -3q-48 0 -91.5 1.5t-70.5 1.5q-36 0 -76 -1.5t-78 -1.5l-4 27l81 8q17 2 24 7t8 17q2 17 3 51.5t1 91.5v198v95t-2 62q0 9 -3 12t-9 3q-7 0 -18.5 -0.5t-24 -1.5t-25 -1.5t-22.5 -1.5l6 29q25 3 54.5 7t57 8.5t49 9t30.5 7.5l5 -3q0 -28 -2 -80.5t-2 -145.5v-194
q0 -56 0.5 -88.5t2.5 -57.5q1 -12 5 -17.5t18 -7.5l81 -7z" />
    <glyph glyph-name="Euro" unicode="&#x20ac;" horiz-adv-x="478" 
d="M401 374l-12 -35l-221 1q-1 -12 -1 -26.5v-26.5l209 1l-12 -35l-195 1q2 -33 8.5 -72t22 -73t41 -56.5t66.5 -22.5q19 0 37.5 4.5t34.5 16.5t30.5 33.5t26.5 55.5l24 -14q-24 -75 -66 -107t-111 -32q-61 0 -101 24.5t-64.5 63t-35.5 86t-14 93.5h-56l10 33h45v26.5
t2 26.5h-37l10 33h30q6 42 22 87t44.5 81.5t70 60t99.5 23.5q40 0 67.5 -9.5t45 -24.5t25.5 -33t8 -35q0 -28 -12.5 -42.5t-32.5 -14.5q-13 0 -22 7t-7 19q2 8 3.5 15.5t1.5 17.5q0 37 -21.5 54t-59.5 17t-62.5 -24t-39.5 -58.5t-22 -73t-10 -67.5z" />
    <glyph glyph-name="a.sc" unicode="&#xf761;" horiz-adv-x="528" 
d="M236 429l-14.5 -43.5l-18.5 -54.5l-20 -59.5l-19 -57.5q8 -1 29 -1.5t43 -0.5t41 0.5t27 1.5l-17 54l-18 58l-18 56t-15 47zM533 -3q-25 1 -54.5 2t-63.5 1q-32 0 -62.5 -1t-52.5 -2l-2 28q21 2 33 4.5t17 6.5t5.5 9t-1.5 11l-17 57.5t-20 63.5q-11 1 -34 1.5t-49 0.5
t-49.5 -0.5t-32.5 -1.5l-19.5 -64t-13.5 -47q-5 -22 7.5 -30.5t57.5 -10.5l1 -28q-23 0 -46 1.5t-49 1.5q-18 0 -43 -1.5t-51 -1.5v28q18 1 30 3.5t20.5 8.5t15.5 16.5t15 28.5q7 16 18.5 46l24.5 65.5l27 74.5l26.5 74l22.5 63l15 42q5 11 7 21t4 24q17 1 42.5 4t41.5 10
l39 -123l44 -132.5l41.5 -117.5t30.5 -79q6 -13 14.5 -18t25.5 -7l34 -4v-28z" />
    <glyph glyph-name="b.sc" unicode="&#xf762;" horiz-adv-x="529" 
d="M197 155q0 -41 0.5 -66t2.5 -42q1 -8 10 -13t37 -5q53 0 79 11.5t39 29.5q9 12 14.5 30.5t5.5 41.5t-6.5 42.5t-20.5 32.5q-17 15 -43 22t-75 7q-11 0 -24.5 -0.5t-18.5 -0.5v-90zM197 276h43q59 0 88 23.5t29 77.5q0 17 -4 32t-12 26q-10 14 -30.5 22.5t-63.5 8.5
q-30 0 -38.5 -3.5t-9.5 -11.5q-1 -15 -1.5 -43.5t-0.5 -58.5v-73zM28 25q24 1 38 2.5t21.5 4t10 6t2.5 9.5q1 17 2 48t1 73v169v62t-2 47q0 6 -2.5 9.5t-10 6.5t-21 4.5t-36.5 2.5v27q22 0 53 -1.5t62 -1.5q38 0 78.5 2t72.5 2q51 0 79 -7.5t47 -22.5q18 -14 26 -36t8 -45
q0 -38 -18 -62t-43 -36q-16 -7 -32 -12t-36 -8v-4q41 -2 70 -10t49 -21t31.5 -35t11.5 -55q0 -41 -19.5 -69t-47.5 -44q-26 -15 -65.5 -23.5t-92.5 -8.5q-29 0 -61.5 1t-55.5 1q-10 0 -25 -0.5l-31.5 -1l-33 -1t-29.5 -0.5z" />
    <glyph glyph-name="c.sc" unicode="&#xf763;" horiz-adv-x="534" 
d="M450 311q-4 34 -12 65t-27 54q-17 20 -42.5 33t-61.5 13q-29 0 -58.5 -12t-50.5 -38q-22 -27 -36 -71.5t-14 -107.5q0 -54 15 -100.5t40 -71.5q22 -23 50 -35t65 -12q56 0 94 28.5t62 89.5l26 -16q-27 -75 -77.5 -110.5t-134.5 -35.5q-64 0 -109 16t-77 52q-29 31 -45 79
t-16 108q0 68 22 119.5t58 84.5q29 29 73 47t108 18q54 0 89.5 -14t51.5 -31l16 46l27 -4q-6 -38 -8 -87t0 -106z" />
    <glyph glyph-name="d.sc" unicode="&#xf764;" horiz-adv-x="585" 
d="M197 191v-61t0.5 -41t1 -26t0.5 -16q1 -8 10.5 -13t37.5 -5q52 0 87.5 12t61.5 42q20 26 32 71.5t12 103.5q0 49 -11 91t-31 65q-23 25 -55.5 38t-91.5 13q-34 0 -41.5 -5t-8.5 -12q0 -5 -1 -13t-1.5 -22t-1 -35t-0.5 -52v-135zM103 334q0 45 -0.5 70.5t-0.5 37.5
q-1 19 -19 20l-53 6l1 29q16 -1 48.5 -2.5t62.5 -1.5q39 1 71.5 2.5t69.5 1.5q63 0 100 -9t65 -25q45 -26 70.5 -79t25.5 -125q0 -36 -7.5 -71.5t-24.5 -67.5t-44.5 -58t-67.5 -42q-30 -12 -66 -17.5t-75 -5.5q-32 0 -61 1l-58 2q-16 0 -33.5 -0.5t-33.5 -1.5t-29.5 -1.5
t-20.5 -0.5l1 29l42 3q17 2 24 6.5t8 15.5q1 6 1.5 20.5t1.5 34t1.5 43t0.5 46.5v140z" />
    <glyph glyph-name="e.sc" unicode="&#xf765;" horiz-adv-x="502" 
d="M29 496q20 0 51 -1.5t73 -1.5h147q41 0 78 3t51 5q-1 -8 -1.5 -25t-1 -38.5t0 -44.5t1.5 -42l-29 -1q-2 18 -6.5 37.5t-10.5 35.5q-4 10 -10 17.5t-17.5 12t-30.5 6.5t-50 2h-59q-14 0 -15 -14q-1 -15 -1.5 -46t-0.5 -66v-65q7 -1 20 -1h23q25 0 39.5 2t23.5 9.5
t13.5 21.5t8.5 37h28q-3 -44 -3 -92t2 -90h-29q-3 24 -7 39.5t-12 24t-23 12t-39 3.5h-25t-20 -1v-62v-66.5t2 -56.5q0 -6 3 -9.5t11 -5.5t22.5 -3t39.5 -1q34 0 56 1.5t36 5.5t22 10.5t15 16.5q13 17 22.5 42.5t17.5 50.5l26 -1q0 -9 -3 -32l-6.5 -48.5l-7 -49t-4.5 -32.5
q-10 0 -25 1t-38 2t-55.5 1.5t-78.5 0.5h-106q-32 0 -67.5 -1.5t-57.5 -1.5l1 27l55 6q12 2 17 8t6 22q2 22 2.5 58.5t0.5 70.5v135q0 35 -0.5 67t-1.5 52q0 11 -4 15.5t-18 5.5l-51 4v28z" />
    <glyph glyph-name="f.sc" unicode="&#xf766;" horiz-adv-x="483" 
d="M30 497q21 0 58 -1.5t74 -1.5h124q39 0 66 1t45 2t29.5 2.5l19.5 2.5q-5 -46 -4.5 -90t1.5 -65h-29q-2 17 -6 37t-11 37q-3 11 -8.5 18.5t-17 12.5t-31.5 7.5t-52 2.5h-72q-14 0 -15 -11q-1 -5 -2 -38t-1 -80v-73q7 -1 25 -1h30q26 0 42 2.5t25 11t14 23.5t8 39l28 -1
q-2 -20 -2.5 -49t-0.5 -57.5t0.5 -52.5t2.5 -34h-28q-3 25 -7 41.5t-13 26t-25.5 13t-44.5 3.5h-31t-23 -1v-70q0 -45 0.5 -67t1.5 -33t5.5 -16t16.5 -6q11 -2 31.5 -4.5t36.5 -2.5l-2 -28q-26 0 -63.5 2t-70.5 2q-29 0 -63.5 -2t-59.5 -2l-1 28l47 4q20 3 23 21q2 14 3 56
t1 92v133q0 48 -0.5 77.5t-1.5 37.5q-1 18 -19 19l-51 4z" />
    <glyph glyph-name="g.sc" unicode="&#xf767;" horiz-adv-x="575" 
d="M454 309q-15 168 -145 168q-74 0 -116 -59q-20 -29 -32.5 -72t-12.5 -98q0 -51 11 -96t32 -74q25 -33 56.5 -47t68.5 -14q38 0 60 12t24 32q1 9 2 21.5t1 27v29.5v27q0 25 -8 33t-39 10l-51 4l-1 29q23 0 56.5 -1t65.5 -1q34 0 64 1t54 3l1 -29q-28 -4 -37.5 -8.5
t-11.5 -15.5q-2 -16 -2 -39v-40q0 -31 1.5 -50.5t4.5 -33.5q-16 -3 -36 -9.5l-44 -14.5q-27 -8 -58.5 -13.5t-62.5 -5.5q-72 0 -121.5 19.5t-80.5 56.5q-26 31 -40.5 76t-14.5 105q0 79 33 139.5t92 93.5q31 17 65.5 25t75.5 8q31 0 55.5 -5t42 -11.5t29 -14t17.5 -13.5
l18 43l26 -8q-2 -10 -5 -31t-5 -47.5t-3 -55.5t0 -55z" />
    <glyph glyph-name="h.sc" unicode="&#xf768;" horiz-adv-x="616" 
d="M103 336v61.5t-1 46.5q0 7 -2.5 11.5t-10 7t-21.5 4t-36 2.5v28q19 -1 50 -2t63 -1q24 0 53 1t66 2l-1 -28q-21 0 -33.5 -1.5t-19 -4.5t-9 -8t-2.5 -12q-2 -15 -2 -41.5v-56.5v-69q14 0 46 -0.5t68 -0.5t66.5 0.5t41.5 0.5v70q0 35 -0.5 60t-1.5 42q-1 11 -12.5 15.5
t-51.5 5.5l1 28q26 -1 55 -2t55 -1q15 0 31.5 0.5l32.5 1t30 1t24 0.5v-28q-41 -2 -53.5 -7.5t-13.5 -22.5t-1.5 -41.5t-0.5 -56.5v-173q0 -38 1 -67.5t2 -48.5q1 -15 14 -20.5t57 -6.5l-3 -28q-23 1 -54.5 2t-62.5 1q-30 0 -60 -1t-55 -2v28q21 1 33.5 3.5t19.5 5.5t9.5 8
t2.5 12q2 23 2 47v59v80q-11 2 -41.5 2h-66.5h-67.5t-46.5 -2v-76v-41.5t0.5 -30.5t1 -22t1.5 -18q0 -7 3 -11.5t10 -7.5t19.5 -5t32.5 -3v-28q-24 1 -56.5 2t-65.5 1q-28 0 -57.5 -1t-52.5 -2v28q21 1 34 2.5t20 4t10 7t3 11.5q2 15 2.5 44.5t0.5 80.5v161z" />
    <glyph glyph-name="i.sc" unicode="&#xf769;" horiz-adv-x="300" 
d="M103 342v62.5t-1 34.5q0 9 -2.5 14t-9 8t-20 4.5t-35.5 3.5l1 28q17 -1 48 -2.5t63 -1.5q35 0 62.5 2t54.5 2v-28q-21 -1 -33.5 -2.5t-19.5 -4.5t-9 -8t-2 -11q-2 -11 -2.5 -33t-0.5 -64v-181v-70t2 -43q1 -7 3.5 -12t9.5 -8t20 -4.5t35 -2.5l-1 -28q-29 1 -61.5 2
t-61.5 1t-57.5 -1.5t-52.5 -1.5v28q22 1 35 2.5t20 4.5t9.5 7.5t2.5 11.5q2 14 2.5 38t0.5 76v177z" />
    <glyph glyph-name="j.sc" unicode="&#xf76a;" horiz-adv-x="283" 
d="M29 497q18 -1 49.5 -2.5t63.5 -1.5q13 0 29 0.5l32 1t30.5 1.5t25.5 1v-29l-32 -3q-17 -2 -22 -6t-7 -15q-3 -23 -3 -295q0 -58 -6 -110q-4 -40 -14.5 -75.5t-36.5 -66.5q-32 -37 -68 -54t-71 -17q-29 0 -47.5 14t-18.5 29q0 16 13.5 30t25.5 14q13 0 23 -13
q24 -30 48 -30q10 0 18.5 4t15.5 15.5t11.5 31t6.5 50.5q3 50 4.5 104t1.5 126v132v70t-2 38q-1 11 -4.5 15.5t-14.5 6.5t-26 3l-29 2z" />
    <glyph glyph-name="k.sc" unicode="&#xf76b;" horiz-adv-x="569" 
d="M104 314v78t-1 52q0 7 -2 11.5t-8.5 6.5t-19.5 3.5t-35 2.5l1 29q23 -1 52.5 -2.5t59.5 -1.5q32 0 62 2t50 2l1 -29q-21 -1 -33.5 -2.5t-19 -4t-9 -6.5t-2.5 -10q-1 -14 -1.5 -49.5t-0.5 -81.5v-54q24 5 55.5 30t61.5 55.5t53 59t30 40.5q8 15 -5 16l-50 6l3 28
q22 0 50.5 -0.5t55.5 -0.5t52 1t47 2v-29q-42 -2 -61.5 -8t-35.5 -20l-35 -33l-41 -39.5l-42 -41.5l-40 -40l45.5 -61l55.5 -71l52.5 -63.5t35.5 -39.5q6 -6 12 -10t16 -7t25 -5t38 -3l-5 -28q-24 2 -44.5 2t-37.5 -1q-25 -1 -45.5 -2.5t-40.5 -4.5q-5 9 -26.5 37.5
l-47.5 63l-50.5 67l-36.5 49.5q-17 20 -25.5 24.5t-18.5 1.5v-54q0 -48 0.5 -83t2.5 -49q0 -6 2.5 -10t9.5 -6.5t20 -4.5t35 -3l-1 -28q-27 0 -57.5 1.5t-63.5 1.5q-31 0 -62 -1.5t-54 -1.5l1 28q24 1 37.5 3t20.5 5t9 7t2 10q2 12 3 46t1 77v141z" />
    <glyph glyph-name="l.sc" unicode="&#xf76c;" horiz-adv-x="480" 
d="M457 172q-3 -18 -5.5 -42t-5.5 -48.5t-5.5 -47.5t-3.5 -39q-17 2 -44 3t-63 1q-36 1 -80.5 1h-94.5q-15 0 -33.5 -0.5l-37 -1t-35 -1.5t-27.5 -1v29l53 4q25 3 26 20q2 19 3 60.5t1 89.5v133q0 52 -0.5 75.5t-1.5 35.5q0 9 -4 14t-16 6l-49 4l1 29q18 0 49.5 -1.5
t66.5 -1.5q31 0 60 1t66 2l2 -29l-53 -4q-14 -2 -18 -6t-5 -15q-2 -22 -3 -56t-1 -85v-100q0 -57 0.5 -97t2.5 -58q0 -3 2 -5.5t9 -5t20 -3.5t36 -1q32 0 52.5 1.5t34 6t21 12.5t14.5 20q23 38 38 104z" />
    <glyph glyph-name="m.sc" unicode="&#xf76d;" horiz-adv-x="731" 
d="M320 -2q-12 35 -34.5 93l-48.5 122.5l-52 128l-44 108.5h-1q0 -51 0.5 -105l1 -103t1.5 -89.5t2 -65.5q1 -32 7.5 -43.5t32.5 -14.5l44 -4l-1 -28q-22 0 -49 1.5t-57 1.5q-37 0 -58.5 -1.5t-41.5 -1.5v28q12 1 22 2t19 2q16 2 24.5 12.5t10.5 38.5q2 25 4 64.5t3.5 87.5
t2 102t0.5 110q0 4 -2 10q-2 10 -24 11l-49 3l1 29q34 -2 60.5 -3t50.5 -1q21 0 41 0.5t33 2.5q4 -13 14.5 -38l24 -57l29.5 -68l31.5 -71.5l29.5 -67l24 -54.5l47 108.5l44.5 108.5l35.5 89t19 50q14 -2 27 -2.5t30 -0.5q23 0 53 1t66 3l3 -29q-20 -1 -34 -2.5t-25 -2.5
q-12 -2 -12 -17q-1 -11 -1 -29.5v-48.5v-102t0.5 -92.5t1 -74t2.5 -44.5q2 -14 7 -19t16 -6l50 -5l-1 -28q-16 1 -48.5 2t-69.5 1q-30 0 -60 -1l-58 -2l3 28q20 1 32 3t18.5 5.5t8.5 9t2 14.5q1 24 2 66.5t2.5 96t3 114t1.5 121.5h-2l-51.5 -131l-48 -126l-41 -110
l-30.5 -82z" />
    <glyph glyph-name="n.sc" unicode="&#xf76e;" horiz-adv-x="590" 
d="M25 497q19 0 43 -1.5t47 -1.5q22 0 43 0.5t39 2.5l16 -24.5l28 -40.5l29 -42.5l49.5 -71.5l66 -93l77.5 -107q0 76 -0.5 131t-2 93t-2.5 59.5t-2 30.5q-2 18 -10.5 25t-29.5 9l-44 3l4 28q26 0 48.5 -2t49.5 -2t51 2t50 2v-28l-25 -3.5t-21 -3.5q-11 -2 -16 -8t-7 -20
q-2 -11 -3 -34.5l-2.5 -56t-2 -71.5t-0.5 -79v-193q-18 -1 -37.5 -4.5t-28.5 -5.5l-61 91l-74 109l-79 115.5l-76 109.5v-125.5t1 -106t2 -78.5t3 -44q4 -25 28 -28l27 -4.5t31 -3.5l-2 -28q-24 0 -54 1.5t-62 1.5q-25 0 -51 -1.5t-46 -1.5l1 28l25 2t22 3q16 2 22 10t8 23
q1 10 3 42.5t3.5 82t3 113t1.5 134.5q-1 5 -3.5 10t-4.5 8q-7 8 -26 11l-49 5v28z" />
    <glyph glyph-name="o.sc" unicode="&#xf76f;" horiz-adv-x="571" 
d="M284 476q-32 0 -55 -12.5t-42 -41.5q-18 -27 -27.5 -72.5t-9.5 -95.5q0 -27 3 -53.5t8 -50.5t12 -43.5t16 -32.5q37 -57 104 -57q62 0 96 55q14 23 23.5 70t9.5 104q0 52 -10 100.5t-29 77.5q-37 52 -98 52h-1zM292 508q54 0 97.5 -18.5t75 -51.5t48.5 -80t17 -104
q0 -69 -19 -119.5t-52.5 -83.5t-79 -49.5t-97.5 -16.5q-53 0 -97 16.5t-75.5 48.5t-49.5 79.5t-18 110.5q0 54 15.5 103t46.5 85.5t78 58t109 21.5h1z" />
    <glyph glyph-name="p.sc" unicode="&#xf770;" horiz-adv-x="504" 
d="M103 331v71.5t-1 40.5t-5.5 15t-16.5 6l-50 5l4 28q22 0 53.5 -2t59.5 -2q36 0 72.5 2t63.5 2q32 0 54.5 -3t39 -8t28 -12.5t21.5 -16.5q20 -19 31.5 -48.5t11.5 -64.5q0 -38 -13 -68t-33 -49q-25 -24 -59.5 -35t-72.5 -11q-18 0 -34.5 3.5l-25.5 5.5l2 29
q8 -2 20.5 -3.5t23.5 -1.5q22 0 39.5 9t28.5 23q23 32 23 96q0 61 -27 91q-14 17 -36.5 24.5t-59.5 7.5q-27 0 -35 -4t-9 -10q-2 -16 -3 -55t-1 -93v-81v-87q0 -32 0.5 -51.5t1.5 -30.5q2 -11 7.5 -16t22.5 -7l55 -5l-1 -28q-26 0 -58 1.5t-77 1.5q-31 0 -62.5 -1.5
t-59.5 -1.5l1 28l37 3q21 2 28 6.5t8 21.5q2 29 2.5 66t0.5 89v120z" />
    <glyph glyph-name="q.sc" unicode="&#xf771;" horiz-adv-x="572" 
d="M285 476q-32 0 -55.5 -13t-41.5 -39q-19 -28 -28.5 -75t-9.5 -105q0 -24 3 -49.5t8 -48t12 -42t15 -31.5q35 -57 104 -57q31 0 54 12t40 39q17 25 26.5 73t9.5 106q0 55 -10.5 103t-29.5 76q-18 27 -41.5 39t-54.5 12h-1zM581 -110q-20 -15 -49.5 -24.5t-61.5 -9.5
q-41 0 -80.5 26.5t-91.5 70.5q-24 19 -44.5 27t-44.5 14q-75 19 -121 81.5t-46 162.5q0 56 16.5 105t48 86t78 58t106.5 21q55 0 99.5 -19t75.5 -53t47.5 -81.5t16.5 -105.5q0 -67 -18.5 -113.5t-46 -77t-60 -46.5t-60.5 -21v-4l21 -10.5l27 -13l29 -13.5t28 -12
q74 -31 130 -25z" />
    <glyph glyph-name="q.scalt" unicode="&#xe0cb;" horiz-adv-x="571" 
d="M285 476q-62 0 -97 -52q-19 -28 -28.5 -73.5t-9.5 -105.5q0 -51 11 -98.5t27 -72.5q35 -57 104 -57q31 0 54 12t40 39q17 25 26.5 71.5t9.5 106.5q0 55 -10.5 103t-29.5 76q-18 27 -41.5 39t-54.5 12h-1zM1032 -202q-19 -25 -45.5 -44.5t-58.5 -33.5t-67.5 -21.5
t-72.5 -7.5q-78 0 -152 37t-161 105l-72 56t-74 53q-35 23 -64.5 34.5t-54.5 17.5q-37 9 -67.5 29.5t-53 51t-35 71.5t-12.5 92q0 56 16.5 105.5t48 86t78 57.5t106.5 21q55 0 99.5 -19t75.5 -53t47.5 -81.5t16.5 -105.5q0 -67 -18 -113.5t-45.5 -77t-60.5 -46t-62 -20.5v-5
q18 -5 41 -15.5t49 -24.5l55 -31l59 -35q85 -50 165 -83.5t152 -33.5q52 0 87.5 13.5t68.5 43.5z" />
    <glyph glyph-name="r.sc" unicode="&#xf772;" horiz-adv-x="542" 
d="M197 265h24q35 0 57.5 3.5t38.5 12.5q18 9 30 30.5t12 59.5q0 19 -4.5 36t-12.5 27q-8 11 -27.5 20.5t-58.5 9.5q-35 0 -47 -4q-8 -1 -10 -14q0 -7 -1 -30.5t-1 -68.5v-82zM103 315q0 45 -0.5 81t-1.5 47q-1 10 -5 14.5t-19 6.5l-49 4l4 28q9 0 22.5 -0.5t29.5 -1l32 -1
t30 -0.5q43 0 76 1.5t70 1.5q52 0 84.5 -9t51.5 -25t26 -37t7 -46q0 -35 -14.5 -58.5t-32.5 -35.5q-17 -11 -39.5 -18.5t-55.5 -12.5v-4q71 -7 102 -33t37 -72q3 -17 4.5 -34t3.5 -34q3 -26 12 -41t35 -15q5 0 12.5 0.5t13.5 2.5l-2 -27q-8 -3 -24 -5.5t-33 -2.5
q-60 0 -86.5 19.5t-31.5 74.5l-2 29t-3 30q-2 29 -11 47t-26 27.5t-42 13t-59 3.5h-22v-56q0 -46 0.5 -79.5t1.5 -47.5q0 -7 2.5 -11t10 -7t22 -5t38.5 -3l-2 -28q-24 0 -57.5 1.5t-63.5 1.5q-37 0 -68.5 -1.5t-50.5 -1.5v28q23 1 36.5 3t21 4.5t10 6t2.5 8.5q1 11 2 48
t1 92v129z" />
    <glyph glyph-name="s.sc" unicode="&#xf773;" horiz-adv-x="462" 
d="M81 190q-1 -52 11.5 -85.5t33.5 -53t49 -27t57 -7.5q45 0 73 22t28 63q0 23 -12 41t-42 31q-27 12 -64 27t-67 29q-50 20 -70.5 52.5t-20.5 72.5q0 38 13.5 65.5t36.5 47.5q22 19 53.5 29.5t74.5 10.5q37 0 69 -10.5t47 -24.5l19 43l25 -6q-10 -51 -11.5 -99t-0.5 -87
l-28 1q-3 69 -34.5 110t-93.5 41q-38 0 -64 -21t-26 -62q0 -25 15 -46t59 -37l87.5 -37t54.5 -26q30 -16 49 -40t19 -64q0 -34 -10.5 -58.5t-28.5 -43.5q-25 -26 -66.5 -41.5t-98.5 -15.5q-30 0 -58.5 4t-58.5 12q-18 5 -30.5 9t-25.5 7q5 30 7 69.5t2 100.5z" />
    <glyph glyph-name="t.sc" unicode="&#xf774;" horiz-adv-x="512" 
d="M301 216q0 -68 1 -107t2 -53q1 -11 5.5 -17.5t17.5 -7.5q18 -2 33.5 -3t36.5 -3l-1 -28q-23 0 -63 1.5t-90 1.5q-35 0 -64 -1.5t-62 -1.5l-3 28l27 2t34 3q28 3 28 24q2 17 3 55.5t1 107.5v135v63.5t-1 46.5q-39 0 -61.5 -2t-35 -6.5t-18.5 -12t-10 -19.5
q-8 -17 -15.5 -42t-14.5 -55l-27 7q3 22 5.5 46.5l5 48t4 44l2.5 33.5q17 -5 59 -8t112 -3h87q45 0 75.5 0.5t51.5 1.5t34 3.5t23 5.5q0 -5 -1.5 -20t-3 -37t-2.5 -50.5t0 -59.5l-28 -9q-2 32 -7 60t-10 42q-3 8 -8 14.5t-18.5 10.5t-37.5 5.5t-65 1.5q-1 -14 -1 -40.5
v-56.5v-149z" />
    <glyph glyph-name="u.sc" unicode="&#xf775;" horiz-adv-x="582" 
d="M29 497q26 0 52.5 -1.5t55.5 -1.5q34 0 61.5 1.5t54.5 1.5l3 -29l-48 -5q-8 -1 -12.5 -5t-5.5 -15q-2 -22 -2.5 -59t-1 -78.5t0 -81.5t2.5 -68q2 -39 11.5 -60.5t24.5 -35.5q14 -14 39 -22.5t52 -8.5t50 4.5t40.5 19t29 42t14.5 74.5q3 34 3.5 73t0 75.5t-2 67.5t-2.5 49
q-1 17 -7.5 22.5t-23.5 7.5l-47 4l-1 28q20 0 44.5 -2t49.5 -2t48 1l48 2l4 -27l-36 -3q-17 -2 -21.5 -7.5t-5.5 -19.5q-2 -32 -3 -74t-2.5 -84t-3 -79t-4.5 -58q-6 -45 -23 -74t-43 -49q-24 -17 -58.5 -26t-75.5 -9q-106 0 -154 51q-20 22 -29.5 51t-9.5 75v65t-0.5 85.5
t-1 79.5t-0.5 47q0 12 -3.5 18t-14.5 7l-46 4v29z" />
    <glyph glyph-name="v.sc" unicode="&#xf776;" horiz-adv-x="538" 
d="M-5 497q11 0 25.5 -0.5t30 -1.5t31 -1.5t28.5 -0.5q26 0 54.5 2t64.5 2l5 -28l-50 -6q-9 -1 -11 -7t1 -14l19.5 -57.5l31.5 -90l38.5 -105l38.5 -102.5l36 95l36 100l31 91t21 67q4 19 -11 22q-14 2 -27 3.5l-30 3.5l-3 28q15 0 44 -2t53 -2q21 0 44.5 2t52.5 2l4 -28
q-20 -1 -33 -3t-22 -7t-16 -15t-15 -26q-12 -26 -31 -73.5l-41 -106l-46 -123.5l-46 -125q-6 1 -15 1h-18.5h-18t-12.5 -1l-45.5 123l-47.5 125.5l-43.5 112l-32.5 81.5q-6 12 -11 19t-13 11t-20 5.5t-31 1.5v28z" />
    <glyph glyph-name="w.sc" unicode="&#xf777;" horiz-adv-x="782" 
d="M603 496q25 0 48.5 -2.5t49.5 -1.5q25 0 45 2t45 2l1 -28q-20 -2 -32.5 -4.5t-20.5 -8t-13 -14t-11 -23.5q-14 -36 -30.5 -85.5l-34 -106l-35.5 -117.5l-36 -119q-17 2 -36.5 2t-30.5 -2l-23.5 79l-31.5 103.5l-34.5 112.5l-32.5 106l-33 -115.5l-30.5 -108l-27 -96.5
l-22.5 -81q-4 1 -13.5 1h-20h-19.5t-12 -1l-32.5 106.5l-37.5 122.5l-36 114.5t-28 82.5q-6 16 -11.5 26t-14 15.5t-20.5 7.5t-31 3l-1 28q17 0 43 -2t67 -2q27 0 57 2t59 2l4 -28l-46 -4q-18 -3 -14 -18l25.5 -90.5l28.5 -100l26.5 -93t20.5 -68.5l23 76l23.5 83.5
l22.5 82.5l20 72.5t14.5 55.5t7.5 30q11 -2 32 -2t38 2l10.5 -35.5l17.5 -59.5l22.5 -75l25 -82l24.5 -80.5l22 -70.5q17 50 33 102.5t29 100t22.5 86l14.5 59.5q4 21 -16 24l-50 5z" />
    <glyph glyph-name="x.sc" unicode="&#xf778;" horiz-adv-x="531" 
d="M535 25v-28q-26 1 -56.5 2t-64.5 1q-35 0 -62.5 -1.5t-60.5 -1.5l-2 28q38 4 45.5 9t1.5 16l-35 61.5t-63 104.5q-31 -44 -56.5 -86l-42.5 -70q-8 -15 -3 -21.5t22 -8.5l45 -5l2 -28q-16 0 -42 1.5t-62 1.5q-29 0 -53 -1l-48 -2l-2 28q16 1 27.5 3t20.5 5.5t17 9.5t17 15
q12 13 28 33.5t34 46l37.5 53l38.5 53.5l-81.5 134t-45.5 70q-8 11 -24.5 15t-51.5 6l-3 28q21 -1 55.5 -2t62.5 -1q27 0 57.5 1l61.5 2l4 -28l-43 -4q-14 -1 -8 -14q9 -17 30 -53.5l54 -89.5q32 44 54.5 79.5t33.5 56.5q10 17 -12 21l-41 4l3 28q29 0 54 -1.5t39 -1.5
q26 0 47.5 1t47.5 2l3 -28q-24 -2 -39 -4.5t-25.5 -7t-18 -11.5l-16.5 -16q-18 -20 -43.5 -57l-66.5 -92l90 -145t57 -84q9 -11 19 -16.5t27 -7.5z" />
    <glyph glyph-name="y.sc" unicode="&#xf779;" horiz-adv-x="494" 
d="M391 -3q-23 0 -42 0.5t-35.5 1l-32 1t-32.5 0.5q-35 0 -67 -1t-70 -2l-2 28l33.5 4t30.5 4q16 2 21.5 8.5t7.5 18.5q1 9 1.5 26t1 37t0.5 40.5v35.5t-11 36l-20 36.5l-31.5 55.5l-36 60t-33.5 51q-6 9 -13 14.5t-16 9t-21.5 5t-31.5 2.5v28q19 0 52.5 -1.5t68.5 -1.5
q31 0 59 1.5t54 1.5l3 -28l-39 -4q-16 -1 -11 -15l18.5 -35.5l27.5 -51l31 -56l28 -50.5q14 24 28.5 51.5l27.5 53.5t23 48l16 35q2 7 0.5 12t-9.5 6q-10 2 -22 3.5t-26 2.5l2 28q21 0 46 -1.5t50 -1.5q22 0 43 1.5t44 1.5l2 -28q-35 -2 -53.5 -9t-35.5 -30
q-11 -16 -25.5 -39.5t-29 -49.5l-29 -53l-25.5 -49q-6 -11 -9 -20t-3 -20v-34.5t0.5 -41.5t1 -40t1.5 -29q1 -11 5.5 -15t16.5 -6q8 -2 24 -4t39 -4z" />
    <glyph glyph-name="z.sc" unicode="&#xf77a;" horiz-adv-x="512" 
d="M50 322q9 53 12 103t0 78q12 -4 25 -5.5l31 -3.5q17 -1 43 -1h77q35 0 65.5 -0.5t56.5 0.5q27 1 51.5 1t53.5 1q-6 -21 -10 -30.5t-9 -16.5l-42 -60.5l-89 -130.5l-95 -138l-59 -86q80 -1 127.5 0.5t74.5 6.5t38.5 14t18.5 24q11 22 19.5 46t17.5 62l25 -8q-3 -35 -8 -82
t-7 -101q-21 2 -44.5 2.5t-49.5 1.5q-25 1 -50 1h-53h-159h-23.5h-17t-15 -0.5t-17.5 -0.5l-8 18l46.5 63l56.5 78.5l60.5 85.5l58 84.5l50.5 75t37 57.5h-97q-38 0 -62 -2.5t-38.5 -8t-22.5 -15t-14 -24.5q-10 -24 -16 -47t-14 -50z" />
    <glyph glyph-name="ae.sc" unicode="&#xf7e6;" horiz-adv-x="748" 
d="M350 462h-13q-12 -19 -26.5 -45.5l-30 -55l-30 -57l-26.5 -51.5q22 0 58.5 -1t67.5 1v209zM541 493q43 0 79.5 2.5t51.5 4.5q-1 -8 -1.5 -24.5t-0.5 -38v-44.5t1 -43l-28 -1q-3 17 -7.5 37.5t-10.5 36.5q-4 10 -10 17.5t-17.5 12t-31.5 6.5t-52 2h-55q-13 0 -14 -14
q-2 -15 -2 -46.5v-68.5v-79q11 0 25.5 -0.5t28.5 -0.5q25 0 40.5 2.5t25 10t14.5 21.5t9 36h27q-4 -46 -3.5 -93.5t2.5 -91.5h-28q-4 25 -8.5 41t-13.5 25t-24.5 12.5t-42.5 3.5h-26t-26 -1v-45q0 -35 0.5 -67.5t2.5 -53.5q1 -6 3 -10t9.5 -6t21.5 -3t40 -1q35 0 57.5 1.5
t37 5t23 10t14.5 16.5q11 17 21 44t16 53l27 -1q0 -9 -2.5 -32.5l-5.5 -50.5t-6 -50.5t-4 -32.5q-11 0 -26 1t-38 2t-55.5 1.5t-78.5 0.5h-106q-28 0 -64.5 -1.5t-62.5 -1.5l1 28l55 6q23 1 24 29q2 23 2.5 56.5t0.5 67.5v35h-30.5h-39.5t-42 -0.5t-37 -1.5l-42.5 -82.5
l-36.5 -73.5q-6 -14 -0.5 -21.5t29.5 -9.5l47 -5l-1 -28q-32 0 -56 1.5t-50 1.5q-21 0 -46 -1.5t-54 -1.5v28q17 1 29 4t22 9t19 17t20 29l57.5 97l56.5 98.5l51 92l42 76.5q8 16 -9 16l-72 4l-1 29q21 0 46.5 -1t52 -1.5l51.5 -1t46 -0.5h139z" />
    <glyph glyph-name="oe.sc" unicode="&#xf6fa;" horiz-adv-x="850" 
d="M649 493q43 0 79 2.5t50 5.5q-1 -8 -1.5 -24.5t-1 -37t0 -43t1.5 -42.5l-28 -1q-3 17 -7 35.5t-10 35.5q-4 10 -10 17t-17.5 11.5t-31.5 6.5t-52 2h-59q-12 0 -13 -14q-2 -16 -2.5 -45.5t-0.5 -65.5v-63q7 -1 22.5 -1.5t26.5 -0.5q25 0 41 2t25.5 9t14 20.5t8.5 35.5h28
q-3 -43 -3 -90.5t2 -90.5h-29q-3 25 -7.5 41t-13.5 25t-25 12t-43 3h-27t-20 -1v-60q0 -36 0.5 -71t2.5 -55q1 -6 3 -9.5t9.5 -5.5t21.5 -3t40 -1q34 0 57.5 1.5t39 5.5t25 10.5t15.5 17.5q11 17 20 42t15 50l27 -1q0 -9 -2.5 -32l-5.5 -49t-6 -49t-4 -32q-10 0 -25.5 0.5
t-39 1.5t-57 1.5t-78.5 0.5h-93h-33t-23 -2q-1 10 -1 22.5v29.5q-26 -29 -70.5 -47t-92.5 -18t-87 10t-68 31q-44 32 -67.5 86.5t-23.5 125.5q0 80 29 137.5t75 89.5q31 22 67.5 33t89.5 11q45 0 84 -14.5t65 -46.5v48q8 -2 23 -2.5t35 -0.5h136zM455 255q0 31 -0.5 53
t-1.5 37t-2.5 25.5t-4.5 18.5q-12 34 -44 60t-87 26q-68 0 -107 -47q-25 -29 -39 -76t-14 -106q0 -57 13 -101t33 -70q21 -26 51 -39.5t65 -13.5q36 0 65.5 14.5t47.5 41.5q15 22 20 62t5 114v1z" />
    <glyph glyph-name="f_i.sc" unicode="&#xe048;" horiz-adv-x="784" 
d="M586 342v62.5t-1 34.5q0 9 -2.5 14t-9 8t-20 4.5t-35.5 3.5l1 28q17 -1 48 -2.5t63 -1.5q35 0 62.5 2t54.5 2v-28q-21 -1 -33.5 -2.5t-19.5 -4.5t-9 -8t-2 -11q-2 -11 -2.5 -33t-0.5 -64v-181v-70t2 -43q1 -7 3.5 -12t9.5 -8t20 -4.5t35 -2.5l-1 -28q-29 1 -61.5 2
t-61.5 1t-57.5 -1.5t-52.5 -1.5v28q22 1 35 2.5t20 4.5t9.5 7.5t2.5 11.5q2 14 2.5 38t0.5 76v177zM30 497q21 0 58 -1.5t74 -1.5h124q39 0 66 1t45 2t29.5 2.5l19.5 2.5q-5 -46 -4.5 -90t1.5 -65h-29q-2 17 -6 37t-11 37q-3 11 -8.5 18.5t-17 12.5t-31.5 7.5t-52 2.5h-72
q-14 0 -15 -11q-1 -5 -2 -38t-1 -80v-73q7 -1 25 -1h30q26 0 42 2.5t25 11t14 23.5t8 39l28 -1q-2 -20 -2.5 -49t-0.5 -57.5t0.5 -52.5t2.5 -34h-28q-3 25 -7 41.5t-13 26t-25.5 13t-44.5 3.5h-31t-23 -1v-70q0 -45 0.5 -67t1.5 -33t5.5 -16t16.5 -6q11 -2 31.5 -4.5
t36.5 -2.5l-2 -28q-26 0 -63.5 2t-70.5 2q-29 0 -63.5 -2t-59.5 -2l-1 28l47 4q20 3 23 21q2 14 3 56t1 92v133q0 48 -0.5 77.5t-1.5 37.5q-1 18 -19 19l-51 4z" />
    <glyph glyph-name="f_l.sc" unicode="&#xe049;" horiz-adv-x="964" 
d="M940 172q-3 -18 -5.5 -42t-5.5 -48.5t-5.5 -47.5t-3.5 -39q-17 2 -44 3t-63 1q-36 1 -80.5 1h-94.5q-15 0 -33.5 -0.5l-37 -1t-35 -1.5t-27.5 -1v29l53 4q25 3 26 20q2 19 3 60.5t1 89.5v133q0 52 -0.5 75.5t-1.5 35.5q0 9 -4 14t-16 6l-49 4l1 29q18 0 49.5 -1.5
t66.5 -1.5q31 0 60 1t66 2l2 -29l-53 -4q-14 -2 -18 -6t-5 -15q-2 -22 -3 -56t-1 -85v-100q0 -57 0.5 -97t2.5 -58q0 -3 2 -5.5t9 -5t20 -3.5t36 -1q32 0 52.5 1.5t34 6t21 12.5t14.5 20q23 38 38 104zM30 497q21 0 58 -1.5t74 -1.5h124q39 0 66 1t45 2t29.5 2.5l19.5 2.5
q-5 -46 -4.5 -90t1.5 -65h-29q-2 17 -6 37t-11 37q-3 11 -8.5 18.5t-17 12.5t-31.5 7.5t-52 2.5h-72q-14 0 -15 -11q-1 -5 -2 -38t-1 -80v-73q7 -1 25 -1h30q26 0 42 2.5t25 11t14 23.5t8 39l28 -1q-2 -20 -2.5 -49t-0.5 -57.5t0.5 -52.5t2.5 -34h-28q-3 25 -7 41.5t-13 26
t-25.5 13t-44.5 3.5h-31t-23 -1v-70q0 -45 0.5 -67t1.5 -33t5.5 -16t16.5 -6q11 -2 31.5 -4.5t36.5 -2.5l-2 -28q-26 0 -63.5 2t-70.5 2q-29 0 -63.5 -2t-59.5 -2l-1 28l47 4q20 3 23 21q2 14 3 56t1 92v133q0 48 -0.5 77.5t-1.5 37.5q-1 18 -19 19l-51 4z" />
    <glyph glyph-name="eth.sc" unicode="&#xf7f0;" horiz-adv-x="600" 
d="M337 239q-12 0 -48 0.5t-78 1.5v-43q0 -73 0.5 -106t2.5 -46q0 -8 8 -12.5t37 -4.5q59 0 94 13.5t58 41.5q21 25 32.5 70.5t11.5 102.5q0 52 -11.5 93.5t-31.5 64.5q-22 26 -55.5 38t-93.5 12q-32 0 -40 -5.5t-8 -10.5q-1 -10 -2.5 -37t-1.5 -89v-48q41 0 74.5 1t56.5 2z
M38 278q12 0 32.5 -1t46.5 -1v57v71.5t-1 37.5q0 18 -19 20l-54 7l1 28q9 0 21.5 -1t27 -1.5l28.5 -1t26 -0.5q41 0 75.5 2t72.5 2q63 0 100.5 -8t65.5 -25q47 -26 72.5 -79t25.5 -125q0 -36 -7.5 -72t-24.5 -67.5t-44.5 -57.5t-67.5 -42q-31 -13 -67.5 -18.5t-74.5 -5.5
q-33 0 -62.5 1l-58.5 2q-33 0 -65.5 -1.5t-50.5 -1.5l2 28l42 4q18 2 25 6t8 15q0 6 1 21.5t1.5 36.5t1 45.5t0.5 47.5v41q-22 0 -42 -0.5t-40 -2.5z" />
    <glyph glyph-name="oslash.sc" unicode="&#xf7f8;" horiz-adv-x="573" 
d="M286 18q31 0 55.5 11t44.5 40q17 25 28.5 74t11.5 109q0 41 -7 77.5t-18 56.5l-23 -34.5l-36 -53.5l-43 -63.5l-44 -64l-38 -55.5l-26 -38q15 -26 39 -42.5t55 -16.5h1zM289 476q-64 0 -102 -56q-19 -29 -29.5 -75t-10.5 -102q0 -42 8 -78t18 -54q8 11 24.5 35.5l38 55.5
l44.5 65.5l44 65l36.5 54.5t22.5 34q-17 25 -39.5 40t-53.5 15h-1zM494 508q-11 -14 -19 -25.5t-23 -30.5q38 -32 59 -86.5t21 -114.5q0 -67 -20 -117t-54 -83t-79 -49.5t-95 -16.5q-36 0 -72 8.5t-64 26.5l-42 -55l-35 19l46 58q-34 29 -55 80t-21 120q0 54 16 102t48 84.5
t78.5 58t108.5 21.5q76 0 130 -34q11 14 19.5 27l16.5 25z" />
    <glyph glyph-name="thorn.sc" unicode="&#xf7fe;" horiz-adv-x="514" 
d="M200 145q11 -6 30 -10.5t44 -4.5q26 0 45.5 9t31.5 23q11 14 18.5 38.5t7.5 55.5q0 30 -7.5 52.5t-20.5 35.5q-15 15 -39 21.5t-58 6.5q-29 0 -40 -3t-12 -9v-215zM107 343v62.5t-1 35.5q0 7 -2.5 11.5t-10 7.5t-21 4.5t-36.5 2.5l4 28q14 0 45.5 -1.5t64.5 -1.5
q31 0 60 1.5t57 1.5l1 -28q-22 -1 -34.5 -2.5t-19.5 -4.5t-9 -7t-2 -10q-1 -6 -1 -19t-1 -25q23 2 50.5 3.5t56.5 1.5q49 0 79 -9.5t48 -25.5q20 -17 31.5 -45t11.5 -64q0 -40 -14 -69t-36 -49q-26 -23 -63.5 -33.5t-82.5 -10.5q-24 0 -46.5 4t-35.5 7v-27.5t1 -25.5
q0 -8 2.5 -13.5t10 -9t22.5 -5.5t42 -3v-28q-30 0 -61.5 1.5t-65.5 1.5q-27 0 -58 -1.5t-59 -1.5l1 28q22 1 35.5 3t20.5 5t9.5 8.5t2.5 13.5q2 20 3 58.5t1 82.5v147z" />
    <glyph glyph-name="germandbls.sc" unicode="&#xe04d;" horiz-adv-x="925" 
d="M543 190q-1 -52 11.5 -85.5t33.5 -53t49 -27t57 -7.5q45 0 73 22t28 63q0 23 -12 41t-42 31q-27 12 -64 27t-67 29q-50 20 -70.5 52.5t-20.5 72.5q0 38 13.5 65.5t36.5 47.5q22 19 53.5 29.5t74.5 10.5q37 0 69 -10.5t47 -24.5l19 43l25 -6q-10 -51 -11.5 -99t-0.5 -87
l-28 1q-3 69 -34.5 110t-93.5 41q-38 0 -64 -21t-26 -62q0 -25 15 -46t59 -37l87.5 -37t54.5 -26q30 -16 49 -40t19 -64q0 -34 -10.5 -58.5t-28.5 -43.5q-25 -26 -66.5 -41.5t-98.5 -15.5q-30 0 -58.5 4t-58.5 12q-18 5 -30.5 9t-25.5 7q5 30 7 69.5t2 100.5zM81 190
q-1 -52 11.5 -85.5t33.5 -53t49 -27t57 -7.5q45 0 73 22t28 63q0 23 -12 41t-42 31q-27 12 -64 27t-67 29q-50 20 -70.5 52.5t-20.5 72.5q0 38 13.5 65.5t36.5 47.5q22 19 53.5 29.5t74.5 10.5q37 0 69 -10.5t47 -24.5l19 43l25 -6q-10 -51 -11.5 -99t-0.5 -87l-28 1
q-3 69 -34.5 110t-93.5 41q-38 0 -64 -21t-26 -62q0 -25 15 -46t59 -37l87.5 -37t54.5 -26q30 -16 49 -40t19 -64q0 -34 -10.5 -58.5t-28.5 -43.5q-25 -26 -66.5 -41.5t-98.5 -15.5q-30 0 -58.5 4t-58.5 12q-18 5 -30.5 9t-25.5 7q5 30 7 69.5t2 100.5z" />
    <glyph glyph-name="ampersand.sc" unicode="&#xf726;" horiz-adv-x="646" 
d="M255 493q-29 0 -48 -22t-19 -60q0 -28 17 -54.5t49 -56.5q39 23 56 49t17 57q0 34 -18 60.5t-53 26.5h-1zM613 -3q-30 -6 -57.5 -9.5t-61.5 -3.5q-27 0 -60 23.5t-71 61.5q-31 -45 -68 -65.5t-87 -20.5q-78 0 -121 38q-20 18 -31 43.5t-12 57.5q0 60 47 96
q13 10 34.5 22.5l41.5 24.5q-26 26 -41.5 55t-16.5 64q0 56 33 92q15 17 43.5 32t73.5 15q35 0 61.5 -10t44 -26.5t26.5 -37.5t9 -44q0 -30 -12 -48t-30 -31q-14 -10 -35 -22t-46 -25l22.5 -23l29 -29l31 -30l28.5 -27q16 29 26 49t23 43q21 38 47 66t59 28q20 0 33.5 -11.5
t13.5 -31.5q0 -13 -4.5 -20.5t-9.5 -12.5q-3 -3 -8 -4.5t-9 0.5q-6 4 -11.5 6t-15.5 2q-20 0 -35 -12t-33 -39q-11 -15 -23.5 -37.5l-26.5 -48.5q66 -66 111.5 -94.5t88.5 -28.5zM239 33q67 0 99 60l-74.5 73t-75.5 76q-26 -18 -41 -39.5t-15 -55.5q0 -26 9 -47t24 -36
t34 -23t39 -8h1z" />
    <glyph glyph-name="exclam.sc" unicode="&#xf721;" horiz-adv-x="218" 
d="M115 -13q-24 0 -41.5 17.5t-17.5 46.5q0 27 17.5 45t42.5 18q26 0 42.5 -17.5t16.5 -45.5q0 -29 -17.5 -46.5t-41.5 -17.5h-1zM114 557q11 0 22.5 -6.5t21 -17t15.5 -23.5t6 -26q0 -15 -4.5 -34.5t-10.5 -40.5q-7 -28 -13.5 -58t-11.5 -60t-8 -58t-3 -52h-30
q0 48 -11 109.5t-26 118.5q-6 22 -9.5 40t-3.5 34q0 15 7.5 28.5t17.5 23.5t21 16t19 6h1z" />
    <glyph glyph-name="exclamdown.sc" unicode="&#xf7a1;" horiz-adv-x="220" 
d="M105 516q23 0 41 -17.5t18 -46.5q0 -28 -17.5 -46t-43.5 -18q-25 0 -42 18t-17 46t17.5 46t42.5 18h1zM103 -55q-9 0 -19.5 6t-20 16.5t-16 24t-6.5 27.5q0 15 4 35t9 40q15 57 26 118.5t11 109.5h30q0 -24 3 -51.5t8 -57.5t11.5 -60.5t14.5 -58.5q6 -22 10 -40t4 -34
q0 -14 -7 -27.5t-17 -24t-22 -17t-22 -6.5h-1z" />
    <glyph glyph-name="question.sc" unicode="&#xf73f;" horiz-adv-x="385" 
d="M186 -15q-23 0 -41 18t-18 48q0 28 18 46.5t44 18.5q25 0 43 -18t18 -47t-18 -47.5t-45 -18.5h-1zM175 174q-15 15 -27 33.5t-15 37.5q-5 20 1 38t20 31l22 21l26.5 24.5l26.5 24l22 19.5t14.5 18.5t5.5 24.5q0 41 -21.5 61.5t-56.5 20.5q-21 0 -35 -5.5t-22.5 -14.5
t-12 -20t-3.5 -22q0 -12 2.5 -19t4.5 -14q4 -8 1.5 -14t-7.5 -11q-17 -16 -42 -16q-18 0 -30.5 13t-12.5 36q0 27 14.5 48.5t38 36.5t52 23t56.5 8q69 0 112 -36.5t43 -105.5q0 -35 -14 -55.5t-36 -37.5q-26 -20 -49.5 -40l-37.5 -32q-17 -17 -21.5 -32t3.5 -36z" />
    <glyph glyph-name="questiondown.sc" unicode="&#xf7bf;" horiz-adv-x="385" 
d="M200 510q23 0 41 -18t18 -48q0 -29 -18 -47t-44 -18q-25 0 -43 18t-18 47t18 47.5t45 18.5h1zM211 321q15 -15 26.5 -33.5t15.5 -37.5q5 -20 -1.5 -37.5t-20.5 -30.5l-22 -21l-26.5 -24l-26.5 -23.5t-22 -20.5t-14 -19t-5 -24q0 -41 21.5 -62t55.5 -21q42 0 58.5 19.5
t16.5 43.5q0 11 -2.5 18t-5.5 14q-4 8 -1.5 14.5t7.5 11.5q18 15 42 15q18 0 30.5 -12.5t12.5 -35.5q0 -27 -14.5 -49t-37.5 -37t-52 -23t-57 -8q-68 0 -111 37t-43 106q0 35 13.5 55t35.5 37l50 39.5t37 32.5q17 17 21.5 32t-3.5 36z" />
    <glyph glyph-name="zero.oldstyle" unicode="&#xf730;" horiz-adv-x="517" 
d="M257 416q-53 0 -82 -49q-15 -25 -23.5 -64t-8.5 -84q0 -41 6.5 -76.5t19.5 -62.5q29 -63 95 -63q51 0 80 45q17 25 24.5 65.5t7.5 90.5t-10 91.5t-27 64.5q-15 23 -35 32.5t-46 9.5h-1zM265 447q50 0 89 -17t66 -47t41 -71t14 -89q0 -51 -15 -94.5t-43.5 -75t-69 -49.5
t-92.5 -18q-51 0 -90.5 16t-66.5 45t-41 70t-14 91q0 49 15.5 92.5t44 76t69.5 51.5t92 19h1z" />
    <glyph glyph-name="one.oldstyle" unicode="&#xf731;" horiz-adv-x="334" 
d="M308 -4q-40 1 -77.5 2.5t-66.5 1.5q-25 0 -60 -1.5t-70 -2.5l-4 28l58 4q20 2 28 6t10 14t3.5 44.5t1.5 74.5v99q0 35 -0.5 65.5t-1.5 43.5q-1 14 -15 13l-77 -8l5 31q28 3 56 7.5t52.5 9.5t44 9.5t30.5 9.5l-2.5 -69t-1.5 -113v-102q0 -51 1 -77.5t3 -37.5q0 -16 16 -18
l67 -6v-28z" />
    <glyph glyph-name="two.oldstyle" unicode="&#xf732;" horiz-adv-x="471" 
d="M451 141q-4 -10 -9.5 -27l-12.5 -37t-13.5 -42l-12.5 -41q-59 3 -147.5 4.5t-220.5 1.5l-2 9l8 13.5l10.5 17l10 15t6.5 8.5q24 10 53 26t61 39q42 29 72.5 72t30.5 97q0 24 -4.5 41.5t-12.5 29.5q-8 14 -25.5 24t-43.5 10q-33 0 -54.5 -13t-34.5 -32.5t-18.5 -43
t-8.5 -43.5h-17l-21 32q4 24 18.5 49.5t38 47t56.5 35t74 13.5q30 0 58 -8t49.5 -25.5t34.5 -45t13 -66.5q0 -49 -29 -84t-77 -69l-55 -35.5t-76 -44.5l1 -4q39 0 76.5 1t68.5 2.5t52.5 3t28.5 3.5q10 2 14 7t6 10q4 8 12 26t15 39z" />
    <glyph glyph-name="three.oldstyle" unicode="&#xf733;" horiz-adv-x="444" 
d="M37 322q7 25 23 47.5t40 39.5t54 27.5t65 10.5q31 0 58 -8t47 -24t32 -40t12 -57q0 -35 -16 -58.5t-37 -37.5q-18 -12 -42 -23.5t-50 -20.5v-3q55 -4 90.5 -17.5t55.5 -33.5q34 -33 34 -91q0 -41 -18 -73t-43 -52q-29 -23 -67 -37t-92 -14q-41 0 -71 9.5t-49.5 23
t-29 29.5t-9.5 30q0 19 11.5 30.5t27.5 11.5q11 0 17 -7.5t10 -19.5q13 -37 39 -57t62 -20q29 0 49.5 11t33 30t18.5 44.5t6 54.5q0 27 -6 49.5t-20 39t-36.5 25.5t-56.5 9q-12 0 -24.5 -2t-23.5 -5l-19 18l6 12q20 3 41.5 8t38.5 13q10 4 23 12t24.5 21.5t19 33t7.5 47.5
q0 18 -4.5 35.5t-14.5 31.5t-26.5 23t-40.5 9q-45 0 -73.5 -27.5t-38.5 -91.5h-14z" />
    <glyph glyph-name="four.oldstyle" unicode="&#xf734;" horiz-adv-x="509" 
d="M30 83l128.5 165l140.5 172q24 5 48 13t35 13l7 -5q-2 -27 -3 -68t-2 -89t-1.5 -100t-0.5 -103q32 1 58.5 6t41.5 10l-2 -26q-16 -10 -42.5 -17t-55.5 -9q0 -37 0.5 -81t2.5 -82q-34 -2 -58 -6t-39 -9l-5 5q1 16 2.5 32t2 35.5t1.5 44t2 57.5q-88 1 -153.5 5.5t-94.5 9.5
zM291 80q2 38 3 80.5l2 82.5t1.5 74.5t1.5 57.5q-54 -66 -107.5 -139l-99.5 -140q7 -3 24.5 -5.5t44 -5t59.5 -4t71 -1.5z" />
    <glyph glyph-name="five.oldstyle" unicode="&#xf735;" horiz-adv-x="439" 
d="M55 124q5 16 10.5 43t9.5 58.5t7.5 65t6 62.5t3 51.5t-0.5 32.5q17 -6 54.5 -12.5t80.5 -6.5q33 0 58 1.5t43.5 6.5t32 13t24.5 22l16 -17q-23 -55 -67 -81q-19 -11 -48 -16.5t-63 -5.5q-29 0 -56.5 2.5t-41.5 5.5q-3 -22 -6 -48t-7 -51.5l-7.5 -49t-7.5 -40.5
q25 20 60.5 34t73.5 14q37 0 68 -9t53.5 -27.5t35.5 -48t13 -69.5q0 -30 -8 -60.5t-27 -55.5q-24 -32 -67.5 -56t-112.5 -24q-41 0 -70.5 9t-49 22.5t-29 30t-9.5 30.5q0 20 12 31t27 11q12 0 17.5 -7.5t10.5 -18.5q12 -38 36.5 -59t62.5 -21q30 0 50.5 12.5t33 33t18 47.5
t5.5 56q0 71 -35 104q-16 16 -33.5 21.5t-41.5 5.5q-46 0 -71.5 -19.5t-41.5 -41.5z" />
    <glyph glyph-name="six.oldstyle" unicode="&#xf736;" horiz-adv-x="504" 
d="M262 335q-46 0 -73.5 -25.5t-40.5 -56.5q-5 -13 -6.5 -23t-1.5 -25q0 -28 4 -55t14 -52q14 -36 38.5 -58.5t59.5 -22.5q28 0 49.5 13t35.5 43q13 27 18 56.5t5 61.5q0 23 -3.5 42.5t-11.5 39.5q-11 29 -34 45.5t-52 16.5h-1zM416 562q-8 2 -19.5 3t-21.5 1
q-54 0 -96 -22.5t-71 -59.5t-45.5 -84t-19.5 -96q30 31 69.5 55.5t87.5 24.5q76 0 119 -48.5t43 -131.5q0 -49 -14.5 -86t-37.5 -63q-26 -31 -66.5 -49.5t-90.5 -18.5q-43 0 -76.5 10t-59.5 33q-36 32 -55 85.5t-19 119.5q0 97 30.5 168t84.5 119q48 44 101 60.5t104 16.5
q29 0 49 -5z" />
    <glyph glyph-name="seven.oldstyle" unicode="&#xf737;" horiz-adv-x="461" 
d="M244 433h115t62 2l4 -7q-4 -17 -12.5 -45.5t-20.5 -50.5q-35 -63 -66 -125t-55 -121.5t-38 -117.5t-15 -113l-5 -5q-17 0 -34.5 3t-28.5 9q-17 9 -19 26q0 8 1 16t6 22q9 29 25.5 64.5t37.5 74l44.5 78l45.5 77.5l41 72.5t31 61.5q-29 3 -63.5 3.5t-84.5 0.5
q-39 0 -62.5 -1.5t-37 -5.5t-19.5 -11t-10 -18q-8 -18 -14 -36.5l-13 -39.5l-27 8q8 22 13.5 50t8.5 55.5t4 50.5t0 34q7 -3 17.5 -5.5t30 -4t52 -1.5h85.5h1z" />
    <glyph glyph-name="eight.oldstyle" unicode="&#xf738;" horiz-adv-x="483" 
d="M251 18q45 0 76.5 26.5t31.5 74.5q0 24 -9 43.5t-28 36.5t-49 34t-72 37q-31 -17 -54 -46.5t-23 -74.5q0 -24 7.5 -47.5t23 -42t39 -30t56.5 -11.5h1zM237 568q-36 0 -64.5 -25t-28.5 -74q0 -23 7 -41.5t24 -32.5q19 -16 47.5 -31.5t54.5 -26.5q66 43 66 115
q0 49 -27.5 82.5t-77.5 33.5h-1zM253 598q31 0 60 -9.5t51.5 -27.5t35.5 -43.5t13 -58.5q0 -29 -9.5 -48.5t-23.5 -32.5q-13 -13 -31.5 -26.5t-44.5 -30.5q44 -21 71 -41.5t41.5 -40.5t19.5 -40.5t5 -42.5q0 -35 -14 -65t-38 -51q-29 -26 -69 -39.5t-85 -13.5
q-91 0 -140.5 39.5t-49.5 110.5q0 31 12.5 52t26.5 35t35.5 28l50.5 33q-52 29 -77 63.5t-25 83.5q0 29 8 52t22 42q24 35 63.5 53.5t90.5 18.5h1z" />
    <glyph glyph-name="nine.oldstyle" unicode="&#xf739;" horiz-adv-x="489" 
d="M238 416q-51 0 -78 -48q-23 -45 -23 -107q0 -31 7.5 -57.5t21 -45.5t33.5 -30t45 -11q42 0 65 18.5t34 41.5q5 11 7.5 22.5t2.5 29.5q0 46 -10.5 85.5t-25.5 60.5q-14 20 -33 30.5t-45 10.5h-1zM90 -111q26 -3 58 1q85 6 139.5 70.5t63.5 176.5q-30 -29 -67.5 -49
t-79.5 -20q-39 0 -69.5 13.5t-50.5 37t-30.5 55t-10.5 68.5q0 38 10.5 69t29.5 57q26 34 66.5 56t97.5 22q80 0 131 -49q39 -38 54.5 -91.5t15.5 -112.5q0 -94 -30.5 -162.5t-76.5 -108.5q-44 -38 -93.5 -54t-96.5 -16q-17 0 -32 1.5t-26 5.5z" />
    <glyph glyph-name="dollar.oldstyle" unicode="&#xf724;" horiz-adv-x="481" 
d="M288 571l-8 -84q28 -2 54 -11.5t39 -20.5l17 36l26 -7q-11 -43 -13 -90t-2 -81l-27 -1q-3 68 -29.5 101t-67.5 41q-2 -11 -3.5 -28.5l-3.5 -40t-4 -47.5l-4 -50q56 -17 83.5 -28t42.5 -21q53 -31 53 -95q0 -31 -12 -56t-30 -42q-23 -22 -63.5 -37t-96.5 -17l-6 -84
l-40 -8l10 93q-41 2 -85 11.5t-75 20.5q5 31 7.5 69t4.5 91l27 4q-2 -43 7.5 -72.5t26.5 -49t40 -29t50 -12.5q4 34 7.5 78.5l7.5 95.5q-18 7 -40 14.5t-37 13.5q-51 19 -69.5 48.5t-18.5 67.5q0 68 55 108q22 17 56 27.5t78 10.5l5 74zM359 107q0 20 -10.5 33.5t-26 23
t-34 15.5t-34.5 12l-6.5 -88.5t-5.5 -79.5q22 0 43 5t37.5 15t26.5 25.5t10 37.5v1zM133 381q0 -30 23 -48.5t74 -33.5l7.5 91.5t4.5 67.5q-51 1 -80 -20t-29 -56v-1z" />
    <glyph glyph-name="cent.oldstyle" unicode="&#xf7a2;" horiz-adv-x="485" 
d="M140 221q0 -29 5.5 -57.5t17.5 -51.5t31 -40t46 -23q4 41 7.5 88l7 94t6.5 93t6 86q-34 -3 -58 -20.5t-39.5 -43.5t-22.5 -58.5t-7 -65.5v-1zM314 523l-8 -86q31 -2 57.5 -9.5t45.5 -20.5t30 -31.5t11 -41.5q0 -24 -14.5 -37.5t-37.5 -13.5q-15 0 -23 8t-5 18q2 9 3 15.5
t1 18.5q0 26 -18 43.5t-54 21.5l-14 -180.5l-13 -182.5q61 -1 97.5 26t56.5 80h16l4 -41q-10 -20 -27 -37.5t-40 -31.5t-50.5 -23t-57.5 -11l-6 -85l-41 -9l10 93q-52 2 -90.5 19t-61.5 43q-21 24 -33.5 59.5t-12.5 82.5q0 49 16.5 89.5t47 70.5t73 47.5t93.5 19.5l5 78z
" />
    <glyph glyph-name="Euro.oldstyle" unicode="&#xe013;" horiz-adv-x="477" 
d="M392 332l-12 -34l-214 1q-1 -11 -1 -25.5v-25.5l202 1l-12 -34l-189 1q1 -27 8 -59.5t22 -61t40.5 -47.5t65.5 -19q19 0 37 4.5t34.5 16.5t30.5 33.5t26 54.5l25 -15q-24 -72 -67 -104t-110 -32q-60 0 -99 21t-63 54.5t-34.5 74t-13.5 79.5h-56l10 32h45v25.5t2 25.5h-37
l10 32h30q6 36 21 74t42 69.5t68 52t98 20.5q40 0 68 -9.5t46 -24.5t26 -32.5t8 -32.5q0 -26 -13.5 -39.5t-33.5 -13.5q-6 0 -12 1.5t-10 5.5q-10 7 -7 17q2 8 3 15.5t1 18.5q0 33 -21.5 50t-57.5 17t-60 -20t-38.5 -49t-21.5 -61.5t-10 -58.5z" />
    <glyph glyph-name="florin.oldstyle" unicode="&#xe04b;" horiz-adv-x="472" 
d="M69 329q20 -1 42 -1t42 -1q12 79 29.5 126t45.5 79q27 31 59.5 45.5t67.5 14.5q38 0 64 -18.5t26 -51.5q0 -24 -14 -36.5t-33 -12.5q-11 0 -20 5.5t-7 16.5q2 6 2.5 14t0.5 14q0 41 -36 41q-22 0 -37 -20.5t-24 -55.5q-8 -28 -14.5 -67.5t-14.5 -93.5q32 1 60 1t60 1
l-11 -37q-26 1 -54.5 1.5t-59.5 0.5l-11 -76.5l-9.5 -67t-10 -60.5l-11.5 -58q-24 -117 -100 -163q-23 -13 -43.5 -18.5t-44.5 -5.5q-35 0 -59.5 16.5t-24.5 41.5q0 21 14.5 33.5t29.5 12.5q11 0 17 -6t10 -17q6 -20 17.5 -34t28.5 -14q23 0 34.5 21.5t21.5 72.5
q11 64 22 143l24 179h-39t-52 -2z" />
    <glyph glyph-name="sterling.oldstyle" unicode="&#xe0cd;" horiz-adv-x="486" 
d="M29 290q14 -1 29.5 -1h42.5q-4 36 -4.5 63t4.5 52q11 69 62 106t120 37q38 0 64.5 -9.5t43 -24t24 -31.5t7.5 -33q0 -26 -14 -40.5t-35 -14.5q-16 0 -24 7q-5 4 -7.5 8t-0.5 10q2 7 3.5 15t1.5 16q0 32 -17.5 50t-53.5 18q-37 0 -60 -26.5t-23 -86.5q0 -28 2.5 -53
l6.5 -63h64t40 0.5t27.5 1t27.5 1.5l-13 -39q-9 0 -20 0.5t-27.5 0.5t-40 0.5t-57.5 0.5q0 -32 -5 -58t-20 -54q-12 -20 -29.5 -38t-42.5 -37q78 1 130 2t84.5 2.5t47.5 3t18 3.5q5 2 8.5 5.5t6.5 12.5l12.5 34t10.5 31l28 5q-11 -49 -16.5 -96t-6.5 -72l-6 -5
q-29 2 -65.5 3l-75.5 2t-76 1h-65q-45 0 -70 -1t-45 -2l-6 9l21 46q26 16 46.5 43.5t22.5 79.5q2 23 0 41.5l-4 38.5h-38.5t-49.5 -2z" />
    <glyph glyph-name="yen.oldstyle" unicode="&#xe0d3;" horiz-adv-x="491" 
d="M4 536q20 0 47 -1t55 -1q40 0 66 1t52 1l3 -27l-22 -2l-22 -2q-14 -3 -7 -18l41 -75.5l53 -95.5l56 99.5t32 63.5q4 8 4.5 13.5t-5.5 8.5t-19 5t-37 3l3 27q17 0 43.5 -1t49.5 -1q19 0 39.5 1t41.5 1l1 -27q-15 -1 -26.5 -3t-21 -6.5t-17.5 -13t-17 -21.5l-23.5 -35.5
t-27.5 -44l-29 -48.5t-28 -49h33.5t27.5 0.5l27 1t34 1.5l-10 -39q-13 0 -44.5 1.5t-71.5 1.5v-71q43 0 70 0.5t48 1.5l-9 -39q-16 1 -43.5 2t-66.5 1q0 -26 0.5 -50t2.5 -44q2 -12 6.5 -17.5t17.5 -7.5t28 -3t36 -3l2 -28q-32 2 -69 2.5t-82 0.5q-23 0 -57 -1l-67 -2l-1 28
q18 2 33 3.5t29 3.5q16 2 22 9t8 22q1 14 2 39t1 48h-61.5t-51.5 -2l5 40q23 -1 50 -2t59 -1v70h-67t-55 -2l10 39q11 0 36 -1t70 -2l-26 46l-28.5 49.5l-28.5 46l-24 36.5q-9 13 -16.5 21.5t-16 13t-20 6t-27.5 1.5v27z" />
    <glyph glyph-name="numbersign.oldstyle" unicode="&#xe04e;" horiz-adv-x="475" 
d="M253 504q-5 -15 -16.5 -52.5t-24.5 -84.5h103q11 40 19.5 74l14.5 60l43 3q-10 -28 -20.5 -63.5t-20.5 -73.5h57.5t35.5 1q-5 -14 -10.5 -34t-8.5 -32q-14 1 -35.5 1h-54.5l-32 -127q21 0 35.5 0.5t26 0.5t21 0.5t20.5 0.5q-5 -12 -10 -32t-8 -34h-42.5t-58.5 1
l-19.5 -89l-14.5 -67l-44 -4q5 17 16 58l27 102h-103q-15 -56 -24.5 -94.5t-14.5 -61.5l-43 -7q6 20 16 56.5l29 106.5q-23 -1 -43 -0.5t-46 -0.5q5 14 9.5 32t7.5 33q13 0 33 -0.5t55 -1.5l34 129q-32 1 -57 0.5t-47 -1.5q5 13 9.5 30t8.5 35q14 -1 41.5 -1h59.5
q11 40 19.5 75.5l14.5 58.5zM196 304l-33 -129h105l32 129h-104z" />
    <glyph glyph-name="percent.oldstyle" unicode="&#xf642;" horiz-adv-x="710" 
d="M548 284q-11 0 -22.5 -5t-19.5 -16q-9 -11 -18.5 -38.5t-10.5 -75.5q0 -45 8.5 -73.5t20.5 -40.5q16 -16 41 -16q31 0 56 33t25 104q0 20 -3 42.5t-11.5 41.5t-24 31.5t-40.5 12.5h-1zM542 312q36 0 61 -13t40 -35t21.5 -50t6.5 -59q0 -36 -10 -66.5t-28 -52t-43.5 -33.5
t-56.5 -12q-60 0 -98 37.5t-38 113.5q0 41 12.5 73t32.5 53.5t46 32.5t53 11h1zM190 528q-25 0 -40 -18q-11 -11 -20.5 -38t-10.5 -78q0 -42 8 -71.5t22 -41.5q15 -17 42 -17q13 0 27 7.5t25.5 24t18.5 43.5t7 67q0 19 -3 40.5t-11.5 39.5t-23.5 30t-40 12h-1zM124 -14
l52.5 70l67.5 92.5l74.5 102.5l73.5 101l63 88l45 63q-24 -13 -55 -20.5t-69 -7.5q-21 0 -42.5 3t-35.5 8q16 -37 16 -81q0 -78 -38 -124t-100 -46q-59 0 -97.5 38t-38.5 116q0 40 12.5 71.5t33 53t47 32.5t54.5 11q35 0 63 -14l15 11q17 -19 50.5 -33.5t78.5 -14.5
q32 0 55 5t39 11.5t25 13.5t13 11q5 5 11 14l17 25l53 5l-81.5 -111.5l-113 -154.5l-128.5 -179l-128 -184z" />
    <glyph glyph-name="perthousand.oldstyle" unicode="&#xf628;" horiz-adv-x="1015" 
d="M855 284q-25 0 -42 -20q-9 -11 -18.5 -39t-10.5 -76q0 -45 8.5 -73.5t20.5 -40.5q16 -16 41 -16q31 0 56 33t25 104q0 20 -3 42.5t-12 41.5t-24.5 31.5t-39.5 12.5h-1zM849 312q36 0 61 -13t40 -35t21.5 -50t6.5 -59q0 -36 -10 -66.5t-28 -52t-43.5 -33.5t-56.5 -12
q-60 0 -98 37.5t-39 113.5q0 41 12.5 73t33 53.5t46.5 32.5t53 11h1zM548 284q-25 0 -42 -20q-9 -11 -18.5 -39t-10.5 -76q0 -45 8.5 -73.5t20.5 -40.5q16 -16 41 -16q31 0 56 33t25 104q0 20 -3 42.5t-11.5 41.5t-24 31.5t-40.5 12.5h-1zM542 312q36 0 61 -13t40 -35
t21.5 -50t6.5 -59q0 -36 -10 -66.5t-28 -52t-43.5 -33.5t-56.5 -12q-60 0 -98 37.5t-38 113.5q0 41 12.5 73t32.5 53.5t46 32.5t53 11h1zM190 528q-25 0 -40 -18q-11 -11 -20.5 -38t-10.5 -78q0 -42 8 -71.5t22 -41.5q15 -17 42 -17q13 0 27 7.5t25.5 24t18.5 43.5t7 67
q0 19 -3 40.5t-11.5 39.5t-23.5 30t-40 12h-1zM124 -14l52.5 70l67.5 92.5l74.5 102.5l73.5 101l63 88l45 63q-25 -13 -55.5 -20.5t-68.5 -7.5q-21 0 -43 3.5t-35 7.5q16 -37 16 -81q0 -78 -38 -124t-100 -46q-59 0 -97.5 38t-38.5 116q0 40 12.5 71.5t33 53t47 32.5
t54.5 11q35 0 63 -14l15 11q17 -19 50.5 -33.5t78.5 -14.5q32 0 55 5t39 11.5t25 13.5t13 11q5 5 11 14l17 25l53 5l-81.5 -111.5l-113 -154.5l-128.5 -179l-128 -184z" />
    <glyph glyph-name="zero.fitted" unicode="&#xf639;" horiz-adv-x="478" 
d="M239 595q-24 0 -40.5 -12.5t-30.5 -38.5q-9 -18 -16.5 -44t-13 -57t-8 -65t-2.5 -68q0 -71 8.5 -132t25.5 -100q13 -28 32.5 -44.5t48.5 -16.5q26 0 43 14t31 43q17 35 25.5 94.5t8.5 138.5q0 85 -9.5 144t-24.5 91q-14 26 -31.5 39.5t-45.5 13.5h-1zM247 625
q81 0 134 -59q37 -43 53.5 -109.5t16.5 -140.5q-1 -115 -27.5 -183.5t-66.5 -103.5q-30 -25 -63 -34t-61 -9q-35 0 -69.5 12.5t-60.5 39.5q-42 44 -59.5 113.5t-16.5 150.5q1 88 24.5 162.5t77.5 119.5q52 41 117 41h1z" />
    <glyph glyph-name="two.fitted" unicode="&#xf63a;" horiz-adv-x="478" 
d="M451 159q-16 -56 -23 -99.5t-9 -64.5q-7 1 -22 1.5l-46.5 1.5t-83 1.5t-130.5 0.5h-59t-48 -2l-2 8l11 27t12 24q46 34 86 71t72 74.5t54 73t32 67.5q9 29 12.5 56.5t3.5 59.5q0 24 -5 48.5t-16.5 44t-30 31.5t-45.5 12q-51 0 -73 -27t-22 -74q0 -11 2.5 -22.5t5.5 -22.5
q3 -15 -9 -29q-15 -13 -34 -13q-22 0 -35 16t-13 45t14 56t38 50q26 23 63 37t81 14q40 0 70.5 -10.5t50.5 -26.5q35 -26 49 -66t14 -84q0 -45 -15.5 -80.5t-44.5 -68.5q-25 -29 -80.5 -80l-147.5 -135q116 2 174.5 4.5t73.5 4.5q19 1 26 22l11 28t12 38z" />
    <glyph glyph-name="three.fitted" unicode="&#xf63b;" horiz-adv-x="479" 
d="M242 625q31 0 61.5 -8.5t54.5 -26t39 -43.5t15 -61q0 -39 -16.5 -63.5t-39.5 -41.5q-20 -14 -47 -25l-56 -22v-4q46 -2 87 -16t66 -37q21 -20 31 -44t10 -59q0 -45 -17.5 -78t-43.5 -56q-28 -23 -71.5 -38.5t-97.5 -15.5q-44 0 -78.5 10t-58 26.5t-36 36.5t-12.5 41
q0 22 14 36.5t35 14.5q24 0 32 -33q11 -54 39 -78t70 -24q31 0 53 11.5t36 32.5t20.5 49t6.5 61q0 59 -28.5 96t-97.5 37q-14 0 -28.5 -2t-25.5 -6l-20 23l4 8q22 3 44 9.5t39 16.5q15 6 30 16t27.5 25t20.5 37t8 52q0 22 -5.5 42t-17 35.5t-29 24.5t-40.5 9
q-44 0 -68.5 -22t-24.5 -64q0 -16 5 -34q3 -14 -8 -25q-6 -7 -14 -9t-17 -2q-18 0 -30.5 13t-12.5 40q0 21 12.5 45t37 44t60 33t82.5 13h1z" />
    <glyph glyph-name="four.fitted" unicode="&#xf63c;" horiz-adv-x="478" 
d="M8 220l78.5 107.5l79 108l68 94t45.5 66.5q16 5 41.5 14.5t47.5 18.5l6 -4q-1 -31 -2 -74.5t-1.5 -91l-1 -94.5t-0.5 -86v-60q45 1 67.5 5.5t36.5 9.5v-26q-12 -8 -37 -16t-67 -12q0 -43 0.5 -87.5t1.5 -92.5q-25 1 -51.5 -3t-43.5 -9l-6 4q2 23 2.5 70t2.5 116
q-46 0 -88.5 1.5t-77 3.5t-58.5 5t-34 6zM276 218l2 88t1.5 88.5l1 83t1.5 69.5l-114.5 -160t-100.5 -153q8 -3 27 -6t46.5 -5t62 -3.5t73.5 -1.5z" />
    <glyph glyph-name="five.fitted" unicode="&#xf63d;" horiz-adv-x="478" 
d="M66 275q6 18 11.5 47.5t10 64.5t8.5 71.5t6.5 68t3.5 55.5t1 33q17 -6 57.5 -10.5t89.5 -4.5q71 0 110 8t59 35l16 -18q-11 -26 -28.5 -49t-39.5 -35q-20 -11 -52.5 -16.5t-70.5 -5.5q-36 0 -65 2.5t-43 4.5q-3 -25 -7 -53.5l-8 -57t-8.5 -54.5t-8.5 -46q26 21 67 37
t84 16q39 0 72.5 -9.5t58.5 -30t39 -53t14 -78.5q0 -34 -9 -66t-29 -59q-27 -38 -74.5 -62t-111.5 -24q-43 0 -76.5 9.5t-57 25t-35.5 35.5t-12 41q0 20 14 35t35 15q23 0 31 -32q11 -54 39 -76.5t67 -22.5q30 0 51.5 13t35 35.5t20 53t6.5 64.5q0 79 -38 115
q-16 15 -34.5 22.5t-44.5 7.5q-52 0 -83.5 -23.5t-45.5 -52.5z" />
    <glyph glyph-name="six.fitted" unicode="&#xf63e;" horiz-adv-x="478" 
d="M251 336q-45 0 -72 -25.5t-40 -57.5q-5 -11 -6 -22t-1 -25q0 -21 3.5 -52t14.5 -60q14 -35 37 -56.5t56 -21.5q55 0 83 52q13 26 18.5 56.5t5.5 62.5q0 26 -3.5 47t-11.5 41q-11 27 -32 44t-51 17h-1zM401 591q-8 2 -17.5 3t-18.5 1q-54 0 -96.5 -24.5t-72 -65t-46 -93.5
t-19.5 -111q13 14 29.5 29t36 27t43 20t49.5 8q38 0 67.5 -13.5t50 -37t31.5 -56t11 -70.5q0 -51 -14.5 -89.5t-37.5 -66.5q-25 -29 -64.5 -47.5t-90.5 -18.5q-86 0 -138 48q-35 32 -54.5 86.5t-19.5 124.5q0 101 31 176.5t86 126.5q46 42 99.5 61t105.5 19q15 0 27 -2
t20 -4z" />
    </font>
</defs>
</svg>
