<?xml version="1.0" standalone="no"?>
<!DOCTYPE svg PUBLIC "-//W3C//DTD SVG 1.1//EN" "http://www.w3.org/Graphics/SVG/1.1/DTD/svg11.dtd" >
<svg>
<metadata>
Created by FontForge 20090622 at Wed Jun 10 13:05:10 2015
 By deploy user
C TARNEX Corp., 1993
</metadata>
<defs>
<font id="EvropaBold" horiz-adv-x="2191" >
  <font-face 
    font-family="Evropa"
    font-weight="700"
    font-stretch="normal"
    units-per-em="4096"
    panose-1="2 11 -30 0 0 0 0 0 0 0"
    ascent="3276"
    descent="-820"
    x-height="2044"
    cap-height="2920"
    bbox="-45 -918 4604 3596"
    underline-thickness="50"
    underline-position="-75"
    unicode-range="U+0020-U+2122"
  />
<missing-glyph horiz-adv-x="3072" 
d="M512 0v2560h2048v-2560h-2048zM2496 64v2432h-1920v-2432h1920z" />
    <glyph glyph-name=".notdef" horiz-adv-x="3072" 
d="M512 0v2560h2048v-2560h-2048zM2496 64v2432h-1920v-2432h1920z" />
    <glyph glyph-name=".null" horiz-adv-x="0" 
 />
    <glyph glyph-name="nonmarkingreturn" horiz-adv-x="0" 
 />
    <glyph glyph-name="space" unicode=" " horiz-adv-x="3072" 
 />
    <glyph glyph-name="exclam" unicode="!" horiz-adv-x="1204" 
d="M827 532v-532h-491v532h491zM856 2912l-41 -1945h-475l-33 1945h549z" />
    <glyph glyph-name="quotedbl" unicode="&#x22;" horiz-adv-x="1708" 
d="M639 1753h-385l-90 1167h573zM1450 1753h-385l-94 1167h577z" />
    <glyph glyph-name="numbersign" unicode="#" horiz-adv-x="2966" 
d="M1401 1970h569l230 561h245l-229 -561h520l-82 -217h-528l-230 -557h541l-94 -213h-528l-238 -577h-234l234 577h-565l-242 -577h-242l234 577h-529l86 213h541l217 557h-536l90 217h540l226 561h241zM1319 1753l-229 -557h569l229 557h-569z" />
    <glyph glyph-name="dollar" unicode="$" horiz-adv-x="2748" 
d="M1528 2499v-791q270 -9 459.5 -37.5t336.5 -108t230.5 -238.5t83.5 -419q0 -342 -102 -534.5t-316.5 -273.5t-585.5 -97h-106v-328h-316v328q-255 0 -451.5 35.5t-342 126.5t-226.5 258t-81 420l-5 106h508q0 -188 31 -290t98 -145.5t139 -52t330 -24.5v844
q-229 26 -439 52.5t-344 95.5t-210 235.5t-76 468.5q0 335 131.5 514t360 240t577.5 61v279h316v-279q391 -17 600 -76t320.5 -239t111.5 -545h-492q-4 20 -4 61q0 145 -43 220t-130.5 101.5t-235.5 26.5q-20 0 -56.5 2.5t-70.5 2.5zM1212 2499h-77q-180 -4 -274.5 -24
t-152 -97.5t-57.5 -239.5q0 -198 64 -287t172.5 -110t324.5 -21v779zM1528 1262v-828h94q257 0 380.5 84.5t123.5 325.5q0 191 -69 276.5t-176.5 105.5t-352.5 36z" />
    <glyph glyph-name="percent" unicode="%" horiz-adv-x="3527" 
d="M1389 2339v-275q0 -259 -63 -389.5t-194 -175.5t-370 -45q-232 0 -365.5 47.5t-197.5 179.5t-64 383v275q0 252 64 380t196 171t367 43q239 0 370.5 -41.5t194 -168t62.5 -384.5zM762 1700q131 0 202 20.5t100.5 79t29.5 174.5v430q0 125 -20.5 181t-89.5 79t-222 23
q-154 0 -221.5 -22t-89 -79.5t-21.5 -181.5v-434q0 -120 21 -175t90 -75t221 -20zM2875 2920l-1855 -2920h-303l1851 2920h307zM3457 877v-275q0 -259 -63 -389.5t-193.5 -175.5t-370.5 -45q-235 0 -367 47t-195.5 179t-63.5 384v275q0 252 63.5 379t194 168.5t368.5 41.5
q244 0 373 -40.5t191.5 -166t62.5 -382.5zM2830 238q135 0 204 19.5t98.5 78t29.5 176.5v430q0 124 -20.5 179.5t-90.5 77.5t-221 22q-153 0 -221 -21t-89 -77.5t-21 -180.5v-434q0 -123 21 -177.5t88 -73.5t222 -19z" />
    <glyph glyph-name="ampersand" unicode="&#x26;" horiz-adv-x="3088" 
d="M2171 1413h475q4 -53 4 -168q0 -372 -61 -569l422 -357l-263 -319l-352 295q-87 -139 -222.5 -207t-283.5 -86t-358 -18h-78q-337 0 -545 24.5t-363 114.5t-236 283t-81 520q0 233 46 379.5t166 233.5t341 120q-105 93 -153.5 163.5t-66 156.5t-17.5 229q0 295 112 446.5
t305.5 198.5t495.5 47q329 0 525 -50.5t304.5 -213.5t108.5 -486v-151h-495q0 219 -20.5 309.5t-107 128t-294.5 37.5q-140 0 -222 -14.5t-137 -72.5t-55 -183q0 -151 42 -224.5t175 -193.5l885 -758q2 33 7 102t5 107q0 30 -4 88t-4 88zM1077 1401q-205 -42 -264 -128.5
t-59 -309.5q0 -198 30.5 -308t99 -160.5t174 -63.5t306.5 -13h160q192 0 300.5 33.5t207.5 154.5z" />
    <glyph glyph-name="quotesingle" unicode="'" horiz-adv-x="909" 
d="M651 1753h-397l-94 1167h590z" />
    <glyph glyph-name="parenleft" unicode="(" horiz-adv-x="1352" 
d="M1151 2961v-454q-147 0 -231 -45.5t-119 -147.5t-35 -282v-1512q0 -289 72.5 -402.5t234.5 -113.5h78v-455q-319 0 -505 70.5t-275.5 212t-117.5 350t-28 559.5v1045q0 328 28.5 536t119 351t277.5 215.5t501 72.5z" />
    <glyph glyph-name="parenright" unicode=")" horiz-adv-x="1352" 
d="M225 2961v-454q220 0 302.5 -103.5t82.5 -371.5v-1512q0 -197 -32.5 -310t-99.5 -159.5t-175 -46.5h-78v-455q320 0 506 70.5t275.5 212t117 351t27.5 558.5v1045q0 336 -28 540.5t-118.5 347t-278 215t-501.5 72.5z" />
    <glyph glyph-name="asterisk" unicode="*" horiz-adv-x="2748" 
d="M2146 2257l-528 -180l315 -451l-229 -176l-324 467l-352 -467l-229 176l327 451l-532 196l102 283l529 -201v565h291v-565l536 201z" />
    <glyph glyph-name="plus" unicode="+" 
d="M70 1663h888v864h275v-864h893v-258h-893v-860h-275v860h-888v258z" />
    <glyph glyph-name="comma" unicode="," horiz-adv-x="983" 
d="M729 524v-512q0 -193 -37 -301t-139 -157.5t-303 -49.5q-37 0 -53 4v230q126 3 181.5 44t55.5 157q0 10 -2 31t-2 30h-192v524h491z" />
    <glyph glyph-name="hyphen" unicode="-" 
d="M66 1663h2056v-258h-2056v258z" />
    <glyph glyph-name="period" unicode="." horiz-adv-x="926" 
d="M705 532v-532h-488v532h488z" />
    <glyph glyph-name="slash" unicode="/" horiz-adv-x="2654" 
d="M2367 2920l-1978 -3358h-369l1983 3358h364z" />
    <glyph glyph-name="zero" unicode="0" horiz-adv-x="2748" 
d="M2617 1458q-5 -497 -49.5 -772t-169 -431.5t-361.5 -218t-657 -61.5q-419 0 -653.5 61.5t-357.5 217.5t-166 433t-43 771q0 499 43 778t165.5 435.5t357.5 219t654 62.5q421 0 659.5 -62.5t363 -219.5t169.5 -438t45 -775zM700 1458q0 -396 18 -579.5t81 -277t189.5 -122
t391.5 -28.5q279 0 401 21.5t185.5 110.5t82.5 279t19 596q0 417 -17.5 604.5t-80.5 278.5t-185 114t-405 23q-280 0 -400.5 -23t-183 -114.5t-79.5 -279.5t-17 -603z" />
    <glyph glyph-name="one" unicode="1" horiz-adv-x="2748" 
d="M1925 2925v-2925h-536v2454l-758 -758l-324 344l938 885h680z" />
    <glyph glyph-name="two" unicode="2" horiz-adv-x="2748" 
d="M2421 442v-442h-2204v606q0 260 63 415.5t182 238t275 122t439 84.5q145 19 301 42t240.5 70t127.5 150.5t43 290.5q0 221 -52 320t-164 127t-345 28q-254 0 -370 -30t-164 -137.5t-48 -352.5v-94h-528v127q0 293 56 473t182 278t334.5 136.5t537.5 38.5q387 0 619 -66
t353.5 -264.5t121.5 -583.5q0 -370 -104 -559.5t-277.5 -261.5t-515.5 -123.5t-500 -91.5q-183 -44 -231 -145t-48 -318v-78h1676z" />
    <glyph glyph-name="three" unicode="3" horiz-adv-x="2748" 
d="M1130 1282v418l312 4q208 0 298 26.5t125 113.5t40 286q0 158 -48.5 236.5t-167 107.5t-350.5 29q-254 0 -369.5 -39t-153.5 -145t-38 -341h-524q0 364 98 573.5t320 301.5t610 92q440 0 691.5 -72.5t359.5 -237t108 -452.5q0 -198 -35 -334.5t-138.5 -228t-301.5 -121.5
v-12q201 -28 313 -102t157.5 -203.5t45.5 -337.5q0 -230 -48.5 -386.5t-172 -264.5t-348.5 -163t-570 -55q-427 0 -673.5 84.5t-353.5 268.5t-107 495v164h520q0 -255 40.5 -369t169.5 -157t421 -43q242 0 367.5 45t172 142t46.5 272q0 180 -46 265.5t-144 112.5t-286 27
h-340z" />
    <glyph glyph-name="four" unicode="4" horiz-adv-x="2748" 
d="M2232 2920v-1871h344v-418h-344v-631h-532v631h-1581v606l1294 1683h819zM561 1049h1139v1466z" />
    <glyph glyph-name="five" unicode="5" horiz-adv-x="2748" 
d="M2372 2925v-422h-1553v-725q110 144 277 186.5t407 42.5q263 0 450 -54.5t307 -169t177 -292t57 -430.5q0 -412 -84 -639t-326 -334.5t-716 -107.5q-419 0 -656 73.5t-345.5 259t-108.5 531.5h541q0 -182 55 -272.5t163.5 -118t297.5 -27.5q275 0 407 44t180 160.5
t48 356.5q0 231 -41.5 355t-145 175.5t-301.5 51.5h-196q-186 0 -301.5 -34.5t-145.5 -170.5h-491v1561h2044z" />
    <glyph glyph-name="six" unicode="6" horiz-adv-x="2744" 
d="M2421 2101h-533q0 156 -35.5 241.5t-121.5 121t-244 35.5h-254q-188 0 -292.5 -34t-150 -123.5t-45.5 -256.5v-586q68 129 169 190.5t216 77t291 15.5q353 0 575.5 -68t340 -254t117.5 -526q0 -294 -46 -473.5t-164.5 -285t-334 -150.5t-570.5 -45q-392 0 -635 73
t-375 280.5t-132 600.5v1032q1 310 71 503.5t208 294.5t344 139t515 38q292 0 475 -24t322 -106.5t214 -253.5t75 -456zM745 881q0 -215 43.5 -308t162.5 -122t384 -29q254 0 368.5 28t164 123.5t57.5 307.5q0 197 -42 292.5t-167.5 135t-388.5 39.5q-204 0 -315 -17
t-169 -65t-78 -134.5t-20 -250.5z" />
    <glyph glyph-name="seven" unicode="7" horiz-adv-x="2748" 
d="M2372 2920v-536l-1192 -2384h-602l1253 2458h-1626v462h2167z" />
    <glyph glyph-name="eight" unicode="8" horiz-adv-x="2744" 
d="M1982 1503q287 -68 393.5 -221t106.5 -446q0 -242 -55.5 -404.5t-184 -261.5t-346 -144.5t-553.5 -45.5q-333 0 -551 44.5t-345.5 143.5t-182.5 261t-55 407q0 193 47 323t157 214.5t304 129.5q-184 59 -287.5 149t-143.5 213.5t-40 301.5q0 226 60 376t188.5 236.5
t335.5 124t513 37.5q308 0 516.5 -38t336 -125t186.5 -235t59 -380q0 -182 -34.5 -303t-134 -210t-290.5 -147zM778 2101q0 -178 45.5 -260.5t161 -109.5t358.5 -27q247 0 361.5 26.5t157.5 107.5t43 263q0 174 -45.5 259.5t-162 116t-354.5 30.5t-356 -33t-163.5 -117.5
t-45.5 -255.5zM745 864q0 -183 46.5 -276.5t172 -131.5t379.5 -38q256 0 383.5 38t175.5 130t48 270q0 195 -47 283t-171.5 117.5t-388.5 29.5q-270 0 -390 -28.5t-164 -114.5t-44 -279z" />
    <glyph glyph-name="nine" unicode="9" horiz-adv-x="2744" 
d="M225 815h533q0 -229 84 -311t317 -82h254q191 0 294 33t148.5 121t45.5 255v590q-97 -187 -252.5 -236.5t-423.5 -49.5q-375 0 -598.5 71.5t-331 254.5t-107.5 521q0 261 47 435.5t168.5 291.5t340.5 174.5t563 57.5q391 0 630 -72.5t367.5 -282.5t128.5 -604v-1032
q0 -310 -67 -502t-202 -293t-340.5 -138t-512.5 -37q-283 0 -471.5 25t-327 107t-213 251t-74.5 452zM1901 2036q0 190 -44.5 286t-168.5 136.5t-377 40.5q-239 0 -360.5 -41t-169.5 -138t-48 -284q0 -163 19.5 -250.5t78 -135t170 -64.5t318.5 -17q204 0 316 17t169.5 64
t77 135t19.5 251z" />
    <glyph glyph-name="colon" unicode=":" horiz-adv-x="926" 
d="M705 532v-532h-488v532h488zM705 2044v-533h-488v533h488z" />
    <glyph glyph-name="semicolon" unicode=";" horiz-adv-x="922" 
d="M680 524v-512q0 -196 -36.5 -302.5t-138.5 -156t-304 -49.5q-33 0 -49 4v230q128 3 186.5 44.5t58.5 156.5v61h-204l-5 524h492zM680 2040v-533h-487v533h487z" />
    <glyph glyph-name="less" unicode="&#x3c;" 
d="M2040 2658v-528l-1331 -655l1331 -656v-524l-1897 958v447z" />
    <glyph glyph-name="equal" unicode="=" 
d="M66 1982h2056v-253h-2056v253zM66 1343h2056v-253h-2056v253z" />
    <glyph glyph-name="greater" unicode="&#x3e;" 
d="M147 295v528l1332 652l-1327 655l-5 528l1897 -958v-451z" />
    <glyph glyph-name="question" unicode="?" horiz-adv-x="2318" 
d="M1282 532v-532h-483v532h483zM1294 930h-495q0 245 22.5 360t110 196.5t289.5 168.5q167 72 249 125t125 135.5t43 222.5q0 150 -41.5 234t-143.5 121.5t-290 37.5q-187 0 -285 -34t-138 -117.5t-40 -241.5v-106h-487v155q0 268 97.5 434t300.5 241t524 75
q503 0 745 -154.5t242 -599.5q0 -244 -43.5 -387t-131 -227t-243.5 -160q-202 -94 -257.5 -123t-102 -98t-46.5 -189q0 -9 -2 -34t-2 -35z" />
    <glyph glyph-name="at" unicode="@" horiz-adv-x="3068" 
d="M1847 2150h361v-925q8 -115 14.5 -156.5t42.5 -80t115 -38.5q84 0 129 51t64.5 197.5t19.5 439.5q0 326 -31.5 483t-128.5 233.5t-281.5 98t-586.5 21.5q-393 0 -592 -30.5t-305.5 -126t-143.5 -286.5t-37 -552q0 -403 20 -602.5t103.5 -328.5t265.5 -185t517 -56
q295 0 430 3q134 3 237 19t163.5 50t103.5 96l258 -119q-69 -135 -190.5 -201.5t-343.5 -90t-646 -23.5q-394 0 -624 62t-353.5 215t-169 419.5t-45.5 724.5q0 420 68 672t220 381.5t401.5 175t662.5 45.5q432 0 677 -40t380.5 -150t188 -319.5t52.5 -584.5
q0 -297 -25 -480.5t-84.5 -289t-162.5 -149t-273 -43.5q-178 0 -286.5 49.5t-139.5 204.5q-61 -152 -179 -207t-308 -55q-235 0 -354 87t-155 237t-36 397t35.5 409.5t155 261.5t354.5 99q174 0 272.5 -40.5t169.5 -168.5v196zM1855 1536q0 190 -73.5 275t-257.5 85
q-141 0 -210.5 -46t-89.5 -124t-20 -210v-189q0 -137 18 -215.5t82.5 -124t198.5 -45.5q232 0 292 94t60 336v164z" />
    <glyph glyph-name="A" unicode="A" horiz-adv-x="2916" 
d="M2093 561h-1266l-180 -561h-581l970 2920h828l987 -2920h-570zM1966 979l-508 1515l-500 -1515h1008z" />
    <glyph glyph-name="B" unicode="B" horiz-adv-x="2785" 
d="M254 0v2920h1499q403 0 609 -177.5t206 -555.5q0 -265 -100.5 -438.5t-317.5 -232.5v-17q236 -39 360 -209t124 -450q0 -194 -50 -348.5t-154 -265t-261 -168.5t-367 -58h-1548zM811 1700h709q147 0 234.5 14.5t143.5 56.5t82.5 121.5t26.5 212.5q0 203 -89.5 278
t-303.5 75h-803v-758zM811 463h709q194 0 314 38t179.5 129.5t59.5 250.5q0 157 -45 244t-141 122t-265 35h-811v-819z" />
    <glyph glyph-name="C" unicode="C" horiz-adv-x="2712" 
d="M2073 1049h548v-177q0 -337 -121 -533.5t-387 -282t-720 -85.5q-371 0 -601.5 69t-364.5 237t-190.5 462t-56.5 772q0 524 105.5 831.5t369.5 453t738 145.5q362 0 592.5 -60.5t358.5 -182t185.5 -301.5t75.5 -455h-545q-14 229 -72 337t-190 143.5t-405 35.5
q-276 0 -406.5 -69.5t-181.5 -277t-51 -653.5q0 -322 27.5 -516.5t97 -301.5t191 -148t323.5 -41q266 0 410.5 34.5t207 123t62.5 255.5v185z" />
    <glyph glyph-name="D" unicode="D" horiz-adv-x="2937" 
d="M254 0v2925h1397q336 0 555.5 -77.5t347 -239t183.5 -417.5t56 -635q0 -451 -56.5 -745t-188.5 -472.5t-357.5 -258.5t-576.5 -80h-1360zM815 475h692q222 0 357 40t214 143.5t112.5 294.5t33.5 505q0 419 -54 627t-183 282t-377 74h-795v-1966z" />
    <glyph glyph-name="E" unicode="E" horiz-adv-x="2408" 
d="M741 2458v-762h1373v-418h-1373v-819h1454v-459h-2007v2920h1995v-462h-1442z" />
    <glyph glyph-name="F" unicode="F" horiz-adv-x="2269" 
d="M258 2925h1929v-476h-1368v-790h1303v-459h-1303v-1200h-561v2925z" />
    <glyph glyph-name="G" unicode="G" horiz-adv-x="2830" 
d="M1421 1552h1286v-327q0 -369 -52 -601t-185 -375.5t-377.5 -208.5t-642.5 -65q-556 0 -826.5 134.5t-363 441.5t-92.5 907q0 426 51.5 701t187.5 449t387.5 255.5t655.5 81.5q348 0 577 -41.5t372 -142.5t214.5 -275t85.5 -450h-540q-19 191 -72 278t-193.5 119.5
t-443.5 32.5q-319 0 -466 -74.5t-197 -278.5t-50 -655q0 -351 26 -541.5t98.5 -292t208 -137.5t380.5 -36q223 0 355 21.5t210 82.5t111 177.5t33 320.5v82h-738v417z" />
    <glyph glyph-name="H" unicode="H" horiz-adv-x="2998" 
d="M2736 2920v-2920h-565v1249h-1356v-1249h-561v2920h561v-1191h1356v1191h565z" />
    <glyph glyph-name="I" unicode="I" horiz-adv-x="1073" 
d="M815 2920v-2920h-561v2920h561z" />
    <glyph glyph-name="J" unicode="J" horiz-adv-x="2273" 
d="M2019 2920v-2043q0 -323 -91 -519t-304.5 -289.5t-579.5 -93.5q-276 0 -460 51.5t-288.5 159t-149 276t-44.5 419.5v262h525v-271q0 -176 28.5 -261t116.5 -120.5t272 -35.5q169 0 257 36.5t122.5 124.5t34.5 256v2048h561z" />
    <glyph glyph-name="K" unicode="K" horiz-adv-x="2916" 
d="M815 2920v-1183h262l975 1183h684l-1180 -1421l1303 -1499h-709l-1073 1253h-262v-1253h-561v2920h561z" />
    <glyph glyph-name="L" unicode="L" horiz-adv-x="2281" 
d="M827 2920v-2433h1356v-487h-1921v2920h565z" />
    <glyph glyph-name="M" unicode="M" horiz-adv-x="3920" 
d="M3690 2920v-2920h-552v2462l-922 -2462h-504l-913 2445v-2445h-553v2920h913l791 -2166h16l782 2166h942z" />
    <glyph glyph-name="N" unicode="N" horiz-adv-x="3219" 
d="M2966 2920v-2920h-934l-1233 2445h-21l21 -2445h-553v2920h934l1233 -2441h20l-20 2441h553z" />
    <glyph glyph-name="O" unicode="O" horiz-adv-x="2916" 
d="M213 1520q0 431 58.5 704.5t196.5 433t375 227.5t619 68q381 0 619 -68t377.5 -228.5t198.5 -432.5t59 -704q0 -497 -58.5 -794.5t-198 -463t-375 -228.5t-622.5 -63q-410 0 -646.5 63.5t-368.5 226t-183 459t-51 800.5zM782 1458q0 -362 25.5 -554t95.5 -290.5
t196.5 -130.5t362.5 -32q239 0 367.5 33.5t197.5 132.5t94 289t25 552q0 369 -28.5 567t-100 294.5t-194.5 125.5t-361 29q-244 0 -367 -29t-193 -126.5t-95 -293.5t-25 -567z" />
    <glyph glyph-name="P" unicode="P" horiz-adv-x="2703" 
d="M242 0v2925h1245q286 0 483 -41t332.5 -144.5t204.5 -293t69 -484.5q0 -301 -54.5 -495.5t-176 -305.5t-317.5 -157t-496 -46h-729v-958h-561zM803 1425h692q196 0 305.5 41.5t158 146t48.5 300.5q0 212 -49 327t-158.5 162t-304.5 47h-692v-1024z" />
    <glyph glyph-name="Q" unicode="Q" horiz-adv-x="2982" 
d="M2990 393l-225 -332l-254 193q-118 -120 -285.5 -182.5t-351 -81.5t-412.5 -19q-411 0 -657.5 67t-385 235.5t-193 464.5t-54.5 798q0 430 55 693t193 419.5t388 224.5t654 68q405 0 655 -68t392 -226t199 -424t57 -699q0 -381 -2 -530q-3 -150 -14 -238t-37 -170z
M1565 1376l622 -430q13 115 13 516q0 357 -28 547t-102 288t-213 131.5t-395 33.5q-249 0 -383.5 -33.5t-209 -133t-101.5 -292.5t-27 -541q0 -345 27 -539t101.5 -298.5t210 -141.5t382.5 -37q223 0 352 27t230 105l-713 466z" />
    <glyph glyph-name="R" unicode="R" horiz-adv-x="2810" 
d="M246 0v2925h1429q488 0 715 -209.5t227 -700.5q0 -237 -30 -394.5t-146 -260.5q-66 -58 -139.5 -83t-208.5 -56v-17q492 -28 492 -565l4 -639h-566l5 594q-6 212 -118 298.5t-325 86.5h-786v-979h-553zM799 1446h786q252 0 359.5 121.5t107.5 374.5q0 277 -92.5 388
t-349.5 111h-811v-995z" />
    <glyph glyph-name="S" unicode="S" horiz-adv-x="2621" 
d="M2421 2068h-533q0 187 -52 277.5t-175.5 122t-366.5 31.5q-349 0 -469 -93t-120 -284q0 -126 17.5 -193.5t83.5 -111.5t203 -66t396 -31q362 -8 599 -84t359.5 -253t122.5 -482q0 -263 -50 -433t-177 -279.5t-357 -161.5t-599 -52q-403 0 -645.5 59t-378.5 242t-140 543
q0 20 2 57t2 58h533q0 -235 45 -336.5t170.5 -132.5t415.5 -31q259 0 400.5 42t194 130.5t52.5 241.5q0 169 -65 251.5t-212.5 113.5t-451.5 44q-366 16 -597 91.5t-356 261t-125 516.5q0 261 105.5 440.5t359 275t686.5 95.5q369 0 608.5 -58t375 -223.5t139.5 -472.5v-115
z" />
    <glyph glyph-name="T" unicode="T" horiz-adv-x="2470" 
d="M942 0v2437h-852v488h2282v-484l-865 -4v-2437h-565z" />
    <glyph glyph-name="U" unicode="U" horiz-adv-x="2937" 
d="M2134 2916l561 4v-1949q-2 -296 -50.5 -481t-177.5 -299t-370 -167t-635 -53q-401 5 -633.5 57.5t-356 168t-167 299.5t-43.5 483v1941h561v-1978q0 -211 43 -311t178.5 -140t434.5 -40q228 0 356 21.5t192.5 74.5t85.5 143t21 252v1974z" />
    <glyph glyph-name="V" unicode="V" horiz-adv-x="2871" 
d="M2208 2920h577l-942 -2920h-844l-933 2920h573l786 -2453z" />
    <glyph glyph-name="W" unicode="W" horiz-adv-x="4502" 
d="M4432 2920l-782 -2920h-816l-581 2228h-12l-607 -2228h-803l-761 2920h561l610 -2461h16l672 2461h643l660 -2461l635 2461h565z" />
    <glyph glyph-name="X" unicode="X" horiz-adv-x="2908" 
d="M2785 2920l-868 -1413l934 -1507h-647l-734 1233l-737 -1233h-663l958 1507l-889 1413h656l675 -1159l676 1159h639z" />
    <glyph glyph-name="Y" unicode="Y" horiz-adv-x="2810" 
d="M2753 2920l-1086 -1798v-1122h-557v1122l-1053 1798h635l705 -1245l704 1245h652z" />
    <glyph glyph-name="Z" unicode="Z" horiz-adv-x="2523" 
d="M2408 2925v-480l-1609 -1970h1630v-475h-2331v475l1598 1966h-1528v484h2240z" />
    <glyph glyph-name="bracketleft" unicode="[" horiz-adv-x="1352" 
d="M238 2925h897v-418h-373v-2527h373v-418h-897v3363z" />
    <glyph glyph-name="backslash" unicode="\" horiz-adv-x="2654" 
d="M287 2920h364l1983 -3358h-369z" />
    <glyph glyph-name="bracketright" unicode="]" horiz-adv-x="1352" 
d="M1118 -438h-901v418h377v2523h-377v422h901v-3363z" />
    <glyph glyph-name="asciicircum" unicode="^" 
d="M569 1577h-479l709 1360h590l704 -1360h-479l-524 995z" />
    <glyph glyph-name="underscore" unicode="_" 
d="M0 -274h2191v-328h-2191v328z" />
    <glyph glyph-name="grave" unicode="`" 
d="M836 2892l688 -451l-111 -200l-754 331z" />
    <glyph glyph-name="a" unicode="a" horiz-adv-x="2294" 
d="M2060 1348v-1348h-475l25 254h-17q-71 -125 -169.5 -187t-213 -79t-284.5 -17q-234 0 -397.5 52t-256 187t-92.5 372q0 268 94 410t287.5 195.5t519.5 53.5q151 0 241 -21t136 -56.5t73 -87l42 -81.5v353q0 246 -93.5 329.5t-349.5 83.5q-151 0 -233 -25.5t-117 -90.5
t-35 -187h-491q0 208 63.5 335.5t178 188.5t256 78t358.5 17q323 0 521.5 -48t313.5 -207t115 -474zM1573 618q0 121 -43 185.5t-146 91.5t-294 27q-244 0 -331 -57t-87 -226q0 -148 44 -217.5t127 -90t234 -20.5q230 0 363 56t133 251z" />
    <glyph glyph-name="b" unicode="b" horiz-adv-x="2314" 
d="M713 2925v-1160q159 312 610 312q335 0 513 -114.5t242 -331.5t64 -570q0 -375 -52 -601.5t-227 -357.5t-528 -131q-237 0 -386.5 72.5t-256.5 259.5h-12l20 -303h-475v2925h488zM1642 942q0 250 -13 385.5t-57 217.5t-134.5 116.5t-253.5 34.5q-209 0 -311 -72.5
t-131 -203t-29 -351.5q0 -225 20 -359.5t72 -213.5t144 -111.5t247 -32.5q201 0 297 68.5t122.5 189.5t26.5 332z" />
    <glyph glyph-name="c" unicode="c" horiz-adv-x="2228" 
d="M1573 774h479q0 -298 -86.5 -472t-286.5 -252.5t-544 -78.5q-357 0 -561.5 98.5t-292.5 325.5t-88 625q0 403 88 632t291 327t563 98q261 0 456.5 -57t313.5 -207t127 -412q0 -53 -13 -74h-450q-8 8 -8 33q-16 148 -55 218.5t-123.5 96t-247.5 25.5q-174 0 -269 -60
t-134.5 -206t-39.5 -414q0 -262 39.5 -408t135 -207t268.5 -61q191 0 284 40.5t123.5 129t30.5 260.5z" />
    <glyph glyph-name="d" unicode="d" horiz-adv-x="2314" 
d="M2077 2925v-2925h-475l24 307h-12q-114 -189 -259 -262.5t-376 -73.5q-353 0 -528 131.5t-227 357.5t-52 601q0 264 33.5 446.5t121.5 310.5t250 193.5t414 65.5q213 0 362.5 -69t235.5 -239v1156h488zM672 942q0 -211 26.5 -332t122.5 -189.5t297 -68.5
q155 0 246.5 32.5t139.5 110.5t66.5 211t18.5 363t-25.5 356t-125.5 198.5t-308 72.5q-162 0 -252 -34.5t-134 -116t-58 -217.5t-14 -386z" />
    <glyph glyph-name="e" unicode="e" horiz-adv-x="2216" 
d="M1561 651h483v-78q0 -246 -113.5 -378t-315 -178t-517.5 -46q-353 0 -554.5 98t-288.5 323t-87 624t89 628.5t292 331t557 101.5q348 0 553.5 -103.5t295 -324t89.5 -584.5v-127h-1385q0 -254 39 -385t133 -180t275 -49q248 0 351.5 59.5t103.5 230.5v37zM1569 1241
q0 269 -101 374t-358 105q-258 0 -354.5 -104t-96.5 -375h910z" />
    <glyph glyph-name="f" unicode="f" horiz-adv-x="1487" 
d="M1393 2052v-364l-500 -5v-1683h-487v1683h-291v369h291v217q0 348 94 463q110 146 308.5 183.5t477.5 37.5q17 0 48 -2t46 -2v-373q-71 13 -143 13q-53 0 -82 -4q-159 -12 -210.5 -81t-51.5 -235v-217h500z" />
    <glyph glyph-name="g" unicode="g" horiz-adv-x="2314" 
d="M1602 2044h471v-2093q0 -343 -94.5 -531.5t-298 -263t-550.5 -74.5q-261 0 -423.5 33t-261 110.5t-144 212t-51.5 349.5h463q0 -200 93 -266t300 -66q170 0 271.5 28.5t156.5 115.5t55 254v438q-157 -320 -655 -320q-225 0 -373 64t-232.5 191t-118.5 310.5t-34 450.5
q0 398 76.5 635.5t249.5 346t469 108.5q173 0 281.5 -28t192 -102t169.5 -218h12zM676 1044q0 -235 13.5 -358.5t58 -198t131.5 -105t247 -30.5q149 0 239 35t139.5 113.5t67 203t17.5 332.5q0 250 -32 387t-133 205t-302 68q-193 0 -284.5 -44.5t-126.5 -180.5t-35 -427z
" />
    <glyph glyph-name="h" unicode="h" horiz-adv-x="2331" 
d="M737 2916v-1187q77 140 161 216t192.5 104t269.5 28q241 0 399.5 -68.5t240 -222.5t81.5 -406v-1380h-488v1262q0 160 -29 251t-110.5 137t-241.5 46q-275 0 -375 -128t-100 -405v-1163h-487v2916h487z" />
    <glyph glyph-name="i" unicode="i" horiz-adv-x="922" 
d="M700 2920v-426h-487v426h487zM700 2044v-2044h-487v2044h487z" />
    <glyph glyph-name="j" unicode="j" horiz-adv-x="1008" 
d="M795 2916v-422h-488v422h488zM795 2044v-2130q0 -198 -50.5 -335.5t-172 -212.5t-322.5 -75q-77 0 -184 21v344q141 0 191 70t50 221v2097h488z" />
    <glyph glyph-name="k" unicode="k" 
d="M729 2920v-1671h115l577 795h553l-725 -963l873 -1081h-594l-684 909h-115v-909h-487v2920h487z" />
    <glyph glyph-name="l" unicode="l" horiz-adv-x="983" 
d="M741 2920v-2920h-495v2920h495z" />
    <glyph glyph-name="m" unicode="m" horiz-adv-x="3596" 
d="M3330 1372v-1372h-487v1274q0 163 -23 248.5t-101.5 129.5t-240.5 44q-210 0 -330 -83.5t-120 -400.5v-1212h-488v1286q-7 170 -27.5 249t-93.5 120t-231 41q-254 0 -356.5 -121t-102.5 -375v-1200h-487v2044h471l-21 -324h13q204 357 638 357q559 0 635 -361h17
q77 205 228.5 283t393.5 78q256 0 412 -71t228.5 -227t72.5 -407z" />
    <glyph glyph-name="n" unicode="n" horiz-adv-x="2327" 
d="M2081 1401v-1401h-488v1266q0 167 -26.5 256t-108.5 131.5t-246 42.5q-483 0 -483 -463v-1233h-487v2044h463v-307q118 187 268.5 263.5t386.5 76.5q252 0 409 -63.5t234.5 -212t77.5 -400.5z" />
    <glyph glyph-name="o" unicode="o" horiz-adv-x="2314" 
d="M197 1028q0 302 47 500.5t156 318.5t293 174t466 56q375 0 586 -98.5t300 -324t89 -626.5q0 -399 -89 -626t-300.5 -328t-585.5 -103q-282 0 -465.5 56t-293 179.5t-156.5 322.5t-47 499zM696 1028q0 -212 24.5 -346.5t77 -205.5t138 -100t223.5 -32q187 0 286 53.5
t144 200t45 430.5q0 279 -45 423t-145 195.5t-285 53.5q-136 0 -222 -26.5t-138.5 -97t-77.5 -205t-25 -343.5z" />
    <glyph glyph-name="p" unicode="p" horiz-adv-x="2310" 
d="M705 2044l-21 -287h16q116 181 260 250.5t367 69.5q332 0 509.5 -119.5t239.5 -342t62 -579.5q0 -262 -24 -441t-101 -321t-234.5 -222.5t-418.5 -80.5q-157 0 -271.5 22.5t-206 90.5t-161.5 195v-1143h-488v2908h472zM721 1077q0 -305 30 -451.5t128 -210t309 -63.5
q208 0 304.5 76.5t121 218.5t24.5 418q0 283 -36.5 413.5t-127 174t-278.5 43.5q-194 0 -294 -50t-140.5 -181.5t-40.5 -387.5z" />
    <glyph glyph-name="q" unicode="q" horiz-adv-x="2331" 
d="M1597 2044l25 -287h-12q-119 181 -263.5 250.5t-367.5 69.5q-338 0 -515 -119.5t-236.5 -341t-59.5 -580.5q0 -252 24 -434.5t100.5 -325.5t234.5 -224t419 -81q157 0 271.5 22.5t206 90.5t161.5 195v-1143h488v2908h-476zM1585 1077q0 -229 -15.5 -362t-62 -212.5
t-138 -115t-251.5 -35.5q-208 0 -307 76.5t-125.5 221t-26.5 415.5q0 281 38.5 412t131 175t281.5 44q194 0 294 -50t140.5 -181.5t40.5 -387.5z" />
    <glyph glyph-name="r" unicode="r" horiz-adv-x="1892" 
d="M1810 1397v-140h-450v91q0 189 -47.5 268.5t-227.5 79.5q-179 0 -267.5 -108t-88.5 -290v-1298h-487v2044h467l-17 -275h13q78 151 221 229.5t319 78.5q218 0 343 -81.5t173.5 -230.5t48.5 -368z" />
    <glyph glyph-name="s" unicode="s" horiz-adv-x="2167" 
d="M1946 1479h-471q0 258 -295 258h-222q-189 0 -250 -56t-61 -219q0 -87 37 -132.5t155 -69t361 -35.5q182 -8 328 -41t255 -99t170.5 -175.5t61.5 -266.5q0 -276 -111 -424t-305 -198t-485 -50t-488 31t-338 156t-141 383v106h496q0 -197 78.5 -266.5t277.5 -69.5h148
q211 0 302 64t91 215q0 92 -45 145t-157 81.5t-326 43.5q-295 18 -478.5 73.5t-278.5 184.5t-95 357q0 248 103 379t291 177t490 46q195 0 333.5 -11.5t271.5 -58.5t217 -152.5t84 -285.5q0 -58 -4 -90z" />
    <glyph glyph-name="t" unicode="t" horiz-adv-x="1745" 
d="M807 1683v-1052q0 -116 12.5 -174t57.5 -87.5t143 -29.5q153 0 197.5 82.5t44.5 253.5v94h405q8 -33 8 -102q0 -238 -64.5 -390.5t-213.5 -229.5t-393 -77t-393.5 62.5t-220.5 208t-71 397.5v1044h-262v369h262v447h488v-447h778v-369h-778z" />
    <glyph glyph-name="u" unicode="u" horiz-adv-x="2327" 
d="M242 639v1405h487v-1270q0 -167 26.5 -253.5t109 -127.5t249.5 -41q479 0 479 459v1233h488v-2044h-471l20 307h-16q-211 -336 -647 -336q-255 0 -412.5 61.5t-235 208t-77.5 398.5z" />
    <glyph glyph-name="v" unicode="v" horiz-adv-x="2032" 
d="M1991 2044l-594 -2044h-742l-618 2044h504l483 -1708l451 1708h516z" />
    <glyph glyph-name="w" unicode="w" horiz-adv-x="3178" 
d="M3133 2044l-467 -2044h-704l-373 1642l-368 -1642h-709l-463 2044h479l349 -1712h12l393 1712h614l390 -1712h20l348 1712h479z" />
    <glyph glyph-name="x" unicode="x" horiz-adv-x="2089" 
d="M1978 2044l-594 -971l660 -1073h-578l-409 750l-410 -750h-586l676 1073l-598 971h561l357 -655l352 655h569z" />
    <glyph glyph-name="y" unicode="y" horiz-adv-x="2036" 
d="M1991 2044l-545 -2171q-49 -200 -99.5 -334.5t-133.5 -239.5t-215.5 -161t-329.5 -56q-140 0 -205 21v352q55 -12 110 -12q196 0 276.5 153.5t117.5 403.5h-234l-676 2044h508l520 -1737l402 1737h504z" />
    <glyph glyph-name="z" unicode="z" horiz-adv-x="1847" 
d="M176 2052h1585v-410l-1110 -1277h1110v-365h-1675v422l1094 1261h-1004v369z" />
    <glyph glyph-name="braceleft" unicode="{" 
d="M1016 1069q146 -85 198 -208t52 -312v-537q0 -157 42 -240t130.5 -112t249.5 -29v-454q-17 0 -48 -2t-47 -2q-309 0 -479.5 34t-271.5 173t-101 436v651q0 163 -54 266t-195 139v422q249 58 249 381v692q0 237 110 405t337 185q135 13 405 13h95v-488
q-170 0 -257.5 -25.5t-126 -102t-38.5 -236.5v-533q0 -194 -51 -311t-199 -205z" />
    <glyph glyph-name="bar" unicode="|" 
d="M827 2916h533v-3649h-533v3649z" />
    <glyph glyph-name="braceright" unicode="}" 
d="M1159 1069q-147 -86 -198.5 -208.5t-51.5 -311.5v-537q0 -159 -41 -240.5t-127.5 -111t-248.5 -29.5v-454q13 0 44 -2t46 -2q310 0 481 34t273 173t102 436v651q0 165 53 267t197 138v422q-250 58 -250 381v692q0 237 -110 405t-337 185q-135 13 -409 13h-90v-488
q170 0 256.5 -25.5t123.5 -102.5t37 -236v-533q0 -194 50.5 -310.5t199.5 -205.5z" />
    <glyph glyph-name="asciitilde" unicode="~" 
d="M307 1073l-270 221q112 253 263 405t384 152q105 0 206 -37.5t238.5 -107.5t225 -103.5t174.5 -33.5q204 0 356 286l266 -217q-250 -553 -647 -553q-103 0 -193 32.5t-227 101.5t-226 105t-189 44q-204 0 -361 -295z" />
    <glyph glyph-name="quoteleft" unicode="&#x2018;" horiz-adv-x="905" 
d="M180 1958v508q0 199 36.5 306t138 156.5t300.5 49.5q12 0 29 -2t25 -2v-226q-121 -3 -177.5 -46.5t-56.5 -157.5q0 -10 2 -29t2 -33h193v-524h-492z" />
    <glyph glyph-name="quoteright" unicode="&#x2019;" horiz-adv-x="905" 
d="M729 2920v-512q0 -193 -37 -300.5t-139.5 -157t-302.5 -49.5q-37 0 -53 4v229q126 3 181.5 44t55.5 157q0 10 -2 31t-2 30h-192v524h491z" />
    <glyph glyph-name="quotedblleft" unicode="&#x201c;" horiz-adv-x="1651" 
d="M922 1958v508q0 199 37.5 306.5t139.5 156.5t302 49q10 0 28 -2t25 -2v-226q-122 -3 -179.5 -46.5t-57.5 -157.5q0 -10 2 -29t2 -33h192v-524h-491zM180 1958v508q0 199 36.5 306t138 156.5t300.5 49.5q12 0 29 -2t25 -2v-226q-121 -3 -177.5 -46.5t-56.5 -157.5
q0 -10 2 -29t2 -33h193v-524h-492z" />
    <glyph glyph-name="quotedblright" unicode="&#x201d;" horiz-adv-x="1651" 
d="M729 2920v-512q0 -193 -37 -300.5t-139.5 -157t-302.5 -49.5q-37 0 -53 4v229q126 3 181.5 44t55.5 157q0 10 -2 31t-2 30h-192v524h491zM1475 2920v-512q0 -193 -37.5 -300.5t-140 -157t-302.5 -49.5q-37 0 -53 4v229q125 3 181.5 44t56.5 157q0 10 -2 31t-2 30h-193
v524h492z" />
    <glyph glyph-name="bullet" unicode="&#x2022;" horiz-adv-x="2630" 
d="M868 1253q0 175 122.5 294.5t295.5 119.5q116 0 215.5 -54.5t157 -150t57.5 -209.5q0 -115 -58 -212t-157 -153.5t-215 -56.5q-173 0 -295.5 123.5t-122.5 298.5z" />
    <glyph glyph-name="emdash" unicode="&#x2013;" horiz-adv-x="2748" 
d="M250 1327h2244v-500h-2244v500z" />
    <glyph glyph-name="endash" unicode="&#x2014;" horiz-adv-x="3011" 
d="M0 1327h3011v-500h-3011v500z" />
    <glyph glyph-name="scaron" unicode="&#x161;" 
d="M1098 2200q-149 0 -253 105t-104 255q0 146 104.5 249t252.5 103q146 0 251 -103t105 -249q0 -149 -104.5 -254.5t-251.5 -105.5zM1098 2376q73 0 126.5 53.5t53.5 130.5q0 72 -53 124t-127 52t-127 -52t-53 -124q0 -77 53.5 -130.5t126.5 -53.5z" />
    <glyph glyph-name="Ydieresis" unicode="&#x178;" 
d="M1094 2273l-693 422l95 193l598 -242l598 242l94 -193z" />
    <glyph glyph-name="exclamdown" unicode="&#xa1;" horiz-adv-x="2728" 
d="M2064 2920h668l-1020 -2285q-152 -343 -304.5 -489t-383.5 -146h-492v459h197q272 0 324 82q32 59 32 102q0 52 -32 123l-1008 2154h676l586 -1482q48 -105 77 -406q47 231 115 422zM1389 3068q-378 0 -570 114t-192 414h430q0 -88 25.5 -128.5t94.5 -54t216 -13.5
q156 0 225 13t90 51.5t21 131.5h454q0 -298 -205.5 -413t-588.5 -115z" />
    <glyph glyph-name="exclamdown" unicode="&#x40e;" horiz-adv-x="2728" 
d="M2064 2920h668l-1020 -2285q-152 -343 -304.5 -489t-383.5 -146h-492v459h197q272 0 324 82q32 59 32 102q0 52 -32 123l-1008 2154h676l586 -1482q48 -105 77 -406q47 231 115 422zM1389 3068q-378 0 -570 114t-192 414h430q0 -88 25.5 -128.5t94.5 -54t216 -13.5
q156 0 225 13t90 51.5t21 131.5h454q0 -298 -205.5 -413t-588.5 -115z" />
    <glyph glyph-name="cent" unicode="&#xa2;" horiz-adv-x="2036" 
d="M1991 2044l-545 -2171q-90 -362 -166 -522t-199.5 -214.5t-375.5 -54.5q-90 0 -242 37v336q55 -12 123 -12q138 0 203 33t104.5 144t85.5 380h-246l-676 2044h508l520 -1737l402 1737h504zM1049 2191q-257 0 -403 92t-146 326h307q0 -176 246 -176q254 0 254 176h331
q0 -418 -589 -418z" />
    <glyph glyph-name="cent" unicode="&#x45e;" horiz-adv-x="2036" 
d="M1991 2044l-545 -2171q-90 -362 -166 -522t-199.5 -214.5t-375.5 -54.5q-90 0 -242 37v336q55 -12 123 -12q138 0 203 33t104.5 144t85.5 380h-246l-676 2044h508l520 -1737l402 1737h504zM1049 2191q-257 0 -403 92t-146 326h307q0 -176 246 -176q254 0 254 176h331
q0 -418 -589 -418z" />
    <glyph glyph-name="yen" unicode="&#xa5;" horiz-adv-x="2748" 
d="M2171 2089h369v-414h-603l-208 -348h811v-405h-930v-922h-504v922h-901v405h782l-196 348h-586v414h352l-475 831h610l672 -1245l676 1245h618z" />
    <glyph glyph-name="yen" unicode="&#x490;" horiz-adv-x="2748" 
d="M2171 2089h369v-414h-603l-208 -348h811v-405h-930v-922h-504v922h-901v405h782l-196 348h-586v414h352l-475 831h610l672 -1245l676 1245h618z" />
    <glyph glyph-name="section" unicode="&#xa7;" horiz-adv-x="2748" 
d="M2429 2085h-520q0 184 -39.5 271.5t-134 117t-285.5 29.5h-205q-175 0 -259 -29.5t-111 -91t-27 -174.5q0 -127 33 -187.5t92.5 -84.5t210.5 -60l741 -176q254 -61 372 -120.5t172 -185.5t54 -378q0 -432 -258 -549q123 -60 180 -138t71.5 -171.5t14.5 -255.5
q0 -281 -85 -447t-237 -241t-340 -95t-493 -20q-322 0 -515 24.5t-328 110.5t-203 268t-68 498h508q0 -145 24.5 -232.5t97 -138.5t214.5 -67q127 -13 373 -13q170 0 274 18t171 92t67 226q0 127 -34.5 194t-101.5 97t-208 62l-959 208q-206 43 -307 119t-134.5 199
t-33.5 342q0 223 60.5 353.5t246.5 182.5q-141 98 -177 226t-36 348q0 324 138 482.5t355.5 200.5t559.5 42h61q333 0 537.5 -37t337.5 -186.5t133 -464.5v-168zM991 819l676 -160q114 -24 176 -24q213 0 230 311q0 130 -33 197.5t-104 102t-207 65.5l-594 147
q-135 37 -189 37q-125 0 -181 -93t-56 -239q0 -123 22 -185.5t79 -96t181 -62.5z" />
    <glyph glyph-name="dieresis" unicode="&#xa8;" horiz-adv-x="2408" 
d="M741 2458v-762h1373v-418h-1373v-819h1454v-459h-2007v2920h1995v-462h-1442zM987 3580v-344h-385v344h385zM1786 3580v-344h-385v344h385z" />
    <glyph glyph-name="dieresis" unicode="&#x401;" horiz-adv-x="2408" 
d="M741 2458v-762h1373v-418h-1373v-819h1454v-459h-2007v2920h1995v-462h-1442zM987 3580v-344h-385v344h385zM1786 3580v-344h-385v344h385z" />
    <glyph glyph-name="copyright" unicode="&#xa9;" horiz-adv-x="3396" 
d="M2494 1298q-18 -214 -123 -376.5t-278 -251t-389 -88.5q-248 0 -437.5 115.5t-292 316.5t-102.5 444q0 247 103 452.5t294 325t439 119.5q186 0 356 -73.5t280 -214t126 -326.5h-250q-43 167 -187.5 251.5t-328.5 84.5q-164 0 -279 -87t-172 -229t-57 -303
q0 -156 58.5 -294t174 -223t275.5 -85q214 0 361 116.5t176 325.5h253zM1704 2974q404 0 750.5 -205t549.5 -556t203 -755q0 -402 -203 -752.5t-549 -556.5t-751 -206q-410 0 -760 204.5t-555 553t-205 757.5q0 411 204.5 759.5t555.5 552.5t760 204zM1700 2736
q-259 0 -488.5 -99.5t-403.5 -278t-270 -411.5t-96 -489q0 -255 96 -486.5t271 -411t405 -280t486 -100.5q342 0 630.5 175t455.5 470t167 633q0 340 -166.5 634.5t-456 469t-630.5 174.5z" />
    <glyph glyph-name="ordfeminine" unicode="&#xaa;" horiz-adv-x="2785" 
d="M2032 946h548v-139q0 -289 -117.5 -470.5t-388.5 -271.5t-722 -90q-390 0 -616 65t-352.5 230.5t-175 458.5t-48.5 799q0 413 56 679t189.5 428.5t362 234t584.5 71.5q467 0 720 -104t358.5 -316.5t137.5 -578.5h-536q-22 232 -77.5 347t-188.5 162.5t-398 47.5
q-272 0 -410.5 -70.5t-191.5 -246t-53 -515.5h1126v-418h-1126q0 -344 54 -519t192.5 -243.5t408.5 -68.5q251 0 395.5 42.5t206.5 139t62 264.5v82z" />
    <glyph glyph-name="ordfeminine" unicode="&#x404;" horiz-adv-x="2785" 
d="M2032 946h548v-139q0 -289 -117.5 -470.5t-388.5 -271.5t-722 -90q-390 0 -616 65t-352.5 230.5t-175 458.5t-48.5 799q0 413 56 679t189.5 428.5t362 234t584.5 71.5q467 0 720 -104t358.5 -316.5t137.5 -578.5h-536q-22 232 -77.5 347t-188.5 162.5t-398 47.5
q-272 0 -410.5 -70.5t-191.5 -246t-53 -515.5h1126v-418h-1126q0 -344 54 -519t192.5 -243.5t408.5 -68.5q251 0 395.5 42.5t206.5 139t62 264.5v82z" />
    <glyph glyph-name="guillemotleft" unicode="&#xab;" horiz-adv-x="2060" 
d="M709 2118l323 -185l-405 -848l434 -819l-307 -200l-557 1019zM1503 2130l328 -188l-418 -844l442 -824l-307 -196l-557 1020z" />
    <glyph glyph-name="logicalnot" unicode="&#xac;" 
d="M1524 0v791h-1381v458h1897v-1249h-516z" />
    <glyph glyph-name="softhyphen" unicode="&#xad;" 
d="M557 2683h1077v-295h-1077v295z" />
    <glyph glyph-name="registered" unicode="&#xae;" horiz-adv-x="3396" 
d="M1057 2314h717q257 0 433.5 -110t176.5 -353q0 -147 -78 -255.5t-217 -165.5q162 -59 207 -178t56.5 -332.5t51.5 -309.5h-311q-39 86 -45.5 265.5t-17.5 250.5t-92 136t-275 65h-287v-717h-319v1704zM1376 2114v-594h312q376 0 376 307q0 149 -95.5 218t-252.5 69h-340z
M1704 2974q404 0 750.5 -205t549.5 -556t203 -755t-203 -754.5t-549.5 -555.5t-750.5 -205q-410 0 -760 204.5t-555 553t-205 757.5q0 411 204.5 759.5t555.5 552.5t760 204zM1700 2736q-259 0 -488.5 -99.5t-403.5 -278t-270 -411.5t-96 -489q0 -255 96 -486.5t271 -411
t405 -280t486 -100.5q342 0 630.5 175t455.5 470t167 633q0 340 -166.5 634.5t-456 469t-630.5 174.5z" />
    <glyph glyph-name="macron" unicode="&#xaf;" horiz-adv-x="1315" 
d="M942 2920v-2920h-561v2920h561zM455 3580v-344h-385v344h385zM1253 3580v-344h-385v344h385z" />
    <glyph glyph-name="macron" unicode="&#x407;" horiz-adv-x="1315" 
d="M942 2920v-2920h-561v2920h561zM455 3580v-344h-385v344h385zM1253 3580v-344h-385v344h385z" />
    <glyph glyph-name="degree" unicode="&#xb0;" 
d="M1757 2261q0 -178 -90.5 -327.5t-244.5 -236.5t-328 -87q-166 0 -319 86t-245 233t-92 316q0 185 85 340.5t236 247.5t339 92q176 0 328.5 -90.5t241.5 -244.5t89 -329zM1536 2261q0 120 -60 222t-161.5 163t-220.5 61q-121 0 -220.5 -63t-157 -167.5t-57.5 -223.5
q0 -172 130 -303t301 -131q118 0 221 59.5t164 162t61 220.5z" />
    <glyph glyph-name="plusminus" unicode="&#xb1;" 
d="M66 1700h888v864h271v-864h897v-258h-897v-836h-271v836h-888v258zM66 418h2056v-258h-2056v258z" />
    <glyph glyph-name="twosuperior" unicode="&#xb2;" horiz-adv-x="1073" 
d="M815 2920v-2920h-561v2920h561z" />
    <glyph glyph-name="twosuperior" unicode="&#x406;" horiz-adv-x="1073" 
d="M815 2920v-2920h-561v2920h561z" />
    <glyph glyph-name="threesuperior" unicode="&#xb3;" horiz-adv-x="922" 
d="M700 2920v-426h-487v426h487zM700 2044v-2044h-487v2044h487z" />
    <glyph glyph-name="threesuperior" unicode="&#x456;" horiz-adv-x="922" 
d="M700 2920v-426h-487v426h487zM700 2044v-2044h-487v2044h487z" />
    <glyph glyph-name="acute" unicode="&#xb4;" 
d="M1348 2892l176 -320l-758 -331l-107 200z" />
    <glyph glyph-name="acute" unicode="&#x491;" 
d="M1348 2892l176 -320l-758 -331l-107 200z" />
    <glyph glyph-name="mu" unicode="&#xb5;" horiz-adv-x="2470" 
d="M262 -741v2838h492v-1134q0 -157 18 -258.5t88 -188.5q144 -184 377 -184q164 0 273.5 97.5t159.5 248t50 313.5v1106h492v-2097h-492v336q-155 -385 -487 -385q-305 0 -479 287v-979h-492z" />
    <glyph glyph-name="paragraph" unicode="&#xb6;" horiz-adv-x="2748" 
d="M2699 -877h-413v3355h-349v-3355h-413v1823h-406q-3 0 -192 3q-189 2 -298 14.5t-213.5 53.5t-185.5 122q-144 139 -186.5 331t-42.5 459q0 280 48.5 466.5t157.5 302t290 169t458 53.5h193h1552v-3797zM1524 1393v1073h-500q-230 0 -335 -40t-141 -152.5t-36 -360.5
q0 -240 50 -348t165 -140t354 -32h443z" />
    <glyph glyph-name="periodcentered" unicode="&#xb7;" horiz-adv-x="2748" 
d="M1618 1769v-532h-488v532h488z" />
    <glyph glyph-name="cedilla" unicode="&#xb8;" horiz-adv-x="2216" 
d="M1561 651h483v-78q0 -246 -113.5 -378t-315 -178t-517.5 -46q-353 0 -554.5 98t-288.5 323t-87 624t89 628.5t292 331t557 101.5q348 0 553.5 -103.5t295 -324t89.5 -584.5v-127h-1385q0 -254 39 -385t133 -180t275 -49q248 0 351.5 59.5t103.5 230.5v37zM1569 1241
q0 269 -101 374t-358 105q-258 0 -354.5 -104t-96.5 -375h910zM913 2707v-348h-385v348h385zM1712 2707v-348h-385v348h385z" />
    <glyph glyph-name="cedilla" unicode="&#x451;" horiz-adv-x="2216" 
d="M1561 651h483v-78q0 -246 -113.5 -378t-315 -178t-517.5 -46q-353 0 -554.5 98t-288.5 323t-87 624t89 628.5t292 331t557 101.5q348 0 553.5 -103.5t295 -324t89.5 -584.5v-127h-1385q0 -254 39 -385t133 -180t275 -49q248 0 351.5 59.5t103.5 230.5v37zM1569 1241
q0 269 -101 374t-358 105q-258 0 -354.5 -104t-96.5 -375h910zM913 2707v-348h-385v348h385zM1712 2707v-348h-385v348h385z" />
    <glyph glyph-name="onesuperior" unicode="&#xb9;" horiz-adv-x="4616" 
d="M2966 2920v-2920h-934l-1233 2445h-21l21 -2445h-553v2920h934l1233 -2441h20l-20 2441h553zM4440 2372v-279q0 -255 -62 -385.5t-192 -175.5t-369 -45q-236 0 -368.5 47t-197 177.5t-64.5 381.5v279q0 252 64.5 379t195.5 168.5t370 41.5q182 0 294.5 -19.5t185.5 -80
t108 -177t35 -312.5zM3817 1737q134 0 203.5 19t99 76.5t29.5 174.5v430q0 120 -21.5 176.5t-90.5 79.5t-220 23q-150 0 -220.5 -22t-92.5 -78.5t-22 -178.5v-434q0 -123 22 -176t90 -71.5t223 -18.5zM3265 1286h1105v-250h-1105v250z" />
    <glyph glyph-name="onesuperior" unicode="&#x2116;" horiz-adv-x="4616" 
d="M2966 2920v-2920h-934l-1233 2445h-21l21 -2445h-553v2920h934l1233 -2441h20l-20 2441h553zM4440 2372v-279q0 -255 -62 -385.5t-192 -175.5t-369 -45q-236 0 -368.5 47t-197 177.5t-64.5 381.5v279q0 252 64.5 379t195.5 168.5t370 41.5q182 0 294.5 -19.5t185.5 -80
t108 -177t35 -312.5zM3817 1737q134 0 203.5 19t99 76.5t29.5 174.5v430q0 120 -21.5 176.5t-90.5 79.5t-220 23q-150 0 -220.5 -22t-92.5 -78.5t-22 -178.5v-434q0 -123 22 -176t90 -71.5t223 -18.5zM3265 1286h1105v-250h-1105v250z" />
    <glyph glyph-name="ordmasculine" unicode="&#xba;" horiz-adv-x="2200" 
d="M1536 651h475q0 -343 -210 -511.5t-707 -168.5q-288 0 -466.5 56.5t-276.5 182.5t-136.5 338.5t-38.5 549.5q0 285 51.5 475t160 300t280 157t426.5 47q440 0 672 -140t249 -503h-483q-17 174 -118 238.5t-320 64.5q-182 0 -275.5 -48t-128.5 -162t-35 -327h775v-303
h-775q0 -218 29.5 -339.5t124 -184t285.5 -62.5q269 0 355.5 93.5t86.5 246.5z" />
    <glyph glyph-name="ordmasculine" unicode="&#x454;" horiz-adv-x="2200" 
d="M1536 651h475q0 -343 -210 -511.5t-707 -168.5q-288 0 -466.5 56.5t-276.5 182.5t-136.5 338.5t-38.5 549.5q0 285 51.5 475t160 300t280 157t426.5 47q440 0 672 -140t249 -503h-483q-17 174 -118 238.5t-320 64.5q-182 0 -275.5 -48t-128.5 -162t-35 -327h775v-303
h-775q0 -218 29.5 -339.5t124 -184t285.5 -62.5q269 0 355.5 93.5t86.5 246.5z" />
    <glyph glyph-name="guillemotright" unicode="&#xbb;" horiz-adv-x="2060" 
d="M1348 2118l507 -1033l-548 -1019l-316 200l439 819l-414 848zM553 2130l508 -1032l-553 -1020l-311 196l442 824l-414 844z" />
    <glyph glyph-name="onequarter" unicode="&#xbc;" 
d="M66 1667h2056v-262h-2056v262zM1094 2527q89 0 153 -62t64 -151q0 -85 -66 -151t-151 -66q-86 0 -149.5 66t-63.5 151q0 88 62.5 150.5t150.5 62.5zM1094 971q85 0 149 -64t64 -149q0 -89 -64 -151t-149 -62q-86 0 -149.5 62.5t-63.5 150.5q0 84 63.5 148.5t149.5 64.5z
" />
    <glyph glyph-name="onequarter" unicode="&#x458;" 
d="M66 1667h2056v-262h-2056v262zM1094 2527q89 0 153 -62t64 -151q0 -85 -66 -151t-151 -66q-86 0 -149.5 66t-63.5 151q0 88 62.5 150.5t150.5 62.5zM1094 971q85 0 149 -64t64 -149q0 -89 -64 -151t-149 -62q-86 0 -149.5 62.5t-63.5 150.5q0 84 63.5 148.5t149.5 64.5z
" />
    <glyph glyph-name="onehalf" unicode="&#xbd;" horiz-adv-x="2183" 
d="M426 2392l664 -672l671 680l193 -192l-680 -672l676 -668l-185 -184l-671 676l-672 -680l-189 188l676 672l-667 668z" />
    <glyph glyph-name="onehalf" unicode="&#x405;" horiz-adv-x="2183" 
d="M426 2392l664 -672l671 680l193 -192l-680 -672l676 -668l-185 -184l-671 676l-672 -680l-189 188l676 672l-667 668z" />
    <glyph glyph-name="threequarters" unicode="&#xbe;" horiz-adv-x="2777" 
d="M705 532v-532h-488v532h488zM1634 532v-532h-491v532h491zM2560 532v-532h-487v532h487z" />
    <glyph glyph-name="threequarters" unicode="&#x455;" horiz-adv-x="2777" 
d="M705 532v-532h-488v532h488zM1634 532v-532h-491v532h491zM2560 532v-532h-487v532h487z" />
    <glyph glyph-name="questiondown" unicode="&#xbf;" horiz-adv-x="1098" 
d="M791 2044v-2044h-488v2044h488zM340 2707v-348h-385v348h385zM1139 2707v-348h-385v348h385z" />
    <glyph glyph-name="questiondown" unicode="&#x457;" horiz-adv-x="1098" 
d="M791 2044v-2044h-488v2044h488zM340 2707v-348h-385v348h385zM1139 2707v-348h-385v348h385z" />
    <glyph glyph-name="Agrave" unicode="&#xc0;" horiz-adv-x="2916" 
d="M2093 561h-1266l-180 -561h-581l970 2920h828l987 -2920h-570zM1966 979l-508 1515l-500 -1515h1008z" />
    <glyph glyph-name="Agrave" unicode="&#x410;" horiz-adv-x="2916" 
d="M2093 561h-1266l-180 -561h-581l970 2920h828l987 -2920h-570zM1966 979l-508 1515l-500 -1515h1008z" />
    <glyph glyph-name="Aacute" unicode="&#xc1;" horiz-adv-x="2732" 
d="M246 0v2920h2040v-462h-1483v-676h926q404 0 617.5 -235t213.5 -658q0 -209 -53 -374.5t-156.5 -280t-258 -174.5t-351.5 -60h-1495zM803 463h676q273 0 396.5 89t123.5 329q0 246 -128.5 342t-391.5 96h-676v-856z" />
    <glyph glyph-name="Aacute" unicode="&#x411;" horiz-adv-x="2732" 
d="M246 0v2920h2040v-462h-1483v-676h926q404 0 617.5 -235t213.5 -658q0 -209 -53 -374.5t-156.5 -280t-258 -174.5t-351.5 -60h-1495zM803 463h676q273 0 396.5 89t123.5 329q0 246 -128.5 342t-391.5 96h-676v-856z" />
    <glyph glyph-name="Acircumflex" unicode="&#xc2;" horiz-adv-x="2785" 
d="M254 0v2920h1499q403 0 609 -177.5t206 -555.5q0 -265 -100.5 -438.5t-317.5 -232.5v-17q236 -39 360 -209t124 -450q0 -194 -50 -348.5t-154 -265t-261 -168.5t-367 -58h-1548zM811 1700h709q147 0 234.5 14.5t143.5 56.5t82.5 121.5t26.5 212.5q0 203 -89.5 278
t-303.5 75h-803v-758zM811 463h709q194 0 314 38t179.5 129.5t59.5 250.5q0 157 -45 244t-141 122t-265 35h-811v-819z" />
    <glyph glyph-name="Acircumflex" unicode="&#x412;" horiz-adv-x="2785" 
d="M254 0v2920h1499q403 0 609 -177.5t206 -555.5q0 -265 -100.5 -438.5t-317.5 -232.5v-17q236 -39 360 -209t124 -450q0 -194 -50 -348.5t-154 -265t-261 -168.5t-367 -58h-1548zM811 1700h709q147 0 234.5 14.5t143.5 56.5t82.5 121.5t26.5 212.5q0 203 -89.5 278
t-303.5 75h-803v-758zM811 463h709q194 0 314 38t179.5 129.5t59.5 250.5q0 157 -45 244t-141 122t-265 35h-811v-819z" />
    <glyph glyph-name="Atilde" unicode="&#xc3;" horiz-adv-x="2298" 
d="M827 0l-4 2437h1348v483h-1909v-2920h565z" />
    <glyph glyph-name="Atilde" unicode="&#x413;" horiz-adv-x="2298" 
d="M827 0l-4 2437h1348v483h-1909v-2920h565z" />
    <glyph glyph-name="Adieresis" unicode="&#xc4;" horiz-adv-x="3101" 
d="M2716 2925v-2446h262v-1155h-492v676h-1917v-676h-491v1155h225q165 159 232 417.5t67 750.5v1278h2114zM1151 2445v-790q0 -314 -23.5 -536.5t-79.5 -381t-155 -258.5h1261v1966h-1003z" />
    <glyph glyph-name="Adieresis" unicode="&#x414;" horiz-adv-x="3101" 
d="M2716 2925v-2446h262v-1155h-492v676h-1917v-676h-491v1155h225q165 159 232 417.5t67 750.5v1278h2114zM1151 2445v-790q0 -314 -23.5 -536.5t-79.5 -381t-155 -258.5h1261v1966h-1003z" />
    <glyph glyph-name="Aring" unicode="&#xc5;" horiz-adv-x="2408" 
d="M741 2458v-762h1373v-418h-1373v-819h1454v-459h-2007v2920h1995v-462h-1442z" />
    <glyph glyph-name="Aring" unicode="&#x415;" horiz-adv-x="2408" 
d="M741 2458v-762h1373v-418h-1373v-819h1454v-459h-2007v2920h1995v-462h-1442z" />
    <glyph glyph-name="AE" unicode="&#xc6;" horiz-adv-x="4461" 
d="M2503 2920h-561v-1183h-263l-860 1183h-610l1053 -1417l-1160 -1503h631l946 1257h263v-1257h561v1257h262l958 -1257h623l-1151 1503l1048 1417h-614l-864 -1183h-262v1183z" />
    <glyph glyph-name="AE" unicode="&#x416;" horiz-adv-x="4461" 
d="M2503 2920h-561v-1183h-263l-860 1183h-610l1053 -1417l-1160 -1503h631l946 1257h263v-1257h561v1257h262l958 -1257h623l-1151 1503l1048 1417h-614l-864 -1183h-262v1183z" />
    <glyph glyph-name="Ccedilla" unicode="&#xc7;" horiz-adv-x="2666" 
d="M705 2064q5 179 55 269.5t177 125.5t382 35q240 0 369.5 -34t185 -120t55.5 -247q0 -210 -124 -305.5t-384 -95.5h-602v-418h688q250 0 371 -101t121 -337q0 -165 -63 -256t-208.5 -128.5t-408.5 -37.5q-228 0 -357 27.5t-189 87.5t-76.5 149t-20.5 256h-529v-119
q0 -343 134.5 -527.5t384.5 -250.5t653 -66q473 0 737 91t369.5 279t105.5 495q0 291 -106.5 441.5t-384.5 221.5v17q157 50 248.5 131.5t132.5 213.5t41 339q0 255 -126.5 419t-377.5 241t-635 77q-417 0 -654.5 -73t-353.5 -259t-143 -541h533z" />
    <glyph glyph-name="Ccedilla" unicode="&#x417;" horiz-adv-x="2666" 
d="M705 2064q5 179 55 269.5t177 125.5t382 35q240 0 369.5 -34t185 -120t55.5 -247q0 -210 -124 -305.5t-384 -95.5h-602v-418h688q250 0 371 -101t121 -337q0 -165 -63 -256t-208.5 -128.5t-408.5 -37.5q-228 0 -357 27.5t-189 87.5t-76.5 149t-20.5 256h-529v-119
q0 -343 134.5 -527.5t384.5 -250.5t653 -66q473 0 737 91t369.5 279t105.5 495q0 291 -106.5 441.5t-384.5 221.5v17q157 50 248.5 131.5t132.5 213.5t41 339q0 255 -126.5 419t-377.5 241t-635 77q-417 0 -654.5 -73t-353.5 -259t-143 -541h533z" />
    <glyph glyph-name="Egrave" unicode="&#xc8;" horiz-adv-x="3219" 
d="M2925 2920h-807l-996 -1957l-241 -476q45 205 45 517v1916h-561v-2920h806l996 1966l241 479q-41 -204 -41 -516l-8 -1929h566v2920z" />
    <glyph glyph-name="Egrave" unicode="&#x418;" horiz-adv-x="3219" 
d="M2925 2920h-807l-996 -1957l-241 -476q45 205 45 517v1916h-561v-2920h806l996 1966l241 479q-41 -204 -41 -516l-8 -1929h566v2920z" />
    <glyph glyph-name="Eacute" unicode="&#xc9;" horiz-adv-x="3219" 
d="M2966 2920h-807l-996 -1957l-102 -208l-135 -268q41 205 41 517v1916h-561v-2920h806l996 1966l241 479q-45 -204 -45 -516v-1929h562v2920zM1593 3068q383 0 589 115t206 413h-455q0 -92 -20.5 -131t-89 -52t-226.5 -13q-145 0 -215 13.5t-95 54t-25 128.5h-431
q0 -300 192 -414t570 -114z" />
    <glyph glyph-name="Eacute" unicode="&#x419;" horiz-adv-x="3219" 
d="M2966 2920h-807l-996 -1957l-102 -208l-135 -268q41 205 41 517v1916h-561v-2920h806l996 1966l241 479q-45 -204 -45 -516v-1929h562v2920zM1593 3068q383 0 589 115t206 413h-455q0 -92 -20.5 -131t-89 -52t-226.5 -13q-145 0 -215 13.5t-95 54t-25 128.5h-431
q0 -300 192 -414t570 -114z" />
    <glyph glyph-name="Ecircumflex" unicode="&#xca;" horiz-adv-x="2925" 
d="M815 2920v-1183h262l975 1183h684l-1180 -1421l1303 -1499h-709l-1073 1253h-262v-1253h-561v2920h561z" />
    <glyph glyph-name="Ecircumflex" unicode="&#x41a;" horiz-adv-x="2925" 
d="M815 2920v-1183h262l975 1183h684l-1180 -1421l1303 -1499h-709l-1073 1253h-262v-1253h-561v2920h561z" />
    <glyph glyph-name="Edieresis" unicode="&#xcb;" horiz-adv-x="2945" 
d="M2687 2925v-2925h-561v2445h-1110v-1732q0 -241 -71.5 -400t-221 -236t-387.5 -77h-250v418h107q152 0 213 65.5t61 208.5v2233h2220z" />
    <glyph glyph-name="Edieresis" unicode="&#x41b;" horiz-adv-x="2945" 
d="M2687 2925v-2925h-561v2445h-1110v-1732q0 -241 -71.5 -400t-221 -236t-387.5 -77h-250v418h107q152 0 213 65.5t61 208.5v2233h2220z" />
    <glyph glyph-name="Igrave" unicode="&#xcc;" horiz-adv-x="3920" 
d="M3690 2920v-2920h-552v2462l-922 -2462h-504l-913 2445v-2445h-553v2920h913l791 -2166h16l782 2166h942z" />
    <glyph glyph-name="Igrave" unicode="&#x41c;" horiz-adv-x="3920" 
d="M3690 2920v-2920h-552v2462l-922 -2462h-504l-913 2445v-2445h-553v2920h913l791 -2166h16l782 2166h942z" />
    <glyph glyph-name="Iacute" unicode="&#xcd;" horiz-adv-x="2998" 
d="M2736 2920v-2920h-565v1249h-1356v-1249h-561v2920h561v-1191h1356v1191h565z" />
    <glyph glyph-name="Iacute" unicode="&#x41d;" horiz-adv-x="2998" 
d="M2736 2920v-2920h-565v1249h-1356v-1249h-561v2920h561v-1191h1356v1191h565z" />
    <glyph glyph-name="Icircumflex" unicode="&#xce;" horiz-adv-x="2916" 
d="M213 1520q0 431 58.5 704.5t196.5 433t375 227.5t619 68q381 0 619 -68t377.5 -228.5t198.5 -432.5t59 -704q0 -497 -58.5 -794.5t-198 -463t-375 -228.5t-622.5 -63q-410 0 -646.5 63.5t-368.5 226t-183 459t-51 800.5zM782 1458q0 -362 25.5 -554t95.5 -290.5
t196.5 -130.5t362.5 -32q239 0 367.5 33.5t197.5 132.5t94 289t25 552q0 369 -28.5 567t-100 294.5t-194.5 125.5t-361 29q-244 0 -367 -29t-193 -126.5t-95 -293.5t-25 -567z" />
    <glyph glyph-name="Icircumflex" unicode="&#x41e;" horiz-adv-x="2916" 
d="M213 1520q0 431 58.5 704.5t196.5 433t375 227.5t619 68q381 0 619 -68t377.5 -228.5t198.5 -432.5t59 -704q0 -497 -58.5 -794.5t-198 -463t-375 -228.5t-622.5 -63q-410 0 -646.5 63.5t-368.5 226t-183 459t-51 800.5zM782 1458q0 -362 25.5 -554t95.5 -290.5
t196.5 -130.5t362.5 -32q239 0 367.5 33.5t197.5 132.5t94 289t25 552q0 369 -28.5 567t-100 294.5t-194.5 125.5t-361 29q-244 0 -367 -29t-193 -126.5t-95 -293.5t-25 -567z" />
    <glyph glyph-name="Idieresis" unicode="&#xcf;" horiz-adv-x="2998" 
d="M2736 2925v-2925h-565v2445h-1356v-2445h-561v2925h2482z" />
    <glyph glyph-name="Idieresis" unicode="&#x41f;" horiz-adv-x="2998" 
d="M2736 2925v-2925h-565v2445h-1356v-2445h-561v2925h2482z" />
    <glyph glyph-name="Eth" unicode="&#xd0;" horiz-adv-x="2703" 
d="M242 0v2925h1245q286 0 483 -41t332.5 -144.5t204.5 -293t69 -484.5q0 -301 -54.5 -495.5t-176 -305.5t-317.5 -157t-496 -46h-729v-958h-561zM803 1425h692q196 0 305.5 41.5t158 146t48.5 300.5q0 212 -49 327t-158.5 162t-304.5 47h-692v-1024z" />
    <glyph glyph-name="Eth" unicode="&#x420;" horiz-adv-x="2703" 
d="M242 0v2925h1245q286 0 483 -41t332.5 -144.5t204.5 -293t69 -484.5q0 -301 -54.5 -495.5t-176 -305.5t-317.5 -157t-496 -46h-729v-958h-561zM803 1425h692q196 0 305.5 41.5t158 146t48.5 300.5q0 212 -49 327t-158.5 162t-304.5 47h-692v-1024z" />
    <glyph glyph-name="Ntilde" unicode="&#xd1;" horiz-adv-x="2712" 
d="M2073 1049h548v-177q0 -337 -121 -533.5t-387 -282t-720 -85.5q-371 0 -601.5 69t-364.5 237t-190.5 462t-56.5 772q0 524 105.5 831.5t369.5 453t738 145.5q362 0 592.5 -60.5t358.5 -182t185.5 -301.5t75.5 -455h-545q-14 229 -72 337t-190 143.5t-405 35.5
q-276 0 -406.5 -69.5t-181.5 -277t-51 -653.5q0 -322 27.5 -516.5t97 -301.5t191 -148t323.5 -41q266 0 410.5 34.5t207 123t62.5 255.5v185z" />
    <glyph glyph-name="Ntilde" unicode="&#x421;" horiz-adv-x="2712" 
d="M2073 1049h548v-177q0 -337 -121 -533.5t-387 -282t-720 -85.5q-371 0 -601.5 69t-364.5 237t-190.5 462t-56.5 772q0 524 105.5 831.5t369.5 453t738 145.5q362 0 592.5 -60.5t358.5 -182t185.5 -301.5t75.5 -455h-545q-14 229 -72 337t-190 143.5t-405 35.5
q-276 0 -406.5 -69.5t-181.5 -277t-51 -653.5q0 -322 27.5 -516.5t97 -301.5t191 -148t323.5 -41q266 0 410.5 34.5t207 123t62.5 255.5v185z" />
    <glyph glyph-name="Ograve" unicode="&#xd2;" horiz-adv-x="2470" 
d="M942 0v2437h-852v488h2282v-484l-865 -4v-2437h-565z" />
    <glyph glyph-name="Ograve" unicode="&#x422;" horiz-adv-x="2470" 
d="M942 0v2437h-852v488h2282v-484l-865 -4v-2437h-565z" />
    <glyph glyph-name="Oacute" unicode="&#xd3;" horiz-adv-x="2728" 
d="M2064 2920l-565 -1466q-68 -191 -115 -422q-29 301 -77 406l-586 1482h-676l1008 -2154q32 -71 32 -123q0 -43 -32 -102q-52 -82 -324 -82h-197v-459h492q231 0 383.5 146t304.5 489l1020 2285h-668z" />
    <glyph glyph-name="Oacute" unicode="&#x423;" horiz-adv-x="2728" 
d="M2064 2920l-565 -1466q-68 -191 -115 -422q-29 301 -77 406l-586 1482h-676l1008 -2154q32 -71 32 -123q0 -43 -32 -102q-52 -82 -324 -82h-197v-459h492q231 0 383.5 146t304.5 489l1020 2285h-668z" />
    <glyph glyph-name="Ocircumflex" unicode="&#xd4;" horiz-adv-x="3944" 
d="M2269 2171v-1368h373q197 0 313.5 68.5t167.5 216.5t51 399q0 367 -120.5 525.5t-415.5 158.5h-369zM1708 328h-299q-289 0 -504 67.5t-357.5 208t-214 360.5t-71.5 523q0 406 126 663.5t382 378.5t651 121h287v275h561v-275h295q387 0 643 -123.5t382 -383t126 -656.5
q0 -306 -70 -525t-211 -359t-356.5 -207.5t-505.5 -67.5h-303v-328h-561v328zM1708 2171h-369q-287 0 -411.5 -160t-124.5 -524q0 -246 54 -396.5t171 -219t311 -68.5h369v1368z" />
    <glyph glyph-name="Ocircumflex" unicode="&#x424;" horiz-adv-x="3944" 
d="M2269 2171v-1368h373q197 0 313.5 68.5t167.5 216.5t51 399q0 367 -120.5 525.5t-415.5 158.5h-369zM1708 328h-299q-289 0 -504 67.5t-357.5 208t-214 360.5t-71.5 523q0 406 126 663.5t382 378.5t651 121h287v275h561v-275h295q387 0 643 -123.5t382 -383t126 -656.5
q0 -306 -70 -525t-211 -359t-356.5 -207.5t-505.5 -67.5h-303v-328h-561v328zM1708 2171h-369q-287 0 -411.5 -160t-124.5 -524q0 -246 54 -396.5t171 -219t311 -68.5h369v1368z" />
    <glyph glyph-name="Otilde" unicode="&#xd5;" horiz-adv-x="2699" 
d="M2671 2920l-865 -1413l930 -1507h-647l-729 1233l-742 -1233h-663l963 1507l-893 1413h655l680 -1159l672 1159h639z" />
    <glyph glyph-name="Otilde" unicode="&#x425;" horiz-adv-x="2699" 
d="M2671 2920l-865 -1413l930 -1507h-647l-729 1233l-742 -1233h-663l963 1507l-893 1413h655l680 -1159l672 1159h639z" />
    <glyph glyph-name="Odieresis" unicode="&#xd6;" horiz-adv-x="3072" 
d="M815 479h1356v2441h565v-2441h266v-1155h-491v676h-2257v2920h561v-2441z" />
    <glyph glyph-name="Odieresis" unicode="&#x426;" horiz-adv-x="3072" 
d="M815 479h1356v2441h565v-2441h266v-1155h-491v676h-2257v2920h561v-2441z" />
    <glyph glyph-name="multiply" unicode="&#xd7;" horiz-adv-x="2843" 
d="M807 2920h-561v-995q0 -331 91.5 -532.5t311.5 -299.5t604 -98q471 0 775 152v-1147h561v2920h-561v-1306q-81 -56 -176 -87t-234 -44t-348 -13q-186 0 -286 43.5t-138.5 135.5t-38.5 256v1015z" />
    <glyph glyph-name="multiply" unicode="&#x427;" horiz-adv-x="2843" 
d="M807 2920h-561v-995q0 -331 91.5 -532.5t311.5 -299.5t604 -98q471 0 775 152v-1147h561v2920h-561v-1306q-81 -56 -176 -87t-234 -44t-348 -13q-186 0 -286 43.5t-138.5 135.5t-38.5 256v1015z" />
    <glyph glyph-name="Oslash" unicode="&#xd8;" horiz-adv-x="4551" 
d="M2433 0h1880v2920h-553v-2441h-1225v2441h-561v-2441h-1220v2441h-561v-2920h2240z" />
    <glyph glyph-name="Oslash" unicode="&#x428;" horiz-adv-x="4551" 
d="M2433 0h1880v2920h-553v-2441h-1225v2441h-561v-2441h-1220v2441h-561v-2920h2240z" />
    <glyph glyph-name="Ugrave" unicode="&#xd9;" horiz-adv-x="4682" 
d="M1999 2920v-2441h-1225v2441h-561v-2920h3899v-676h492v1155h-262v2441h-561v-2441h-1221v2441h-561z" />
    <glyph glyph-name="Ugrave" unicode="&#x429;" horiz-adv-x="4682" 
d="M1999 2920v-2441h-1225v2441h-561v-2920h3899v-676h492v1155h-262v2441h-561v-2441h-1221v2441h-561z" />
    <glyph glyph-name="Uacute" unicode="&#xda;" horiz-adv-x="3047" 
d="M1139 1782h913q404 0 624 -238t220 -659q0 -279 -98 -477.5t-285.5 -303t-452.5 -104.5h-1482v2458h-529v462h1090v-1138zM1139 463h680q270 0 393 89t123 329q0 246 -127.5 342t-388.5 96h-680v-856z" />
    <glyph glyph-name="Uacute" unicode="&#x42a;" horiz-adv-x="3047" 
d="M1139 1782h913q404 0 624 -238t220 -659q0 -279 -98 -477.5t-285.5 -303t-452.5 -104.5h-1482v2458h-529v462h1090v-1138zM1139 463h680q270 0 393 89t123 329q0 246 -127.5 342t-388.5 96h-680v-856z" />
    <glyph glyph-name="Ucircumflex" unicode="&#xdb;" horiz-adv-x="3908" 
d="M266 0v2920h561v-1138h918q404 0 624 -238t220 -659q0 -279 -98 -477.5t-285.5 -303t-452.5 -104.5h-1487zM827 463h684q270 0 393.5 89t123.5 329q0 246 -128.5 342t-388.5 96h-684v-856zM3637 2920v-2920h-561v2920h561z" />
    <glyph glyph-name="Ucircumflex" unicode="&#x42b;" horiz-adv-x="3908" 
d="M266 0v2920h561v-1138h918q404 0 624 -238t220 -659q0 -279 -98 -477.5t-285.5 -303t-452.5 -104.5h-1487zM827 463h684q270 0 393.5 89t123.5 329q0 246 -128.5 342t-388.5 96h-684v-856zM3637 2920v-2920h-561v2920h561z" />
    <glyph glyph-name="Udieresis" unicode="&#xdc;" horiz-adv-x="2753" 
d="M274 0v2920h562v-1138h921q404 0 624 -238t220 -659q0 -279 -98 -477.5t-285.5 -303t-452.5 -104.5h-1491zM836 463h684q180 0 292 35.5t168 127t56 255.5q0 246 -127.5 342t-388.5 96h-684v-856z" />
    <glyph glyph-name="Udieresis" unicode="&#x42c;" horiz-adv-x="2753" 
d="M274 0v2920h562v-1138h921q404 0 624 -238t220 -659q0 -279 -98 -477.5t-285.5 -303t-452.5 -104.5h-1491zM836 463h684q180 0 292 35.5t168 127t56 255.5q0 246 -127.5 342t-388.5 96h-684v-856z" />
    <glyph glyph-name="Yacute" unicode="&#xdd;" horiz-adv-x="2785" 
d="M705 946h-545v-139q0 -288 116.5 -470t386 -272t721.5 -90q391 0 618.5 65t354 230.5t175 458.5t48.5 799q0 411 -55.5 678t-188.5 429t-363 234t-589 72q-467 0 -719 -103.5t-356.5 -315.5t-136.5 -576h533q24 233 79 346t188.5 160t399.5 47q270 0 408 -70.5
t190.5 -246t52.5 -515.5h-1126v-418h1126q0 -259 -29 -418t-99.5 -249.5t-194.5 -127t-328 -36.5q-251 0 -396 42.5t-208 139t-63 264.5v82z" />
    <glyph glyph-name="Yacute" unicode="&#x42d;" horiz-adv-x="2785" 
d="M705 946h-545v-139q0 -288 116.5 -470t386 -272t721.5 -90q391 0 618.5 65t354 230.5t175 458.5t48.5 799q0 411 -55.5 678t-188.5 429t-363 234t-589 72q-467 0 -719 -103.5t-356.5 -315.5t-136.5 -576h533q24 233 79 346t188.5 160t399.5 47q270 0 408 -70.5
t190.5 -246t52.5 -515.5h-1126v-418h1126q0 -259 -29 -418t-99.5 -249.5t-194.5 -127t-328 -36.5q-251 0 -396 42.5t-208 139t-63 264.5v82z" />
    <glyph glyph-name="Thorn" unicode="&#xde;" horiz-adv-x="4067" 
d="M1933 1458q0 -359 26.5 -557t96.5 -295t193.5 -126t359.5 -29q243 2 366.5 31t194.5 125t97 289t26 562q0 371 -26 565.5t-96.5 292t-194.5 127t-367 31.5q-237 0 -360.5 -30t-193 -128.5t-96 -298t-26.5 -559.5zM729 1729h635q21 372 81 596.5t194.5 363.5t367.5 201.5
t602 62.5q384 -2 621.5 -68t376 -223.5t197.5 -431t59 -710.5q0 -497 -59.5 -795.5t-199 -463t-374 -227.5t-621.5 -63q-388 5 -610.5 55.5t-356 182.5t-196 375t-82.5 665h-635v-1253l-561 4v2920h561v-1191z" />
    <glyph glyph-name="Thorn" unicode="&#x42e;" horiz-adv-x="4067" 
d="M1933 1458q0 -359 26.5 -557t96.5 -295t193.5 -126t359.5 -29q243 2 366.5 31t194.5 125t97 289t26 562q0 371 -26 565.5t-96.5 292t-194.5 127t-367 31.5q-237 0 -360.5 -30t-193 -128.5t-96 -298t-26.5 -559.5zM729 1729h635q21 372 81 596.5t194.5 363.5t367.5 201.5
t602 62.5q384 -2 621.5 -68t376 -223.5t197.5 -431t59 -710.5q0 -497 -59.5 -795.5t-199 -463t-374 -227.5t-621.5 -63q-388 5 -610.5 55.5t-356 182.5t-196 375t-82.5 665h-635v-1253l-561 4v2920h561v-1191z" />
    <glyph glyph-name="germandbls" unicode="&#xdf;" horiz-adv-x="2830" 
d="M2572 0v2920h-1429q-942 0 -942 -901q0 -392 145 -593.5t424 -319.5l-672 -1106h672l549 1028h700v-1028h553zM2019 1446h-786q-254 0 -358.5 105t-104.5 345q0 184 40.5 304t134.5 180.5t251 60.5h823v-995z" />
    <glyph glyph-name="germandbls" unicode="&#x42f;" horiz-adv-x="2830" 
d="M2572 0v2920h-1429q-942 0 -942 -901q0 -392 145 -593.5t424 -319.5l-672 -1106h672l549 1028h700v-1028h553zM2019 1446h-786q-254 0 -358.5 105t-104.5 345q0 184 40.5 304t134.5 180.5t251 60.5h823v-995z" />
    <glyph glyph-name="agrave" unicode="&#xe0;" horiz-adv-x="2294" 
d="M1585 0l25 254h-17q-71 -125 -169.5 -187t-213 -79t-284.5 -17q-354 0 -550 145t-196 494q0 241 95.5 380t277.5 195t455 56q277 0 393 -67t172 -179v353q0 246 -93.5 329.5t-349.5 83.5q-151 0 -233 -25.5t-117 -90.5t-35 -187h-491q0 208 63.5 335.5t178 188.5t256 78
t358.5 17q323 0 521.5 -48t313.5 -207t115 -474v-1348h-475zM1573 618q0 121 -43 185.5t-146 91.5t-294 27q-159 0 -250 -28.5t-129.5 -94.5t-38.5 -181q0 -172 88 -239.5t317 -67.5q230 0 363 56t133 251z" />
    <glyph glyph-name="agrave" unicode="&#x430;" horiz-adv-x="2294" 
d="M1585 0l25 254h-17q-71 -125 -169.5 -187t-213 -79t-284.5 -17q-354 0 -550 145t-196 494q0 241 95.5 380t277.5 195t455 56q277 0 393 -67t172 -179v353q0 246 -93.5 329.5t-349.5 83.5q-151 0 -233 -25.5t-117 -90.5t-35 -187h-491q0 208 63.5 335.5t178 188.5t256 78
t358.5 17q323 0 521.5 -48t313.5 -207t115 -474v-1348h-475zM1573 618q0 121 -43 185.5t-146 91.5t-294 27q-159 0 -250 -28.5t-129.5 -94.5t-38.5 -181q0 -172 88 -239.5t317 -67.5q230 0 363 56t133 251z" />
    <glyph glyph-name="aacute" unicode="&#xe1;" horiz-adv-x="2314" 
d="M2134 1028q0 -297 -45.5 -493t-152.5 -320t-297 -184t-480 -60q-280 0 -462 55.5t-293 180t-159 322.5t-48 499v541q0 324 58.5 549.5t172.5 363t284.5 200t401.5 62.5q224 0 314 4q89 4 129.5 19.5t52.5 54.5h344q-17 -184 -116.5 -278.5t-260 -125t-418.5 -30.5
q-295 0 -409.5 -149.5t-114.5 -419.5v-115h20q54 119 198.5 215t354.5 96q345 0 548 -102t290.5 -317.5t87.5 -567.5zM696 1028q0 -295 50.5 -443.5t147.5 -194.5t265 -46q172 0 271 46t151.5 194.5t52.5 443.5q0 245 -48.5 377.5t-149.5 182.5t-277 50q-174 0 -272 -49.5
t-144.5 -181.5t-46.5 -379z" />
    <glyph glyph-name="aacute" unicode="&#x431;" horiz-adv-x="2314" 
d="M2134 1028q0 -297 -45.5 -493t-152.5 -320t-297 -184t-480 -60q-280 0 -462 55.5t-293 180t-159 322.5t-48 499v541q0 324 58.5 549.5t172.5 363t284.5 200t401.5 62.5q224 0 314 4q89 4 129.5 19.5t52.5 54.5h344q-17 -184 -116.5 -278.5t-260 -125t-418.5 -30.5
q-295 0 -409.5 -149.5t-114.5 -419.5v-115h20q54 119 198.5 215t354.5 96q345 0 548 -102t290.5 -317.5t87.5 -567.5zM696 1028q0 -295 50.5 -443.5t147.5 -194.5t265 -46q172 0 271 46t151.5 194.5t52.5 443.5q0 245 -48.5 377.5t-149.5 182.5t-277 50q-174 0 -272 -49.5
t-144.5 -181.5t-46.5 -379z" />
    <glyph glyph-name="acircumflex" unicode="&#xe2;" horiz-adv-x="2105" 
d="M700 893h541q128 0 183 -63.5t55 -211.5q0 -140 -66 -203t-229 -63h-484v541zM225 2044v-2044h1016q729 0 729 561q0 395 -409 471v17q204 74 284 177t80 261q0 195 -71.5 317.5t-221.5 181t-383 58.5h-1024zM700 1196v496h459q158 0 216.5 -58t58.5 -196
q0 -127 -77.5 -184.5t-258.5 -57.5h-398z" />
    <glyph glyph-name="acircumflex" unicode="&#x432;" horiz-adv-x="2105" 
d="M700 893h541q128 0 183 -63.5t55 -211.5q0 -140 -66 -203t-229 -63h-484v541zM225 2044v-2044h1016q729 0 729 561q0 395 -409 471v17q204 74 284 177t80 261q0 195 -71.5 317.5t-221.5 181t-383 58.5h-1024zM700 1196v496h459q158 0 216.5 -58t58.5 -196
q0 -127 -77.5 -184.5t-258.5 -57.5h-398z" />
    <glyph glyph-name="atilde" unicode="&#xe3;" horiz-adv-x="1589" 
d="M1561 1683v361h-1352v-2044h487l-4 1683h869z" />
    <glyph glyph-name="atilde" unicode="&#x433;" horiz-adv-x="1589" 
d="M1561 1683v361h-1352v-2044h487l-4 1683h869z" />
    <glyph glyph-name="adieresis" unicode="&#xe4;" horiz-adv-x="2376" 
d="M238 365q128 116 186.5 324t58.5 573v790h1594v-1687h241v-918h-426v553h-1417v-553h-426v918h189zM1589 365v1318h-643v-475q0 -673 -217 -843h860z" />
    <glyph glyph-name="adieresis" unicode="&#x434;" horiz-adv-x="2376" 
d="M238 365q128 116 186.5 324t58.5 573v790h1594v-1687h241v-918h-426v553h-1417v-553h-426v918h189zM1589 365v1318h-643v-475q0 -673 -217 -843h860z" />
    <glyph glyph-name="aring" unicode="&#xe5;" horiz-adv-x="2216" 
d="M1561 651h483v-78q0 -246 -113.5 -378t-315 -178t-517.5 -46q-353 0 -554.5 98t-288.5 323t-87 624t89 628.5t292 331t557 101.5q348 0 553.5 -103.5t295 -324t89.5 -584.5v-127h-1385q0 -254 39 -385t133 -180t275 -49q248 0 351.5 59.5t103.5 230.5v37zM1569 1241
q0 269 -101 374t-358 105q-258 0 -354.5 -104t-96.5 -375h910z" />
    <glyph glyph-name="aring" unicode="&#x435;" horiz-adv-x="2216" 
d="M1561 651h483v-78q0 -246 -113.5 -378t-315 -178t-517.5 -46q-353 0 -554.5 98t-288.5 323t-87 624t89 628.5t292 331t557 101.5q348 0 553.5 -103.5t295 -324t89.5 -584.5v-127h-1385q0 -254 39 -385t133 -180t275 -49q248 0 351.5 59.5t103.5 230.5v37zM1569 1241
q0 269 -101 374t-358 105q-258 0 -354.5 -104t-96.5 -375h910z" />
    <glyph glyph-name="ae" unicode="&#xe6;" horiz-adv-x="3219" 
d="M1368 0h475v905h123l614 -905h566l-766 1081l647 963h-545l-516 -799h-123v799h-475v-799h-123l-516 799h-545l647 -963l-765 -1081h565l614 905h123v-905z" />
    <glyph glyph-name="ae" unicode="&#x436;" horiz-adv-x="3219" 
d="M1368 0h475v905h123l614 -905h566l-766 1081l647 963h-545l-516 -799h-123v799h-475v-799h-123l-516 799h-545l647 -963l-765 -1081h565l614 905h123v-905z" />
    <glyph glyph-name="ccedilla" unicode="&#xe7;" horiz-adv-x="2105" 
d="M733 1249l279 -4q264 0 355 55t91 187q0 138 -85 198t-304 60q-145 0 -230 -19.5t-131.5 -80t-52.5 -179.5h-479q16 260 116 393.5t281.5 179.5t491.5 46q398 0 635 -117.5t237 -398.5q0 -131 -29.5 -226.5t-108.5 -162.5t-226 -99q225 -38 309 -166t84 -325
q0 -356 -228.5 -487.5t-664.5 -131.5q-500 0 -725 130t-225 431v115h483q0 -104 21 -167.5t72.5 -101t138 -52.5t231.5 -15q225 0 323.5 77t98.5 230q0 171 -101.5 247.5t-381.5 76.5h-275v307z" />
    <glyph glyph-name="ccedilla" unicode="&#x437;" horiz-adv-x="2105" 
d="M733 1249l279 -4q264 0 355 55t91 187q0 138 -85 198t-304 60q-145 0 -230 -19.5t-131.5 -80t-52.5 -179.5h-479q16 260 116 393.5t281.5 179.5t491.5 46q398 0 635 -117.5t237 -398.5q0 -131 -29.5 -226.5t-108.5 -162.5t-226 -99q225 -38 309 -166t84 -325
q0 -356 -228.5 -487.5t-664.5 -131.5q-500 0 -725 130t-225 431v115h483q0 -104 21 -167.5t72.5 -101t138 -52.5t231.5 -15q225 0 323.5 77t98.5 230q0 171 -101.5 247.5t-381.5 76.5h-275v307z" />
    <glyph glyph-name="egrave" unicode="&#xe8;" horiz-adv-x="2318" 
d="M233 2044v-2044h594l672 1274q48 93 217 455q-29 -90 -61.5 -281t-32.5 -322v-1126h463v2044h-594l-672 -1286l-58 -116.5l-61 -129l-98 -209.5q30 86 62 255t32 298v1188h-463z" />
    <glyph glyph-name="egrave" unicode="&#x438;" horiz-adv-x="2318" 
d="M233 2044v-2044h594l672 1274q48 93 217 455q-29 -90 -61.5 -281t-32.5 -322v-1126h463v2044h-594l-672 -1286l-58 -116.5l-61 -129l-98 -209.5q30 86 62 255t32 298v1188h-463z" />
    <glyph glyph-name="eacute" unicode="&#xe9;" horiz-adv-x="2290" 
d="M205 2044v-2044h598l667 1274q77 149 222 455q-31 -83 -65 -280.5t-34 -322.5v-1126h467v2044h-598l-667 -1286q-50 -90 -222 -455q30 79 62.5 249t32.5 304v1188h-463zM1130 2191q-256 0 -402 92t-146 326h307q0 -176 246 -176q254 0 254 176h331q0 -418 -590 -418z" />
    <glyph glyph-name="eacute" unicode="&#x439;" horiz-adv-x="2290" 
d="M205 2044v-2044h598l667 1274q77 149 222 455q-31 -83 -65 -280.5t-34 -322.5v-1126h467v2044h-598l-667 -1286q-50 -90 -222 -455q30 79 62.5 249t32.5 304v1188h-463zM1130 2191q-256 0 -402 92t-146 326h307q0 -176 246 -176q254 0 254 176h331q0 -418 -590 -418z" />
    <glyph glyph-name="ecircumflex" unicode="&#xea;" horiz-adv-x="2183" 
d="M729 2044v-795h115l577 795h553l-725 -963l873 -1081h-594l-684 909h-115v-909h-487v2044h487z" />
    <glyph glyph-name="ecircumflex" unicode="&#x43a;" horiz-adv-x="2183" 
d="M729 2044v-795h115l577 795h553l-725 -963l873 -1081h-594l-684 909h-115v-909h-487v2044h487z" />
    <glyph glyph-name="edieresis" unicode="&#xeb;" horiz-adv-x="2318" 
d="M2105 0h-487v1683h-713v-1056q0 -194 -58 -339.5t-181 -226.5t-306 -81q-172 0 -262 20v340q153 0 219.5 23t87.5 83.5t21 192.5v1413h1679v-2052z" />
    <glyph glyph-name="edieresis" unicode="&#x43b;" horiz-adv-x="2318" 
d="M2105 0h-487v1683h-713v-1056q0 -194 -58 -339.5t-181 -226.5t-306 -81q-172 0 -262 20v340q153 0 219.5 23t87.5 83.5t21 192.5v1413h1679v-2052z" />
    <glyph glyph-name="igrave" unicode="&#xec;" horiz-adv-x="3035" 
d="M1761 0l410 1233q181 512 196 565q-49 -294 -49 -524v-1274h463v2044h-737l-459 -1372q-20 -59 -61 -340q-48 304 -62 340l-458 1372h-738v-2044h467v1274q0 195 -49 524q27 -106 193 -565l409 -1233h475z" />
    <glyph glyph-name="igrave" unicode="&#x43c;" horiz-adv-x="3035" 
d="M1761 0l410 1233q181 512 196 565q-49 -294 -49 -524v-1274h463v2044h-737l-459 -1372q-20 -59 -61 -340q-48 304 -62 340l-458 1372h-738v-2044h467v1274q0 195 -49 524q27 -106 193 -565l409 -1233h475z" />
    <glyph glyph-name="iacute" unicode="&#xed;" horiz-adv-x="2228" 
d="M688 889h864v-889h484v2044h-484v-791h-864v791h-487v-2044h487v889z" />
    <glyph glyph-name="iacute" unicode="&#x43d;" horiz-adv-x="2228" 
d="M688 889h864v-889h484v2044h-484v-791h-864v791h-487v-2044h487v889z" />
    <glyph glyph-name="icircumflex" unicode="&#xee;" horiz-adv-x="2314" 
d="M197 1028q0 302 47 500.5t156 318.5t293 174t466 56q375 0 586 -98.5t300 -324t89 -626.5q0 -399 -89 -626t-300.5 -328t-585.5 -103q-282 0 -465.5 56t-293 179.5t-156.5 322.5t-47 499zM696 1028q0 -212 24.5 -346.5t77 -205.5t138 -100t223.5 -32q187 0 286 53.5
t144 200t45 430.5q0 279 -45 423t-145 195.5t-285 53.5q-136 0 -222 -26.5t-138.5 -97t-77.5 -205t-25 -343.5z" />
    <glyph glyph-name="icircumflex" unicode="&#x43e;" horiz-adv-x="2314" 
d="M197 1028q0 302 47 500.5t156 318.5t293 174t466 56q375 0 586 -98.5t300 -324t89 -626.5q0 -399 -89 -626t-300.5 -328t-585.5 -103q-282 0 -465.5 56t-293 179.5t-156.5 322.5t-47 499zM696 1028q0 -212 24.5 -346.5t77 -205.5t138 -100t223.5 -32q187 0 286 53.5
t144 200t45 430.5q0 279 -45 423t-145 195.5t-285 53.5q-136 0 -222 -26.5t-138.5 -97t-77.5 -205t-25 -343.5z" />
    <glyph glyph-name="idieresis" unicode="&#xef;" horiz-adv-x="2281" 
d="M713 1683h864v-1683h487v2044h-1835v-2044h484v1683z" />
    <glyph glyph-name="idieresis" unicode="&#x43f;" horiz-adv-x="2281" 
d="M713 1683h864v-1683h487v2044h-1835v-2044h484v1683z" />
    <glyph glyph-name="eth" unicode="&#xf0;" horiz-adv-x="2310" 
d="M705 2044l-21 -287h16q116 181 260 250.5t367 69.5q332 0 509.5 -119.5t239.5 -342t62 -579.5q0 -262 -24 -441t-101 -321t-234.5 -222.5t-418.5 -80.5q-157 0 -271.5 22.5t-206 90.5t-161.5 195v-1143h-488v2908h472zM721 1077q0 -305 30 -451.5t128 -210t309 -63.5
q208 0 304.5 76.5t121 218.5t24.5 418q0 283 -36.5 413.5t-127 174t-278.5 43.5q-194 0 -294 -50t-140.5 -181.5t-40.5 -387.5z" />
    <glyph glyph-name="eth" unicode="&#x440;" horiz-adv-x="2310" 
d="M705 2044l-21 -287h16q116 181 260 250.5t367 69.5q332 0 509.5 -119.5t239.5 -342t62 -579.5q0 -262 -24 -441t-101 -321t-234.5 -222.5t-418.5 -80.5q-157 0 -271.5 22.5t-206 90.5t-161.5 195v-1143h-488v2908h472zM721 1077q0 -305 30 -451.5t128 -210t309 -63.5
q208 0 304.5 76.5t121 218.5t24.5 418q0 283 -36.5 413.5t-127 174t-278.5 43.5q-194 0 -294 -50t-140.5 -181.5t-40.5 -387.5z" />
    <glyph glyph-name="ntilde" unicode="&#xf1;" horiz-adv-x="2228" 
d="M1573 774h479q0 -298 -86.5 -472t-286.5 -252.5t-544 -78.5q-357 0 -561.5 98.5t-292.5 325.5t-88 625q0 403 88 632t291 327t563 98q261 0 456.5 -57t313.5 -207t127 -412q0 -53 -13 -74h-450q-8 8 -8 33q-16 148 -55 218.5t-123.5 96t-247.5 25.5q-174 0 -269 -60
t-134.5 -206t-39.5 -414q0 -262 39.5 -408t135 -207t268.5 -61q191 0 284 40.5t123.5 129t30.5 260.5z" />
    <glyph glyph-name="ntilde" unicode="&#x441;" horiz-adv-x="2228" 
d="M1573 774h479q0 -298 -86.5 -472t-286.5 -252.5t-544 -78.5q-357 0 -561.5 98.5t-292.5 325.5t-88 625q0 403 88 632t291 327t563 98q261 0 456.5 -57t313.5 -207t127 -412q0 -53 -13 -74h-450q-8 8 -8 33q-16 148 -55 218.5t-123.5 96t-247.5 25.5q-174 0 -269 -60
t-134.5 -206t-39.5 -414q0 -262 39.5 -408t135 -207t268.5 -61q191 0 284 40.5t123.5 129t30.5 260.5z" />
    <glyph glyph-name="ograve" unicode="&#xf2;" horiz-adv-x="1982" 
d="M754 0h487v1683h655v361h-1798v-361h656v-1683z" />
    <glyph glyph-name="ograve" unicode="&#x442;" horiz-adv-x="1982" 
d="M754 0h487v1683h655v361h-1798v-361h656v-1683z" />
    <glyph glyph-name="oacute" unicode="&#xf3;" horiz-adv-x="2036" 
d="M1991 2044l-545 -2171q-90 -362 -166 -522t-199.5 -214.5t-375.5 -54.5q-90 0 -242 37v336q55 -12 123 -12q138 0 203 33t104.5 144t85.5 380h-246l-676 2044h508l520 -1737l402 1737h504z" />
    <glyph glyph-name="oacute" unicode="&#x443;" horiz-adv-x="2036" 
d="M1991 2044l-545 -2171q-90 -362 -166 -522t-199.5 -214.5t-375.5 -54.5q-90 0 -242 37v336q55 -12 123 -12q138 0 203 33t104.5 144t85.5 380h-246l-676 2044h508l520 -1737l402 1737h504z" />
    <glyph glyph-name="ocircumflex" unicode="&#xf4;" horiz-adv-x="3363" 
d="M1028 1679q-173 -2 -254 -51.5t-110 -185.5t-29 -434q0 -219 13 -341t53.5 -197t119.5 -106.5t215 -31.5q182 0 265 58.5t108 195.5t25 422q0 298 -29 434t-112 185.5t-265 51.5zM1434 -872v1130q-96 -187 -217 -245t-332 -58q-275 0 -436.5 114.5t-231.5 353t-70 630.5
q0 303 45.5 497t138.5 305.5t233 156t345 44.5q379 0 525 -287v1143h491v-1143q136 287 516 287q206 0 346.5 -44.5t233 -156t137.5 -305.5t45 -497q0 -295 -38.5 -499.5t-123 -336.5t-226 -197t-349.5 -65q-211 0 -329.5 57.5t-211.5 245.5v-1130h-491zM2322 1679
q-181 -2 -262.5 -51.5t-108 -184.5t-26.5 -435q0 -289 23 -424t104.5 -193.5t261.5 -58.5q183 0 267.5 58.5t109.5 195.5t25 422q0 298 -28.5 433.5t-110.5 185.5t-255 52z" />
    <glyph glyph-name="ocircumflex" unicode="&#x444;" horiz-adv-x="3363" 
d="M1028 1679q-173 -2 -254 -51.5t-110 -185.5t-29 -434q0 -219 13 -341t53.5 -197t119.5 -106.5t215 -31.5q182 0 265 58.5t108 195.5t25 422q0 298 -29 434t-112 185.5t-265 51.5zM1434 -872v1130q-96 -187 -217 -245t-332 -58q-275 0 -436.5 114.5t-231.5 353t-70 630.5
q0 303 45.5 497t138.5 305.5t233 156t345 44.5q379 0 525 -287v1143h491v-1143q136 287 516 287q206 0 346.5 -44.5t233 -156t137.5 -305.5t45 -497q0 -295 -38.5 -499.5t-123 -336.5t-226 -197t-349.5 -65q-211 0 -329.5 57.5t-211.5 245.5v-1130h-491zM2322 1679
q-181 -2 -262.5 -51.5t-108 -184.5t-26.5 -435q0 -289 23 -424t104.5 -193.5t261.5 -58.5q183 0 267.5 58.5t109.5 195.5t25 422q0 298 -28.5 433.5t-110.5 185.5t-255 52z" />
    <glyph glyph-name="otilde" unicode="&#xf5;" horiz-adv-x="2089" 
d="M1978 2044l-594 -971l660 -1073h-578l-409 750l-410 -750h-586l676 1073l-598 971h561l357 -655l352 655h569z" />
    <glyph glyph-name="otilde" unicode="&#x445;" horiz-adv-x="2089" 
d="M1978 2044l-594 -971l660 -1073h-578l-409 750l-410 -750h-586l676 1073l-598 971h561l357 -655l352 655h569z" />
    <glyph glyph-name="odieresis" unicode="&#xf6;" horiz-adv-x="2392" 
d="M729 365h860v1679h488v-1679h241v-918h-426v553h-1650v2044h487v-1679z" />
    <glyph glyph-name="odieresis" unicode="&#x446;" horiz-adv-x="2392" 
d="M729 365h860v1679h488v-1679h241v-918h-426v553h-1650v2044h487v-1679z" />
    <glyph glyph-name="divide" unicode="&#xf7;" horiz-adv-x="2159" 
d="M1970 0v2044h-491v-684q0 -173 -95 -236t-340 -63q-168 0 -251.5 25.5t-114.5 86.5t-31 179v692h-483v-713q0 -220 76.5 -360.5t234.5 -207.5t406 -67q251 0 396 63t202 212v-971h491z" />
    <glyph glyph-name="divide" unicode="&#x447;" horiz-adv-x="2159" 
d="M1970 0v2044h-491v-684q0 -173 -95 -236t-340 -63q-168 0 -251.5 25.5t-114.5 86.5t-31 179v692h-483v-713q0 -220 76.5 -360.5t234.5 -207.5t406 -67q251 0 396 63t202 212v-971h491z" />
    <glyph glyph-name="oslash" unicode="&#xf8;" horiz-adv-x="3576" 
d="M729 365v1679h-487v-2044h3088v2044h-487v-1679h-815v1679h-488v-1679h-811z" />
    <glyph glyph-name="oslash" unicode="&#x448;" horiz-adv-x="3576" 
d="M729 365v1679h-487v-2044h3088v2044h-487v-1679h-815v1679h-488v-1679h-811z" />
    <glyph glyph-name="ugrave" unicode="&#xf9;" horiz-adv-x="3690" 
d="M242 2044h487v-1679h811v1679h488v-1679h815v1679h487v-1679h242v-918h-426v553h-2904v2044z" />
    <glyph glyph-name="ugrave" unicode="&#x449;" horiz-adv-x="3690" 
d="M242 2044h487v-1679h811v1679h488v-1679h815v1679h487v-1679h242v-918h-426v553h-2904v2044z" />
    <glyph glyph-name="uacute" unicode="&#xfa;" horiz-adv-x="2404" 
d="M545 2044h-488v-348h488v-1696h1065q282 0 458.5 166t176.5 481q0 318 -161.5 476.5t-445.5 158.5h-606v762h-487zM1032 930h426q152 0 223.5 -65t71.5 -218q0 -155 -71.5 -223t-223.5 -68h-426v574z" />
    <glyph glyph-name="uacute" unicode="&#x44a;" horiz-adv-x="2404" 
d="M545 2044h-488v-348h488v-1696h1065q282 0 458.5 166t176.5 481q0 318 -161.5 476.5t-445.5 158.5h-606v762h-487zM1032 930h426q152 0 223.5 -65t71.5 -218q0 -155 -71.5 -223t-223.5 -68h-426v574z" />
    <glyph glyph-name="ucircumflex" unicode="&#xfb;" horiz-adv-x="2912" 
d="M213 2044v-2044h1065q284 0 459.5 165.5t175.5 481.5q0 317 -162 476t-444 159h-607v762h-487zM700 930h430q152 0 221.5 -64.5t69.5 -218.5q0 -155 -70 -223t-221 -68h-430v574zM2712 2044v-2044h-488v2044h488z" />
    <glyph glyph-name="ucircumflex" unicode="&#x44b;" horiz-adv-x="2912" 
d="M213 2044v-2044h1065q284 0 459.5 165.5t175.5 481.5q0 317 -162 476t-444 159h-607v762h-487zM700 930h430q152 0 221.5 -64.5t69.5 -218.5q0 -155 -70 -223t-221 -68h-430v574zM2712 2044v-2044h-488v2044h488z" />
    <glyph glyph-name="udieresis" unicode="&#xfc;" horiz-adv-x="2077" 
d="M217 2044v-2044h1065q284 0 459.5 165.5t175.5 481.5q0 317 -161 476t-445 159h-606v762h-488zM705 930h430q152 0 221 -65t69 -218q0 -155 -69 -223t-221 -68h-430v574z" />
    <glyph glyph-name="udieresis" unicode="&#x44c;" horiz-adv-x="2077" 
d="M217 2044v-2044h1065q284 0 459.5 165.5t175.5 481.5q0 317 -161 476t-445 159h-606v762h-488zM705 930h430q152 0 221 -65t69 -218q0 -155 -69 -223t-221 -68h-430v574z" />
    <glyph glyph-name="yacute" unicode="&#xfd;" horiz-adv-x="2200" 
d="M651 651h-471q0 -170 47.5 -294.5t154.5 -210.5t281.5 -130.5t430.5 -44.5q383 0 578.5 102t269 340t73.5 685q0 291 -51.5 479t-160 297t-280.5 156t-429 47q-438 0 -669 -140t-249 -503h479q22 174 122 238.5t317 64.5q182 0 277 -48t130 -162t35 -327h-774v-303h774
q0 -218 -30 -340t-124.5 -184t-287.5 -62q-268 0 -355.5 94t-87.5 246z" />
    <glyph glyph-name="yacute" unicode="&#x44d;" horiz-adv-x="2200" 
d="M651 651h-471q0 -170 47.5 -294.5t154.5 -210.5t281.5 -130.5t430.5 -44.5q383 0 578.5 102t269 340t73.5 685q0 291 -51.5 479t-160 297t-280.5 156t-429 47q-438 0 -669 -140t-249 -503h479q22 174 122 238.5t317 64.5q182 0 277 -48t130 -162t35 -327h-774v-303h774
q0 -218 -30 -340t-124.5 -184t-287.5 -62q-268 0 -355.5 94t-87.5 246z" />
    <glyph glyph-name="thorn" unicode="&#xfe;" horiz-adv-x="3125" 
d="M1540 1028q0 -212 24.5 -345.5t77.5 -205.5t139 -101t226 -32q184 0 283 53.5t143.5 200.5t44.5 430q0 278 -44.5 422.5t-144.5 196t-282 53.5q-138 0 -224.5 -26.5t-140 -98t-78 -205t-24.5 -342.5zM1044 885h-331v-889h-488v2044h488v-791h331q19 271 107.5 451.5
t294 278.5t561.5 98q376 0 585.5 -98t297.5 -324.5t88 -626.5q0 -301 -47.5 -499t-158 -322t-295.5 -180t-470 -56q-363 0 -566.5 98t-290.5 294.5t-106 521.5z" />
    <glyph glyph-name="thorn" unicode="&#x44e;" horiz-adv-x="3125" 
d="M1540 1028q0 -212 24.5 -345.5t77.5 -205.5t139 -101t226 -32q184 0 283 53.5t143.5 200.5t44.5 430q0 278 -44.5 422.5t-144.5 196t-282 53.5q-138 0 -224.5 -26.5t-140 -98t-78 -205t-24.5 -342.5zM1044 885h-331v-889h-488v2044h488v-791h331q19 271 107.5 451.5
t294 278.5t561.5 98q376 0 585.5 -98t297.5 -324.5t88 -626.5q0 -301 -47.5 -499t-158 -322t-295.5 -180t-470 -56q-363 0 -566.5 98t-290.5 294.5t-106 521.5z" />
    <glyph glyph-name="ydieresis" unicode="&#xff;" horiz-adv-x="2105" 
d="M1937 0v2044h-1073q-300 0 -508.5 -167.5t-208.5 -508.5q0 -234 133 -387t306 -219l-467 -762h520l373 688h438v-688h487zM1450 1692v-676h-446q-162 0 -265.5 81t-103.5 246q0 168 80.5 258.5t230.5 90.5h504z" />
    <glyph glyph-name="ydieresis" unicode="&#x44f;" horiz-adv-x="2105" 
d="M1937 0v2044h-1073q-300 0 -508.5 -167.5t-208.5 -508.5q0 -234 133 -387t306 -219l-467 -762h520l373 688h438v-688h487zM1450 1692v-676h-446q-162 0 -265.5 81t-103.5 246q0 168 80.5 258.5t230.5 90.5h504z" />
    <glyph glyph-name="florin" unicode="&#x192;" horiz-adv-x="2748" 
d="M1729 1827l-308 -1761q-44 -283 -133 -428t-253 -200.5t-453 -55.5q-189 0 -279 4l66 372q13 -1 39 -4t52 -5.5t40 -2.5q142 0 220 25t120 91.5t65 203.5l312 1761h-349l66 364h344q69 388 102.5 531.5t117 269t251 191t459.5 65.5q159 0 233 -8l-65 -377q-98 16 -148 16
q-143 0 -221.5 -52t-113.5 -140.5t-51.5 -201l-43.5 -294.5h459l-66 -364h-462z" />
    <glyph glyph-name="quotesinglbase" unicode="&#x201a;" horiz-adv-x="983" 
d="M729 524v-512q0 -193 -37 -301t-139 -157.5t-303 -49.5q-37 0 -53 4v230q126 3 181.5 44t55.5 157q0 10 -2 31t-2 30h-192v524h491z" />
    <glyph glyph-name="quotedblbase" unicode="&#x201e;" horiz-adv-x="1651" 
d="M729 586v-512q0 -194 -37 -301.5t-139.5 -157t-302.5 -49.5q-37 0 -53 4v229q126 3 181.5 44t55.5 157q0 10 -2 31t-2 30h-192v525h491zM1475 586v-512q0 -194 -37.5 -301.5t-140 -157t-302.5 -49.5q-37 0 -53 4v229q125 3 181.5 44t56.5 157q0 10 -2 31t-2 30h-193v525
h492z" />
    <glyph glyph-name="ellipsis" unicode="&#x2026;" horiz-adv-x="2777" 
d="M705 532v-532h-488v532h488zM1634 532v-532h-491v532h491zM2560 532v-532h-487v532h487z" />
    <glyph glyph-name="trademark" unicode="&#x2122;" horiz-adv-x="3727" 
d="M565 1638v1463h-512v290h1368v-286l-516 -4v-1463h-340zM3695 3391v-1753h-332v1479l-553 -1479h-299l-549 1467v-1467h-332v1753h549l471 -1302h12l467 1302h566z" />
    <glyph glyph-name="nonbreakingspace" unicode="&#xa0;" horiz-adv-x="0" 
 />
  </font>
</defs>
</svg>
